G04 EAGLE Gerber RS-274X export*
G75*
%MOMM*%
%FSLAX34Y34*%
%LPD*%
%INTop Copper*%
%IPPOS*%
%AMOC8*
5,1,8,0,0,1.08239X$1,22.5*%
G01*
%ADD10R,0.800000X1.200000*%
%ADD11C,0.300000*%
%ADD12R,0.279400X1.473200*%
%ADD13C,1.930400*%
%ADD14C,1.879600*%
%ADD15C,0.152400*%
%ADD16C,0.685800*%

G36*
X495448Y-6186D02*
X495448Y-6186D01*
X495467Y-6188D01*
X495569Y-6166D01*
X495671Y-6150D01*
X495688Y-6140D01*
X495708Y-6136D01*
X495797Y-6083D01*
X495888Y-6034D01*
X495902Y-6020D01*
X495919Y-6010D01*
X495986Y-5931D01*
X496058Y-5856D01*
X496066Y-5838D01*
X496079Y-5823D01*
X496118Y-5727D01*
X496161Y-5633D01*
X496163Y-5613D01*
X496171Y-5595D01*
X496189Y-5428D01*
X496189Y485428D01*
X496186Y485448D01*
X496188Y485467D01*
X496166Y485569D01*
X496150Y485671D01*
X496140Y485688D01*
X496136Y485708D01*
X496083Y485797D01*
X496034Y485888D01*
X496020Y485902D01*
X496010Y485919D01*
X495931Y485986D01*
X495856Y486058D01*
X495838Y486066D01*
X495823Y486079D01*
X495727Y486118D01*
X495633Y486161D01*
X495613Y486163D01*
X495595Y486171D01*
X495428Y486189D01*
X248878Y486189D01*
X248808Y486178D01*
X248736Y486176D01*
X248687Y486158D01*
X248636Y486150D01*
X248572Y486116D01*
X248505Y486091D01*
X248464Y486059D01*
X248418Y486034D01*
X248369Y485983D01*
X248313Y485938D01*
X248285Y485894D01*
X248249Y485856D01*
X248219Y485791D01*
X248180Y485731D01*
X248167Y485680D01*
X248145Y485633D01*
X248137Y485562D01*
X248120Y485492D01*
X248124Y485440D01*
X248118Y485389D01*
X248133Y485318D01*
X248139Y485247D01*
X248159Y485199D01*
X248170Y485148D01*
X248207Y485087D01*
X248235Y485021D01*
X248280Y484965D01*
X248297Y484937D01*
X248314Y484922D01*
X248340Y484890D01*
X261015Y472215D01*
X261080Y472168D01*
X261139Y472115D01*
X261179Y472097D01*
X261215Y472071D01*
X261291Y472048D01*
X261364Y472016D01*
X261408Y472012D01*
X261450Y471999D01*
X261530Y472001D01*
X261609Y471994D01*
X261652Y472004D01*
X261696Y472005D01*
X261771Y472032D01*
X261848Y472051D01*
X261885Y472074D01*
X261927Y472090D01*
X261989Y472139D01*
X262056Y472181D01*
X262096Y472225D01*
X262119Y472243D01*
X262134Y472267D01*
X262169Y472305D01*
X263094Y473578D01*
X264422Y474906D01*
X265943Y476011D01*
X267617Y476864D01*
X269404Y477445D01*
X270677Y477646D01*
X270677Y466562D01*
X270680Y466542D01*
X270678Y466523D01*
X270700Y466421D01*
X270717Y466319D01*
X270726Y466302D01*
X270730Y466282D01*
X270783Y466193D01*
X270832Y466102D01*
X270846Y466088D01*
X270856Y466071D01*
X270935Y466004D01*
X271010Y465933D01*
X271028Y465924D01*
X271043Y465911D01*
X271139Y465873D01*
X271233Y465829D01*
X271253Y465827D01*
X271271Y465819D01*
X271438Y465801D01*
X272201Y465801D01*
X272201Y465799D01*
X271438Y465799D01*
X271418Y465796D01*
X271399Y465798D01*
X271297Y465776D01*
X271195Y465759D01*
X271178Y465750D01*
X271158Y465746D01*
X271069Y465693D01*
X270978Y465644D01*
X270964Y465630D01*
X270947Y465620D01*
X270880Y465541D01*
X270809Y465466D01*
X270800Y465448D01*
X270787Y465433D01*
X270748Y465337D01*
X270705Y465243D01*
X270703Y465223D01*
X270695Y465205D01*
X270677Y465038D01*
X270677Y453724D01*
X270692Y453634D01*
X270699Y453543D01*
X270711Y453514D01*
X270717Y453482D01*
X270759Y453401D01*
X270795Y453317D01*
X270821Y453285D01*
X270832Y453264D01*
X270855Y453242D01*
X270900Y453186D01*
X272540Y451546D01*
X272614Y451493D01*
X272684Y451433D01*
X272714Y451421D01*
X272740Y451402D01*
X272827Y451375D01*
X272912Y451341D01*
X272953Y451337D01*
X272975Y451330D01*
X273007Y451331D01*
X273078Y451323D01*
X274373Y451323D01*
X278387Y449660D01*
X281460Y446587D01*
X283123Y442573D01*
X283123Y438231D01*
X283137Y438140D01*
X283145Y438050D01*
X283157Y438020D01*
X283162Y437988D01*
X283205Y437907D01*
X283241Y437823D01*
X283267Y437791D01*
X283278Y437770D01*
X283301Y437748D01*
X283346Y437692D01*
X305563Y415475D01*
X305563Y407485D01*
X250922Y352844D01*
X250869Y352770D01*
X250809Y352700D01*
X250797Y352670D01*
X250778Y352644D01*
X250751Y352557D01*
X250717Y352472D01*
X250713Y352431D01*
X250706Y352409D01*
X250707Y352377D01*
X250699Y352305D01*
X250699Y348647D01*
X250718Y348531D01*
X250736Y348412D01*
X250738Y348409D01*
X250738Y348404D01*
X250794Y348300D01*
X250849Y348194D01*
X250852Y348191D01*
X250854Y348187D01*
X250939Y348106D01*
X251025Y348022D01*
X251029Y348021D01*
X251032Y348018D01*
X251139Y347968D01*
X251247Y347916D01*
X251251Y347916D01*
X251255Y347914D01*
X251373Y347901D01*
X251491Y347887D01*
X251496Y347887D01*
X251499Y347887D01*
X251513Y347890D01*
X251657Y347912D01*
X252138Y348041D01*
X254647Y348041D01*
X254647Y341262D01*
X254650Y341242D01*
X254648Y341223D01*
X254670Y341121D01*
X254687Y341019D01*
X254696Y341002D01*
X254700Y340982D01*
X254753Y340893D01*
X254802Y340802D01*
X254816Y340788D01*
X254826Y340771D01*
X254905Y340704D01*
X254980Y340633D01*
X254998Y340624D01*
X255013Y340611D01*
X255109Y340572D01*
X255203Y340529D01*
X255223Y340527D01*
X255241Y340519D01*
X255408Y340501D01*
X256171Y340501D01*
X256171Y340499D01*
X255408Y340499D01*
X255388Y340496D01*
X255369Y340498D01*
X255267Y340476D01*
X255165Y340459D01*
X255148Y340450D01*
X255128Y340446D01*
X255039Y340393D01*
X254948Y340344D01*
X254934Y340330D01*
X254917Y340320D01*
X254850Y340241D01*
X254779Y340166D01*
X254770Y340148D01*
X254757Y340133D01*
X254718Y340037D01*
X254675Y339943D01*
X254673Y339923D01*
X254665Y339905D01*
X254647Y339738D01*
X254647Y332959D01*
X252138Y332959D01*
X251657Y333088D01*
X251538Y333100D01*
X251421Y333113D01*
X251416Y333112D01*
X251412Y333113D01*
X251297Y333086D01*
X251180Y333061D01*
X251177Y333059D01*
X251173Y333058D01*
X251071Y332996D01*
X250969Y332935D01*
X250966Y332931D01*
X250963Y332929D01*
X250887Y332839D01*
X250809Y332748D01*
X250808Y332744D01*
X250805Y332741D01*
X250762Y332632D01*
X250717Y332520D01*
X250717Y332515D01*
X250715Y332512D01*
X250715Y332498D01*
X250699Y332353D01*
X250699Y294132D01*
X250702Y294112D01*
X250700Y294093D01*
X250722Y293991D01*
X250738Y293889D01*
X250748Y293872D01*
X250752Y293852D01*
X250805Y293763D01*
X250854Y293672D01*
X250868Y293658D01*
X250878Y293641D01*
X250957Y293574D01*
X251032Y293502D01*
X251050Y293494D01*
X251065Y293481D01*
X251161Y293442D01*
X251255Y293399D01*
X251275Y293397D01*
X251293Y293389D01*
X251460Y293371D01*
X262989Y293371D01*
X263083Y293386D01*
X263178Y293395D01*
X263204Y293406D01*
X263232Y293410D01*
X263316Y293455D01*
X263404Y293493D01*
X263425Y293512D01*
X263449Y293526D01*
X263515Y293595D01*
X263586Y293659D01*
X263599Y293683D01*
X263619Y293704D01*
X263659Y293790D01*
X263705Y293874D01*
X263711Y293901D01*
X263722Y293927D01*
X263733Y294022D01*
X263750Y294115D01*
X263746Y294143D01*
X263750Y294171D01*
X263729Y294265D01*
X263716Y294359D01*
X263702Y294391D01*
X263697Y294412D01*
X263680Y294440D01*
X263649Y294513D01*
X263431Y294889D01*
X263258Y295535D01*
X263258Y295938D01*
X263244Y296029D01*
X263236Y296119D01*
X263224Y296149D01*
X263219Y296181D01*
X263176Y296262D01*
X263140Y296346D01*
X263114Y296378D01*
X263103Y296399D01*
X263080Y296421D01*
X263035Y296477D01*
X260681Y298831D01*
X260659Y298933D01*
X260642Y299035D01*
X260633Y299052D01*
X260629Y299072D01*
X260576Y299161D01*
X260527Y299252D01*
X260513Y299266D01*
X260503Y299283D01*
X260424Y299350D01*
X260349Y299421D01*
X260331Y299430D01*
X260316Y299443D01*
X260220Y299482D01*
X260126Y299525D01*
X260106Y299527D01*
X260088Y299535D01*
X259964Y299548D01*
X257090Y302422D01*
X257090Y303685D01*
X268400Y314995D01*
X269663Y314995D01*
X272533Y312126D01*
X272533Y312125D01*
X272555Y312024D01*
X272572Y311922D01*
X272581Y311904D01*
X272586Y311885D01*
X272639Y311796D01*
X272687Y311704D01*
X272702Y311691D01*
X272712Y311674D01*
X272790Y311606D01*
X272865Y311535D01*
X272883Y311527D01*
X272899Y311514D01*
X272995Y311475D01*
X273089Y311431D01*
X273108Y311429D01*
X273127Y311422D01*
X273251Y311408D01*
X275609Y309050D01*
X275683Y308997D01*
X275752Y308938D01*
X275782Y308925D01*
X275808Y308907D01*
X275895Y308880D01*
X275980Y308846D01*
X276021Y308841D01*
X276044Y308834D01*
X276076Y308835D01*
X276147Y308827D01*
X276551Y308827D01*
X277197Y308654D01*
X277776Y308320D01*
X278462Y307634D01*
X271457Y300629D01*
X271446Y300613D01*
X271430Y300600D01*
X271374Y300513D01*
X271314Y300429D01*
X271308Y300410D01*
X271297Y300393D01*
X271272Y300292D01*
X271241Y300194D01*
X271242Y300174D01*
X271237Y300155D01*
X271245Y300052D01*
X271248Y299948D01*
X271255Y299929D01*
X271256Y299909D01*
X271296Y299815D01*
X271332Y299717D01*
X271345Y299701D01*
X271352Y299683D01*
X271457Y299552D01*
X271473Y299540D01*
X271486Y299525D01*
X271573Y299469D01*
X271657Y299408D01*
X271676Y299403D01*
X271693Y299392D01*
X271793Y299366D01*
X271892Y299336D01*
X271912Y299337D01*
X271931Y299332D01*
X272034Y299340D01*
X272138Y299342D01*
X272157Y299349D01*
X272177Y299351D01*
X272271Y299391D01*
X272369Y299427D01*
X272385Y299439D01*
X272403Y299447D01*
X272534Y299552D01*
X279539Y306557D01*
X280225Y305871D01*
X280241Y305859D01*
X280253Y305844D01*
X280340Y305788D01*
X280424Y305728D01*
X280443Y305722D01*
X280460Y305711D01*
X280561Y305686D01*
X280659Y305655D01*
X280679Y305656D01*
X280699Y305651D01*
X280802Y305659D01*
X280905Y305662D01*
X280924Y305668D01*
X280944Y305670D01*
X281039Y305710D01*
X281136Y305746D01*
X281152Y305758D01*
X281170Y305766D01*
X281301Y305871D01*
X289656Y314226D01*
X289668Y314242D01*
X289684Y314255D01*
X289740Y314342D01*
X289800Y314426D01*
X289806Y314445D01*
X289817Y314462D01*
X289842Y314562D01*
X289872Y314661D01*
X289872Y314681D01*
X289876Y314701D01*
X289868Y314803D01*
X289866Y314907D01*
X289859Y314926D01*
X289857Y314946D01*
X289840Y314986D01*
X289840Y316382D01*
X291817Y318359D01*
X291859Y318417D01*
X291908Y318469D01*
X291930Y318516D01*
X291961Y318558D01*
X291982Y318627D01*
X292012Y318692D01*
X292018Y318744D01*
X292033Y318794D01*
X292031Y318865D01*
X292039Y318936D01*
X292028Y318987D01*
X292027Y319039D01*
X292002Y319107D01*
X291987Y319177D01*
X291960Y319222D01*
X291942Y319270D01*
X291897Y319326D01*
X291861Y319388D01*
X291821Y319422D01*
X291789Y319462D01*
X291728Y319501D01*
X291674Y319548D01*
X291625Y319567D01*
X291582Y319595D01*
X291512Y319613D01*
X291446Y319640D01*
X291374Y319648D01*
X291343Y319656D01*
X291320Y319654D01*
X291279Y319658D01*
X290556Y319658D01*
X287654Y322560D01*
X287654Y326664D01*
X290556Y329566D01*
X294660Y329566D01*
X297104Y327122D01*
X297178Y327069D01*
X297247Y327009D01*
X297277Y326997D01*
X297304Y326978D01*
X297391Y326951D01*
X297475Y326917D01*
X297516Y326913D01*
X297539Y326906D01*
X297571Y326907D01*
X297642Y326899D01*
X300894Y326899D01*
X301010Y326918D01*
X301129Y326936D01*
X301132Y326938D01*
X301136Y326938D01*
X301241Y326994D01*
X301347Y327049D01*
X301350Y327052D01*
X301354Y327054D01*
X301435Y327139D01*
X301518Y327225D01*
X301520Y327229D01*
X301523Y327232D01*
X301573Y327339D01*
X301625Y327447D01*
X301625Y327451D01*
X301627Y327455D01*
X301640Y327571D01*
X301654Y327691D01*
X301653Y327696D01*
X301654Y327699D01*
X301651Y327713D01*
X301629Y327857D01*
X301552Y328144D01*
X301552Y328813D01*
X301725Y329459D01*
X302060Y330038D01*
X304048Y332026D01*
X309548Y326526D01*
X309564Y326514D01*
X309577Y326499D01*
X309664Y326443D01*
X309748Y326382D01*
X309767Y326376D01*
X309784Y326366D01*
X309884Y326340D01*
X309983Y326310D01*
X310003Y326310D01*
X310022Y326306D01*
X310125Y326314D01*
X310229Y326316D01*
X310247Y326323D01*
X310267Y326325D01*
X310362Y326365D01*
X310460Y326401D01*
X310475Y326413D01*
X310494Y326421D01*
X310625Y326526D01*
X311164Y327065D01*
X311165Y327064D01*
X310626Y326525D01*
X310614Y326508D01*
X310599Y326496D01*
X310542Y326408D01*
X310482Y326325D01*
X310476Y326306D01*
X310466Y326289D01*
X310440Y326188D01*
X310410Y326090D01*
X310410Y326070D01*
X310406Y326050D01*
X310414Y325948D01*
X310416Y325844D01*
X310423Y325825D01*
X310425Y325805D01*
X310465Y325711D01*
X310501Y325613D01*
X310513Y325597D01*
X310521Y325579D01*
X310626Y325448D01*
X316572Y319502D01*
X316646Y319449D01*
X316715Y319389D01*
X316746Y319377D01*
X316772Y319358D01*
X316859Y319331D01*
X316944Y319297D01*
X316985Y319293D01*
X317007Y319286D01*
X317039Y319287D01*
X317110Y319279D01*
X320301Y319279D01*
X320392Y319293D01*
X320482Y319301D01*
X320512Y319313D01*
X320544Y319318D01*
X320625Y319361D01*
X320709Y319397D01*
X320741Y319423D01*
X320762Y319434D01*
X320784Y319457D01*
X320840Y319502D01*
X323665Y322327D01*
X328607Y322327D01*
X343663Y307271D01*
X343663Y305928D01*
X343674Y305857D01*
X343676Y305785D01*
X343694Y305736D01*
X343702Y305685D01*
X343736Y305622D01*
X343761Y305554D01*
X343793Y305514D01*
X343818Y305468D01*
X343870Y305418D01*
X343914Y305362D01*
X343958Y305334D01*
X343996Y305298D01*
X344061Y305268D01*
X344121Y305229D01*
X344172Y305217D01*
X344219Y305195D01*
X344290Y305187D01*
X344360Y305169D01*
X344412Y305173D01*
X344463Y305168D01*
X344534Y305183D01*
X344605Y305188D01*
X344653Y305209D01*
X344704Y305220D01*
X344765Y305257D01*
X344831Y305285D01*
X344887Y305330D01*
X344915Y305346D01*
X344930Y305364D01*
X344962Y305390D01*
X349946Y310373D01*
X352452Y310373D01*
X359173Y303652D01*
X359173Y301146D01*
X358067Y300040D01*
X358055Y300023D01*
X358040Y300011D01*
X357984Y299924D01*
X357923Y299840D01*
X357918Y299821D01*
X357907Y299804D01*
X357881Y299704D01*
X357851Y299605D01*
X357852Y299585D01*
X357847Y299566D01*
X357855Y299463D01*
X357857Y299359D01*
X357864Y299340D01*
X357866Y299320D01*
X357906Y299225D01*
X357942Y299128D01*
X357954Y299112D01*
X357962Y299094D01*
X358067Y298963D01*
X372580Y284450D01*
X374143Y282887D01*
X374143Y210889D01*
X354536Y191282D01*
X354524Y191266D01*
X354509Y191253D01*
X354453Y191166D01*
X354392Y191082D01*
X354387Y191063D01*
X354376Y191047D01*
X354350Y190946D01*
X354320Y190847D01*
X354321Y190827D01*
X354316Y190808D01*
X354324Y190705D01*
X354326Y190601D01*
X354333Y190583D01*
X354335Y190563D01*
X354375Y190468D01*
X354411Y190370D01*
X354423Y190355D01*
X354431Y190336D01*
X354536Y190206D01*
X355632Y189110D01*
X355632Y187847D01*
X346253Y178468D01*
X344990Y178468D01*
X338440Y185018D01*
X338440Y186281D01*
X347819Y195660D01*
X349082Y195660D01*
X350226Y194516D01*
X350242Y194504D01*
X350254Y194489D01*
X350341Y194433D01*
X350425Y194372D01*
X350444Y194367D01*
X350461Y194356D01*
X350562Y194331D01*
X350660Y194300D01*
X350680Y194301D01*
X350700Y194296D01*
X350803Y194304D01*
X350906Y194306D01*
X350925Y194313D01*
X350945Y194315D01*
X351040Y194355D01*
X351137Y194391D01*
X351153Y194403D01*
X351171Y194411D01*
X351302Y194516D01*
X369346Y212560D01*
X369399Y212634D01*
X369459Y212704D01*
X369471Y212734D01*
X369490Y212760D01*
X369517Y212847D01*
X369551Y212932D01*
X369555Y212973D01*
X369562Y212995D01*
X369561Y213027D01*
X369569Y213099D01*
X369569Y225814D01*
X369558Y225884D01*
X369556Y225956D01*
X369538Y226005D01*
X369530Y226056D01*
X369496Y226120D01*
X369471Y226187D01*
X369439Y226228D01*
X369414Y226274D01*
X369362Y226323D01*
X369318Y226379D01*
X369274Y226407D01*
X369236Y226443D01*
X369171Y226473D01*
X369111Y226512D01*
X369060Y226525D01*
X369013Y226547D01*
X368942Y226555D01*
X368872Y226572D01*
X368820Y226568D01*
X368769Y226574D01*
X368698Y226559D01*
X368627Y226553D01*
X368579Y226533D01*
X368528Y226522D01*
X368467Y226485D01*
X368401Y226457D01*
X368345Y226412D01*
X368317Y226395D01*
X368302Y226378D01*
X368270Y226352D01*
X360650Y218732D01*
X359087Y217169D01*
X347934Y217169D01*
X347863Y217158D01*
X347792Y217156D01*
X347743Y217138D01*
X347691Y217130D01*
X347628Y217096D01*
X347561Y217071D01*
X347520Y217039D01*
X347474Y217014D01*
X347425Y216963D01*
X347369Y216918D01*
X347341Y216874D01*
X347305Y216836D01*
X347274Y216771D01*
X347236Y216711D01*
X347223Y216660D01*
X347201Y216613D01*
X347193Y216542D01*
X347176Y216472D01*
X347180Y216420D01*
X347174Y216369D01*
X347189Y216298D01*
X347195Y216227D01*
X347215Y216179D01*
X347226Y216128D01*
X347263Y216067D01*
X347291Y216001D01*
X347336Y215945D01*
X347352Y215917D01*
X347370Y215902D01*
X347396Y215870D01*
X347854Y215412D01*
X347854Y211308D01*
X344952Y208406D01*
X340848Y208406D01*
X338404Y210850D01*
X338330Y210903D01*
X338261Y210963D01*
X338230Y210975D01*
X338204Y210994D01*
X338117Y211021D01*
X338032Y211055D01*
X337992Y211059D01*
X337969Y211066D01*
X337937Y211065D01*
X337866Y211073D01*
X331170Y211073D01*
X331099Y211062D01*
X331028Y211060D01*
X330979Y211042D01*
X330927Y211034D01*
X330864Y211000D01*
X330797Y210975D01*
X330756Y210943D01*
X330710Y210918D01*
X330661Y210867D01*
X330605Y210822D01*
X330577Y210778D01*
X330541Y210740D01*
X330510Y210675D01*
X330472Y210615D01*
X330459Y210564D01*
X330437Y210517D01*
X330429Y210446D01*
X330412Y210376D01*
X330416Y210324D01*
X330410Y210273D01*
X330425Y210202D01*
X330431Y210131D01*
X330451Y210083D01*
X330462Y210032D01*
X330499Y209971D01*
X330527Y209905D01*
X330572Y209849D01*
X330588Y209821D01*
X330606Y209806D01*
X330632Y209774D01*
X331090Y209316D01*
X331090Y205212D01*
X329108Y203230D01*
X329066Y203172D01*
X329017Y203120D01*
X328995Y203073D01*
X328964Y203031D01*
X328943Y202962D01*
X328913Y202897D01*
X328907Y202845D01*
X328892Y202795D01*
X328894Y202724D01*
X328886Y202653D01*
X328897Y202602D01*
X328898Y202550D01*
X328923Y202482D01*
X328938Y202412D01*
X328965Y202367D01*
X328983Y202319D01*
X329028Y202263D01*
X329064Y202201D01*
X329104Y202167D01*
X329137Y202127D01*
X329197Y202088D01*
X329251Y202041D01*
X329300Y202022D01*
X329343Y201994D01*
X329413Y201976D01*
X329479Y201949D01*
X329551Y201941D01*
X329582Y201933D01*
X329605Y201935D01*
X329646Y201931D01*
X333294Y201931D01*
X333384Y201945D01*
X333475Y201953D01*
X333505Y201965D01*
X333537Y201970D01*
X333617Y202013D01*
X333701Y202049D01*
X333733Y202075D01*
X333754Y202086D01*
X333776Y202109D01*
X333832Y202154D01*
X336276Y204598D01*
X340380Y204598D01*
X343282Y201696D01*
X343282Y197592D01*
X340380Y194690D01*
X336276Y194690D01*
X333832Y197134D01*
X333758Y197187D01*
X333689Y197247D01*
X333658Y197259D01*
X333632Y197278D01*
X333545Y197305D01*
X333460Y197339D01*
X333420Y197343D01*
X333397Y197350D01*
X333365Y197349D01*
X333294Y197357D01*
X319779Y197357D01*
X319688Y197343D01*
X319598Y197335D01*
X319568Y197323D01*
X319536Y197318D01*
X319455Y197275D01*
X319371Y197239D01*
X319339Y197213D01*
X319318Y197202D01*
X319296Y197179D01*
X319240Y197134D01*
X297081Y174975D01*
X297039Y174917D01*
X296990Y174865D01*
X296968Y174818D01*
X296938Y174776D01*
X296917Y174707D01*
X296886Y174642D01*
X296881Y174590D01*
X296865Y174540D01*
X296867Y174469D01*
X296859Y174398D01*
X296870Y174347D01*
X296872Y174295D01*
X296896Y174227D01*
X296911Y174157D01*
X296938Y174112D01*
X296956Y174064D01*
X297001Y174008D01*
X297038Y173946D01*
X297077Y173912D01*
X297110Y173872D01*
X297170Y173833D01*
X297225Y173786D01*
X297273Y173767D01*
X297317Y173739D01*
X297386Y173721D01*
X297453Y173694D01*
X297524Y173686D01*
X297555Y173678D01*
X297579Y173680D01*
X297619Y173676D01*
X297685Y173676D01*
X298331Y173503D01*
X298910Y173168D01*
X300898Y171180D01*
X295398Y165680D01*
X295386Y165664D01*
X295371Y165651D01*
X295315Y165564D01*
X295254Y165480D01*
X295248Y165461D01*
X295238Y165444D01*
X295212Y165344D01*
X295182Y165245D01*
X295182Y165225D01*
X295178Y165206D01*
X295186Y165103D01*
X295188Y164999D01*
X295195Y164980D01*
X295197Y164961D01*
X295237Y164865D01*
X295273Y164768D01*
X295285Y164752D01*
X295293Y164734D01*
X295398Y164603D01*
X295937Y164064D01*
X295398Y163525D01*
X295386Y163508D01*
X295371Y163496D01*
X295314Y163408D01*
X295254Y163325D01*
X295248Y163306D01*
X295238Y163289D01*
X295212Y163188D01*
X295182Y163090D01*
X295182Y163070D01*
X295178Y163050D01*
X295186Y162948D01*
X295188Y162844D01*
X295195Y162825D01*
X295197Y162805D01*
X295237Y162710D01*
X295273Y162613D01*
X295285Y162597D01*
X295293Y162579D01*
X295398Y162448D01*
X299484Y158362D01*
X298632Y157510D01*
X298591Y157452D01*
X298541Y157400D01*
X298519Y157353D01*
X298489Y157311D01*
X298468Y157242D01*
X298438Y157177D01*
X298432Y157125D01*
X298416Y157075D01*
X298418Y157004D01*
X298410Y156933D01*
X298421Y156882D01*
X298423Y156830D01*
X298447Y156762D01*
X298463Y156692D01*
X298489Y156648D01*
X298507Y156599D01*
X298552Y156543D01*
X298589Y156481D01*
X298628Y156447D01*
X298661Y156407D01*
X298721Y156368D01*
X298776Y156321D01*
X298824Y156302D01*
X298868Y156274D01*
X298937Y156256D01*
X299004Y156229D01*
X299075Y156221D01*
X299106Y156213D01*
X299130Y156215D01*
X299171Y156211D01*
X300489Y156211D01*
X300580Y156225D01*
X300670Y156233D01*
X300700Y156245D01*
X300732Y156250D01*
X300813Y156293D01*
X300897Y156329D01*
X300929Y156355D01*
X300950Y156366D01*
X300972Y156389D01*
X301028Y156434D01*
X308425Y163831D01*
X324150Y163831D01*
X324221Y163842D01*
X324292Y163844D01*
X324341Y163862D01*
X324393Y163870D01*
X324456Y163904D01*
X324523Y163929D01*
X324564Y163961D01*
X324610Y163986D01*
X324659Y164037D01*
X324715Y164082D01*
X324743Y164126D01*
X324779Y164164D01*
X324810Y164229D01*
X324848Y164289D01*
X324861Y164340D01*
X324883Y164387D01*
X324891Y164458D01*
X324908Y164528D01*
X324904Y164580D01*
X324910Y164631D01*
X324895Y164702D01*
X324889Y164773D01*
X324869Y164821D01*
X324858Y164872D01*
X324821Y164933D01*
X324793Y164999D01*
X324748Y165055D01*
X324732Y165083D01*
X324714Y165098D01*
X324688Y165130D01*
X324230Y165588D01*
X324230Y169692D01*
X326674Y172136D01*
X326727Y172210D01*
X326787Y172279D01*
X326799Y172310D01*
X326818Y172336D01*
X326845Y172423D01*
X326879Y172508D01*
X326883Y172548D01*
X326890Y172571D01*
X326889Y172603D01*
X326897Y172674D01*
X326897Y178569D01*
X326883Y178660D01*
X326875Y178750D01*
X326863Y178780D01*
X326858Y178812D01*
X326815Y178893D01*
X326779Y178977D01*
X326753Y179009D01*
X326742Y179030D01*
X326719Y179052D01*
X326674Y179108D01*
X325031Y180751D01*
X324957Y180804D01*
X324887Y180864D01*
X324857Y180876D01*
X324831Y180895D01*
X324744Y180922D01*
X324659Y180956D01*
X324618Y180960D01*
X324596Y180967D01*
X324564Y180966D01*
X324492Y180974D01*
X321036Y180974D01*
X318134Y183876D01*
X318134Y187980D01*
X321036Y190882D01*
X325140Y190882D01*
X328042Y187980D01*
X328042Y184524D01*
X328056Y184433D01*
X328064Y184343D01*
X328076Y184313D01*
X328081Y184281D01*
X328124Y184200D01*
X328160Y184116D01*
X328186Y184084D01*
X328197Y184063D01*
X328220Y184041D01*
X328265Y183985D01*
X331471Y180779D01*
X331471Y172674D01*
X331472Y172667D01*
X331472Y172665D01*
X331474Y172656D01*
X331485Y172584D01*
X331493Y172493D01*
X331505Y172463D01*
X331510Y172431D01*
X331553Y172351D01*
X331589Y172267D01*
X331615Y172235D01*
X331626Y172214D01*
X331649Y172192D01*
X331694Y172136D01*
X334138Y169692D01*
X334138Y165588D01*
X333680Y165130D01*
X333638Y165072D01*
X333589Y165020D01*
X333567Y164973D01*
X333536Y164931D01*
X333515Y164862D01*
X333485Y164797D01*
X333479Y164745D01*
X333464Y164695D01*
X333466Y164624D01*
X333458Y164553D01*
X333469Y164502D01*
X333470Y164450D01*
X333495Y164382D01*
X333510Y164312D01*
X333537Y164267D01*
X333555Y164219D01*
X333600Y164163D01*
X333636Y164101D01*
X333676Y164067D01*
X333709Y164027D01*
X333769Y163988D01*
X333823Y163941D01*
X333872Y163922D01*
X333915Y163894D01*
X333985Y163876D01*
X334051Y163849D01*
X334123Y163841D01*
X334154Y163833D01*
X334177Y163835D01*
X334218Y163831D01*
X358521Y163831D01*
X358541Y163834D01*
X358560Y163832D01*
X358662Y163854D01*
X358764Y163870D01*
X358781Y163880D01*
X358801Y163884D01*
X358890Y163937D01*
X358981Y163986D01*
X358995Y164000D01*
X359012Y164010D01*
X359079Y164089D01*
X359151Y164164D01*
X359159Y164182D01*
X359172Y164197D01*
X359211Y164293D01*
X359254Y164387D01*
X359256Y164407D01*
X359264Y164425D01*
X359282Y164592D01*
X359282Y164979D01*
X359279Y164999D01*
X359281Y165018D01*
X359259Y165120D01*
X359243Y165222D01*
X359233Y165239D01*
X359229Y165259D01*
X359176Y165348D01*
X359127Y165439D01*
X359113Y165453D01*
X359103Y165470D01*
X359024Y165537D01*
X358949Y165608D01*
X358931Y165617D01*
X358916Y165630D01*
X358820Y165669D01*
X358726Y165712D01*
X358706Y165714D01*
X358688Y165722D01*
X358521Y165740D01*
X357718Y165740D01*
X351168Y172290D01*
X351168Y173553D01*
X360547Y182932D01*
X361810Y182932D01*
X367390Y177352D01*
X367406Y177340D01*
X367418Y177325D01*
X367505Y177269D01*
X367589Y177208D01*
X367608Y177202D01*
X367625Y177192D01*
X367726Y177166D01*
X367824Y177136D01*
X367844Y177136D01*
X367864Y177132D01*
X367967Y177140D01*
X368070Y177142D01*
X368089Y177149D01*
X368109Y177151D01*
X368144Y177166D01*
X372384Y177166D01*
X374828Y174722D01*
X374902Y174669D01*
X374971Y174609D01*
X375002Y174597D01*
X375028Y174578D01*
X375115Y174551D01*
X375200Y174517D01*
X375240Y174513D01*
X375263Y174506D01*
X375295Y174507D01*
X375366Y174499D01*
X375742Y174499D01*
X375832Y174513D01*
X375923Y174521D01*
X375953Y174533D01*
X375985Y174538D01*
X376065Y174581D01*
X376149Y174617D01*
X376181Y174643D01*
X376202Y174654D01*
X376224Y174677D01*
X376280Y174722D01*
X382290Y180732D01*
X383553Y180732D01*
X392402Y171884D01*
X392418Y171872D01*
X392430Y171857D01*
X392517Y171800D01*
X392601Y171740D01*
X392620Y171734D01*
X392637Y171724D01*
X392738Y171698D01*
X392836Y171668D01*
X392856Y171668D01*
X392876Y171663D01*
X392979Y171671D01*
X393082Y171674D01*
X393101Y171681D01*
X393121Y171683D01*
X393216Y171723D01*
X393313Y171759D01*
X393329Y171771D01*
X393347Y171779D01*
X393478Y171884D01*
X395712Y174118D01*
X399816Y174118D01*
X402718Y171216D01*
X402718Y170045D01*
X402729Y169975D01*
X402731Y169903D01*
X402749Y169854D01*
X402757Y169803D01*
X402791Y169739D01*
X402816Y169672D01*
X402848Y169631D01*
X402873Y169585D01*
X402924Y169536D01*
X402969Y169480D01*
X403013Y169452D01*
X403051Y169416D01*
X403116Y169386D01*
X403176Y169347D01*
X403227Y169334D01*
X403274Y169312D01*
X403345Y169304D01*
X403415Y169287D01*
X403467Y169291D01*
X403518Y169285D01*
X403589Y169300D01*
X403660Y169306D01*
X403708Y169326D01*
X403759Y169337D01*
X403820Y169374D01*
X403886Y169402D01*
X403942Y169447D01*
X403970Y169464D01*
X403985Y169481D01*
X404017Y169507D01*
X404437Y169927D01*
X412427Y169927D01*
X416815Y165539D01*
X416815Y157549D01*
X412427Y153161D01*
X409695Y153161D01*
X409604Y153147D01*
X409514Y153139D01*
X409484Y153127D01*
X409452Y153122D01*
X409371Y153079D01*
X409287Y153043D01*
X409255Y153017D01*
X409234Y153006D01*
X409212Y152983D01*
X409156Y152938D01*
X378899Y122681D01*
X356738Y122681D01*
X356648Y122667D01*
X356557Y122659D01*
X356527Y122647D01*
X356495Y122642D01*
X356414Y122599D01*
X356330Y122563D01*
X356298Y122537D01*
X356278Y122526D01*
X356255Y122503D01*
X356199Y122458D01*
X349481Y115740D01*
X348218Y115740D01*
X341668Y122290D01*
X341668Y123553D01*
X351047Y132932D01*
X352310Y132932D01*
X357764Y127478D01*
X357838Y127425D01*
X357907Y127365D01*
X357937Y127353D01*
X357964Y127334D01*
X358051Y127307D01*
X358135Y127273D01*
X358176Y127269D01*
X358199Y127262D01*
X358231Y127263D01*
X358302Y127255D01*
X376689Y127255D01*
X376780Y127269D01*
X376870Y127277D01*
X376900Y127289D01*
X376932Y127294D01*
X377013Y127337D01*
X377097Y127373D01*
X377129Y127399D01*
X377150Y127410D01*
X377172Y127433D01*
X377228Y127478D01*
X405822Y156072D01*
X405834Y156088D01*
X405849Y156100D01*
X405905Y156188D01*
X405965Y156272D01*
X405971Y156291D01*
X405982Y156307D01*
X406007Y156408D01*
X406038Y156507D01*
X406037Y156527D01*
X406042Y156546D01*
X406034Y156649D01*
X406031Y156753D01*
X406025Y156771D01*
X406023Y156791D01*
X405983Y156886D01*
X405947Y156984D01*
X405935Y156999D01*
X405927Y157017D01*
X405822Y157148D01*
X404798Y158172D01*
X404782Y158184D01*
X404770Y158199D01*
X404682Y158255D01*
X404599Y158315D01*
X404580Y158321D01*
X404563Y158332D01*
X404462Y158357D01*
X404364Y158388D01*
X404344Y158387D01*
X404324Y158392D01*
X404221Y158384D01*
X404118Y158381D01*
X404099Y158375D01*
X404079Y158373D01*
X403984Y158333D01*
X403887Y158297D01*
X403871Y158285D01*
X403853Y158277D01*
X403722Y158172D01*
X381986Y136436D01*
X380423Y134873D01*
X343474Y134873D01*
X343384Y134859D01*
X343293Y134851D01*
X343263Y134839D01*
X343231Y134834D01*
X343150Y134791D01*
X343067Y134755D01*
X343034Y134729D01*
X343014Y134718D01*
X342992Y134695D01*
X342936Y134650D01*
X336753Y128468D01*
X335490Y128468D01*
X335437Y128521D01*
X335379Y128563D01*
X335327Y128612D01*
X335280Y128634D01*
X335238Y128665D01*
X335169Y128686D01*
X335104Y128716D01*
X335052Y128722D01*
X335002Y128737D01*
X334931Y128735D01*
X334860Y128743D01*
X334809Y128732D01*
X334757Y128731D01*
X334689Y128706D01*
X334619Y128691D01*
X334574Y128664D01*
X334526Y128646D01*
X334470Y128601D01*
X334408Y128565D01*
X334374Y128525D01*
X334334Y128493D01*
X334295Y128432D01*
X334248Y128378D01*
X334229Y128329D01*
X334201Y128286D01*
X334183Y128216D01*
X334156Y128150D01*
X334148Y128078D01*
X334140Y128047D01*
X334142Y128024D01*
X334138Y127983D01*
X334138Y127488D01*
X331236Y124586D01*
X327132Y124586D01*
X324688Y127030D01*
X324614Y127083D01*
X324545Y127143D01*
X324514Y127155D01*
X324488Y127174D01*
X324401Y127201D01*
X324316Y127235D01*
X324276Y127239D01*
X324253Y127246D01*
X324221Y127245D01*
X324150Y127253D01*
X316163Y127253D01*
X316092Y127242D01*
X316020Y127240D01*
X315971Y127222D01*
X315920Y127214D01*
X315857Y127180D01*
X315789Y127155D01*
X315749Y127123D01*
X315703Y127098D01*
X315653Y127047D01*
X315597Y127002D01*
X315569Y126958D01*
X315533Y126920D01*
X315503Y126855D01*
X315464Y126795D01*
X315452Y126744D01*
X315430Y126697D01*
X315422Y126626D01*
X315404Y126556D01*
X315408Y126504D01*
X315403Y126453D01*
X315418Y126382D01*
X315423Y126311D01*
X315444Y126263D01*
X315455Y126212D01*
X315492Y126151D01*
X315520Y126085D01*
X315565Y126029D01*
X315581Y126001D01*
X315599Y125986D01*
X315625Y125954D01*
X315798Y125780D01*
X310836Y120818D01*
X307288Y124366D01*
X308876Y125954D01*
X308918Y126012D01*
X308967Y126064D01*
X308989Y126111D01*
X309019Y126153D01*
X309040Y126222D01*
X309071Y126287D01*
X309076Y126339D01*
X309092Y126389D01*
X309090Y126460D01*
X309098Y126531D01*
X309087Y126582D01*
X309085Y126634D01*
X309061Y126702D01*
X309046Y126772D01*
X309019Y126816D01*
X309001Y126865D01*
X308956Y126921D01*
X308919Y126983D01*
X308880Y127017D01*
X308847Y127057D01*
X308787Y127096D01*
X308732Y127143D01*
X308684Y127162D01*
X308640Y127190D01*
X308571Y127208D01*
X308504Y127235D01*
X308433Y127243D01*
X308402Y127251D01*
X308378Y127249D01*
X308338Y127253D01*
X299281Y127253D01*
X293408Y133126D01*
X293334Y133179D01*
X293264Y133239D01*
X293234Y133251D01*
X293208Y133270D01*
X293121Y133297D01*
X293036Y133331D01*
X292995Y133335D01*
X292973Y133342D01*
X292941Y133341D01*
X292869Y133349D01*
X290022Y133349D01*
X289932Y133335D01*
X289841Y133327D01*
X289811Y133315D01*
X289779Y133310D01*
X289699Y133267D01*
X289615Y133231D01*
X289583Y133205D01*
X289562Y133194D01*
X289540Y133171D01*
X289484Y133126D01*
X287040Y130682D01*
X282936Y130682D01*
X280034Y133584D01*
X280034Y137688D01*
X282936Y140590D01*
X287040Y140590D01*
X289484Y138146D01*
X289558Y138093D01*
X289627Y138033D01*
X289658Y138021D01*
X289684Y138002D01*
X289771Y137975D01*
X289856Y137941D01*
X289896Y137937D01*
X289919Y137930D01*
X289951Y137931D01*
X290022Y137923D01*
X292608Y137923D01*
X292628Y137926D01*
X292647Y137924D01*
X292749Y137946D01*
X292851Y137962D01*
X292868Y137972D01*
X292888Y137976D01*
X292977Y138029D01*
X293068Y138078D01*
X293082Y138092D01*
X293099Y138102D01*
X293166Y138181D01*
X293238Y138256D01*
X293246Y138274D01*
X293259Y138289D01*
X293298Y138385D01*
X293341Y138479D01*
X293343Y138499D01*
X293351Y138517D01*
X293369Y138684D01*
X293369Y141732D01*
X293366Y141752D01*
X293368Y141771D01*
X293346Y141873D01*
X293330Y141975D01*
X293320Y141992D01*
X293316Y142012D01*
X293263Y142101D01*
X293214Y142192D01*
X293200Y142206D01*
X293190Y142223D01*
X293111Y142290D01*
X293036Y142362D01*
X293018Y142370D01*
X293003Y142383D01*
X292907Y142422D01*
X292813Y142465D01*
X292793Y142467D01*
X292775Y142475D01*
X292608Y142493D01*
X287089Y142493D01*
X285526Y144056D01*
X258094Y171488D01*
X258078Y171499D01*
X258066Y171515D01*
X257978Y171571D01*
X257895Y171631D01*
X257876Y171637D01*
X257859Y171648D01*
X257758Y171673D01*
X257659Y171704D01*
X257640Y171703D01*
X257620Y171708D01*
X257517Y171700D01*
X257414Y171697D01*
X257395Y171690D01*
X257375Y171689D01*
X257280Y171649D01*
X257183Y171613D01*
X257167Y171600D01*
X257149Y171593D01*
X257018Y171488D01*
X240215Y154685D01*
X226014Y154685D01*
X225924Y154671D01*
X225833Y154663D01*
X225803Y154651D01*
X225771Y154646D01*
X225691Y154603D01*
X225607Y154567D01*
X225575Y154541D01*
X225554Y154530D01*
X225532Y154507D01*
X225476Y154462D01*
X223032Y152018D01*
X221861Y152018D01*
X221791Y152007D01*
X221719Y152005D01*
X221670Y151987D01*
X221619Y151979D01*
X221555Y151945D01*
X221488Y151920D01*
X221447Y151888D01*
X221401Y151863D01*
X221352Y151812D01*
X221296Y151767D01*
X221268Y151723D01*
X221232Y151685D01*
X221202Y151620D01*
X221163Y151560D01*
X221150Y151509D01*
X221128Y151462D01*
X221120Y151391D01*
X221103Y151321D01*
X221107Y151269D01*
X221101Y151218D01*
X221116Y151147D01*
X221122Y151076D01*
X221142Y151028D01*
X221153Y150977D01*
X221190Y150916D01*
X221218Y150850D01*
X221263Y150794D01*
X221280Y150766D01*
X221297Y150751D01*
X221323Y150719D01*
X231876Y140166D01*
X231934Y140124D01*
X231986Y140075D01*
X232033Y140053D01*
X232075Y140023D01*
X232144Y140002D01*
X232209Y139971D01*
X232261Y139966D01*
X232311Y139950D01*
X232382Y139952D01*
X232453Y139944D01*
X232504Y139955D01*
X232556Y139957D01*
X232624Y139981D01*
X232694Y139996D01*
X232738Y140023D01*
X232787Y140041D01*
X232843Y140086D01*
X232905Y140123D01*
X232939Y140162D01*
X232979Y140195D01*
X233018Y140255D01*
X233065Y140310D01*
X233084Y140358D01*
X233112Y140402D01*
X233130Y140471D01*
X233157Y140538D01*
X233165Y140609D01*
X233173Y140640D01*
X233171Y140664D01*
X233175Y140704D01*
X233175Y142432D01*
X234068Y143325D01*
X243332Y143325D01*
X244225Y142432D01*
X244225Y129168D01*
X243332Y128275D01*
X234068Y128275D01*
X233175Y129168D01*
X233175Y134112D01*
X233172Y134132D01*
X233174Y134151D01*
X233152Y134253D01*
X233136Y134355D01*
X233126Y134372D01*
X233122Y134392D01*
X233069Y134481D01*
X233020Y134572D01*
X233006Y134586D01*
X232996Y134603D01*
X232917Y134670D01*
X232842Y134742D01*
X232824Y134750D01*
X232809Y134763D01*
X232713Y134802D01*
X232619Y134845D01*
X232599Y134847D01*
X232581Y134855D01*
X232414Y134873D01*
X230701Y134873D01*
X222661Y142913D01*
X222603Y142955D01*
X222551Y143004D01*
X222504Y143026D01*
X222462Y143056D01*
X222393Y143077D01*
X222328Y143108D01*
X222276Y143113D01*
X222226Y143129D01*
X222155Y143127D01*
X222084Y143135D01*
X222033Y143124D01*
X221981Y143122D01*
X221913Y143098D01*
X221843Y143083D01*
X221798Y143056D01*
X221750Y143038D01*
X221694Y142993D01*
X221632Y142956D01*
X221598Y142917D01*
X221558Y142884D01*
X221519Y142824D01*
X221472Y142769D01*
X221453Y142721D01*
X221425Y142677D01*
X221407Y142608D01*
X221380Y142541D01*
X221372Y142470D01*
X221364Y142439D01*
X221366Y142415D01*
X221362Y142375D01*
X221362Y141204D01*
X218460Y138302D01*
X217551Y138302D01*
X217531Y138299D01*
X217512Y138301D01*
X217410Y138279D01*
X217308Y138263D01*
X217291Y138253D01*
X217271Y138249D01*
X217182Y138196D01*
X217091Y138147D01*
X217077Y138133D01*
X217060Y138123D01*
X216993Y138044D01*
X216921Y137969D01*
X216913Y137951D01*
X216900Y137936D01*
X216861Y137840D01*
X216818Y137746D01*
X216816Y137726D01*
X216808Y137708D01*
X216790Y137541D01*
X216790Y133584D01*
X213888Y130682D01*
X209784Y130682D01*
X206882Y133584D01*
X206882Y137041D01*
X206868Y137131D01*
X206860Y137222D01*
X206848Y137251D01*
X206843Y137283D01*
X206800Y137364D01*
X206764Y137448D01*
X206738Y137480D01*
X206727Y137501D01*
X206704Y137523D01*
X206659Y137579D01*
X193528Y150710D01*
X193512Y150722D01*
X193499Y150737D01*
X193412Y150793D01*
X193328Y150854D01*
X193309Y150859D01*
X193293Y150870D01*
X193192Y150895D01*
X193093Y150926D01*
X193073Y150925D01*
X193054Y150930D01*
X192951Y150922D01*
X192847Y150920D01*
X192829Y150913D01*
X192809Y150911D01*
X192714Y150871D01*
X192616Y150835D01*
X192601Y150823D01*
X192583Y150815D01*
X192452Y150710D01*
X186094Y144352D01*
X186082Y144336D01*
X186067Y144324D01*
X186011Y144236D01*
X185950Y144153D01*
X185945Y144134D01*
X185934Y144117D01*
X185909Y144016D01*
X185878Y143918D01*
X185879Y143898D01*
X185874Y143878D01*
X185882Y143775D01*
X185884Y143672D01*
X185891Y143653D01*
X185893Y143633D01*
X185933Y143538D01*
X185969Y143441D01*
X185981Y143425D01*
X185989Y143407D01*
X186094Y143276D01*
X203416Y125954D01*
X203490Y125901D01*
X203560Y125841D01*
X203590Y125829D01*
X203616Y125810D01*
X203703Y125783D01*
X203788Y125749D01*
X203829Y125745D01*
X203851Y125738D01*
X203883Y125739D01*
X203955Y125731D01*
X270695Y125731D01*
X284569Y111857D01*
X284643Y111804D01*
X284713Y111744D01*
X284743Y111732D01*
X284769Y111713D01*
X284856Y111686D01*
X284941Y111652D01*
X284982Y111648D01*
X285004Y111641D01*
X285036Y111642D01*
X285108Y111634D01*
X288564Y111634D01*
X291466Y108732D01*
X291466Y107445D01*
X291477Y107374D01*
X291479Y107302D01*
X291497Y107253D01*
X291505Y107202D01*
X291539Y107139D01*
X291564Y107071D01*
X291596Y107031D01*
X291621Y106984D01*
X291673Y106935D01*
X291717Y106879D01*
X291761Y106851D01*
X291799Y106815D01*
X291864Y106785D01*
X291924Y106746D01*
X291975Y106733D01*
X292022Y106711D01*
X292093Y106704D01*
X292163Y106686D01*
X292215Y106690D01*
X292266Y106684D01*
X292337Y106700D01*
X292408Y106705D01*
X292456Y106726D01*
X292507Y106737D01*
X292568Y106773D01*
X292634Y106802D01*
X292690Y106846D01*
X292718Y106863D01*
X292733Y106881D01*
X292765Y106906D01*
X293719Y107860D01*
X294982Y107860D01*
X301532Y101310D01*
X301532Y100047D01*
X292153Y90668D01*
X290890Y90668D01*
X284340Y97218D01*
X284340Y98481D01*
X286286Y100427D01*
X286328Y100485D01*
X286377Y100537D01*
X286399Y100584D01*
X286429Y100626D01*
X286450Y100695D01*
X286481Y100760D01*
X286486Y100812D01*
X286502Y100862D01*
X286500Y100933D01*
X286508Y101004D01*
X286497Y101055D01*
X286495Y101107D01*
X286471Y101175D01*
X286455Y101245D01*
X286429Y101290D01*
X286411Y101338D01*
X286366Y101394D01*
X286329Y101456D01*
X286290Y101490D01*
X286257Y101530D01*
X286197Y101569D01*
X286142Y101616D01*
X286094Y101635D01*
X286050Y101663D01*
X285981Y101681D01*
X285914Y101708D01*
X285843Y101716D01*
X285812Y101724D01*
X285788Y101722D01*
X285747Y101726D01*
X284460Y101726D01*
X281558Y104628D01*
X281558Y108084D01*
X281544Y108175D01*
X281536Y108265D01*
X281524Y108295D01*
X281519Y108327D01*
X281476Y108408D01*
X281440Y108492D01*
X281414Y108524D01*
X281403Y108545D01*
X281380Y108567D01*
X281335Y108623D01*
X269024Y120934D01*
X268950Y120987D01*
X268880Y121047D01*
X268850Y121059D01*
X268824Y121078D01*
X268737Y121105D01*
X268652Y121139D01*
X268611Y121143D01*
X268589Y121150D01*
X268557Y121149D01*
X268485Y121157D01*
X226014Y121157D01*
X225943Y121146D01*
X225872Y121144D01*
X225823Y121126D01*
X225771Y121118D01*
X225708Y121084D01*
X225641Y121059D01*
X225600Y121027D01*
X225554Y121002D01*
X225505Y120950D01*
X225449Y120906D01*
X225421Y120862D01*
X225385Y120824D01*
X225354Y120759D01*
X225316Y120699D01*
X225303Y120648D01*
X225281Y120601D01*
X225273Y120530D01*
X225256Y120460D01*
X225260Y120408D01*
X225254Y120357D01*
X225269Y120286D01*
X225275Y120215D01*
X225295Y120167D01*
X225306Y120116D01*
X225343Y120055D01*
X225371Y119989D01*
X225416Y119933D01*
X225432Y119905D01*
X225450Y119890D01*
X225476Y119858D01*
X227458Y117876D01*
X227458Y114420D01*
X227472Y114329D01*
X227480Y114239D01*
X227492Y114209D01*
X227497Y114177D01*
X227540Y114096D01*
X227576Y114012D01*
X227602Y113980D01*
X227613Y113959D01*
X227636Y113937D01*
X227681Y113881D01*
X264415Y77147D01*
X264415Y52285D01*
X264416Y52277D01*
X264415Y52269D01*
X264436Y52155D01*
X264454Y52042D01*
X264458Y52035D01*
X264460Y52027D01*
X264516Y51926D01*
X264570Y51825D01*
X264575Y51819D01*
X264579Y51812D01*
X264665Y51735D01*
X264748Y51655D01*
X264755Y51652D01*
X264761Y51647D01*
X264866Y51600D01*
X264971Y51552D01*
X264979Y51551D01*
X264986Y51548D01*
X265102Y51537D01*
X265215Y51525D01*
X265223Y51526D01*
X265231Y51526D01*
X265343Y51552D01*
X265456Y51577D01*
X265463Y51581D01*
X265470Y51583D01*
X265568Y51644D01*
X265667Y51703D01*
X265672Y51709D01*
X265679Y51713D01*
X265792Y51837D01*
X265894Y51978D01*
X267222Y53306D01*
X268743Y54411D01*
X270417Y55264D01*
X272204Y55845D01*
X273477Y56046D01*
X273477Y44962D01*
X273480Y44942D01*
X273478Y44923D01*
X273500Y44821D01*
X273517Y44719D01*
X273526Y44702D01*
X273530Y44682D01*
X273583Y44593D01*
X273632Y44502D01*
X273646Y44488D01*
X273656Y44471D01*
X273735Y44404D01*
X273810Y44333D01*
X273828Y44324D01*
X273843Y44311D01*
X273939Y44273D01*
X274033Y44229D01*
X274053Y44227D01*
X274071Y44219D01*
X274238Y44201D01*
X275001Y44201D01*
X275001Y43438D01*
X275004Y43418D01*
X275002Y43399D01*
X275024Y43297D01*
X275041Y43195D01*
X275050Y43178D01*
X275054Y43158D01*
X275107Y43069D01*
X275156Y42978D01*
X275170Y42964D01*
X275180Y42947D01*
X275259Y42880D01*
X275334Y42809D01*
X275352Y42800D01*
X275367Y42787D01*
X275463Y42748D01*
X275557Y42705D01*
X275577Y42703D01*
X275595Y42695D01*
X275762Y42677D01*
X286846Y42677D01*
X286645Y41404D01*
X286064Y39617D01*
X285211Y37943D01*
X284106Y36422D01*
X282778Y35094D01*
X281470Y34144D01*
X281465Y34138D01*
X281458Y34134D01*
X281378Y34051D01*
X281297Y33969D01*
X281294Y33962D01*
X281288Y33956D01*
X281240Y33852D01*
X281189Y33748D01*
X281188Y33740D01*
X281185Y33733D01*
X281172Y33619D01*
X281157Y33504D01*
X281158Y33496D01*
X281158Y33489D01*
X281182Y33376D01*
X281204Y33263D01*
X281208Y33256D01*
X281210Y33248D01*
X281269Y33150D01*
X281326Y33049D01*
X281332Y33044D01*
X281336Y33037D01*
X281423Y32962D01*
X281509Y32885D01*
X281517Y32882D01*
X281523Y32877D01*
X281630Y32834D01*
X281736Y32789D01*
X281744Y32788D01*
X281751Y32785D01*
X281918Y32767D01*
X319957Y32767D01*
X320072Y32786D01*
X320188Y32803D01*
X320193Y32805D01*
X320200Y32806D01*
X320302Y32861D01*
X320407Y32914D01*
X320412Y32919D01*
X320417Y32922D01*
X320497Y33006D01*
X320579Y33090D01*
X320583Y33096D01*
X320586Y33100D01*
X320594Y33117D01*
X320660Y33237D01*
X322025Y36531D01*
X325169Y39675D01*
X329337Y41402D01*
X329427Y41416D01*
X329444Y41426D01*
X329464Y41430D01*
X329553Y41483D01*
X329644Y41532D01*
X329658Y41546D01*
X329675Y41556D01*
X329742Y41635D01*
X329814Y41710D01*
X329822Y41728D01*
X329835Y41743D01*
X329874Y41839D01*
X329917Y41933D01*
X329919Y41953D01*
X329927Y41971D01*
X329945Y42138D01*
X329945Y65998D01*
X329931Y66088D01*
X329923Y66179D01*
X329911Y66209D01*
X329906Y66241D01*
X329863Y66322D01*
X329827Y66406D01*
X329801Y66438D01*
X329790Y66458D01*
X329767Y66481D01*
X329722Y66537D01*
X322740Y73519D01*
X322740Y74782D01*
X329290Y81332D01*
X330553Y81332D01*
X339932Y71953D01*
X339932Y70690D01*
X334742Y65500D01*
X334689Y65426D01*
X334629Y65357D01*
X334617Y65327D01*
X334598Y65300D01*
X334571Y65213D01*
X334537Y65129D01*
X334533Y65088D01*
X334526Y65065D01*
X334527Y65033D01*
X334519Y64962D01*
X334519Y41556D01*
X334538Y41441D01*
X334555Y41325D01*
X334557Y41319D01*
X334558Y41313D01*
X334613Y41210D01*
X334666Y41106D01*
X334671Y41101D01*
X334674Y41096D01*
X334758Y41016D01*
X334842Y40933D01*
X334848Y40930D01*
X334852Y40926D01*
X334869Y40919D01*
X334989Y40853D01*
X337831Y39675D01*
X340975Y36531D01*
X342677Y32423D01*
X342677Y27977D01*
X340975Y23869D01*
X337831Y20725D01*
X333723Y19023D01*
X329277Y19023D01*
X325169Y20725D01*
X322025Y23869D01*
X320428Y27723D01*
X320367Y27823D01*
X320307Y27923D01*
X320302Y27927D01*
X320299Y27932D01*
X320209Y28007D01*
X320120Y28083D01*
X320114Y28085D01*
X320109Y28089D01*
X320001Y28131D01*
X319892Y28175D01*
X319884Y28176D01*
X319880Y28177D01*
X319861Y28178D01*
X319725Y28193D01*
X282892Y28193D01*
X282821Y28182D01*
X282749Y28180D01*
X282700Y28162D01*
X282649Y28154D01*
X282586Y28120D01*
X282518Y28095D01*
X282478Y28063D01*
X282431Y28038D01*
X282382Y27986D01*
X282326Y27942D01*
X282298Y27898D01*
X282262Y27860D01*
X282232Y27795D01*
X282193Y27735D01*
X282180Y27684D01*
X282158Y27637D01*
X282151Y27566D01*
X282133Y27496D01*
X282137Y27444D01*
X282131Y27393D01*
X282147Y27322D01*
X282152Y27251D01*
X282173Y27203D01*
X282184Y27152D01*
X282220Y27091D01*
X282249Y27025D01*
X282293Y26969D01*
X282310Y26941D01*
X282328Y26926D01*
X282353Y26894D01*
X284260Y24987D01*
X285923Y20973D01*
X285923Y16627D01*
X284260Y12613D01*
X281187Y9540D01*
X277173Y7877D01*
X272827Y7877D01*
X271786Y8308D01*
X271692Y8331D01*
X271599Y8359D01*
X271572Y8359D01*
X271547Y8365D01*
X271450Y8355D01*
X271353Y8353D01*
X271328Y8344D01*
X271302Y8342D01*
X271213Y8302D01*
X271122Y8268D01*
X271101Y8252D01*
X271077Y8242D01*
X271006Y8176D01*
X270930Y8115D01*
X270915Y8093D01*
X270896Y8075D01*
X270849Y7990D01*
X270797Y7908D01*
X270790Y7883D01*
X270778Y7860D01*
X270760Y7764D01*
X270737Y7669D01*
X270739Y7643D01*
X270734Y7618D01*
X270748Y7521D01*
X270756Y7424D01*
X270766Y7400D01*
X270770Y7374D01*
X270814Y7287D01*
X270852Y7198D01*
X270872Y7172D01*
X270881Y7155D01*
X270905Y7132D01*
X270957Y7067D01*
X272416Y5608D01*
X272416Y1504D01*
X271450Y538D01*
X271408Y480D01*
X271359Y428D01*
X271337Y381D01*
X271306Y339D01*
X271285Y270D01*
X271255Y205D01*
X271249Y153D01*
X271234Y103D01*
X271236Y32D01*
X271228Y-39D01*
X271239Y-90D01*
X271240Y-142D01*
X271265Y-210D01*
X271280Y-280D01*
X271307Y-325D01*
X271325Y-373D01*
X271370Y-429D01*
X271406Y-491D01*
X271446Y-525D01*
X271479Y-565D01*
X271539Y-604D01*
X271593Y-651D01*
X271642Y-670D01*
X271685Y-698D01*
X271755Y-716D01*
X271821Y-743D01*
X271893Y-751D01*
X271924Y-759D01*
X271947Y-757D01*
X271988Y-761D01*
X370594Y-761D01*
X370684Y-747D01*
X370775Y-739D01*
X370804Y-727D01*
X370836Y-722D01*
X370917Y-679D01*
X371001Y-643D01*
X371033Y-617D01*
X371054Y-606D01*
X371076Y-583D01*
X371132Y-538D01*
X395254Y23584D01*
X395307Y23658D01*
X395367Y23728D01*
X395379Y23758D01*
X395398Y23784D01*
X395425Y23871D01*
X395459Y23956D01*
X395463Y23997D01*
X395470Y24019D01*
X395469Y24051D01*
X395477Y24122D01*
X395477Y26493D01*
X395477Y26497D01*
X395477Y26501D01*
X395456Y26620D01*
X395438Y26735D01*
X395436Y26739D01*
X395435Y26743D01*
X395378Y26849D01*
X395322Y26953D01*
X395320Y26956D01*
X395318Y26959D01*
X395230Y27040D01*
X395144Y27122D01*
X395140Y27124D01*
X395138Y27127D01*
X395029Y27176D01*
X394921Y27226D01*
X394917Y27226D01*
X394913Y27228D01*
X394794Y27240D01*
X394677Y27253D01*
X394673Y27252D01*
X394669Y27252D01*
X394552Y27226D01*
X394436Y27201D01*
X394433Y27199D01*
X394429Y27198D01*
X394326Y27135D01*
X394225Y27074D01*
X394223Y27071D01*
X394219Y27069D01*
X394142Y26978D01*
X394065Y26888D01*
X394064Y26884D01*
X394061Y26881D01*
X393992Y26728D01*
X393599Y25520D01*
X392728Y23810D01*
X391600Y22257D01*
X390243Y20900D01*
X388690Y19772D01*
X386980Y18901D01*
X385155Y18307D01*
X383823Y18097D01*
X383823Y29438D01*
X383820Y29458D01*
X383822Y29477D01*
X383800Y29579D01*
X383783Y29681D01*
X383774Y29698D01*
X383770Y29718D01*
X383717Y29807D01*
X383668Y29898D01*
X383654Y29912D01*
X383644Y29929D01*
X383565Y29996D01*
X383490Y30067D01*
X383472Y30076D01*
X383457Y30089D01*
X383361Y30127D01*
X383267Y30171D01*
X383247Y30173D01*
X383229Y30181D01*
X383062Y30199D01*
X382299Y30199D01*
X382299Y30201D01*
X383062Y30201D01*
X383082Y30204D01*
X383101Y30202D01*
X383203Y30224D01*
X383305Y30241D01*
X383322Y30250D01*
X383342Y30254D01*
X383431Y30307D01*
X383522Y30356D01*
X383536Y30370D01*
X383553Y30380D01*
X383620Y30459D01*
X383691Y30534D01*
X383700Y30552D01*
X383713Y30567D01*
X383752Y30663D01*
X383795Y30757D01*
X383797Y30777D01*
X383805Y30795D01*
X383823Y30962D01*
X383823Y42303D01*
X385155Y42093D01*
X386980Y41499D01*
X388690Y40628D01*
X390243Y39500D01*
X391600Y38143D01*
X392728Y36590D01*
X393599Y34880D01*
X393992Y33672D01*
X393994Y33669D01*
X393995Y33665D01*
X394050Y33560D01*
X394105Y33454D01*
X394108Y33451D01*
X394110Y33447D01*
X394196Y33365D01*
X394281Y33282D01*
X394285Y33281D01*
X394288Y33278D01*
X394396Y33228D01*
X394503Y33176D01*
X394507Y33176D01*
X394511Y33174D01*
X394629Y33161D01*
X394748Y33147D01*
X394752Y33148D01*
X394755Y33147D01*
X394873Y33173D01*
X394988Y33197D01*
X394992Y33199D01*
X394996Y33199D01*
X395099Y33261D01*
X395201Y33321D01*
X395204Y33324D01*
X395207Y33326D01*
X395285Y33417D01*
X395363Y33506D01*
X395364Y33509D01*
X395367Y33512D01*
X395412Y33624D01*
X395457Y33733D01*
X395457Y33737D01*
X395459Y33741D01*
X395477Y33907D01*
X395477Y126030D01*
X395463Y126120D01*
X395455Y126211D01*
X395443Y126241D01*
X395438Y126273D01*
X395395Y126353D01*
X395359Y126437D01*
X395333Y126469D01*
X395322Y126490D01*
X395299Y126512D01*
X395254Y126568D01*
X392810Y129012D01*
X392810Y133116D01*
X395712Y136018D01*
X399816Y136018D01*
X400274Y135560D01*
X400332Y135518D01*
X400384Y135469D01*
X400431Y135447D01*
X400473Y135416D01*
X400542Y135395D01*
X400607Y135365D01*
X400659Y135359D01*
X400709Y135344D01*
X400780Y135346D01*
X400851Y135338D01*
X400902Y135349D01*
X400954Y135350D01*
X401022Y135375D01*
X401092Y135390D01*
X401137Y135417D01*
X401185Y135435D01*
X401241Y135480D01*
X401303Y135516D01*
X401337Y135556D01*
X401377Y135589D01*
X401416Y135649D01*
X401463Y135703D01*
X401482Y135752D01*
X401510Y135795D01*
X401528Y135865D01*
X401555Y135931D01*
X401563Y136003D01*
X401571Y136034D01*
X401569Y136057D01*
X401573Y136098D01*
X401573Y138107D01*
X451642Y188176D01*
X451688Y188240D01*
X451710Y188263D01*
X451714Y188272D01*
X451755Y188320D01*
X451767Y188350D01*
X451786Y188376D01*
X451813Y188463D01*
X451847Y188548D01*
X451851Y188589D01*
X451858Y188611D01*
X451857Y188643D01*
X451865Y188715D01*
X451865Y228613D01*
X451846Y228729D01*
X451828Y228848D01*
X451826Y228852D01*
X451826Y228856D01*
X451770Y228960D01*
X451715Y229066D01*
X451712Y229069D01*
X451710Y229073D01*
X451626Y229153D01*
X451539Y229238D01*
X451535Y229240D01*
X451532Y229242D01*
X451425Y229292D01*
X451317Y229344D01*
X451313Y229344D01*
X451309Y229346D01*
X451191Y229359D01*
X451073Y229373D01*
X451068Y229373D01*
X451065Y229373D01*
X451051Y229370D01*
X450907Y229348D01*
X450202Y229159D01*
X447693Y229159D01*
X447693Y235938D01*
X447690Y235958D01*
X447692Y235977D01*
X447670Y236079D01*
X447653Y236181D01*
X447644Y236198D01*
X447640Y236218D01*
X447587Y236307D01*
X447538Y236398D01*
X447524Y236412D01*
X447514Y236429D01*
X447435Y236496D01*
X447360Y236567D01*
X447342Y236576D01*
X447327Y236589D01*
X447231Y236628D01*
X447137Y236671D01*
X447117Y236673D01*
X447099Y236681D01*
X446932Y236699D01*
X446169Y236699D01*
X446169Y236701D01*
X446932Y236701D01*
X446952Y236704D01*
X446971Y236702D01*
X447073Y236724D01*
X447175Y236741D01*
X447192Y236750D01*
X447212Y236754D01*
X447301Y236807D01*
X447392Y236856D01*
X447406Y236870D01*
X447423Y236880D01*
X447490Y236959D01*
X447561Y237034D01*
X447570Y237052D01*
X447583Y237067D01*
X447622Y237163D01*
X447665Y237257D01*
X447667Y237277D01*
X447675Y237295D01*
X447693Y237462D01*
X447693Y244470D01*
X447721Y244492D01*
X447749Y244536D01*
X447785Y244574D01*
X447815Y244639D01*
X447854Y244699D01*
X447867Y244750D01*
X447889Y244797D01*
X447897Y244868D01*
X447914Y244938D01*
X447910Y244990D01*
X447916Y245041D01*
X447901Y245112D01*
X447895Y245183D01*
X447875Y245231D01*
X447864Y245282D01*
X447827Y245343D01*
X447799Y245409D01*
X447754Y245465D01*
X447737Y245493D01*
X447720Y245508D01*
X447716Y245514D01*
X447712Y245518D01*
X447694Y245540D01*
X435101Y258133D01*
X435101Y286050D01*
X435087Y286140D01*
X435079Y286231D01*
X435067Y286261D01*
X435062Y286293D01*
X435019Y286373D01*
X434983Y286457D01*
X434957Y286489D01*
X434946Y286510D01*
X434923Y286532D01*
X434878Y286588D01*
X432434Y289032D01*
X432434Y293136D01*
X435336Y296038D01*
X439440Y296038D01*
X442342Y293136D01*
X442342Y289032D01*
X439898Y286588D01*
X439845Y286514D01*
X439785Y286445D01*
X439773Y286414D01*
X439754Y286388D01*
X439727Y286301D01*
X439693Y286216D01*
X439689Y286176D01*
X439682Y286153D01*
X439683Y286121D01*
X439675Y286050D01*
X439675Y260343D01*
X439689Y260252D01*
X439697Y260162D01*
X439709Y260132D01*
X439714Y260100D01*
X439757Y260019D01*
X439793Y259935D01*
X439819Y259903D01*
X439830Y259882D01*
X439853Y259860D01*
X439898Y259804D01*
X456439Y243263D01*
X456439Y186505D01*
X411823Y141889D01*
X411781Y141831D01*
X411732Y141779D01*
X411710Y141732D01*
X411680Y141690D01*
X411659Y141621D01*
X411628Y141556D01*
X411623Y141504D01*
X411607Y141454D01*
X411609Y141383D01*
X411601Y141312D01*
X411612Y141261D01*
X411614Y141209D01*
X411638Y141141D01*
X411653Y141071D01*
X411680Y141026D01*
X411698Y140978D01*
X411743Y140922D01*
X411780Y140860D01*
X411819Y140826D01*
X411852Y140786D01*
X411912Y140747D01*
X411967Y140700D01*
X412015Y140681D01*
X412059Y140653D01*
X412128Y140635D01*
X412195Y140608D01*
X412266Y140600D01*
X412297Y140592D01*
X412321Y140594D01*
X412361Y140590D01*
X412885Y140590D01*
X412975Y140604D01*
X413066Y140612D01*
X413095Y140624D01*
X413127Y140629D01*
X413208Y140672D01*
X413292Y140708D01*
X413324Y140734D01*
X413345Y140745D01*
X413367Y140768D01*
X413423Y140813D01*
X468787Y196177D01*
X468840Y196251D01*
X468900Y196321D01*
X468912Y196351D01*
X468931Y196377D01*
X468958Y196464D01*
X468992Y196549D01*
X468996Y196590D01*
X469003Y196612D01*
X469002Y196644D01*
X469010Y196715D01*
X469010Y200172D01*
X471912Y203074D01*
X476016Y203074D01*
X478918Y200172D01*
X478918Y196068D01*
X476016Y193166D01*
X472559Y193166D01*
X472469Y193152D01*
X472378Y193144D01*
X472349Y193132D01*
X472317Y193127D01*
X472236Y193084D01*
X472152Y193048D01*
X472120Y193022D01*
X472099Y193011D01*
X472077Y192988D01*
X472021Y192943D01*
X416657Y137579D01*
X416604Y137505D01*
X416544Y137435D01*
X416532Y137405D01*
X416513Y137379D01*
X416486Y137292D01*
X416452Y137207D01*
X416448Y137166D01*
X416441Y137144D01*
X416442Y137112D01*
X416434Y137041D01*
X416434Y133584D01*
X413532Y130682D01*
X409428Y130682D01*
X407446Y132664D01*
X407388Y132706D01*
X407336Y132755D01*
X407289Y132777D01*
X407247Y132808D01*
X407178Y132829D01*
X407113Y132859D01*
X407061Y132865D01*
X407011Y132880D01*
X406940Y132878D01*
X406869Y132886D01*
X406818Y132875D01*
X406766Y132874D01*
X406698Y132849D01*
X406628Y132834D01*
X406583Y132807D01*
X406535Y132789D01*
X406479Y132744D01*
X406417Y132708D01*
X406383Y132668D01*
X406343Y132635D01*
X406304Y132575D01*
X406257Y132521D01*
X406238Y132472D01*
X406210Y132429D01*
X406192Y132359D01*
X406165Y132293D01*
X406157Y132221D01*
X406149Y132190D01*
X406151Y132167D01*
X406147Y132126D01*
X406147Y123906D01*
X406161Y123816D01*
X406169Y123725D01*
X406181Y123695D01*
X406186Y123663D01*
X406229Y123583D01*
X406265Y123499D01*
X406291Y123467D01*
X406302Y123446D01*
X406325Y123424D01*
X406370Y123368D01*
X408814Y120924D01*
X408814Y116820D01*
X405912Y113918D01*
X401808Y113918D01*
X401350Y114376D01*
X401292Y114418D01*
X401240Y114467D01*
X401193Y114489D01*
X401151Y114520D01*
X401082Y114541D01*
X401017Y114571D01*
X400965Y114577D01*
X400915Y114592D01*
X400844Y114590D01*
X400773Y114598D01*
X400722Y114587D01*
X400670Y114586D01*
X400602Y114561D01*
X400532Y114546D01*
X400487Y114519D01*
X400439Y114501D01*
X400383Y114456D01*
X400321Y114420D01*
X400287Y114380D01*
X400247Y114347D01*
X400208Y114287D01*
X400161Y114233D01*
X400142Y114184D01*
X400114Y114141D01*
X400096Y114071D01*
X400069Y114005D01*
X400061Y113933D01*
X400053Y113902D01*
X400055Y113879D01*
X400051Y113838D01*
X400051Y21913D01*
X398488Y20350D01*
X374366Y-3772D01*
X373248Y-4890D01*
X373206Y-4948D01*
X373157Y-5000D01*
X373135Y-5047D01*
X373105Y-5089D01*
X373084Y-5158D01*
X373053Y-5223D01*
X373048Y-5275D01*
X373032Y-5325D01*
X373034Y-5396D01*
X373026Y-5467D01*
X373037Y-5518D01*
X373039Y-5570D01*
X373063Y-5638D01*
X373078Y-5708D01*
X373105Y-5753D01*
X373123Y-5801D01*
X373168Y-5857D01*
X373205Y-5919D01*
X373244Y-5953D01*
X373277Y-5993D01*
X373337Y-6032D01*
X373392Y-6079D01*
X373440Y-6098D01*
X373484Y-6126D01*
X373553Y-6144D01*
X373620Y-6171D01*
X373691Y-6179D01*
X373722Y-6187D01*
X373746Y-6185D01*
X373786Y-6189D01*
X495428Y-6189D01*
X495448Y-6186D01*
G37*
G36*
X132940Y279669D02*
X132940Y279669D01*
X133030Y279677D01*
X133060Y279689D01*
X133092Y279694D01*
X133173Y279737D01*
X133257Y279773D01*
X133289Y279799D01*
X133310Y279810D01*
X133332Y279833D01*
X133388Y279878D01*
X142309Y288799D01*
X147251Y288799D01*
X150338Y285712D01*
X150396Y285670D01*
X150448Y285621D01*
X150495Y285599D01*
X150537Y285569D01*
X150606Y285548D01*
X150671Y285517D01*
X150723Y285512D01*
X150773Y285496D01*
X150844Y285498D01*
X150915Y285490D01*
X150966Y285501D01*
X151018Y285503D01*
X151086Y285527D01*
X151156Y285542D01*
X151201Y285569D01*
X151249Y285587D01*
X151305Y285632D01*
X151367Y285669D01*
X151401Y285708D01*
X151441Y285741D01*
X151480Y285801D01*
X151527Y285856D01*
X151546Y285904D01*
X151574Y285948D01*
X151592Y286017D01*
X151619Y286084D01*
X151627Y286155D01*
X151635Y286186D01*
X151633Y286210D01*
X151637Y286250D01*
X151637Y306706D01*
X151635Y306717D01*
X151636Y306724D01*
X151628Y306760D01*
X151623Y306796D01*
X151615Y306887D01*
X151603Y306917D01*
X151598Y306949D01*
X151555Y307029D01*
X151519Y307113D01*
X151493Y307145D01*
X151482Y307166D01*
X151459Y307188D01*
X151414Y307244D01*
X146368Y312290D01*
X146368Y313553D01*
X155747Y322932D01*
X157010Y322932D01*
X163560Y316382D01*
X163560Y315119D01*
X156434Y307993D01*
X156381Y307919D01*
X156321Y307849D01*
X156309Y307819D01*
X156290Y307793D01*
X156263Y307706D01*
X156256Y307688D01*
X156239Y307651D01*
X156238Y307643D01*
X156229Y307621D01*
X156225Y307580D01*
X156218Y307558D01*
X156219Y307526D01*
X156211Y307454D01*
X156211Y298826D01*
X156222Y298756D01*
X156224Y298684D01*
X156242Y298635D01*
X156250Y298584D01*
X156284Y298520D01*
X156309Y298453D01*
X156341Y298412D01*
X156366Y298366D01*
X156417Y298317D01*
X156462Y298261D01*
X156506Y298233D01*
X156544Y298197D01*
X156609Y298167D01*
X156669Y298128D01*
X156720Y298115D01*
X156767Y298093D01*
X156838Y298085D01*
X156908Y298068D01*
X156960Y298072D01*
X157011Y298066D01*
X157082Y298081D01*
X157153Y298087D01*
X157201Y298107D01*
X157252Y298118D01*
X157313Y298155D01*
X157379Y298183D01*
X157435Y298228D01*
X157463Y298245D01*
X157478Y298262D01*
X157510Y298288D01*
X158634Y299412D01*
X162182Y295864D01*
X157129Y290811D01*
X157125Y290812D01*
X157075Y290827D01*
X157004Y290825D01*
X156933Y290833D01*
X156882Y290822D01*
X156830Y290821D01*
X156762Y290796D01*
X156692Y290781D01*
X156647Y290754D01*
X156599Y290736D01*
X156543Y290692D01*
X156481Y290655D01*
X156447Y290615D01*
X156407Y290583D01*
X156368Y290522D01*
X156321Y290468D01*
X156302Y290420D01*
X156274Y290376D01*
X156256Y290306D01*
X156229Y290240D01*
X156221Y290168D01*
X156213Y290137D01*
X156215Y290114D01*
X156211Y290073D01*
X156211Y286251D01*
X156225Y286160D01*
X156233Y286070D01*
X156245Y286040D01*
X156250Y286008D01*
X156293Y285927D01*
X156329Y285843D01*
X156355Y285811D01*
X156366Y285790D01*
X156389Y285768D01*
X156434Y285712D01*
X157958Y284188D01*
X157974Y284177D01*
X157986Y284161D01*
X158074Y284105D01*
X158157Y284045D01*
X158176Y284039D01*
X158193Y284028D01*
X158294Y284003D01*
X158393Y283972D01*
X158412Y283973D01*
X158432Y283968D01*
X158535Y283976D01*
X158638Y283979D01*
X158657Y283986D01*
X158677Y283987D01*
X158772Y284027D01*
X158869Y284063D01*
X158885Y284076D01*
X158903Y284083D01*
X159034Y284188D01*
X160946Y286099D01*
X160957Y286116D01*
X160973Y286128D01*
X161029Y286215D01*
X161089Y286299D01*
X161095Y286318D01*
X161106Y286335D01*
X161131Y286436D01*
X161161Y286534D01*
X161161Y286554D01*
X161166Y286574D01*
X161158Y286676D01*
X161155Y286780D01*
X161148Y286799D01*
X161147Y286819D01*
X161106Y286914D01*
X161071Y287011D01*
X161058Y287027D01*
X161050Y287045D01*
X160946Y287176D01*
X159374Y288748D01*
X164874Y294248D01*
X164886Y294264D01*
X164901Y294277D01*
X164958Y294364D01*
X165018Y294448D01*
X165024Y294467D01*
X165034Y294484D01*
X165060Y294584D01*
X165090Y294683D01*
X165090Y294703D01*
X165094Y294722D01*
X165086Y294825D01*
X165084Y294929D01*
X165077Y294948D01*
X165075Y294967D01*
X165035Y295062D01*
X164999Y295160D01*
X164987Y295175D01*
X164979Y295194D01*
X164874Y295325D01*
X164335Y295864D01*
X164336Y295865D01*
X164875Y295326D01*
X164892Y295314D01*
X164904Y295299D01*
X164991Y295242D01*
X165075Y295182D01*
X165094Y295176D01*
X165111Y295166D01*
X165211Y295140D01*
X165310Y295110D01*
X165330Y295110D01*
X165349Y295106D01*
X165452Y295114D01*
X165556Y295116D01*
X165575Y295123D01*
X165595Y295125D01*
X165689Y295165D01*
X165787Y295201D01*
X165803Y295213D01*
X165821Y295221D01*
X165952Y295326D01*
X171452Y300826D01*
X171500Y300778D01*
X171516Y300767D01*
X171529Y300751D01*
X171616Y300695D01*
X171700Y300635D01*
X171719Y300629D01*
X171735Y300618D01*
X171836Y300593D01*
X171935Y300562D01*
X171955Y300563D01*
X171974Y300558D01*
X172077Y300566D01*
X172181Y300569D01*
X172199Y300576D01*
X172219Y300577D01*
X172314Y300618D01*
X172412Y300653D01*
X172427Y300666D01*
X172446Y300674D01*
X172576Y300778D01*
X179190Y307392D01*
X179202Y307408D01*
X179217Y307421D01*
X179273Y307508D01*
X179334Y307592D01*
X179339Y307611D01*
X179350Y307627D01*
X179375Y307728D01*
X179406Y307827D01*
X179405Y307847D01*
X179410Y307866D01*
X179402Y307969D01*
X179400Y308073D01*
X179393Y308091D01*
X179391Y308111D01*
X179351Y308206D01*
X179315Y308304D01*
X179303Y308319D01*
X179295Y308338D01*
X179190Y308468D01*
X178468Y309190D01*
X178468Y310453D01*
X187990Y319976D01*
X188043Y320050D01*
X188103Y320119D01*
X188115Y320149D01*
X188134Y320175D01*
X188161Y320262D01*
X188195Y320347D01*
X188199Y320388D01*
X188206Y320410D01*
X188205Y320443D01*
X188213Y320514D01*
X188213Y323350D01*
X188202Y323420D01*
X188200Y323492D01*
X188182Y323541D01*
X188174Y323592D01*
X188140Y323656D01*
X188115Y323723D01*
X188083Y323764D01*
X188058Y323810D01*
X188006Y323859D01*
X187962Y323915D01*
X187918Y323943D01*
X187880Y323979D01*
X187815Y324009D01*
X187755Y324048D01*
X187704Y324061D01*
X187657Y324083D01*
X187586Y324091D01*
X187516Y324108D01*
X187464Y324104D01*
X187413Y324110D01*
X187342Y324095D01*
X187271Y324089D01*
X187223Y324069D01*
X187172Y324058D01*
X187111Y324021D01*
X187045Y323993D01*
X186989Y323948D01*
X186961Y323931D01*
X186946Y323914D01*
X186914Y323888D01*
X175865Y312839D01*
X175812Y312765D01*
X175752Y312695D01*
X175740Y312665D01*
X175721Y312639D01*
X175694Y312552D01*
X175660Y312467D01*
X175656Y312426D01*
X175649Y312404D01*
X175650Y312372D01*
X175642Y312300D01*
X175642Y308844D01*
X172740Y305942D01*
X168636Y305942D01*
X165734Y308844D01*
X165734Y312948D01*
X168649Y315862D01*
X168676Y315863D01*
X168725Y315881D01*
X168777Y315889D01*
X168840Y315923D01*
X168907Y315948D01*
X168948Y315980D01*
X168994Y316005D01*
X169043Y316056D01*
X169100Y316101D01*
X169128Y316145D01*
X169164Y316183D01*
X169194Y316248D01*
X169232Y316308D01*
X169245Y316359D01*
X169267Y316406D01*
X169275Y316477D01*
X169293Y316547D01*
X169288Y316599D01*
X169294Y316650D01*
X169279Y316721D01*
X169277Y316750D01*
X174874Y322348D01*
X174886Y322364D01*
X174901Y322377D01*
X174958Y322464D01*
X175018Y322548D01*
X175024Y322567D01*
X175034Y322584D01*
X175060Y322684D01*
X175090Y322783D01*
X175090Y322803D01*
X175094Y322822D01*
X175086Y322925D01*
X175084Y323029D01*
X175077Y323048D01*
X175075Y323067D01*
X175035Y323162D01*
X174999Y323260D01*
X174987Y323275D01*
X174979Y323294D01*
X174874Y323425D01*
X174335Y323964D01*
X174336Y323965D01*
X174875Y323426D01*
X174892Y323414D01*
X174904Y323399D01*
X174991Y323342D01*
X175075Y323282D01*
X175094Y323276D01*
X175111Y323266D01*
X175211Y323240D01*
X175310Y323210D01*
X175330Y323210D01*
X175349Y323206D01*
X175452Y323214D01*
X175556Y323216D01*
X175575Y323223D01*
X175595Y323225D01*
X175689Y323265D01*
X175787Y323301D01*
X175803Y323313D01*
X175821Y323321D01*
X175952Y323426D01*
X181452Y328926D01*
X182930Y327448D01*
X182946Y327437D01*
X182959Y327421D01*
X183028Y327377D01*
X183061Y327349D01*
X183079Y327341D01*
X183130Y327305D01*
X183149Y327299D01*
X183165Y327288D01*
X183266Y327263D01*
X183365Y327233D01*
X183385Y327233D01*
X183404Y327228D01*
X183507Y327236D01*
X183611Y327239D01*
X183629Y327246D01*
X183649Y327247D01*
X183720Y327277D01*
X183724Y327278D01*
X183734Y327283D01*
X183744Y327288D01*
X183842Y327323D01*
X183857Y327336D01*
X183876Y327344D01*
X183930Y327387D01*
X183941Y327393D01*
X183953Y327406D01*
X184006Y327448D01*
X184942Y328384D01*
X184995Y328458D01*
X185055Y328528D01*
X185067Y328558D01*
X185086Y328584D01*
X185113Y328671D01*
X185147Y328756D01*
X185151Y328797D01*
X185158Y328819D01*
X185157Y328851D01*
X185165Y328923D01*
X185165Y343950D01*
X185154Y344020D01*
X185152Y344092D01*
X185134Y344141D01*
X185126Y344192D01*
X185092Y344256D01*
X185067Y344323D01*
X185035Y344364D01*
X185010Y344410D01*
X184959Y344459D01*
X184914Y344515D01*
X184870Y344543D01*
X184832Y344579D01*
X184767Y344609D01*
X184707Y344648D01*
X184656Y344661D01*
X184609Y344683D01*
X184538Y344691D01*
X184468Y344708D01*
X184416Y344704D01*
X184365Y344710D01*
X184294Y344695D01*
X184223Y344689D01*
X184175Y344669D01*
X184124Y344658D01*
X184063Y344621D01*
X183997Y344593D01*
X183941Y344548D01*
X183913Y344531D01*
X183898Y344514D01*
X183866Y344488D01*
X182766Y343388D01*
X178680Y347474D01*
X178664Y347486D01*
X178651Y347501D01*
X178564Y347557D01*
X178480Y347618D01*
X178461Y347624D01*
X178444Y347634D01*
X178344Y347660D01*
X178245Y347690D01*
X178225Y347690D01*
X178206Y347694D01*
X178103Y347686D01*
X177999Y347684D01*
X177980Y347677D01*
X177961Y347675D01*
X177866Y347635D01*
X177768Y347599D01*
X177752Y347587D01*
X177734Y347579D01*
X177603Y347474D01*
X177064Y346935D01*
X177063Y346936D01*
X177602Y347475D01*
X177614Y347492D01*
X177629Y347504D01*
X177685Y347591D01*
X177746Y347675D01*
X177751Y347694D01*
X177762Y347711D01*
X177788Y347811D01*
X177818Y347910D01*
X177817Y347930D01*
X177822Y347949D01*
X177814Y348052D01*
X177812Y348156D01*
X177805Y348175D01*
X177803Y348195D01*
X177763Y348290D01*
X177727Y348387D01*
X177715Y348403D01*
X177707Y348421D01*
X177602Y348552D01*
X173516Y352638D01*
X173908Y353030D01*
X173949Y353088D01*
X173999Y353140D01*
X174021Y353187D01*
X174051Y353229D01*
X174072Y353298D01*
X174102Y353363D01*
X174108Y353415D01*
X174124Y353465D01*
X174122Y353536D01*
X174130Y353607D01*
X174119Y353658D01*
X174117Y353710D01*
X174093Y353778D01*
X174077Y353848D01*
X174051Y353892D01*
X174033Y353941D01*
X173988Y353997D01*
X173951Y354059D01*
X173912Y354093D01*
X173879Y354133D01*
X173819Y354172D01*
X173764Y354219D01*
X173716Y354238D01*
X173672Y354266D01*
X173603Y354284D01*
X173536Y354311D01*
X173465Y354319D01*
X173434Y354327D01*
X173410Y354325D01*
X173369Y354329D01*
X171951Y354329D01*
X171860Y354315D01*
X171770Y354307D01*
X171740Y354295D01*
X171708Y354290D01*
X171627Y354247D01*
X171543Y354211D01*
X171511Y354185D01*
X171490Y354174D01*
X171468Y354151D01*
X171412Y354106D01*
X164015Y346709D01*
X133806Y346709D01*
X133736Y346698D01*
X133664Y346696D01*
X133615Y346678D01*
X133564Y346670D01*
X133500Y346636D01*
X133433Y346611D01*
X133392Y346579D01*
X133346Y346554D01*
X133297Y346503D01*
X133241Y346458D01*
X133213Y346414D01*
X133177Y346376D01*
X133147Y346311D01*
X133108Y346251D01*
X133095Y346200D01*
X133073Y346153D01*
X133065Y346082D01*
X133048Y346012D01*
X133052Y345960D01*
X133046Y345909D01*
X133061Y345838D01*
X133067Y345767D01*
X133087Y345719D01*
X133098Y345668D01*
X133135Y345607D01*
X133163Y345541D01*
X133208Y345485D01*
X133225Y345457D01*
X133242Y345442D01*
X133268Y345410D01*
X134468Y344210D01*
X134803Y343630D01*
X134976Y342984D01*
X134976Y342315D01*
X134803Y341669D01*
X134468Y341090D01*
X132480Y339102D01*
X126980Y344602D01*
X126964Y344614D01*
X126951Y344629D01*
X126864Y344685D01*
X126780Y344746D01*
X126761Y344751D01*
X126744Y344762D01*
X126644Y344788D01*
X126545Y344818D01*
X126525Y344817D01*
X126506Y344822D01*
X126403Y344814D01*
X126299Y344812D01*
X126280Y344805D01*
X126261Y344803D01*
X126166Y344763D01*
X126068Y344727D01*
X126052Y344715D01*
X126034Y344707D01*
X125903Y344602D01*
X125364Y344063D01*
X125363Y344064D01*
X125902Y344603D01*
X125914Y344619D01*
X125929Y344632D01*
X125985Y344719D01*
X126046Y344803D01*
X126051Y344822D01*
X126062Y344839D01*
X126088Y344939D01*
X126118Y345038D01*
X126117Y345058D01*
X126122Y345077D01*
X126114Y345180D01*
X126112Y345284D01*
X126105Y345303D01*
X126103Y345323D01*
X126063Y345417D01*
X126027Y345515D01*
X126015Y345531D01*
X126007Y345549D01*
X125902Y345680D01*
X120402Y351180D01*
X121724Y352502D01*
X121735Y352518D01*
X121751Y352531D01*
X121807Y352618D01*
X121867Y352702D01*
X121873Y352721D01*
X121884Y352737D01*
X121909Y352838D01*
X121939Y352937D01*
X121939Y352957D01*
X121944Y352976D01*
X121936Y353079D01*
X121933Y353183D01*
X121926Y353201D01*
X121925Y353221D01*
X121884Y353316D01*
X121849Y353414D01*
X121836Y353429D01*
X121828Y353448D01*
X121724Y353579D01*
X119672Y355630D01*
X119598Y355683D01*
X119528Y355743D01*
X119498Y355755D01*
X119472Y355774D01*
X119385Y355801D01*
X119300Y355835D01*
X119259Y355839D01*
X119237Y355846D01*
X119205Y355845D01*
X119133Y355853D01*
X116401Y355853D01*
X104393Y367861D01*
X104393Y383774D01*
X104386Y383818D01*
X104388Y383861D01*
X104366Y383938D01*
X104354Y384017D01*
X104333Y384056D01*
X104321Y384098D01*
X104276Y384164D01*
X104238Y384234D01*
X104207Y384265D01*
X104182Y384301D01*
X104118Y384349D01*
X104060Y384404D01*
X104020Y384422D01*
X103985Y384449D01*
X103849Y384502D01*
X103837Y384507D01*
X103834Y384508D01*
X103829Y384510D01*
X103397Y384625D01*
X102818Y384960D01*
X99416Y388362D01*
X103502Y392448D01*
X103514Y392464D01*
X103529Y392477D01*
X103585Y392564D01*
X103646Y392648D01*
X103651Y392667D01*
X103662Y392684D01*
X103688Y392784D01*
X103718Y392883D01*
X103717Y392903D01*
X103722Y392922D01*
X103714Y393025D01*
X103712Y393129D01*
X103705Y393147D01*
X103703Y393167D01*
X103663Y393262D01*
X103627Y393360D01*
X103615Y393375D01*
X103607Y393394D01*
X103502Y393525D01*
X102963Y394064D01*
X102964Y394065D01*
X103503Y393526D01*
X103519Y393514D01*
X103532Y393499D01*
X103619Y393442D01*
X103703Y393382D01*
X103722Y393376D01*
X103739Y393366D01*
X103839Y393340D01*
X103938Y393310D01*
X103958Y393310D01*
X103977Y393306D01*
X104080Y393314D01*
X104184Y393316D01*
X104203Y393323D01*
X104223Y393325D01*
X104317Y393365D01*
X104415Y393401D01*
X104431Y393413D01*
X104449Y393421D01*
X104580Y393526D01*
X108666Y397612D01*
X109190Y397088D01*
X109248Y397046D01*
X109300Y396997D01*
X109347Y396975D01*
X109389Y396945D01*
X109458Y396924D01*
X109523Y396893D01*
X109575Y396888D01*
X109625Y396872D01*
X109696Y396874D01*
X109767Y396866D01*
X109818Y396877D01*
X109870Y396879D01*
X109938Y396903D01*
X110008Y396918D01*
X110052Y396945D01*
X110101Y396963D01*
X110157Y397008D01*
X110219Y397045D01*
X110253Y397084D01*
X110293Y397117D01*
X110332Y397177D01*
X110379Y397232D01*
X110398Y397280D01*
X110426Y397324D01*
X110444Y397393D01*
X110471Y397460D01*
X110479Y397531D01*
X110487Y397562D01*
X110485Y397585D01*
X110489Y397626D01*
X110489Y437649D01*
X110488Y437657D01*
X110488Y437659D01*
X110486Y437669D01*
X110475Y437740D01*
X110467Y437830D01*
X110455Y437860D01*
X110450Y437892D01*
X110407Y437973D01*
X110371Y438057D01*
X110345Y438089D01*
X110334Y438110D01*
X110311Y438132D01*
X110266Y438188D01*
X102869Y445585D01*
X102869Y456623D01*
X122839Y476593D01*
X122892Y476667D01*
X122952Y476737D01*
X122964Y476767D01*
X122983Y476793D01*
X123010Y476880D01*
X123044Y476965D01*
X123048Y477006D01*
X123055Y477028D01*
X123054Y477060D01*
X123062Y477131D01*
X123062Y480588D01*
X123520Y481046D01*
X123562Y481104D01*
X123611Y481156D01*
X123633Y481203D01*
X123664Y481245D01*
X123685Y481314D01*
X123715Y481379D01*
X123721Y481431D01*
X123736Y481481D01*
X123734Y481552D01*
X123742Y481623D01*
X123731Y481674D01*
X123730Y481726D01*
X123705Y481794D01*
X123690Y481864D01*
X123663Y481909D01*
X123645Y481957D01*
X123600Y482013D01*
X123564Y482075D01*
X123524Y482109D01*
X123491Y482149D01*
X123431Y482188D01*
X123377Y482235D01*
X123328Y482254D01*
X123285Y482282D01*
X123215Y482300D01*
X123149Y482327D01*
X123077Y482335D01*
X123046Y482343D01*
X123023Y482341D01*
X122982Y482345D01*
X92703Y482345D01*
X92612Y482331D01*
X92522Y482323D01*
X92492Y482311D01*
X92460Y482306D01*
X92379Y482263D01*
X92295Y482227D01*
X92263Y482201D01*
X92242Y482190D01*
X92220Y482167D01*
X92164Y482122D01*
X75033Y464991D01*
X75028Y464984D01*
X75021Y464979D01*
X74964Y464896D01*
X74951Y464882D01*
X74944Y464868D01*
X74889Y464791D01*
X74887Y464783D01*
X74882Y464776D01*
X74851Y464666D01*
X74847Y464659D01*
X74847Y464653D01*
X74817Y464556D01*
X74817Y464547D01*
X74815Y464539D01*
X74820Y464424D01*
X74820Y464416D01*
X74820Y464415D01*
X74820Y464414D01*
X74823Y464310D01*
X74826Y464302D01*
X74826Y464293D01*
X74868Y464186D01*
X74872Y464176D01*
X74873Y464174D01*
X74873Y464173D01*
X74908Y464079D01*
X74913Y464072D01*
X74916Y464064D01*
X74990Y463976D01*
X74994Y463971D01*
X74999Y463963D01*
X75004Y463958D01*
X75061Y463887D01*
X75069Y463882D01*
X75074Y463876D01*
X75077Y463874D01*
X75077Y452262D01*
X75080Y452242D01*
X75078Y452223D01*
X75100Y452121D01*
X75117Y452019D01*
X75126Y452002D01*
X75130Y451982D01*
X75183Y451893D01*
X75232Y451802D01*
X75246Y451788D01*
X75256Y451771D01*
X75335Y451704D01*
X75410Y451633D01*
X75428Y451624D01*
X75443Y451611D01*
X75539Y451573D01*
X75633Y451529D01*
X75653Y451527D01*
X75671Y451519D01*
X75838Y451501D01*
X76601Y451501D01*
X76601Y451499D01*
X75838Y451499D01*
X75818Y451496D01*
X75799Y451498D01*
X75697Y451476D01*
X75595Y451459D01*
X75578Y451450D01*
X75558Y451446D01*
X75469Y451393D01*
X75378Y451344D01*
X75364Y451330D01*
X75347Y451320D01*
X75280Y451241D01*
X75209Y451166D01*
X75200Y451148D01*
X75187Y451133D01*
X75148Y451037D01*
X75105Y450943D01*
X75103Y450923D01*
X75095Y450905D01*
X75077Y450738D01*
X75077Y439397D01*
X73745Y439607D01*
X71920Y440201D01*
X70210Y441072D01*
X68657Y442200D01*
X67594Y443263D01*
X67536Y443304D01*
X67484Y443354D01*
X67437Y443376D01*
X67395Y443406D01*
X67326Y443427D01*
X67261Y443457D01*
X67209Y443463D01*
X67159Y443479D01*
X67088Y443477D01*
X67017Y443485D01*
X66966Y443474D01*
X66914Y443472D01*
X66846Y443448D01*
X66776Y443432D01*
X66731Y443406D01*
X66683Y443388D01*
X66627Y443343D01*
X66565Y443306D01*
X66531Y443267D01*
X66491Y443234D01*
X66452Y443174D01*
X66405Y443119D01*
X66386Y443071D01*
X66358Y443027D01*
X66340Y442958D01*
X66313Y442891D01*
X66305Y442820D01*
X66297Y442789D01*
X66299Y442765D01*
X66295Y442724D01*
X66295Y409695D01*
X66309Y409604D01*
X66317Y409514D01*
X66329Y409484D01*
X66334Y409452D01*
X66377Y409371D01*
X66413Y409287D01*
X66439Y409255D01*
X66450Y409234D01*
X66473Y409212D01*
X66518Y409156D01*
X86428Y389246D01*
X86444Y389234D01*
X86457Y389219D01*
X86544Y389163D01*
X86628Y389102D01*
X86647Y389097D01*
X86663Y389086D01*
X86764Y389061D01*
X86863Y389030D01*
X86883Y389031D01*
X86902Y389026D01*
X87005Y389034D01*
X87109Y389036D01*
X87127Y389043D01*
X87147Y389045D01*
X87242Y389085D01*
X87340Y389121D01*
X87355Y389133D01*
X87374Y389141D01*
X87504Y389246D01*
X88190Y389932D01*
X89453Y389932D01*
X98832Y380553D01*
X98832Y379290D01*
X92426Y372884D01*
X92373Y372810D01*
X92313Y372741D01*
X92301Y372711D01*
X92282Y372684D01*
X92255Y372597D01*
X92221Y372513D01*
X92217Y372472D01*
X92210Y372449D01*
X92211Y372417D01*
X92203Y372346D01*
X92203Y364813D01*
X78204Y350814D01*
X78192Y350798D01*
X78177Y350785D01*
X78121Y350698D01*
X78060Y350614D01*
X78055Y350595D01*
X78044Y350579D01*
X78018Y350478D01*
X77988Y350379D01*
X77989Y350359D01*
X77984Y350340D01*
X77992Y350237D01*
X77994Y350133D01*
X78001Y350115D01*
X78003Y350095D01*
X78043Y350000D01*
X78079Y349902D01*
X78091Y349887D01*
X78099Y349868D01*
X78204Y349738D01*
X79932Y348010D01*
X79932Y346747D01*
X74138Y340952D01*
X74085Y340878D01*
X74025Y340809D01*
X74013Y340779D01*
X73994Y340753D01*
X73967Y340666D01*
X73933Y340581D01*
X73929Y340540D01*
X73922Y340518D01*
X73923Y340485D01*
X73915Y340414D01*
X73915Y334175D01*
X73926Y334104D01*
X73928Y334032D01*
X73946Y333983D01*
X73954Y333932D01*
X73988Y333869D01*
X74013Y333801D01*
X74045Y333760D01*
X74070Y333715D01*
X74121Y333665D01*
X74166Y333609D01*
X74210Y333581D01*
X74248Y333545D01*
X74313Y333515D01*
X74373Y333476D01*
X74424Y333463D01*
X74471Y333442D01*
X74542Y333434D01*
X74612Y333416D01*
X74664Y333420D01*
X74715Y333414D01*
X74786Y333430D01*
X74857Y333435D01*
X74905Y333456D01*
X74956Y333467D01*
X75017Y333504D01*
X75083Y333532D01*
X75139Y333576D01*
X75167Y333593D01*
X75182Y333611D01*
X75214Y333636D01*
X78362Y336784D01*
X81910Y333236D01*
X76948Y328274D01*
X75214Y330007D01*
X75156Y330049D01*
X75104Y330099D01*
X75057Y330120D01*
X75015Y330151D01*
X74946Y330172D01*
X74881Y330202D01*
X74829Y330208D01*
X74779Y330223D01*
X74708Y330221D01*
X74637Y330229D01*
X74586Y330218D01*
X74534Y330217D01*
X74466Y330192D01*
X74396Y330177D01*
X74351Y330150D01*
X74303Y330132D01*
X74247Y330088D01*
X74185Y330051D01*
X74151Y330011D01*
X74111Y329979D01*
X74072Y329918D01*
X74025Y329864D01*
X74006Y329816D01*
X73978Y329772D01*
X73960Y329702D01*
X73933Y329636D01*
X73925Y329564D01*
X73917Y329533D01*
X73919Y329510D01*
X73915Y329469D01*
X73915Y326136D01*
X73918Y326116D01*
X73916Y326097D01*
X73938Y325995D01*
X73954Y325893D01*
X73964Y325876D01*
X73968Y325856D01*
X74021Y325767D01*
X74070Y325676D01*
X74084Y325662D01*
X74094Y325645D01*
X74173Y325578D01*
X74248Y325506D01*
X74266Y325498D01*
X74281Y325485D01*
X74377Y325446D01*
X74471Y325403D01*
X74491Y325401D01*
X74509Y325393D01*
X74676Y325375D01*
X78041Y325375D01*
X78132Y325389D01*
X78222Y325397D01*
X78252Y325409D01*
X78284Y325414D01*
X78365Y325457D01*
X78449Y325493D01*
X78481Y325519D01*
X78502Y325530D01*
X78524Y325553D01*
X78580Y325598D01*
X84602Y331620D01*
X84614Y331636D01*
X84629Y331649D01*
X84685Y331736D01*
X84746Y331820D01*
X84751Y331839D01*
X84762Y331856D01*
X84788Y331956D01*
X84818Y332055D01*
X84817Y332075D01*
X84822Y332094D01*
X84814Y332197D01*
X84812Y332301D01*
X84805Y332320D01*
X84803Y332339D01*
X84763Y332434D01*
X84727Y332532D01*
X84715Y332547D01*
X84707Y332566D01*
X84602Y332697D01*
X84063Y333236D01*
X84064Y333237D01*
X84603Y332698D01*
X84619Y332686D01*
X84632Y332671D01*
X84719Y332615D01*
X84803Y332554D01*
X84822Y332548D01*
X84839Y332538D01*
X84939Y332512D01*
X85038Y332482D01*
X85058Y332482D01*
X85077Y332478D01*
X85180Y332486D01*
X85284Y332488D01*
X85303Y332495D01*
X85323Y332497D01*
X85417Y332537D01*
X85515Y332573D01*
X85531Y332585D01*
X85549Y332593D01*
X85680Y332698D01*
X91180Y338198D01*
X92900Y336478D01*
X92916Y336467D01*
X92929Y336451D01*
X93016Y336395D01*
X93100Y336335D01*
X93119Y336329D01*
X93135Y336318D01*
X93236Y336293D01*
X93335Y336263D01*
X93355Y336263D01*
X93374Y336258D01*
X93477Y336266D01*
X93581Y336269D01*
X93599Y336276D01*
X93619Y336277D01*
X93714Y336318D01*
X93812Y336353D01*
X93827Y336366D01*
X93846Y336374D01*
X93976Y336478D01*
X98113Y340615D01*
X102108Y340615D01*
X102128Y340618D01*
X102147Y340616D01*
X102249Y340638D01*
X102351Y340654D01*
X102368Y340664D01*
X102388Y340668D01*
X102477Y340721D01*
X102568Y340770D01*
X102582Y340784D01*
X102599Y340794D01*
X102666Y340873D01*
X102738Y340948D01*
X102746Y340966D01*
X102759Y340981D01*
X102798Y341077D01*
X102841Y341171D01*
X102843Y341191D01*
X102851Y341209D01*
X102869Y341376D01*
X102869Y349274D01*
X102855Y349364D01*
X102847Y349455D01*
X102835Y349485D01*
X102830Y349517D01*
X102787Y349598D01*
X102751Y349682D01*
X102725Y349714D01*
X102714Y349734D01*
X102691Y349757D01*
X102646Y349813D01*
X95740Y356719D01*
X95740Y357982D01*
X102290Y364532D01*
X103553Y364532D01*
X112932Y355153D01*
X112932Y353890D01*
X107666Y348624D01*
X107613Y348550D01*
X107553Y348481D01*
X107541Y348451D01*
X107522Y348424D01*
X107495Y348337D01*
X107461Y348253D01*
X107457Y348212D01*
X107450Y348189D01*
X107451Y348157D01*
X107443Y348086D01*
X107443Y339590D01*
X107457Y339500D01*
X107465Y339409D01*
X107477Y339380D01*
X107482Y339348D01*
X107525Y339267D01*
X107561Y339183D01*
X107587Y339151D01*
X107598Y339130D01*
X107621Y339108D01*
X107666Y339052D01*
X108150Y338568D01*
X108166Y338556D01*
X108179Y338541D01*
X108266Y338485D01*
X108350Y338424D01*
X108369Y338419D01*
X108385Y338408D01*
X108486Y338383D01*
X108585Y338352D01*
X108605Y338353D01*
X108624Y338348D01*
X108727Y338356D01*
X108831Y338358D01*
X108849Y338365D01*
X108869Y338367D01*
X108964Y338407D01*
X109062Y338443D01*
X109077Y338455D01*
X109095Y338463D01*
X109226Y338568D01*
X110590Y339932D01*
X111853Y339932D01*
X121232Y330553D01*
X121232Y329290D01*
X119868Y327926D01*
X119856Y327910D01*
X119841Y327898D01*
X119785Y327810D01*
X119724Y327727D01*
X119719Y327708D01*
X119708Y327691D01*
X119683Y327590D01*
X119652Y327492D01*
X119653Y327472D01*
X119648Y327452D01*
X119656Y327349D01*
X119658Y327246D01*
X119665Y327227D01*
X119667Y327207D01*
X119707Y327112D01*
X119743Y327015D01*
X119755Y326999D01*
X119763Y326981D01*
X119868Y326850D01*
X121159Y325559D01*
X121159Y317398D01*
X121173Y317308D01*
X121181Y317217D01*
X121193Y317187D01*
X121198Y317155D01*
X121241Y317075D01*
X121277Y316991D01*
X121303Y316959D01*
X121314Y316938D01*
X121337Y316916D01*
X121382Y316860D01*
X127532Y310710D01*
X127532Y309447D01*
X118153Y300068D01*
X116890Y300068D01*
X110340Y306618D01*
X110340Y307881D01*
X116362Y313903D01*
X116415Y313977D01*
X116475Y314047D01*
X116487Y314077D01*
X116506Y314103D01*
X116533Y314190D01*
X116567Y314275D01*
X116571Y314316D01*
X116578Y314338D01*
X116577Y314370D01*
X116585Y314442D01*
X116585Y322806D01*
X116574Y322877D01*
X116572Y322948D01*
X116554Y322997D01*
X116546Y323049D01*
X116512Y323112D01*
X116487Y323179D01*
X116455Y323220D01*
X116430Y323266D01*
X116378Y323315D01*
X116334Y323371D01*
X116290Y323400D01*
X116252Y323435D01*
X116187Y323466D01*
X116127Y323504D01*
X116076Y323517D01*
X116029Y323539D01*
X115958Y323547D01*
X115888Y323564D01*
X115836Y323560D01*
X115785Y323566D01*
X115714Y323551D01*
X115643Y323545D01*
X115595Y323525D01*
X115544Y323514D01*
X115483Y323477D01*
X115417Y323449D01*
X115361Y323404D01*
X115333Y323388D01*
X115318Y323370D01*
X115286Y323344D01*
X114682Y322740D01*
X113419Y322740D01*
X104040Y332119D01*
X104040Y333382D01*
X104916Y334258D01*
X104928Y334274D01*
X104943Y334286D01*
X104999Y334374D01*
X105060Y334457D01*
X105065Y334476D01*
X105076Y334493D01*
X105101Y334594D01*
X105132Y334692D01*
X105131Y334712D01*
X105136Y334732D01*
X105128Y334835D01*
X105126Y334938D01*
X105119Y334957D01*
X105117Y334977D01*
X105077Y335072D01*
X105041Y335169D01*
X105029Y335185D01*
X105021Y335203D01*
X104916Y335334D01*
X104432Y335818D01*
X104358Y335871D01*
X104288Y335931D01*
X104258Y335943D01*
X104232Y335962D01*
X104145Y335989D01*
X104060Y336023D01*
X104019Y336027D01*
X103997Y336034D01*
X103965Y336033D01*
X103894Y336041D01*
X100323Y336041D01*
X100232Y336027D01*
X100142Y336019D01*
X100112Y336007D01*
X100080Y336002D01*
X99999Y335959D01*
X99915Y335923D01*
X99883Y335897D01*
X99862Y335886D01*
X99840Y335863D01*
X99784Y335818D01*
X84767Y320801D01*
X74676Y320801D01*
X74656Y320798D01*
X74637Y320800D01*
X74535Y320778D01*
X74433Y320762D01*
X74416Y320752D01*
X74396Y320748D01*
X74307Y320695D01*
X74216Y320646D01*
X74202Y320632D01*
X74185Y320622D01*
X74118Y320543D01*
X74046Y320468D01*
X74038Y320450D01*
X74025Y320435D01*
X73986Y320339D01*
X73943Y320245D01*
X73941Y320225D01*
X73933Y320207D01*
X73915Y320040D01*
X73915Y312921D01*
X73918Y312901D01*
X73916Y312882D01*
X73938Y312780D01*
X73954Y312678D01*
X73964Y312661D01*
X73968Y312641D01*
X74021Y312552D01*
X74070Y312461D01*
X74084Y312447D01*
X74094Y312430D01*
X74173Y312363D01*
X74248Y312291D01*
X74266Y312283D01*
X74281Y312270D01*
X74377Y312231D01*
X74471Y312188D01*
X74491Y312186D01*
X74509Y312178D01*
X74676Y312160D01*
X74982Y312160D01*
X81532Y305610D01*
X81532Y304347D01*
X80619Y303433D01*
X80577Y303375D01*
X80527Y303323D01*
X80505Y303276D01*
X80475Y303234D01*
X80454Y303165D01*
X80424Y303100D01*
X80418Y303048D01*
X80403Y302998D01*
X80404Y302927D01*
X80397Y302856D01*
X80408Y302805D01*
X80409Y302753D01*
X80434Y302685D01*
X80449Y302615D01*
X80476Y302570D01*
X80493Y302522D01*
X80538Y302466D01*
X80575Y302404D01*
X80615Y302370D01*
X80647Y302330D01*
X80707Y302291D01*
X80762Y302244D01*
X80810Y302225D01*
X80854Y302197D01*
X80924Y302179D01*
X80990Y302152D01*
X81061Y302144D01*
X81093Y302136D01*
X81116Y302138D01*
X81157Y302134D01*
X81300Y302134D01*
X84202Y299232D01*
X84202Y299025D01*
X84213Y298954D01*
X84215Y298882D01*
X84233Y298833D01*
X84241Y298782D01*
X84275Y298719D01*
X84300Y298651D01*
X84332Y298611D01*
X84357Y298565D01*
X84409Y298515D01*
X84453Y298459D01*
X84497Y298431D01*
X84535Y298395D01*
X84600Y298365D01*
X84660Y298326D01*
X84711Y298314D01*
X84758Y298292D01*
X84829Y298284D01*
X84899Y298266D01*
X84951Y298270D01*
X85002Y298265D01*
X85073Y298280D01*
X85144Y298285D01*
X85192Y298306D01*
X85243Y298317D01*
X85304Y298354D01*
X85370Y298382D01*
X85426Y298427D01*
X85454Y298443D01*
X85469Y298461D01*
X85501Y298487D01*
X86447Y299432D01*
X87710Y299432D01*
X89308Y297834D01*
X89324Y297822D01*
X89336Y297807D01*
X89423Y297751D01*
X89507Y297690D01*
X89526Y297685D01*
X89543Y297674D01*
X89644Y297649D01*
X89742Y297618D01*
X89762Y297619D01*
X89782Y297614D01*
X89885Y297622D01*
X89988Y297624D01*
X90007Y297631D01*
X90027Y297633D01*
X90122Y297673D01*
X90219Y297709D01*
X90235Y297721D01*
X90253Y297729D01*
X90384Y297834D01*
X101022Y308472D01*
X101034Y308488D01*
X101049Y308500D01*
X101105Y308588D01*
X101165Y308672D01*
X101171Y308691D01*
X101182Y308707D01*
X101207Y308808D01*
X101238Y308907D01*
X101237Y308927D01*
X101242Y308946D01*
X101234Y309049D01*
X101231Y309153D01*
X101225Y309171D01*
X101223Y309191D01*
X101183Y309286D01*
X101147Y309384D01*
X101135Y309399D01*
X101127Y309417D01*
X101022Y309548D01*
X100202Y310368D01*
X100202Y314472D01*
X103104Y317374D01*
X107208Y317374D01*
X110110Y314472D01*
X110110Y310368D01*
X107208Y307466D01*
X106800Y307466D01*
X106709Y307452D01*
X106619Y307444D01*
X106589Y307432D01*
X106557Y307427D01*
X106476Y307384D01*
X106392Y307348D01*
X106360Y307322D01*
X106339Y307311D01*
X106321Y307292D01*
X106319Y307291D01*
X106313Y307285D01*
X106261Y307243D01*
X93618Y294600D01*
X93606Y294584D01*
X93591Y294571D01*
X93535Y294484D01*
X93474Y294400D01*
X93469Y294381D01*
X93458Y294365D01*
X93433Y294264D01*
X93402Y294165D01*
X93403Y294145D01*
X93398Y294126D01*
X93406Y294023D01*
X93408Y293919D01*
X93415Y293901D01*
X93417Y293881D01*
X93457Y293786D01*
X93493Y293688D01*
X93505Y293673D01*
X93513Y293654D01*
X93618Y293524D01*
X94260Y292882D01*
X94260Y291619D01*
X85594Y282953D01*
X85582Y282937D01*
X85567Y282924D01*
X85511Y282837D01*
X85450Y282753D01*
X85444Y282734D01*
X85434Y282717D01*
X85408Y282617D01*
X85378Y282518D01*
X85378Y282498D01*
X85374Y282479D01*
X85382Y282376D01*
X85384Y282272D01*
X85391Y282253D01*
X85393Y282233D01*
X85433Y282138D01*
X85469Y282041D01*
X85481Y282025D01*
X85489Y282007D01*
X85594Y281876D01*
X87592Y279878D01*
X87666Y279825D01*
X87736Y279765D01*
X87766Y279753D01*
X87792Y279734D01*
X87879Y279707D01*
X87964Y279673D01*
X88005Y279669D01*
X88027Y279662D01*
X88059Y279663D01*
X88131Y279655D01*
X132849Y279655D01*
X132940Y279669D01*
G37*
G36*
X125058Y368900D02*
X125058Y368900D01*
X125110Y368902D01*
X125178Y368926D01*
X125248Y368942D01*
X125293Y368968D01*
X125341Y368986D01*
X125397Y369031D01*
X125459Y369068D01*
X125493Y369107D01*
X125533Y369140D01*
X125572Y369200D01*
X125619Y369255D01*
X125638Y369303D01*
X125666Y369347D01*
X125684Y369416D01*
X125711Y369483D01*
X125719Y369554D01*
X125727Y369585D01*
X125725Y369609D01*
X125729Y369650D01*
X125729Y380423D01*
X200221Y454915D01*
X215310Y454915D01*
X215406Y454930D01*
X215503Y454940D01*
X215527Y454950D01*
X215553Y454954D01*
X215639Y455000D01*
X215728Y455040D01*
X215747Y455057D01*
X215770Y455070D01*
X215837Y455140D01*
X215909Y455206D01*
X215921Y455229D01*
X215939Y455248D01*
X215980Y455336D01*
X216027Y455422D01*
X216032Y455447D01*
X216043Y455471D01*
X216054Y455568D01*
X216071Y455664D01*
X216067Y455690D01*
X216070Y455715D01*
X216049Y455810D01*
X216035Y455907D01*
X216023Y455930D01*
X216018Y455956D01*
X215968Y456039D01*
X215924Y456126D01*
X215905Y456145D01*
X215892Y456167D01*
X215818Y456230D01*
X215748Y456298D01*
X215720Y456314D01*
X215705Y456327D01*
X215674Y456339D01*
X215601Y456379D01*
X215213Y456540D01*
X212140Y459613D01*
X210477Y463627D01*
X210477Y467973D01*
X212140Y471987D01*
X215213Y475060D01*
X219227Y476723D01*
X223573Y476723D01*
X227587Y475060D01*
X230660Y471987D01*
X232323Y467973D01*
X232323Y463627D01*
X230660Y459613D01*
X227587Y456540D01*
X227199Y456379D01*
X227116Y456328D01*
X227030Y456282D01*
X227012Y456263D01*
X226990Y456250D01*
X226928Y456175D01*
X226861Y456104D01*
X226850Y456080D01*
X226833Y456060D01*
X226798Y455969D01*
X226757Y455881D01*
X226754Y455855D01*
X226745Y455831D01*
X226741Y455733D01*
X226730Y455637D01*
X226735Y455611D01*
X226734Y455585D01*
X226761Y455491D01*
X226782Y455396D01*
X226796Y455374D01*
X226803Y455349D01*
X226858Y455269D01*
X226908Y455185D01*
X226928Y455168D01*
X226943Y455147D01*
X227021Y455088D01*
X227095Y455025D01*
X227120Y455015D01*
X227140Y455000D01*
X227233Y454970D01*
X227323Y454933D01*
X227356Y454930D01*
X227374Y454924D01*
X227407Y454924D01*
X227490Y454915D01*
X240710Y454915D01*
X240806Y454930D01*
X240903Y454940D01*
X240927Y454950D01*
X240953Y454954D01*
X241039Y455000D01*
X241128Y455040D01*
X241147Y455057D01*
X241170Y455070D01*
X241237Y455140D01*
X241309Y455206D01*
X241321Y455229D01*
X241339Y455248D01*
X241380Y455336D01*
X241427Y455422D01*
X241432Y455447D01*
X241443Y455471D01*
X241454Y455568D01*
X241471Y455664D01*
X241467Y455690D01*
X241470Y455715D01*
X241449Y455810D01*
X241435Y455907D01*
X241423Y455930D01*
X241418Y455956D01*
X241368Y456039D01*
X241324Y456126D01*
X241305Y456145D01*
X241292Y456167D01*
X241218Y456230D01*
X241148Y456298D01*
X241120Y456314D01*
X241105Y456327D01*
X241074Y456339D01*
X241001Y456379D01*
X240613Y456540D01*
X237540Y459613D01*
X235877Y463627D01*
X235877Y467973D01*
X237540Y471987D01*
X240613Y475060D01*
X244627Y476723D01*
X248202Y476723D01*
X248272Y476734D01*
X248344Y476736D01*
X248393Y476754D01*
X248444Y476762D01*
X248508Y476796D01*
X248575Y476821D01*
X248616Y476853D01*
X248662Y476878D01*
X248711Y476930D01*
X248767Y476974D01*
X248795Y477018D01*
X248831Y477056D01*
X248861Y477121D01*
X248900Y477181D01*
X248913Y477232D01*
X248935Y477279D01*
X248943Y477350D01*
X248960Y477420D01*
X248956Y477472D01*
X248962Y477523D01*
X248947Y477594D01*
X248941Y477665D01*
X248921Y477713D01*
X248910Y477764D01*
X248873Y477825D01*
X248845Y477891D01*
X248800Y477947D01*
X248783Y477975D01*
X248766Y477990D01*
X248740Y478022D01*
X244640Y482122D01*
X244566Y482175D01*
X244496Y482235D01*
X244466Y482247D01*
X244440Y482266D01*
X244353Y482293D01*
X244268Y482327D01*
X244227Y482331D01*
X244205Y482338D01*
X244173Y482337D01*
X244101Y482345D01*
X133050Y482345D01*
X132979Y482334D01*
X132908Y482332D01*
X132859Y482314D01*
X132807Y482306D01*
X132744Y482272D01*
X132677Y482247D01*
X132636Y482215D01*
X132590Y482190D01*
X132541Y482139D01*
X132485Y482094D01*
X132457Y482050D01*
X132421Y482012D01*
X132390Y481947D01*
X132352Y481887D01*
X132339Y481836D01*
X132317Y481789D01*
X132309Y481718D01*
X132292Y481648D01*
X132296Y481596D01*
X132290Y481545D01*
X132305Y481474D01*
X132311Y481403D01*
X132331Y481355D01*
X132342Y481304D01*
X132379Y481243D01*
X132407Y481177D01*
X132452Y481121D01*
X132468Y481093D01*
X132486Y481078D01*
X132512Y481046D01*
X132970Y480588D01*
X132970Y476484D01*
X130068Y473582D01*
X126611Y473582D01*
X126521Y473568D01*
X126430Y473560D01*
X126401Y473548D01*
X126369Y473543D01*
X126288Y473500D01*
X126204Y473464D01*
X126172Y473438D01*
X126151Y473427D01*
X126129Y473404D01*
X126073Y473359D01*
X116690Y463976D01*
X116648Y463918D01*
X116599Y463866D01*
X116577Y463819D01*
X116547Y463777D01*
X116526Y463708D01*
X116495Y463643D01*
X116490Y463591D01*
X116474Y463541D01*
X116476Y463470D01*
X116468Y463399D01*
X116479Y463348D01*
X116481Y463296D01*
X116505Y463228D01*
X116520Y463158D01*
X116547Y463114D01*
X116565Y463065D01*
X116610Y463009D01*
X116647Y462947D01*
X116686Y462913D01*
X116719Y462873D01*
X116779Y462834D01*
X116834Y462787D01*
X116882Y462768D01*
X116926Y462740D01*
X116995Y462722D01*
X117062Y462695D01*
X117133Y462687D01*
X117164Y462679D01*
X117188Y462681D01*
X117228Y462677D01*
X120423Y462677D01*
X124531Y460975D01*
X127675Y457831D01*
X129377Y453723D01*
X129377Y449277D01*
X127675Y445169D01*
X124531Y442025D01*
X120423Y440323D01*
X120396Y440323D01*
X120376Y440320D01*
X120357Y440322D01*
X120255Y440300D01*
X120153Y440284D01*
X120136Y440274D01*
X120116Y440270D01*
X120027Y440217D01*
X119936Y440168D01*
X119922Y440154D01*
X119905Y440144D01*
X119838Y440065D01*
X119766Y439990D01*
X119758Y439972D01*
X119745Y439957D01*
X119706Y439861D01*
X119663Y439767D01*
X119661Y439747D01*
X119653Y439729D01*
X119635Y439562D01*
X119635Y374222D01*
X119649Y374132D01*
X119657Y374041D01*
X119669Y374011D01*
X119674Y373979D01*
X119717Y373898D01*
X119753Y373814D01*
X119779Y373782D01*
X119790Y373762D01*
X119813Y373739D01*
X119858Y373683D01*
X124430Y369111D01*
X124488Y369069D01*
X124540Y369020D01*
X124587Y368998D01*
X124629Y368968D01*
X124698Y368947D01*
X124763Y368916D01*
X124815Y368911D01*
X124865Y368895D01*
X124936Y368897D01*
X125007Y368889D01*
X125058Y368900D01*
G37*
G36*
X171889Y138034D02*
X171889Y138034D01*
X171993Y138037D01*
X172011Y138043D01*
X172031Y138045D01*
X172126Y138085D01*
X172224Y138121D01*
X172239Y138133D01*
X172257Y138141D01*
X172388Y138246D01*
X174732Y140590D01*
X175903Y140590D01*
X175973Y140601D01*
X176045Y140603D01*
X176094Y140621D01*
X176145Y140629D01*
X176209Y140663D01*
X176276Y140688D01*
X176317Y140720D01*
X176363Y140745D01*
X176412Y140796D01*
X176468Y140841D01*
X176496Y140885D01*
X176532Y140923D01*
X176562Y140988D01*
X176601Y141048D01*
X176614Y141099D01*
X176636Y141146D01*
X176644Y141217D01*
X176661Y141287D01*
X176657Y141339D01*
X176663Y141390D01*
X176648Y141461D01*
X176642Y141532D01*
X176622Y141580D01*
X176611Y141631D01*
X176574Y141692D01*
X176546Y141758D01*
X176501Y141814D01*
X176484Y141842D01*
X176467Y141857D01*
X176441Y141889D01*
X149509Y168821D01*
X149451Y168863D01*
X149399Y168912D01*
X149352Y168934D01*
X149310Y168964D01*
X149241Y168985D01*
X149176Y169016D01*
X149124Y169021D01*
X149074Y169037D01*
X149003Y169035D01*
X148932Y169043D01*
X148881Y169032D01*
X148829Y169030D01*
X148761Y169006D01*
X148691Y168991D01*
X148647Y168964D01*
X148598Y168946D01*
X148542Y168901D01*
X148480Y168864D01*
X148446Y168825D01*
X148406Y168792D01*
X148367Y168732D01*
X148320Y168677D01*
X148301Y168629D01*
X148273Y168585D01*
X148255Y168516D01*
X148228Y168449D01*
X148220Y168378D01*
X148212Y168347D01*
X148214Y168323D01*
X148210Y168283D01*
X148210Y165588D01*
X146370Y163748D01*
X146358Y163732D01*
X146343Y163720D01*
X146287Y163632D01*
X146226Y163549D01*
X146220Y163530D01*
X146210Y163513D01*
X146184Y163412D01*
X146154Y163313D01*
X146154Y163293D01*
X146150Y163274D01*
X146158Y163171D01*
X146160Y163068D01*
X146167Y163049D01*
X146169Y163029D01*
X146209Y162934D01*
X146245Y162837D01*
X146257Y162821D01*
X146265Y162803D01*
X146370Y162672D01*
X151532Y157510D01*
X151532Y156247D01*
X142153Y146868D01*
X140890Y146868D01*
X134340Y153418D01*
X134340Y154681D01*
X140746Y161087D01*
X140799Y161161D01*
X140859Y161231D01*
X140871Y161261D01*
X140890Y161287D01*
X140917Y161374D01*
X140951Y161459D01*
X140955Y161500D01*
X140962Y161522D01*
X140961Y161554D01*
X140969Y161626D01*
X140969Y162606D01*
X140955Y162696D01*
X140947Y162787D01*
X140935Y162817D01*
X140930Y162849D01*
X140887Y162929D01*
X140851Y163013D01*
X140825Y163045D01*
X140814Y163066D01*
X140791Y163088D01*
X140746Y163144D01*
X138302Y165588D01*
X138302Y169692D01*
X141204Y172594D01*
X143899Y172594D01*
X143969Y172605D01*
X144041Y172607D01*
X144090Y172625D01*
X144141Y172633D01*
X144205Y172667D01*
X144272Y172692D01*
X144313Y172724D01*
X144359Y172749D01*
X144408Y172800D01*
X144464Y172845D01*
X144492Y172889D01*
X144528Y172927D01*
X144558Y172992D01*
X144597Y173052D01*
X144610Y173103D01*
X144632Y173150D01*
X144640Y173221D01*
X144657Y173291D01*
X144653Y173343D01*
X144659Y173394D01*
X144644Y173465D01*
X144638Y173536D01*
X144618Y173584D01*
X144607Y173635D01*
X144570Y173696D01*
X144542Y173762D01*
X144497Y173818D01*
X144480Y173846D01*
X144463Y173861D01*
X144437Y173893D01*
X134269Y184061D01*
X134211Y184103D01*
X134159Y184152D01*
X134112Y184174D01*
X134070Y184204D01*
X134001Y184225D01*
X133936Y184256D01*
X133884Y184261D01*
X133834Y184277D01*
X133763Y184275D01*
X133692Y184283D01*
X133641Y184272D01*
X133589Y184270D01*
X133521Y184246D01*
X133451Y184231D01*
X133407Y184204D01*
X133358Y184186D01*
X133302Y184141D01*
X133240Y184104D01*
X133206Y184065D01*
X133166Y184032D01*
X133127Y183972D01*
X133080Y183917D01*
X133061Y183869D01*
X133033Y183825D01*
X133015Y183756D01*
X132988Y183689D01*
X132980Y183618D01*
X132972Y183587D01*
X132974Y183563D01*
X132970Y183523D01*
X132970Y182352D01*
X130068Y179450D01*
X125964Y179450D01*
X123062Y182352D01*
X123062Y185808D01*
X123048Y185899D01*
X123040Y185989D01*
X123028Y186019D01*
X123023Y186051D01*
X122980Y186132D01*
X122944Y186216D01*
X122918Y186248D01*
X122907Y186269D01*
X122884Y186291D01*
X122839Y186347D01*
X87287Y221899D01*
X87213Y221952D01*
X87143Y222012D01*
X87113Y222024D01*
X87087Y222043D01*
X87000Y222070D01*
X86915Y222104D01*
X86874Y222108D01*
X86852Y222115D01*
X86820Y222114D01*
X86748Y222122D01*
X83292Y222122D01*
X81710Y223704D01*
X81694Y223716D01*
X81682Y223731D01*
X81595Y223787D01*
X81511Y223847D01*
X81492Y223853D01*
X81475Y223864D01*
X81375Y223889D01*
X81276Y223920D01*
X81256Y223919D01*
X81236Y223924D01*
X81133Y223916D01*
X81030Y223913D01*
X81011Y223907D01*
X80991Y223905D01*
X80896Y223865D01*
X80799Y223829D01*
X80783Y223817D01*
X80765Y223809D01*
X80634Y223704D01*
X79972Y223042D01*
X45182Y188252D01*
X45129Y188178D01*
X45069Y188108D01*
X45057Y188078D01*
X45038Y188052D01*
X45011Y187965D01*
X44977Y187880D01*
X44973Y187839D01*
X44966Y187817D01*
X44967Y187785D01*
X44959Y187713D01*
X44959Y162675D01*
X44970Y162604D01*
X44972Y162532D01*
X44990Y162483D01*
X44998Y162432D01*
X45032Y162369D01*
X45057Y162301D01*
X45089Y162261D01*
X45114Y162215D01*
X45165Y162165D01*
X45210Y162109D01*
X45254Y162081D01*
X45292Y162045D01*
X45357Y162015D01*
X45417Y161976D01*
X45468Y161964D01*
X45515Y161942D01*
X45586Y161934D01*
X45656Y161916D01*
X45708Y161920D01*
X45759Y161915D01*
X45830Y161930D01*
X45901Y161936D01*
X45949Y161956D01*
X46000Y161967D01*
X46061Y162004D01*
X46127Y162032D01*
X46183Y162077D01*
X46211Y162093D01*
X46226Y162111D01*
X46258Y162137D01*
X46948Y162826D01*
X51910Y157864D01*
X48362Y154316D01*
X46258Y156420D01*
X46200Y156461D01*
X46148Y156511D01*
X46101Y156533D01*
X46059Y156563D01*
X45990Y156584D01*
X45925Y156614D01*
X45873Y156620D01*
X45823Y156636D01*
X45752Y156634D01*
X45681Y156642D01*
X45630Y156630D01*
X45578Y156629D01*
X45510Y156605D01*
X45440Y156589D01*
X45395Y156563D01*
X45347Y156545D01*
X45291Y156500D01*
X45229Y156463D01*
X45195Y156424D01*
X45155Y156391D01*
X45116Y156331D01*
X45069Y156276D01*
X45050Y156228D01*
X45022Y156184D01*
X45004Y156115D01*
X44977Y156048D01*
X44969Y155977D01*
X44961Y155946D01*
X44963Y155922D01*
X44959Y155881D01*
X44959Y149642D01*
X44973Y149552D01*
X44981Y149461D01*
X44993Y149431D01*
X44998Y149399D01*
X45041Y149318D01*
X45077Y149234D01*
X45103Y149202D01*
X45114Y149182D01*
X45137Y149159D01*
X45182Y149104D01*
X50044Y144242D01*
X50117Y144189D01*
X50187Y144129D01*
X50217Y144117D01*
X50243Y144098D01*
X50330Y144071D01*
X50415Y144037D01*
X50456Y144033D01*
X50478Y144026D01*
X50511Y144027D01*
X50582Y144019D01*
X148818Y144019D01*
X148908Y144033D01*
X148999Y144041D01*
X149029Y144053D01*
X149061Y144058D01*
X149142Y144101D01*
X149225Y144137D01*
X149258Y144163D01*
X149278Y144174D01*
X149300Y144197D01*
X149356Y144242D01*
X156447Y151332D01*
X157710Y151332D01*
X164260Y144782D01*
X164260Y144780D01*
X164263Y144760D01*
X164261Y144741D01*
X164283Y144639D01*
X164299Y144537D01*
X164309Y144520D01*
X164313Y144500D01*
X164366Y144411D01*
X164415Y144320D01*
X164429Y144306D01*
X164439Y144289D01*
X164518Y144222D01*
X164593Y144150D01*
X164611Y144142D01*
X164626Y144129D01*
X164722Y144090D01*
X164816Y144047D01*
X164836Y144045D01*
X164854Y144037D01*
X165021Y144019D01*
X165539Y144019D01*
X167102Y142456D01*
X171312Y138246D01*
X171328Y138234D01*
X171340Y138219D01*
X171428Y138163D01*
X171512Y138103D01*
X171531Y138097D01*
X171547Y138086D01*
X171648Y138061D01*
X171747Y138030D01*
X171767Y138031D01*
X171786Y138026D01*
X171889Y138034D01*
G37*
G36*
X243569Y237880D02*
X243569Y237880D01*
X243640Y237886D01*
X243688Y237906D01*
X243739Y237917D01*
X243800Y237954D01*
X243866Y237982D01*
X243922Y238027D01*
X243950Y238044D01*
X243965Y238061D01*
X243997Y238087D01*
X252641Y246731D01*
X252683Y246789D01*
X252732Y246841D01*
X252754Y246888D01*
X252784Y246930D01*
X252805Y246999D01*
X252836Y247064D01*
X252841Y247116D01*
X252857Y247166D01*
X252855Y247237D01*
X252863Y247308D01*
X252852Y247359D01*
X252850Y247411D01*
X252826Y247479D01*
X252811Y247549D01*
X252784Y247593D01*
X252766Y247642D01*
X252721Y247698D01*
X252684Y247760D01*
X252645Y247794D01*
X252612Y247834D01*
X252552Y247873D01*
X252497Y247920D01*
X252449Y247939D01*
X252405Y247967D01*
X252336Y247985D01*
X252269Y248012D01*
X252198Y248020D01*
X252167Y248028D01*
X252143Y248026D01*
X252103Y248030D01*
X250932Y248030D01*
X248030Y250932D01*
X248030Y255036D01*
X250932Y257938D01*
X254389Y257938D01*
X254479Y257952D01*
X254570Y257960D01*
X254599Y257972D01*
X254631Y257977D01*
X254712Y258020D01*
X254796Y258056D01*
X254828Y258082D01*
X254849Y258093D01*
X254871Y258116D01*
X254874Y258119D01*
X254875Y258119D01*
X254876Y258120D01*
X254927Y258161D01*
X259618Y262852D01*
X259880Y263114D01*
X259922Y263172D01*
X259971Y263224D01*
X259993Y263271D01*
X260023Y263313D01*
X260044Y263382D01*
X260075Y263447D01*
X260080Y263499D01*
X260096Y263549D01*
X260094Y263620D01*
X260102Y263691D01*
X260091Y263742D01*
X260089Y263794D01*
X260065Y263862D01*
X260050Y263932D01*
X260023Y263977D01*
X260005Y264025D01*
X259960Y264081D01*
X259923Y264143D01*
X259884Y264177D01*
X259851Y264217D01*
X259791Y264256D01*
X259736Y264303D01*
X259688Y264322D01*
X259644Y264350D01*
X259575Y264368D01*
X259508Y264395D01*
X259437Y264403D01*
X259406Y264411D01*
X259382Y264409D01*
X259342Y264413D01*
X252037Y264413D01*
X242735Y273715D01*
X242661Y273768D01*
X242591Y273828D01*
X242561Y273840D01*
X242535Y273859D01*
X242448Y273886D01*
X242363Y273920D01*
X242322Y273924D01*
X242300Y273931D01*
X242268Y273930D01*
X242196Y273938D01*
X238740Y273938D01*
X235838Y276840D01*
X235838Y278011D01*
X235827Y278081D01*
X235825Y278153D01*
X235807Y278202D01*
X235799Y278253D01*
X235765Y278317D01*
X235740Y278384D01*
X235708Y278425D01*
X235683Y278471D01*
X235631Y278520D01*
X235587Y278576D01*
X235543Y278604D01*
X235505Y278640D01*
X235440Y278670D01*
X235380Y278709D01*
X235329Y278722D01*
X235282Y278744D01*
X235211Y278752D01*
X235141Y278769D01*
X235089Y278765D01*
X235038Y278771D01*
X234967Y278756D01*
X234896Y278750D01*
X234848Y278730D01*
X234797Y278719D01*
X234736Y278682D01*
X234670Y278654D01*
X234614Y278609D01*
X234586Y278592D01*
X234571Y278575D01*
X234539Y278549D01*
X223451Y267461D01*
X211664Y267461D01*
X211574Y267447D01*
X211483Y267439D01*
X211454Y267427D01*
X211422Y267422D01*
X211341Y267379D01*
X211257Y267343D01*
X211225Y267317D01*
X211204Y267306D01*
X211182Y267283D01*
X211126Y267238D01*
X208575Y264687D01*
X208521Y264613D01*
X208462Y264543D01*
X208450Y264513D01*
X208431Y264487D01*
X208404Y264400D01*
X208370Y264315D01*
X208366Y264274D01*
X208359Y264252D01*
X208360Y264220D01*
X208352Y264148D01*
X208352Y263745D01*
X208178Y263099D01*
X207844Y262519D01*
X207158Y261833D01*
X200153Y268838D01*
X200153Y268839D01*
X193148Y275843D01*
X193834Y276529D01*
X194413Y276864D01*
X195059Y277037D01*
X195463Y277037D01*
X195553Y277052D01*
X195644Y277059D01*
X195674Y277072D01*
X195706Y277077D01*
X195786Y277120D01*
X195870Y277155D01*
X195902Y277181D01*
X195923Y277192D01*
X195945Y277215D01*
X196001Y277260D01*
X198405Y279664D01*
X198417Y279666D01*
X198506Y279720D01*
X198597Y279768D01*
X198611Y279782D01*
X198628Y279793D01*
X198695Y279871D01*
X198766Y279946D01*
X198775Y279964D01*
X198788Y279980D01*
X198826Y280076D01*
X198835Y280093D01*
X201768Y283027D01*
X201870Y283049D01*
X201972Y283065D01*
X201989Y283075D01*
X202009Y283079D01*
X202098Y283132D01*
X202189Y283180D01*
X202203Y283195D01*
X202220Y283205D01*
X202287Y283284D01*
X202358Y283359D01*
X202367Y283377D01*
X202380Y283392D01*
X202418Y283488D01*
X202462Y283582D01*
X202464Y283602D01*
X202472Y283620D01*
X202485Y283744D01*
X205360Y286619D01*
X205462Y286641D01*
X205564Y286658D01*
X205581Y286667D01*
X205601Y286671D01*
X205690Y286724D01*
X205781Y286773D01*
X205795Y286787D01*
X205812Y286797D01*
X205879Y286876D01*
X205950Y286951D01*
X205959Y286969D01*
X205972Y286984D01*
X206011Y287080D01*
X206054Y287174D01*
X206056Y287194D01*
X206064Y287212D01*
X206077Y287336D01*
X208952Y290211D01*
X208953Y290211D01*
X209054Y290233D01*
X209156Y290250D01*
X209173Y290259D01*
X209193Y290263D01*
X209282Y290316D01*
X209373Y290365D01*
X209387Y290379D01*
X209404Y290389D01*
X209471Y290468D01*
X209543Y290543D01*
X209551Y290561D01*
X209564Y290576D01*
X209603Y290672D01*
X209646Y290766D01*
X209648Y290786D01*
X209656Y290804D01*
X209670Y290928D01*
X211723Y292982D01*
X211735Y292998D01*
X211751Y293011D01*
X211807Y293098D01*
X211867Y293182D01*
X211873Y293201D01*
X211884Y293218D01*
X211909Y293318D01*
X211939Y293417D01*
X211939Y293437D01*
X211944Y293456D01*
X211936Y293559D01*
X211933Y293663D01*
X211926Y293682D01*
X211924Y293701D01*
X211884Y293796D01*
X211848Y293894D01*
X211836Y293910D01*
X211828Y293928D01*
X211723Y294059D01*
X197396Y308386D01*
X197322Y308439D01*
X197252Y308499D01*
X197222Y308511D01*
X197196Y308530D01*
X197109Y308557D01*
X197024Y308591D01*
X196983Y308595D01*
X196961Y308602D01*
X196929Y308601D01*
X196857Y308609D01*
X192566Y308609D01*
X192476Y308595D01*
X192385Y308587D01*
X192355Y308575D01*
X192323Y308570D01*
X192242Y308527D01*
X192158Y308491D01*
X192126Y308465D01*
X192106Y308454D01*
X192083Y308431D01*
X192027Y308386D01*
X186281Y302640D01*
X185018Y302640D01*
X183500Y304158D01*
X183484Y304170D01*
X183472Y304185D01*
X183385Y304241D01*
X183301Y304302D01*
X183282Y304307D01*
X183265Y304318D01*
X183164Y304343D01*
X183066Y304374D01*
X183046Y304373D01*
X183026Y304378D01*
X182923Y304370D01*
X182820Y304368D01*
X182801Y304361D01*
X182781Y304359D01*
X182686Y304319D01*
X182589Y304283D01*
X182573Y304271D01*
X182555Y304263D01*
X182424Y304158D01*
X176246Y297980D01*
X176193Y297906D01*
X176133Y297836D01*
X176121Y297806D01*
X176102Y297780D01*
X176075Y297693D01*
X176041Y297608D01*
X176037Y297567D01*
X176030Y297545D01*
X176031Y297513D01*
X176023Y297441D01*
X176023Y294709D01*
X174460Y293146D01*
X162268Y280954D01*
X162257Y280938D01*
X162241Y280926D01*
X162185Y280838D01*
X162125Y280755D01*
X162119Y280736D01*
X162108Y280719D01*
X162083Y280618D01*
X162052Y280519D01*
X162053Y280500D01*
X162048Y280480D01*
X162056Y280377D01*
X162059Y280274D01*
X162066Y280255D01*
X162067Y280235D01*
X162107Y280140D01*
X162143Y280043D01*
X162156Y280027D01*
X162163Y280009D01*
X162268Y279878D01*
X169788Y272358D01*
X169804Y272346D01*
X169816Y272331D01*
X169904Y272275D01*
X169988Y272215D01*
X170007Y272209D01*
X170023Y272198D01*
X170124Y272173D01*
X170223Y272142D01*
X170243Y272143D01*
X170262Y272138D01*
X170365Y272146D01*
X170469Y272149D01*
X170487Y272155D01*
X170507Y272157D01*
X170602Y272197D01*
X170700Y272233D01*
X170715Y272245D01*
X170733Y272253D01*
X170864Y272358D01*
X171684Y273178D01*
X174543Y273178D01*
X174614Y273189D01*
X174685Y273191D01*
X174734Y273209D01*
X174786Y273217D01*
X174849Y273251D01*
X174916Y273276D01*
X174957Y273308D01*
X175003Y273333D01*
X175052Y273385D01*
X175108Y273429D01*
X175137Y273473D01*
X175172Y273511D01*
X175203Y273576D01*
X175241Y273636D01*
X175254Y273687D01*
X175276Y273734D01*
X175284Y273805D01*
X175301Y273875D01*
X175297Y273927D01*
X175303Y273978D01*
X175288Y274049D01*
X175282Y274120D01*
X175262Y274168D01*
X175251Y274219D01*
X175214Y274280D01*
X175186Y274346D01*
X175141Y274402D01*
X175125Y274430D01*
X175115Y274438D01*
X175113Y274442D01*
X175103Y274450D01*
X175081Y274477D01*
X168468Y281090D01*
X168468Y282353D01*
X177847Y291732D01*
X179110Y291732D01*
X185660Y285182D01*
X185660Y283919D01*
X180818Y279077D01*
X180765Y279003D01*
X180705Y278933D01*
X180693Y278903D01*
X180674Y278877D01*
X180647Y278790D01*
X180613Y278705D01*
X180609Y278664D01*
X180602Y278642D01*
X180603Y278610D01*
X180595Y278538D01*
X180595Y277107D01*
X180609Y277016D01*
X180617Y276926D01*
X180629Y276896D01*
X180634Y276864D01*
X180677Y276783D01*
X180713Y276699D01*
X180739Y276667D01*
X180750Y276646D01*
X180773Y276624D01*
X180818Y276568D01*
X182461Y274925D01*
X182535Y274872D01*
X182605Y274812D01*
X182635Y274800D01*
X182661Y274781D01*
X182748Y274754D01*
X182833Y274720D01*
X182874Y274716D01*
X182896Y274709D01*
X182928Y274710D01*
X182999Y274702D01*
X184932Y274702D01*
X187834Y271800D01*
X187834Y270930D01*
X187845Y270860D01*
X187847Y270788D01*
X187865Y270739D01*
X187873Y270688D01*
X187907Y270624D01*
X187932Y270557D01*
X187964Y270516D01*
X187989Y270470D01*
X188041Y270421D01*
X188085Y270365D01*
X188129Y270337D01*
X188167Y270301D01*
X188232Y270271D01*
X188292Y270232D01*
X188343Y270219D01*
X188390Y270197D01*
X188461Y270189D01*
X188531Y270172D01*
X188583Y270176D01*
X188634Y270170D01*
X188705Y270185D01*
X188776Y270191D01*
X188824Y270211D01*
X188875Y270222D01*
X188936Y270259D01*
X189002Y270287D01*
X189058Y270332D01*
X189086Y270349D01*
X189101Y270366D01*
X189133Y270392D01*
X190654Y271913D01*
X190700Y271976D01*
X190722Y272000D01*
X190727Y272010D01*
X190767Y272057D01*
X190779Y272087D01*
X190798Y272113D01*
X190825Y272200D01*
X190859Y272285D01*
X190863Y272326D01*
X190870Y272348D01*
X190869Y272380D01*
X190877Y272452D01*
X190877Y272855D01*
X191051Y273501D01*
X191385Y274081D01*
X192071Y274767D01*
X199076Y267762D01*
X199076Y267761D01*
X206081Y260756D01*
X205395Y260071D01*
X204997Y259840D01*
X204904Y259764D01*
X204812Y259691D01*
X204810Y259687D01*
X204806Y259685D01*
X204743Y259583D01*
X204679Y259484D01*
X204678Y259480D01*
X204676Y259476D01*
X204647Y259359D01*
X204619Y259245D01*
X204619Y259241D01*
X204618Y259237D01*
X204629Y259118D01*
X204638Y259000D01*
X204640Y258996D01*
X204640Y258992D01*
X204688Y258883D01*
X204734Y258774D01*
X204737Y258770D01*
X204739Y258767D01*
X204748Y258757D01*
X204839Y258643D01*
X204979Y258503D01*
X204979Y251922D01*
X204993Y251832D01*
X205001Y251741D01*
X205013Y251711D01*
X205018Y251679D01*
X205061Y251599D01*
X205097Y251515D01*
X205123Y251483D01*
X205134Y251462D01*
X205157Y251440D01*
X205202Y251384D01*
X207646Y248940D01*
X207646Y248493D01*
X207657Y248422D01*
X207659Y248351D01*
X207677Y248302D01*
X207685Y248250D01*
X207719Y248187D01*
X207744Y248120D01*
X207776Y248079D01*
X207801Y248033D01*
X207853Y247984D01*
X207897Y247928D01*
X207941Y247900D01*
X207979Y247864D01*
X208044Y247833D01*
X208104Y247795D01*
X208155Y247782D01*
X208202Y247760D01*
X208273Y247752D01*
X208343Y247735D01*
X208395Y247739D01*
X208446Y247733D01*
X208517Y247748D01*
X208588Y247754D01*
X208636Y247774D01*
X208687Y247785D01*
X208748Y247822D01*
X208814Y247850D01*
X208870Y247895D01*
X208898Y247911D01*
X208913Y247929D01*
X208945Y247955D01*
X209784Y248794D01*
X213888Y248794D01*
X216790Y245892D01*
X216790Y241788D01*
X216332Y241330D01*
X216290Y241272D01*
X216241Y241220D01*
X216219Y241173D01*
X216188Y241131D01*
X216167Y241062D01*
X216137Y240997D01*
X216131Y240945D01*
X216116Y240895D01*
X216118Y240824D01*
X216110Y240753D01*
X216121Y240702D01*
X216122Y240650D01*
X216147Y240582D01*
X216162Y240512D01*
X216189Y240467D01*
X216207Y240419D01*
X216252Y240363D01*
X216288Y240301D01*
X216328Y240267D01*
X216361Y240227D01*
X216421Y240188D01*
X216475Y240141D01*
X216524Y240122D01*
X216567Y240094D01*
X216637Y240076D01*
X216703Y240049D01*
X216775Y240041D01*
X216806Y240033D01*
X216829Y240035D01*
X216870Y240031D01*
X232710Y240031D01*
X232800Y240045D01*
X232891Y240053D01*
X232921Y240065D01*
X232953Y240070D01*
X233033Y240113D01*
X233117Y240149D01*
X233149Y240175D01*
X233170Y240186D01*
X233192Y240209D01*
X233248Y240254D01*
X235692Y242698D01*
X239796Y242698D01*
X242698Y239796D01*
X242698Y238625D01*
X242709Y238555D01*
X242711Y238483D01*
X242729Y238434D01*
X242737Y238383D01*
X242771Y238319D01*
X242796Y238252D01*
X242828Y238211D01*
X242853Y238165D01*
X242904Y238116D01*
X242949Y238060D01*
X242993Y238032D01*
X243031Y237996D01*
X243096Y237966D01*
X243156Y237927D01*
X243207Y237914D01*
X243254Y237892D01*
X243325Y237884D01*
X243395Y237867D01*
X243447Y237871D01*
X243498Y237865D01*
X243569Y237880D01*
G37*
G36*
X186399Y202824D02*
X186399Y202824D01*
X186451Y202826D01*
X186519Y202850D01*
X186589Y202865D01*
X186633Y202892D01*
X186682Y202910D01*
X186738Y202955D01*
X186800Y202992D01*
X186834Y203031D01*
X186874Y203064D01*
X186913Y203124D01*
X186960Y203179D01*
X186979Y203227D01*
X187007Y203271D01*
X187025Y203340D01*
X187052Y203407D01*
X187060Y203478D01*
X187068Y203509D01*
X187066Y203533D01*
X187070Y203573D01*
X187070Y204744D01*
X189514Y207188D01*
X189557Y207247D01*
X189601Y207294D01*
X189609Y207310D01*
X189627Y207331D01*
X189639Y207362D01*
X189658Y207388D01*
X189683Y207471D01*
X189705Y207517D01*
X189706Y207528D01*
X189719Y207560D01*
X189723Y207600D01*
X189730Y207623D01*
X189729Y207655D01*
X189737Y207726D01*
X189737Y208211D01*
X190595Y209069D01*
X190607Y209085D01*
X190623Y209098D01*
X190679Y209185D01*
X190739Y209269D01*
X190745Y209288D01*
X190756Y209305D01*
X190781Y209405D01*
X190811Y209504D01*
X190811Y209524D01*
X190816Y209543D01*
X190808Y209646D01*
X190805Y209750D01*
X190798Y209769D01*
X190796Y209789D01*
X190756Y209883D01*
X190720Y209981D01*
X190708Y209997D01*
X190700Y210015D01*
X190595Y210146D01*
X188251Y212491D01*
X188248Y212502D01*
X188195Y212591D01*
X188146Y212682D01*
X188132Y212696D01*
X188122Y212713D01*
X188043Y212780D01*
X187968Y212852D01*
X187950Y212860D01*
X187935Y212873D01*
X187839Y212912D01*
X187821Y212920D01*
X185404Y215337D01*
X185331Y215390D01*
X185261Y215449D01*
X185231Y215461D01*
X185205Y215480D01*
X185118Y215507D01*
X185033Y215541D01*
X184992Y215546D01*
X184970Y215553D01*
X184937Y215552D01*
X184866Y215560D01*
X184463Y215560D01*
X183816Y215733D01*
X183237Y216067D01*
X182551Y216753D01*
X189556Y223758D01*
X189556Y223759D01*
X196561Y230763D01*
X197247Y230077D01*
X197582Y229498D01*
X197755Y228852D01*
X197755Y228448D01*
X197770Y228358D01*
X197777Y228267D01*
X197789Y228238D01*
X197795Y228206D01*
X197837Y228125D01*
X197873Y228041D01*
X197899Y228009D01*
X197910Y227988D01*
X197933Y227966D01*
X197978Y227910D01*
X200121Y225767D01*
X200137Y225756D01*
X200149Y225740D01*
X200237Y225684D01*
X200320Y225624D01*
X200339Y225618D01*
X200356Y225607D01*
X200457Y225582D01*
X200556Y225551D01*
X200575Y225552D01*
X200595Y225547D01*
X200698Y225555D01*
X200801Y225558D01*
X200820Y225565D01*
X200840Y225566D01*
X200935Y225606D01*
X201032Y225642D01*
X201048Y225655D01*
X201066Y225662D01*
X201197Y225767D01*
X207802Y232372D01*
X209365Y233935D01*
X232710Y233935D01*
X232780Y233946D01*
X232850Y233948D01*
X232900Y233966D01*
X232953Y233974D01*
X233015Y234007D01*
X233081Y234032D01*
X233123Y234065D01*
X233170Y234090D01*
X233219Y234141D01*
X233274Y234185D01*
X233303Y234229D01*
X233339Y234268D01*
X233369Y234332D01*
X233407Y234391D01*
X233421Y234443D01*
X233443Y234491D01*
X233451Y234561D01*
X233468Y234630D01*
X233464Y234683D01*
X233470Y234735D01*
X233455Y234805D01*
X233450Y234875D01*
X233429Y234924D01*
X233418Y234976D01*
X233382Y235036D01*
X233354Y235102D01*
X233319Y235141D01*
X233292Y235187D01*
X233238Y235233D01*
X233191Y235286D01*
X233129Y235326D01*
X233105Y235347D01*
X233083Y235355D01*
X233050Y235377D01*
X232962Y235404D01*
X232876Y235439D01*
X232837Y235443D01*
X232815Y235450D01*
X232783Y235449D01*
X232710Y235457D01*
X194125Y235457D01*
X192562Y237020D01*
X170845Y258737D01*
X170787Y258779D01*
X170735Y258828D01*
X170688Y258850D01*
X170646Y258880D01*
X170577Y258901D01*
X170512Y258932D01*
X170460Y258937D01*
X170410Y258953D01*
X170339Y258951D01*
X170268Y258959D01*
X170217Y258948D01*
X170165Y258946D01*
X170097Y258922D01*
X170027Y258907D01*
X169982Y258880D01*
X169934Y258862D01*
X169878Y258817D01*
X169816Y258780D01*
X169782Y258741D01*
X169742Y258708D01*
X169703Y258648D01*
X169656Y258593D01*
X169637Y258545D01*
X169609Y258501D01*
X169591Y258432D01*
X169564Y258365D01*
X169556Y258294D01*
X169548Y258263D01*
X169550Y258239D01*
X169546Y258199D01*
X169546Y257028D01*
X166644Y254126D01*
X162540Y254126D01*
X160096Y256570D01*
X160022Y256623D01*
X159953Y256683D01*
X159923Y256695D01*
X159896Y256714D01*
X159809Y256741D01*
X159725Y256775D01*
X159684Y256779D01*
X159661Y256786D01*
X159629Y256785D01*
X159558Y256793D01*
X157350Y256793D01*
X157260Y256779D01*
X157169Y256771D01*
X157139Y256759D01*
X157107Y256754D01*
X157026Y256711D01*
X156942Y256675D01*
X156910Y256649D01*
X156890Y256638D01*
X156867Y256615D01*
X156811Y256570D01*
X154581Y254340D01*
X153318Y254340D01*
X148040Y259618D01*
X147966Y259671D01*
X147897Y259731D01*
X147867Y259743D01*
X147840Y259762D01*
X147753Y259789D01*
X147669Y259823D01*
X147628Y259827D01*
X147605Y259834D01*
X147573Y259833D01*
X147502Y259841D01*
X146766Y259841D01*
X146695Y259830D01*
X146624Y259828D01*
X146575Y259810D01*
X146523Y259802D01*
X146460Y259768D01*
X146393Y259743D01*
X146352Y259711D01*
X146306Y259686D01*
X146257Y259635D01*
X146201Y259590D01*
X146173Y259546D01*
X146137Y259508D01*
X146106Y259443D01*
X146068Y259383D01*
X146055Y259332D01*
X146033Y259285D01*
X146025Y259214D01*
X146008Y259144D01*
X146012Y259092D01*
X146006Y259041D01*
X146021Y258970D01*
X146027Y258899D01*
X146047Y258851D01*
X146058Y258800D01*
X146095Y258739D01*
X146123Y258673D01*
X146168Y258617D01*
X146184Y258589D01*
X146202Y258574D01*
X146228Y258542D01*
X146686Y258084D01*
X146686Y253980D01*
X143784Y251078D01*
X140328Y251078D01*
X140237Y251064D01*
X140147Y251056D01*
X140117Y251044D01*
X140085Y251039D01*
X140004Y250996D01*
X139920Y250960D01*
X139888Y250934D01*
X139867Y250923D01*
X139845Y250900D01*
X139789Y250855D01*
X124049Y235115D01*
X123996Y235041D01*
X123936Y234971D01*
X123924Y234941D01*
X123905Y234915D01*
X123878Y234828D01*
X123844Y234743D01*
X123840Y234702D01*
X123833Y234680D01*
X123834Y234648D01*
X123826Y234576D01*
X123826Y231120D01*
X123368Y230662D01*
X123326Y230604D01*
X123277Y230552D01*
X123255Y230505D01*
X123224Y230463D01*
X123203Y230394D01*
X123173Y230329D01*
X123167Y230277D01*
X123152Y230227D01*
X123154Y230156D01*
X123146Y230085D01*
X123157Y230034D01*
X123158Y229982D01*
X123183Y229914D01*
X123198Y229844D01*
X123225Y229799D01*
X123243Y229751D01*
X123288Y229695D01*
X123324Y229633D01*
X123364Y229599D01*
X123397Y229559D01*
X123457Y229520D01*
X123511Y229473D01*
X123560Y229454D01*
X123603Y229426D01*
X123673Y229408D01*
X123739Y229381D01*
X123811Y229373D01*
X123842Y229365D01*
X123865Y229367D01*
X123906Y229363D01*
X139065Y229363D01*
X139085Y229366D01*
X139104Y229364D01*
X139206Y229386D01*
X139308Y229402D01*
X139325Y229412D01*
X139345Y229416D01*
X139434Y229469D01*
X139525Y229518D01*
X139539Y229532D01*
X139556Y229542D01*
X139623Y229621D01*
X139695Y229696D01*
X139703Y229714D01*
X139716Y229729D01*
X139755Y229825D01*
X139798Y229919D01*
X139800Y229939D01*
X139808Y229957D01*
X139826Y230124D01*
X139826Y232176D01*
X142728Y235078D01*
X146832Y235078D01*
X149734Y232176D01*
X149734Y231005D01*
X149745Y230935D01*
X149747Y230863D01*
X149765Y230814D01*
X149773Y230763D01*
X149807Y230699D01*
X149832Y230632D01*
X149864Y230591D01*
X149889Y230545D01*
X149940Y230496D01*
X149985Y230440D01*
X150029Y230412D01*
X150067Y230376D01*
X150132Y230346D01*
X150192Y230307D01*
X150243Y230294D01*
X150290Y230272D01*
X150361Y230264D01*
X150431Y230247D01*
X150483Y230251D01*
X150534Y230245D01*
X150605Y230260D01*
X150676Y230266D01*
X150724Y230286D01*
X150775Y230297D01*
X150836Y230334D01*
X150902Y230362D01*
X150958Y230407D01*
X150986Y230424D01*
X151001Y230441D01*
X151033Y230467D01*
X160939Y240373D01*
X160992Y240447D01*
X161052Y240517D01*
X161064Y240547D01*
X161083Y240573D01*
X161110Y240660D01*
X161144Y240745D01*
X161148Y240786D01*
X161155Y240808D01*
X161154Y240840D01*
X161162Y240911D01*
X161162Y244368D01*
X164064Y247270D01*
X168168Y247270D01*
X171070Y244368D01*
X171070Y240264D01*
X168168Y237362D01*
X164711Y237362D01*
X164621Y237348D01*
X164530Y237340D01*
X164501Y237328D01*
X164469Y237323D01*
X164388Y237280D01*
X164304Y237244D01*
X164272Y237218D01*
X164251Y237207D01*
X164229Y237184D01*
X164173Y237139D01*
X155791Y228757D01*
X155749Y228699D01*
X155700Y228647D01*
X155678Y228600D01*
X155648Y228558D01*
X155627Y228489D01*
X155596Y228424D01*
X155591Y228372D01*
X155575Y228322D01*
X155577Y228251D01*
X155569Y228180D01*
X155580Y228129D01*
X155582Y228077D01*
X155606Y228009D01*
X155621Y227939D01*
X155648Y227895D01*
X155666Y227846D01*
X155711Y227790D01*
X155748Y227728D01*
X155787Y227694D01*
X155820Y227654D01*
X155880Y227615D01*
X155935Y227568D01*
X155983Y227549D01*
X156027Y227521D01*
X156096Y227503D01*
X156163Y227476D01*
X156234Y227468D01*
X156265Y227460D01*
X156289Y227462D01*
X156329Y227458D01*
X157500Y227458D01*
X159482Y225476D01*
X159498Y225464D01*
X159510Y225449D01*
X159598Y225393D01*
X159681Y225332D01*
X159700Y225327D01*
X159717Y225316D01*
X159818Y225290D01*
X159917Y225260D01*
X159936Y225261D01*
X159956Y225256D01*
X160059Y225264D01*
X160162Y225266D01*
X160181Y225273D01*
X160201Y225275D01*
X160296Y225315D01*
X160393Y225351D01*
X160409Y225363D01*
X160427Y225371D01*
X160558Y225476D01*
X162540Y227458D01*
X166644Y227458D01*
X169546Y224556D01*
X169546Y220452D01*
X169488Y220394D01*
X169476Y220378D01*
X169461Y220366D01*
X169405Y220279D01*
X169345Y220195D01*
X169339Y220176D01*
X169328Y220159D01*
X169303Y220059D01*
X169272Y219960D01*
X169273Y219940D01*
X169268Y219920D01*
X169276Y219817D01*
X169279Y219714D01*
X169285Y219695D01*
X169287Y219675D01*
X169327Y219580D01*
X169363Y219483D01*
X169375Y219467D01*
X169383Y219449D01*
X169488Y219318D01*
X185771Y203035D01*
X185829Y202993D01*
X185881Y202944D01*
X185928Y202922D01*
X185970Y202892D01*
X186039Y202871D01*
X186104Y202840D01*
X186156Y202835D01*
X186206Y202819D01*
X186277Y202821D01*
X186348Y202813D01*
X186399Y202824D01*
G37*
%LPC*%
G36*
X456258Y431189D02*
X456258Y431189D01*
X449345Y434053D01*
X444053Y439345D01*
X441189Y446258D01*
X441189Y453742D01*
X444053Y460655D01*
X449345Y465947D01*
X456258Y468811D01*
X463742Y468811D01*
X470655Y465947D01*
X475947Y460655D01*
X478811Y453742D01*
X478811Y446258D01*
X475947Y439345D01*
X470655Y434053D01*
X463742Y431189D01*
X456258Y431189D01*
G37*
%LPD*%
%LPC*%
G36*
X456258Y11189D02*
X456258Y11189D01*
X449345Y14053D01*
X444053Y19345D01*
X441189Y26258D01*
X441189Y33742D01*
X444053Y40655D01*
X449345Y45947D01*
X456258Y48811D01*
X463742Y48811D01*
X470655Y45947D01*
X475947Y40655D01*
X478811Y33742D01*
X478811Y26258D01*
X475947Y19345D01*
X470655Y14053D01*
X463742Y11189D01*
X456258Y11189D01*
G37*
%LPD*%
%LPC*%
G36*
X278364Y321182D02*
X278364Y321182D01*
X275462Y324084D01*
X275462Y328188D01*
X278364Y331090D01*
X281820Y331090D01*
X281911Y331104D01*
X282001Y331112D01*
X282031Y331124D01*
X282063Y331129D01*
X282144Y331172D01*
X282228Y331208D01*
X282260Y331234D01*
X282281Y331245D01*
X282303Y331268D01*
X282359Y331313D01*
X314521Y363475D01*
X320066Y363475D01*
X320085Y363478D01*
X320105Y363476D01*
X320206Y363498D01*
X320308Y363514D01*
X320326Y363524D01*
X320345Y363528D01*
X320434Y363581D01*
X320526Y363630D01*
X320539Y363644D01*
X320557Y363654D01*
X320624Y363733D01*
X320695Y363808D01*
X320703Y363826D01*
X320716Y363841D01*
X320755Y363937D01*
X320799Y364031D01*
X320801Y364051D01*
X320808Y364069D01*
X320827Y364236D01*
X320827Y365054D01*
X327548Y371776D01*
X330054Y371776D01*
X336608Y365222D01*
X336682Y365169D01*
X336752Y365109D01*
X336782Y365097D01*
X336808Y365078D01*
X336895Y365051D01*
X336980Y365017D01*
X337021Y365013D01*
X337043Y365006D01*
X337075Y365007D01*
X337147Y364999D01*
X339275Y364999D01*
X348278Y355996D01*
X348294Y355984D01*
X348307Y355969D01*
X348394Y355913D01*
X348478Y355852D01*
X348497Y355847D01*
X348513Y355836D01*
X348614Y355811D01*
X348713Y355780D01*
X348733Y355781D01*
X348752Y355776D01*
X348855Y355784D01*
X348959Y355786D01*
X348977Y355793D01*
X348997Y355795D01*
X349092Y355835D01*
X349190Y355871D01*
X349205Y355883D01*
X349224Y355891D01*
X349354Y355996D01*
X350890Y357532D01*
X352153Y357532D01*
X361532Y348153D01*
X361532Y346890D01*
X354982Y340340D01*
X353719Y340340D01*
X344340Y349719D01*
X344340Y350982D01*
X345044Y351686D01*
X345056Y351702D01*
X345071Y351714D01*
X345127Y351801D01*
X345188Y351885D01*
X345193Y351904D01*
X345204Y351921D01*
X345229Y352022D01*
X345260Y352120D01*
X345259Y352140D01*
X345264Y352160D01*
X345256Y352263D01*
X345254Y352366D01*
X345247Y352385D01*
X345245Y352405D01*
X345205Y352500D01*
X345169Y352597D01*
X345157Y352613D01*
X345149Y352631D01*
X345044Y352762D01*
X337604Y360202D01*
X337530Y360255D01*
X337460Y360315D01*
X337430Y360327D01*
X337404Y360346D01*
X337317Y360373D01*
X337232Y360407D01*
X337191Y360411D01*
X337169Y360418D01*
X337137Y360417D01*
X337065Y360425D01*
X334968Y360425D01*
X334878Y360411D01*
X334787Y360403D01*
X334757Y360391D01*
X334725Y360386D01*
X334644Y360343D01*
X334561Y360307D01*
X334528Y360281D01*
X334508Y360270D01*
X334486Y360247D01*
X334430Y360202D01*
X329883Y355656D01*
X329871Y355639D01*
X329856Y355627D01*
X329800Y355540D01*
X329739Y355456D01*
X329734Y355437D01*
X329723Y355420D01*
X329697Y355320D01*
X329667Y355221D01*
X329668Y355201D01*
X329663Y355182D01*
X329671Y355079D01*
X329673Y354975D01*
X329680Y354956D01*
X329682Y354936D01*
X329722Y354842D01*
X329758Y354744D01*
X329770Y354728D01*
X329778Y354710D01*
X329883Y354579D01*
X342481Y341981D01*
X342555Y341928D01*
X342625Y341868D01*
X342655Y341856D01*
X342681Y341837D01*
X342768Y341810D01*
X342853Y341776D01*
X342894Y341772D01*
X342916Y341765D01*
X342948Y341766D01*
X343020Y341758D01*
X346476Y341758D01*
X349378Y338856D01*
X349378Y334752D01*
X346476Y331850D01*
X342372Y331850D01*
X339470Y334752D01*
X339470Y338208D01*
X339456Y338299D01*
X339448Y338389D01*
X339436Y338419D01*
X339431Y338451D01*
X339388Y338532D01*
X339352Y338616D01*
X339326Y338648D01*
X339315Y338669D01*
X339292Y338691D01*
X339247Y338747D01*
X326689Y351305D01*
X326630Y351347D01*
X326578Y351397D01*
X326555Y351408D01*
X326538Y351422D01*
X326514Y351431D01*
X326489Y351449D01*
X326420Y351470D01*
X326355Y351500D01*
X326329Y351503D01*
X326309Y351511D01*
X326284Y351512D01*
X326254Y351521D01*
X326182Y351519D01*
X326111Y351527D01*
X326085Y351522D01*
X326063Y351523D01*
X326039Y351516D01*
X326008Y351515D01*
X325941Y351490D01*
X325871Y351475D01*
X325848Y351461D01*
X325827Y351455D01*
X325806Y351441D01*
X325777Y351431D01*
X325721Y351386D01*
X325659Y351349D01*
X325642Y351329D01*
X325624Y351316D01*
X325608Y351296D01*
X325585Y351277D01*
X325546Y351217D01*
X325500Y351162D01*
X325490Y351138D01*
X325476Y351120D01*
X325464Y351089D01*
X325452Y351070D01*
X325443Y351036D01*
X325415Y350963D01*
X325114Y349839D01*
X324582Y348918D01*
X322808Y347144D01*
X318015Y351937D01*
X317998Y351948D01*
X317986Y351964D01*
X317899Y352020D01*
X317815Y352080D01*
X317796Y352086D01*
X317779Y352097D01*
X317679Y352122D01*
X317580Y352153D01*
X317560Y352152D01*
X317541Y352157D01*
X317438Y352149D01*
X317334Y352146D01*
X317315Y352139D01*
X317295Y352138D01*
X317201Y352098D01*
X317103Y352062D01*
X317087Y352049D01*
X317069Y352042D01*
X316938Y351937D01*
X316399Y351397D01*
X315859Y351937D01*
X315843Y351948D01*
X315831Y351964D01*
X315743Y352020D01*
X315660Y352080D01*
X315641Y352086D01*
X315624Y352097D01*
X315523Y352122D01*
X315424Y352153D01*
X315405Y352152D01*
X315385Y352157D01*
X315282Y352149D01*
X315179Y352146D01*
X315160Y352139D01*
X315140Y352138D01*
X315045Y352098D01*
X314948Y352062D01*
X314932Y352049D01*
X314914Y352042D01*
X314783Y351937D01*
X309989Y347144D01*
X308216Y348918D01*
X308059Y349189D01*
X307983Y349281D01*
X307909Y349374D01*
X307905Y349377D01*
X307903Y349380D01*
X307803Y349442D01*
X307702Y349507D01*
X307698Y349508D01*
X307695Y349511D01*
X307579Y349538D01*
X307464Y349567D01*
X307459Y349567D01*
X307455Y349568D01*
X307337Y349557D01*
X307218Y349548D01*
X307214Y349547D01*
X307210Y349546D01*
X307101Y349499D01*
X306992Y349452D01*
X306988Y349449D01*
X306985Y349448D01*
X306975Y349438D01*
X306861Y349347D01*
X285593Y328079D01*
X285540Y328005D01*
X285480Y327935D01*
X285468Y327905D01*
X285449Y327879D01*
X285422Y327792D01*
X285388Y327707D01*
X285384Y327666D01*
X285377Y327644D01*
X285378Y327612D01*
X285370Y327540D01*
X285370Y324084D01*
X282468Y321182D01*
X278364Y321182D01*
G37*
%LPD*%
G36*
X174953Y154782D02*
X174953Y154782D01*
X175057Y154784D01*
X175075Y154791D01*
X175095Y154793D01*
X175190Y154833D01*
X175288Y154869D01*
X175303Y154881D01*
X175321Y154889D01*
X175452Y154994D01*
X179524Y159066D01*
X179536Y159082D01*
X179551Y159094D01*
X179607Y159182D01*
X179668Y159265D01*
X179673Y159284D01*
X179684Y159301D01*
X179709Y159402D01*
X179740Y159500D01*
X179739Y159520D01*
X179744Y159540D01*
X179736Y159643D01*
X179734Y159746D01*
X179727Y159765D01*
X179725Y159785D01*
X179685Y159880D01*
X179649Y159977D01*
X179637Y159993D01*
X179629Y160011D01*
X179524Y160142D01*
X161492Y178174D01*
X161476Y178186D01*
X161463Y178201D01*
X161376Y178257D01*
X161292Y178318D01*
X161273Y178323D01*
X161257Y178334D01*
X161156Y178359D01*
X161057Y178390D01*
X161037Y178389D01*
X161018Y178394D01*
X160915Y178386D01*
X160811Y178384D01*
X160793Y178377D01*
X160773Y178375D01*
X160678Y178335D01*
X160580Y178299D01*
X160565Y178287D01*
X160546Y178279D01*
X160416Y178174D01*
X159582Y177340D01*
X158319Y177340D01*
X148940Y186719D01*
X148940Y187982D01*
X153222Y192264D01*
X153234Y192280D01*
X153249Y192292D01*
X153305Y192380D01*
X153366Y192463D01*
X153372Y192482D01*
X153382Y192499D01*
X153408Y192600D01*
X153438Y192698D01*
X153438Y192718D01*
X153442Y192738D01*
X153434Y192841D01*
X153432Y192944D01*
X153425Y192963D01*
X153423Y192983D01*
X153383Y193078D01*
X153347Y193175D01*
X153335Y193191D01*
X153327Y193209D01*
X153222Y193340D01*
X150494Y196068D01*
X150494Y200172D01*
X153396Y203074D01*
X157500Y203074D01*
X159644Y200929D01*
X159740Y200860D01*
X159837Y200790D01*
X159841Y200788D01*
X159844Y200786D01*
X159957Y200751D01*
X160071Y200715D01*
X160075Y200715D01*
X160079Y200714D01*
X160197Y200717D01*
X160317Y200718D01*
X160321Y200720D01*
X160325Y200720D01*
X160436Y200761D01*
X160549Y200800D01*
X160552Y200803D01*
X160556Y200804D01*
X160649Y200879D01*
X160742Y200952D01*
X160745Y200956D01*
X160748Y200958D01*
X160755Y200970D01*
X160842Y201087D01*
X161160Y201638D01*
X163148Y203626D01*
X168110Y198664D01*
X164562Y195116D01*
X161701Y197977D01*
X161643Y198018D01*
X161591Y198068D01*
X161544Y198090D01*
X161502Y198120D01*
X161433Y198141D01*
X161368Y198171D01*
X161316Y198177D01*
X161266Y198193D01*
X161195Y198191D01*
X161124Y198199D01*
X161073Y198187D01*
X161021Y198186D01*
X160953Y198162D01*
X160883Y198146D01*
X160838Y198120D01*
X160790Y198102D01*
X160734Y198057D01*
X160672Y198020D01*
X160638Y197981D01*
X160598Y197948D01*
X160559Y197888D01*
X160512Y197833D01*
X160493Y197785D01*
X160465Y197741D01*
X160447Y197672D01*
X160420Y197605D01*
X160412Y197534D01*
X160404Y197503D01*
X160406Y197479D01*
X160402Y197438D01*
X160402Y196716D01*
X160416Y196625D01*
X160424Y196535D01*
X160436Y196505D01*
X160441Y196473D01*
X160484Y196392D01*
X160520Y196308D01*
X160546Y196276D01*
X160557Y196255D01*
X160580Y196233D01*
X160625Y196177D01*
X176365Y180437D01*
X176439Y180384D01*
X176509Y180324D01*
X176539Y180312D01*
X176565Y180293D01*
X176652Y180266D01*
X176737Y180232D01*
X176778Y180228D01*
X176800Y180221D01*
X176832Y180222D01*
X176903Y180214D01*
X178836Y180214D01*
X179294Y179756D01*
X179352Y179714D01*
X179404Y179665D01*
X179451Y179643D01*
X179493Y179612D01*
X179562Y179591D01*
X179627Y179561D01*
X179679Y179555D01*
X179729Y179540D01*
X179800Y179542D01*
X179871Y179534D01*
X179922Y179545D01*
X179974Y179546D01*
X180042Y179571D01*
X180112Y179586D01*
X180157Y179613D01*
X180205Y179631D01*
X180261Y179676D01*
X180323Y179712D01*
X180357Y179752D01*
X180397Y179785D01*
X180436Y179845D01*
X180483Y179899D01*
X180502Y179948D01*
X180530Y179991D01*
X180548Y180061D01*
X180575Y180127D01*
X180583Y180199D01*
X180591Y180230D01*
X180589Y180253D01*
X180593Y180294D01*
X180593Y183827D01*
X185204Y188438D01*
X185215Y188454D01*
X185231Y188466D01*
X185287Y188554D01*
X185347Y188637D01*
X185353Y188656D01*
X185364Y188673D01*
X185389Y188774D01*
X185420Y188873D01*
X185419Y188892D01*
X185424Y188912D01*
X185416Y189015D01*
X185413Y189118D01*
X185406Y189137D01*
X185405Y189157D01*
X185365Y189252D01*
X185329Y189349D01*
X185316Y189365D01*
X185309Y189383D01*
X185204Y189514D01*
X179737Y194982D01*
X179720Y194993D01*
X179708Y195009D01*
X179621Y195065D01*
X179537Y195125D01*
X179518Y195131D01*
X179501Y195142D01*
X179401Y195167D01*
X179302Y195197D01*
X179282Y195197D01*
X179262Y195202D01*
X179159Y195194D01*
X179056Y195191D01*
X179037Y195184D01*
X179017Y195183D01*
X178922Y195142D01*
X178825Y195107D01*
X178809Y195094D01*
X178791Y195086D01*
X178660Y194982D01*
X177380Y193702D01*
X171880Y199202D01*
X171864Y199214D01*
X171851Y199229D01*
X171764Y199285D01*
X171680Y199346D01*
X171661Y199351D01*
X171644Y199362D01*
X171544Y199388D01*
X171445Y199418D01*
X171425Y199417D01*
X171406Y199422D01*
X171303Y199414D01*
X171199Y199412D01*
X171180Y199405D01*
X171161Y199403D01*
X171066Y199363D01*
X170968Y199327D01*
X170952Y199315D01*
X170934Y199307D01*
X170803Y199202D01*
X170264Y198663D01*
X170263Y198664D01*
X170802Y199203D01*
X170814Y199219D01*
X170829Y199232D01*
X170885Y199319D01*
X170946Y199403D01*
X170951Y199422D01*
X170962Y199439D01*
X170988Y199539D01*
X171018Y199638D01*
X171017Y199658D01*
X171022Y199677D01*
X171014Y199780D01*
X171012Y199884D01*
X171005Y199903D01*
X171003Y199923D01*
X170963Y200017D01*
X170927Y200115D01*
X170915Y200131D01*
X170907Y200149D01*
X170802Y200280D01*
X165302Y205780D01*
X166582Y207060D01*
X166593Y207076D01*
X166609Y207089D01*
X166665Y207176D01*
X166725Y207260D01*
X166731Y207279D01*
X166742Y207295D01*
X166767Y207396D01*
X166797Y207495D01*
X166797Y207515D01*
X166802Y207534D01*
X166794Y207637D01*
X166791Y207741D01*
X166784Y207759D01*
X166783Y207779D01*
X166742Y207874D01*
X166707Y207972D01*
X166694Y207987D01*
X166686Y208006D01*
X166582Y208137D01*
X157391Y217327D01*
X157317Y217380D01*
X157247Y217440D01*
X157217Y217452D01*
X157191Y217471D01*
X157104Y217498D01*
X157019Y217532D01*
X156978Y217536D01*
X156956Y217543D01*
X156924Y217542D01*
X156852Y217550D01*
X153396Y217550D01*
X150494Y220452D01*
X150494Y221623D01*
X150483Y221693D01*
X150481Y221765D01*
X150463Y221814D01*
X150455Y221865D01*
X150421Y221929D01*
X150396Y221996D01*
X150364Y222037D01*
X150339Y222083D01*
X150287Y222132D01*
X150243Y222188D01*
X150199Y222216D01*
X150161Y222252D01*
X150096Y222282D01*
X150036Y222321D01*
X149985Y222334D01*
X149938Y222356D01*
X149867Y222364D01*
X149797Y222381D01*
X149745Y222377D01*
X149694Y222383D01*
X149623Y222368D01*
X149552Y222362D01*
X149504Y222342D01*
X149453Y222331D01*
X149392Y222294D01*
X149326Y222266D01*
X149270Y222221D01*
X149242Y222204D01*
X149227Y222187D01*
X149195Y222161D01*
X138146Y211112D01*
X138093Y211038D01*
X138033Y210968D01*
X138021Y210938D01*
X138002Y210912D01*
X137975Y210825D01*
X137941Y210740D01*
X137937Y210699D01*
X137930Y210677D01*
X137931Y210645D01*
X137923Y210573D01*
X137923Y199382D01*
X137934Y199312D01*
X137936Y199240D01*
X137954Y199191D01*
X137962Y199140D01*
X137996Y199076D01*
X138021Y199009D01*
X138053Y198968D01*
X138078Y198922D01*
X138130Y198873D01*
X138174Y198817D01*
X138218Y198789D01*
X138256Y198753D01*
X138321Y198723D01*
X138381Y198684D01*
X138432Y198671D01*
X138479Y198649D01*
X138550Y198641D01*
X138620Y198624D01*
X138672Y198628D01*
X138723Y198622D01*
X138794Y198637D01*
X138865Y198643D01*
X138913Y198663D01*
X138964Y198674D01*
X139025Y198711D01*
X139091Y198739D01*
X139147Y198784D01*
X139175Y198801D01*
X139190Y198818D01*
X139222Y198844D01*
X148747Y208369D01*
X148800Y208443D01*
X148860Y208513D01*
X148872Y208543D01*
X148891Y208569D01*
X148918Y208656D01*
X148952Y208741D01*
X148956Y208782D01*
X148963Y208804D01*
X148962Y208836D01*
X148970Y208908D01*
X148970Y212364D01*
X151872Y215266D01*
X155976Y215266D01*
X158878Y212364D01*
X158878Y208260D01*
X155976Y205358D01*
X152520Y205358D01*
X152429Y205344D01*
X152339Y205336D01*
X152309Y205324D01*
X152277Y205319D01*
X152196Y205276D01*
X152112Y205240D01*
X152080Y205214D01*
X152059Y205203D01*
X152037Y205180D01*
X151981Y205135D01*
X141194Y194348D01*
X141141Y194274D01*
X141081Y194204D01*
X141069Y194174D01*
X141050Y194148D01*
X141023Y194061D01*
X140989Y193976D01*
X140985Y193935D01*
X140978Y193913D01*
X140979Y193881D01*
X140971Y193809D01*
X140971Y188715D01*
X140985Y188624D01*
X140993Y188534D01*
X141005Y188504D01*
X141010Y188472D01*
X141053Y188391D01*
X141089Y188307D01*
X141115Y188275D01*
X141126Y188254D01*
X141149Y188232D01*
X141171Y188204D01*
X141174Y188200D01*
X141177Y188197D01*
X141194Y188176D01*
X174376Y154994D01*
X174392Y154982D01*
X174405Y154967D01*
X174492Y154911D01*
X174576Y154850D01*
X174595Y154845D01*
X174611Y154834D01*
X174712Y154809D01*
X174811Y154778D01*
X174831Y154779D01*
X174850Y154774D01*
X174953Y154782D01*
G37*
%LPC*%
G36*
X415524Y264794D02*
X415524Y264794D01*
X412622Y267696D01*
X412622Y271800D01*
X412680Y271858D01*
X412692Y271874D01*
X412707Y271886D01*
X412763Y271973D01*
X412823Y272057D01*
X412829Y272076D01*
X412840Y272093D01*
X412865Y272193D01*
X412896Y272292D01*
X412895Y272312D01*
X412900Y272332D01*
X412892Y272435D01*
X412889Y272538D01*
X412883Y272557D01*
X412881Y272577D01*
X412841Y272672D01*
X412805Y272769D01*
X412793Y272785D01*
X412785Y272803D01*
X412680Y272934D01*
X373038Y312576D01*
X372944Y312644D01*
X372938Y312648D01*
X372919Y312664D01*
X372912Y312667D01*
X372846Y312716D01*
X372842Y312717D01*
X372839Y312719D01*
X372726Y312754D01*
X372612Y312790D01*
X372608Y312790D01*
X372604Y312792D01*
X372485Y312789D01*
X372366Y312787D01*
X372362Y312785D01*
X372358Y312785D01*
X372247Y312745D01*
X372134Y312705D01*
X372131Y312702D01*
X372127Y312701D01*
X372034Y312627D01*
X371940Y312553D01*
X371937Y312549D01*
X371935Y312547D01*
X371927Y312535D01*
X371862Y312447D01*
X371857Y312441D01*
X371854Y312436D01*
X371841Y312418D01*
X371784Y312320D01*
X370010Y310546D01*
X365217Y315339D01*
X365201Y315351D01*
X365189Y315367D01*
X365101Y315423D01*
X365017Y315483D01*
X364999Y315489D01*
X364982Y315500D01*
X364881Y315525D01*
X364782Y315555D01*
X364762Y315555D01*
X364743Y315560D01*
X364640Y315552D01*
X364537Y315549D01*
X364518Y315542D01*
X364498Y315541D01*
X364403Y315500D01*
X364306Y315465D01*
X364290Y315452D01*
X364272Y315444D01*
X364141Y315339D01*
X363601Y314800D01*
X363600Y314801D01*
X364139Y315341D01*
X364151Y315357D01*
X364167Y315369D01*
X364223Y315457D01*
X364283Y315540D01*
X364289Y315559D01*
X364300Y315576D01*
X364325Y315677D01*
X364355Y315775D01*
X364355Y315795D01*
X364360Y315815D01*
X364352Y315918D01*
X364349Y316021D01*
X364342Y316040D01*
X364341Y316060D01*
X364300Y316155D01*
X364265Y316252D01*
X364252Y316268D01*
X364244Y316286D01*
X364139Y316417D01*
X359346Y321210D01*
X361120Y322984D01*
X362042Y323516D01*
X362909Y323749D01*
X362949Y323767D01*
X362992Y323776D01*
X363060Y323817D01*
X363133Y323850D01*
X363165Y323880D01*
X363203Y323902D01*
X363255Y323963D01*
X363313Y324017D01*
X363334Y324056D01*
X363363Y324089D01*
X363393Y324164D01*
X363431Y324234D01*
X363438Y324277D01*
X363455Y324317D01*
X363471Y324462D01*
X363473Y324476D01*
X363473Y324479D01*
X363473Y324484D01*
X363473Y355726D01*
X363459Y355816D01*
X363451Y355907D01*
X363439Y355937D01*
X363434Y355969D01*
X363391Y356050D01*
X363355Y356133D01*
X363329Y356166D01*
X363318Y356186D01*
X363295Y356208D01*
X363250Y356264D01*
X357068Y362447D01*
X357068Y363710D01*
X363618Y370260D01*
X364881Y370260D01*
X374260Y360881D01*
X374260Y359618D01*
X368270Y353628D01*
X368223Y353563D01*
X368209Y353549D01*
X368206Y353542D01*
X368157Y353485D01*
X368145Y353455D01*
X368126Y353428D01*
X368099Y353341D01*
X368065Y353257D01*
X368061Y353216D01*
X368054Y353193D01*
X368055Y353161D01*
X368047Y353090D01*
X368047Y324351D01*
X368061Y324260D01*
X368069Y324170D01*
X368081Y324140D01*
X368086Y324108D01*
X368129Y324027D01*
X368165Y323943D01*
X368191Y323911D01*
X368202Y323890D01*
X368225Y323868D01*
X368270Y323812D01*
X417157Y274925D01*
X417231Y274872D01*
X417301Y274812D01*
X417331Y274800D01*
X417357Y274781D01*
X417444Y274754D01*
X417529Y274720D01*
X417570Y274716D01*
X417592Y274709D01*
X417624Y274710D01*
X417696Y274702D01*
X419628Y274702D01*
X422530Y271800D01*
X422530Y267696D01*
X419628Y264794D01*
X415524Y264794D01*
G37*
%LPD*%
%LPC*%
G36*
X397847Y176268D02*
X397847Y176268D01*
X388468Y185647D01*
X388468Y186910D01*
X395018Y193460D01*
X396281Y193460D01*
X398633Y191108D01*
X398649Y191096D01*
X398662Y191081D01*
X398749Y191024D01*
X398833Y190964D01*
X398852Y190958D01*
X398869Y190948D01*
X398969Y190922D01*
X399068Y190892D01*
X399088Y190892D01*
X399107Y190888D01*
X399210Y190896D01*
X399314Y190898D01*
X399333Y190905D01*
X399353Y190907D01*
X399447Y190947D01*
X399545Y190983D01*
X399561Y190995D01*
X399579Y191003D01*
X399710Y191108D01*
X425734Y217132D01*
X425787Y217206D01*
X425847Y217276D01*
X425859Y217306D01*
X425878Y217332D01*
X425905Y217419D01*
X425939Y217504D01*
X425943Y217545D01*
X425950Y217567D01*
X425949Y217599D01*
X425957Y217671D01*
X425957Y229414D01*
X425954Y229434D01*
X425956Y229453D01*
X425934Y229555D01*
X425918Y229657D01*
X425908Y229674D01*
X425904Y229694D01*
X425851Y229783D01*
X425802Y229874D01*
X425788Y229888D01*
X425778Y229905D01*
X425699Y229972D01*
X425624Y230044D01*
X425606Y230052D01*
X425591Y230065D01*
X425495Y230104D01*
X425401Y230147D01*
X425381Y230149D01*
X425363Y230157D01*
X425196Y230175D01*
X423877Y230175D01*
X422105Y231947D01*
X422105Y241453D01*
X423877Y243225D01*
X433383Y243225D01*
X435155Y241453D01*
X435155Y231947D01*
X433383Y230175D01*
X431292Y230175D01*
X431272Y230172D01*
X431253Y230174D01*
X431151Y230152D01*
X431049Y230136D01*
X431032Y230126D01*
X431012Y230122D01*
X430923Y230069D01*
X430832Y230020D01*
X430818Y230006D01*
X430801Y229996D01*
X430734Y229917D01*
X430662Y229842D01*
X430654Y229824D01*
X430641Y229809D01*
X430602Y229713D01*
X430559Y229619D01*
X430557Y229599D01*
X430549Y229581D01*
X430531Y229414D01*
X430531Y215461D01*
X402944Y187874D01*
X402932Y187858D01*
X402917Y187845D01*
X402860Y187758D01*
X402800Y187674D01*
X402794Y187655D01*
X402784Y187638D01*
X402758Y187538D01*
X402728Y187439D01*
X402728Y187419D01*
X402724Y187400D01*
X402732Y187297D01*
X402734Y187193D01*
X402741Y187174D01*
X402743Y187155D01*
X402783Y187060D01*
X402819Y186962D01*
X402831Y186946D01*
X402839Y186928D01*
X402944Y186797D01*
X405660Y184081D01*
X405660Y182818D01*
X399110Y176268D01*
X397847Y176268D01*
G37*
%LPD*%
%LPC*%
G36*
X328377Y440323D02*
X328377Y440323D01*
X324269Y442025D01*
X321125Y445169D01*
X319423Y449277D01*
X319423Y453723D01*
X321125Y457831D01*
X324269Y460975D01*
X328377Y462677D01*
X332823Y462677D01*
X336931Y460975D01*
X340075Y457831D01*
X341777Y453723D01*
X341777Y449277D01*
X340075Y445169D01*
X336931Y442025D01*
X332823Y440323D01*
X328377Y440323D01*
G37*
%LPD*%
%LPC*%
G36*
X287508Y56006D02*
X287508Y56006D01*
X284606Y58908D01*
X284606Y63012D01*
X287508Y65914D01*
X291612Y65914D01*
X293194Y64332D01*
X293210Y64320D01*
X293222Y64305D01*
X293309Y64249D01*
X293393Y64189D01*
X293412Y64183D01*
X293429Y64172D01*
X293530Y64147D01*
X293628Y64116D01*
X293648Y64117D01*
X293668Y64112D01*
X293771Y64120D01*
X293874Y64123D01*
X293893Y64129D01*
X293913Y64131D01*
X294008Y64171D01*
X294105Y64207D01*
X294121Y64219D01*
X294139Y64227D01*
X294270Y64332D01*
X305687Y75749D01*
X305715Y75788D01*
X305750Y75821D01*
X305787Y75887D01*
X305831Y75949D01*
X305845Y75995D01*
X305868Y76037D01*
X305881Y76112D01*
X305903Y76184D01*
X305902Y76232D01*
X305910Y76279D01*
X305899Y76354D01*
X305897Y76430D01*
X305880Y76475D01*
X305873Y76522D01*
X305838Y76590D01*
X305812Y76661D01*
X305782Y76698D01*
X305760Y76741D01*
X305706Y76794D01*
X305659Y76853D01*
X305618Y76879D01*
X305584Y76912D01*
X305515Y76945D01*
X305452Y76986D01*
X305405Y76998D01*
X305362Y77018D01*
X305287Y77028D01*
X305213Y77046D01*
X305165Y77042D01*
X305118Y77048D01*
X304990Y77029D01*
X304968Y77027D01*
X304962Y77024D01*
X304952Y77023D01*
X304584Y76924D01*
X303915Y76924D01*
X303269Y77097D01*
X302690Y77432D01*
X300702Y79420D01*
X306202Y84920D01*
X306214Y84936D01*
X306229Y84949D01*
X306285Y85036D01*
X306346Y85120D01*
X306351Y85139D01*
X306362Y85156D01*
X306388Y85256D01*
X306418Y85355D01*
X306417Y85375D01*
X306422Y85394D01*
X306414Y85497D01*
X306412Y85601D01*
X306405Y85620D01*
X306403Y85639D01*
X306363Y85734D01*
X306327Y85832D01*
X306315Y85847D01*
X306307Y85866D01*
X306202Y85997D01*
X305663Y86536D01*
X305664Y86537D01*
X306203Y85998D01*
X306219Y85986D01*
X306232Y85971D01*
X306319Y85915D01*
X306403Y85854D01*
X306422Y85848D01*
X306439Y85838D01*
X306539Y85812D01*
X306638Y85782D01*
X306658Y85782D01*
X306677Y85778D01*
X306780Y85786D01*
X306884Y85788D01*
X306903Y85795D01*
X306923Y85797D01*
X307017Y85837D01*
X307115Y85873D01*
X307131Y85885D01*
X307149Y85893D01*
X307280Y85998D01*
X312780Y91498D01*
X314768Y89510D01*
X315103Y88931D01*
X315276Y88285D01*
X315276Y87616D01*
X315103Y86970D01*
X315044Y86868D01*
X315010Y86778D01*
X314970Y86692D01*
X314967Y86664D01*
X314957Y86638D01*
X314953Y86542D01*
X314943Y86448D01*
X314949Y86420D01*
X314948Y86392D01*
X314975Y86300D01*
X314995Y86207D01*
X315010Y86183D01*
X315018Y86156D01*
X315072Y86078D01*
X315121Y85996D01*
X315143Y85978D01*
X315159Y85955D01*
X315236Y85898D01*
X315308Y85836D01*
X315334Y85826D01*
X315357Y85809D01*
X315448Y85780D01*
X315536Y85744D01*
X315572Y85740D01*
X315591Y85734D01*
X315624Y85734D01*
X315703Y85726D01*
X315996Y85726D01*
X318898Y82824D01*
X318898Y78720D01*
X315996Y75818D01*
X312540Y75818D01*
X312449Y75804D01*
X312359Y75796D01*
X312329Y75784D01*
X312297Y75779D01*
X312216Y75736D01*
X312132Y75700D01*
X312100Y75674D01*
X312079Y75663D01*
X312057Y75640D01*
X312001Y75595D01*
X295079Y58673D01*
X294594Y58673D01*
X294504Y58659D01*
X294413Y58651D01*
X294383Y58639D01*
X294351Y58634D01*
X294271Y58591D01*
X294187Y58555D01*
X294155Y58529D01*
X294134Y58518D01*
X294112Y58495D01*
X294056Y58450D01*
X291612Y56006D01*
X287508Y56006D01*
G37*
%LPD*%
%LPC*%
G36*
X321036Y88010D02*
X321036Y88010D01*
X318134Y90912D01*
X318134Y95016D01*
X320450Y97332D01*
X320462Y97348D01*
X320477Y97360D01*
X320533Y97448D01*
X320594Y97531D01*
X320599Y97550D01*
X320610Y97567D01*
X320636Y97668D01*
X320666Y97767D01*
X320665Y97786D01*
X320670Y97806D01*
X320662Y97909D01*
X320660Y98012D01*
X320653Y98031D01*
X320651Y98051D01*
X320611Y98146D01*
X320575Y98243D01*
X320563Y98259D01*
X320555Y98277D01*
X320450Y98408D01*
X314968Y103890D01*
X314968Y105153D01*
X324347Y114532D01*
X325610Y114532D01*
X332160Y107982D01*
X332160Y106719D01*
X325598Y100157D01*
X325555Y100097D01*
X325513Y100053D01*
X325505Y100037D01*
X325485Y100013D01*
X325473Y99983D01*
X325454Y99957D01*
X325427Y99870D01*
X325425Y99863D01*
X325409Y99830D01*
X325408Y99822D01*
X325393Y99785D01*
X325389Y99744D01*
X325382Y99722D01*
X325383Y99690D01*
X325375Y99618D01*
X325375Y97998D01*
X325389Y97908D01*
X325397Y97817D01*
X325409Y97787D01*
X325414Y97755D01*
X325457Y97675D01*
X325493Y97591D01*
X325519Y97559D01*
X325530Y97538D01*
X325553Y97516D01*
X325598Y97460D01*
X328042Y95016D01*
X328042Y90912D01*
X325140Y88010D01*
X321036Y88010D01*
G37*
%LPD*%
G36*
X283935Y152532D02*
X283935Y152532D01*
X283987Y152534D01*
X284055Y152558D01*
X284125Y152573D01*
X284169Y152600D01*
X284218Y152618D01*
X284274Y152663D01*
X284336Y152700D01*
X284370Y152739D01*
X284410Y152772D01*
X284449Y152832D01*
X284496Y152887D01*
X284515Y152935D01*
X284543Y152979D01*
X284561Y153048D01*
X284588Y153115D01*
X284596Y153186D01*
X284604Y153217D01*
X284602Y153241D01*
X284606Y153281D01*
X284606Y155976D01*
X287659Y159029D01*
X287666Y159033D01*
X287716Y159085D01*
X287772Y159129D01*
X287800Y159173D01*
X287836Y159211D01*
X287866Y159276D01*
X287905Y159336D01*
X287917Y159387D01*
X287939Y159434D01*
X287947Y159505D01*
X287965Y159575D01*
X287961Y159627D01*
X287966Y159678D01*
X287951Y159749D01*
X287945Y159820D01*
X287925Y159868D01*
X287914Y159919D01*
X287877Y159980D01*
X287849Y160046D01*
X287804Y160102D01*
X287788Y160130D01*
X287770Y160145D01*
X287744Y160177D01*
X286832Y161090D01*
X286497Y161669D01*
X286324Y162315D01*
X286324Y162984D01*
X286497Y163630D01*
X286832Y164210D01*
X289724Y167102D01*
X289766Y167160D01*
X289815Y167212D01*
X289837Y167259D01*
X289867Y167301D01*
X289888Y167370D01*
X289919Y167435D01*
X289924Y167487D01*
X289940Y167537D01*
X289938Y167608D01*
X289946Y167679D01*
X289935Y167730D01*
X289933Y167782D01*
X289909Y167850D01*
X289894Y167920D01*
X289867Y167965D01*
X289849Y168013D01*
X289804Y168069D01*
X289767Y168131D01*
X289728Y168165D01*
X289695Y168205D01*
X289635Y168244D01*
X289580Y168291D01*
X289532Y168310D01*
X289488Y168338D01*
X289419Y168356D01*
X289352Y168383D01*
X289281Y168391D01*
X289250Y168399D01*
X289226Y168397D01*
X289186Y168401D01*
X283926Y168401D01*
X283836Y168387D01*
X283745Y168379D01*
X283715Y168367D01*
X283683Y168362D01*
X283603Y168319D01*
X283519Y168283D01*
X283487Y168257D01*
X283466Y168246D01*
X283444Y168223D01*
X283388Y168178D01*
X280944Y165734D01*
X276840Y165734D01*
X273873Y168701D01*
X273857Y168713D01*
X273845Y168728D01*
X273767Y168778D01*
X273756Y168788D01*
X273749Y168791D01*
X273674Y168845D01*
X273655Y168850D01*
X273638Y168861D01*
X273537Y168887D01*
X273439Y168917D01*
X273419Y168916D01*
X273399Y168921D01*
X273296Y168913D01*
X273193Y168911D01*
X273174Y168904D01*
X273154Y168902D01*
X273059Y168862D01*
X272962Y168826D01*
X272946Y168814D01*
X272928Y168806D01*
X272851Y168744D01*
X272849Y168743D01*
X272847Y168742D01*
X272797Y168701D01*
X272355Y168259D01*
X265350Y175264D01*
X265334Y175275D01*
X265321Y175291D01*
X265234Y175347D01*
X265150Y175407D01*
X265131Y175413D01*
X265114Y175424D01*
X265014Y175449D01*
X264915Y175480D01*
X264895Y175479D01*
X264876Y175484D01*
X264773Y175476D01*
X264669Y175473D01*
X264650Y175466D01*
X264630Y175465D01*
X264535Y175424D01*
X264438Y175389D01*
X264422Y175376D01*
X264404Y175369D01*
X264273Y175264D01*
X264261Y175248D01*
X264246Y175235D01*
X264190Y175148D01*
X264129Y175064D01*
X264124Y175045D01*
X264113Y175028D01*
X264087Y174928D01*
X264057Y174829D01*
X264058Y174809D01*
X264053Y174790D01*
X264061Y174687D01*
X264063Y174583D01*
X264070Y174564D01*
X264072Y174544D01*
X264112Y174450D01*
X264148Y174352D01*
X264160Y174336D01*
X264168Y174318D01*
X264273Y174187D01*
X271278Y167182D01*
X270611Y166515D01*
X270599Y166499D01*
X270584Y166487D01*
X270528Y166400D01*
X270468Y166316D01*
X270462Y166297D01*
X270451Y166280D01*
X270426Y166179D01*
X270395Y166081D01*
X270396Y166061D01*
X270391Y166041D01*
X270399Y165938D01*
X270402Y165835D01*
X270408Y165816D01*
X270410Y165796D01*
X270450Y165701D01*
X270486Y165604D01*
X270499Y165588D01*
X270506Y165570D01*
X270611Y165439D01*
X283307Y152743D01*
X283365Y152701D01*
X283417Y152652D01*
X283464Y152630D01*
X283506Y152600D01*
X283575Y152579D01*
X283640Y152548D01*
X283692Y152543D01*
X283742Y152527D01*
X283813Y152529D01*
X283884Y152521D01*
X283935Y152532D01*
G37*
%LPC*%
G36*
X180788Y218516D02*
X180788Y218516D01*
X180454Y219095D01*
X180281Y219742D01*
X180281Y220145D01*
X180266Y220235D01*
X180259Y220326D01*
X180246Y220356D01*
X180241Y220388D01*
X180198Y220469D01*
X180163Y220552D01*
X180137Y220585D01*
X180126Y220605D01*
X180103Y220627D01*
X180058Y220683D01*
X177705Y223037D01*
X177705Y224300D01*
X189015Y235610D01*
X190278Y235610D01*
X192631Y233257D01*
X192705Y233204D01*
X192774Y233144D01*
X192805Y233132D01*
X192831Y233113D01*
X192918Y233086D01*
X193003Y233052D01*
X193044Y233048D01*
X193066Y233041D01*
X193098Y233042D01*
X193169Y233034D01*
X193573Y233034D01*
X194219Y232861D01*
X194798Y232526D01*
X195484Y231840D01*
X188480Y224835D01*
X188479Y224835D01*
X181474Y217830D01*
X180788Y218516D01*
G37*
%LPD*%
%LPC*%
G36*
X382923Y453023D02*
X382923Y453023D01*
X382923Y463603D01*
X384255Y463393D01*
X386080Y462799D01*
X387790Y461928D01*
X389343Y460800D01*
X390700Y459443D01*
X391828Y457890D01*
X392699Y456180D01*
X393293Y454355D01*
X393503Y453023D01*
X382923Y453023D01*
G37*
%LPD*%
%LPC*%
G36*
X170523Y453023D02*
X170523Y453023D01*
X170523Y463603D01*
X171855Y463393D01*
X173680Y462799D01*
X175390Y461928D01*
X176943Y460800D01*
X178300Y459443D01*
X179428Y457890D01*
X180299Y456180D01*
X180893Y454355D01*
X181103Y453023D01*
X170523Y453023D01*
G37*
%LPD*%
%LPC*%
G36*
X78123Y453023D02*
X78123Y453023D01*
X78123Y463603D01*
X79455Y463393D01*
X81280Y462799D01*
X82990Y461928D01*
X84543Y460800D01*
X85900Y459443D01*
X87028Y457890D01*
X87899Y456180D01*
X88493Y454355D01*
X88703Y453023D01*
X78123Y453023D01*
G37*
%LPD*%
%LPC*%
G36*
X382923Y449977D02*
X382923Y449977D01*
X393503Y449977D01*
X393293Y448645D01*
X392699Y446820D01*
X391828Y445110D01*
X390700Y443557D01*
X389343Y442200D01*
X387790Y441072D01*
X386080Y440201D01*
X384255Y439607D01*
X382923Y439397D01*
X382923Y449977D01*
G37*
%LPD*%
%LPC*%
G36*
X369297Y453023D02*
X369297Y453023D01*
X369507Y454355D01*
X370101Y456180D01*
X370972Y457890D01*
X372100Y459443D01*
X373457Y460800D01*
X375010Y461928D01*
X376720Y462799D01*
X378545Y463393D01*
X379877Y463603D01*
X379877Y453023D01*
X369297Y453023D01*
G37*
%LPD*%
%LPC*%
G36*
X156897Y453023D02*
X156897Y453023D01*
X157107Y454355D01*
X157701Y456180D01*
X158572Y457890D01*
X159700Y459443D01*
X161057Y460800D01*
X162610Y461928D01*
X164320Y462799D01*
X166145Y463393D01*
X167477Y463603D01*
X167477Y453023D01*
X156897Y453023D01*
G37*
%LPD*%
%LPC*%
G36*
X370197Y31723D02*
X370197Y31723D01*
X370407Y33055D01*
X371001Y34880D01*
X371872Y36590D01*
X373000Y38143D01*
X374357Y39500D01*
X375910Y40628D01*
X377620Y41499D01*
X379445Y42093D01*
X380777Y42303D01*
X380777Y31723D01*
X370197Y31723D01*
G37*
%LPD*%
%LPC*%
G36*
X78123Y449977D02*
X78123Y449977D01*
X88703Y449977D01*
X88493Y448645D01*
X87899Y446820D01*
X87028Y445110D01*
X85900Y443557D01*
X84543Y442200D01*
X82990Y441072D01*
X81280Y440201D01*
X79455Y439607D01*
X78123Y439397D01*
X78123Y449977D01*
G37*
%LPD*%
%LPC*%
G36*
X170523Y449977D02*
X170523Y449977D01*
X181103Y449977D01*
X180893Y448645D01*
X180299Y446820D01*
X179428Y445110D01*
X178300Y443557D01*
X176943Y442200D01*
X175390Y441072D01*
X173680Y440201D01*
X171855Y439607D01*
X170523Y439397D01*
X170523Y449977D01*
G37*
%LPD*%
%LPC*%
G36*
X378545Y439607D02*
X378545Y439607D01*
X376720Y440201D01*
X375010Y441072D01*
X373457Y442200D01*
X372100Y443557D01*
X370972Y445110D01*
X370101Y446820D01*
X369507Y448645D01*
X369297Y449977D01*
X379877Y449977D01*
X379877Y439397D01*
X378545Y439607D01*
G37*
%LPD*%
%LPC*%
G36*
X166145Y439607D02*
X166145Y439607D01*
X164320Y440201D01*
X162610Y441072D01*
X161057Y442200D01*
X159700Y443557D01*
X158572Y445110D01*
X157701Y446820D01*
X157107Y448645D01*
X156897Y449977D01*
X167477Y449977D01*
X167477Y439397D01*
X166145Y439607D01*
G37*
%LPD*%
%LPC*%
G36*
X379445Y18307D02*
X379445Y18307D01*
X377620Y18901D01*
X375910Y19772D01*
X374357Y20900D01*
X373000Y22257D01*
X371872Y23810D01*
X371001Y25520D01*
X370407Y27345D01*
X370197Y28677D01*
X380777Y28677D01*
X380777Y18097D01*
X379445Y18307D01*
G37*
%LPD*%
%LPC*%
G36*
X273723Y467323D02*
X273723Y467323D01*
X273723Y477646D01*
X274996Y477445D01*
X276783Y476864D01*
X278457Y476011D01*
X279978Y474906D01*
X281306Y473578D01*
X282411Y472057D01*
X283264Y470383D01*
X283845Y468596D01*
X284046Y467323D01*
X273723Y467323D01*
G37*
%LPD*%
%LPC*%
G36*
X276523Y45723D02*
X276523Y45723D01*
X276523Y56046D01*
X277796Y55845D01*
X279583Y55264D01*
X281257Y54411D01*
X282778Y53306D01*
X284106Y51978D01*
X285211Y50457D01*
X286064Y48783D01*
X286645Y46996D01*
X286846Y45723D01*
X276523Y45723D01*
G37*
%LPD*%
%LPC*%
G36*
X273723Y464277D02*
X273723Y464277D01*
X284046Y464277D01*
X283845Y463004D01*
X283264Y461217D01*
X282411Y459543D01*
X281306Y458022D01*
X279978Y456694D01*
X278457Y455589D01*
X276783Y454736D01*
X274996Y454155D01*
X273723Y453954D01*
X273723Y464277D01*
G37*
%LPD*%
%LPC*%
G36*
X302116Y92238D02*
X302116Y92238D01*
X305518Y95640D01*
X306097Y95975D01*
X306744Y96148D01*
X307413Y96148D01*
X308059Y95975D01*
X308638Y95640D01*
X310626Y93652D01*
X305664Y88690D01*
X302116Y92238D01*
G37*
%LPD*%
%LPC*%
G36*
X298090Y164064D02*
X298090Y164064D01*
X303052Y169026D01*
X305040Y167038D01*
X305375Y166459D01*
X305548Y165813D01*
X305548Y165144D01*
X305375Y164497D01*
X305040Y163918D01*
X301638Y160516D01*
X298090Y164064D01*
G37*
%LPD*%
%LPC*%
G36*
X312990Y118664D02*
X312990Y118664D01*
X317952Y123626D01*
X319940Y121638D01*
X320275Y121059D01*
X320448Y120413D01*
X320448Y119744D01*
X320275Y119097D01*
X319940Y118518D01*
X316538Y115116D01*
X312990Y118664D01*
G37*
%LPD*%
%LPC*%
G36*
X138688Y332766D02*
X138688Y332766D01*
X142090Y336168D01*
X142669Y336503D01*
X143316Y336676D01*
X143985Y336676D01*
X144631Y336503D01*
X145210Y336168D01*
X147198Y334180D01*
X142236Y329218D01*
X138688Y332766D01*
G37*
%LPD*%
%LPC*%
G36*
X80516Y338938D02*
X80516Y338938D01*
X83918Y342340D01*
X84497Y342675D01*
X85144Y342848D01*
X85813Y342848D01*
X86459Y342675D01*
X87038Y342340D01*
X89026Y340352D01*
X84064Y335390D01*
X80516Y338938D01*
G37*
%LPD*%
%LPC*%
G36*
X170788Y329666D02*
X170788Y329666D01*
X174190Y333068D01*
X174769Y333403D01*
X175416Y333576D01*
X176085Y333576D01*
X176731Y333403D01*
X177310Y333068D01*
X179298Y331080D01*
X174336Y326118D01*
X170788Y329666D01*
G37*
%LPD*%
%LPC*%
G36*
X160788Y301566D02*
X160788Y301566D01*
X164190Y304968D01*
X164769Y305303D01*
X165416Y305476D01*
X166085Y305476D01*
X166731Y305303D01*
X167310Y304968D01*
X169298Y302980D01*
X164336Y298018D01*
X160788Y301566D01*
G37*
%LPD*%
%LPC*%
G36*
X133818Y295936D02*
X133818Y295936D01*
X138780Y300898D01*
X140768Y298910D01*
X141103Y298331D01*
X141276Y297685D01*
X141276Y297016D01*
X141103Y296369D01*
X140768Y295790D01*
X137366Y292388D01*
X133818Y295936D01*
G37*
%LPD*%
%LPC*%
G36*
X144390Y327064D02*
X144390Y327064D01*
X149352Y332026D01*
X151340Y330038D01*
X151675Y329459D01*
X151848Y328813D01*
X151848Y328144D01*
X151675Y327497D01*
X151340Y326918D01*
X147938Y323516D01*
X144390Y327064D01*
G37*
%LPD*%
%LPC*%
G36*
X128116Y301638D02*
X128116Y301638D01*
X131518Y305040D01*
X132097Y305375D01*
X132744Y305548D01*
X133413Y305548D01*
X134059Y305375D01*
X134638Y305040D01*
X136626Y303052D01*
X131664Y298090D01*
X128116Y301638D01*
G37*
%LPD*%
%LPC*%
G36*
X339102Y92580D02*
X339102Y92580D01*
X341090Y94568D01*
X341669Y94903D01*
X342315Y95076D01*
X342984Y95076D01*
X343630Y94903D01*
X344210Y94568D01*
X347612Y91166D01*
X344064Y87618D01*
X339102Y92580D01*
G37*
%LPD*%
%LPC*%
G36*
X98002Y401180D02*
X98002Y401180D01*
X99990Y403168D01*
X100569Y403503D01*
X101215Y403676D01*
X101884Y403676D01*
X102530Y403503D01*
X103110Y403168D01*
X106512Y399766D01*
X102964Y396218D01*
X98002Y401180D01*
G37*
%LPD*%
%LPC*%
G36*
X313318Y327064D02*
X313318Y327064D01*
X316866Y330612D01*
X320268Y327210D01*
X320603Y326630D01*
X320776Y325984D01*
X320776Y325315D01*
X320603Y324669D01*
X320268Y324090D01*
X318280Y322102D01*
X313318Y327064D01*
G37*
%LPD*%
%LPC*%
G36*
X306202Y334180D02*
X306202Y334180D01*
X308190Y336168D01*
X308769Y336503D01*
X309415Y336676D01*
X310084Y336676D01*
X310730Y336503D01*
X311310Y336168D01*
X314712Y332766D01*
X311164Y329218D01*
X306202Y334180D01*
G37*
%LPD*%
%LPC*%
G36*
X56218Y157864D02*
X56218Y157864D01*
X59766Y161412D01*
X63168Y158010D01*
X63503Y157430D01*
X63676Y156784D01*
X63676Y156115D01*
X63503Y155469D01*
X63168Y154890D01*
X61180Y152902D01*
X56218Y157864D01*
G37*
%LPD*%
%LPC*%
G36*
X49102Y164980D02*
X49102Y164980D01*
X51090Y166968D01*
X51669Y167303D01*
X52315Y167476D01*
X52984Y167476D01*
X53630Y167303D01*
X54210Y166968D01*
X57612Y163566D01*
X54064Y160018D01*
X49102Y164980D01*
G37*
%LPD*%
%LPC*%
G36*
X346218Y85464D02*
X346218Y85464D01*
X349766Y89012D01*
X353168Y85610D01*
X353503Y85030D01*
X353676Y84384D01*
X353676Y83715D01*
X353503Y83069D01*
X353168Y82490D01*
X351180Y80502D01*
X346218Y85464D01*
G37*
%LPD*%
%LPC*%
G36*
X258223Y137323D02*
X258223Y137323D01*
X258223Y144341D01*
X261034Y144341D01*
X261681Y144168D01*
X262260Y143833D01*
X262733Y143360D01*
X263068Y142781D01*
X263241Y142134D01*
X263241Y137323D01*
X258223Y137323D01*
G37*
%LPD*%
%LPC*%
G36*
X93860Y393918D02*
X93860Y393918D01*
X93525Y394497D01*
X93352Y395144D01*
X93352Y395813D01*
X93525Y396459D01*
X93860Y397038D01*
X95848Y399026D01*
X100810Y394064D01*
X97262Y390516D01*
X93860Y393918D01*
G37*
%LPD*%
%LPC*%
G36*
X116260Y343918D02*
X116260Y343918D01*
X115925Y344497D01*
X115752Y345144D01*
X115752Y345813D01*
X115925Y346459D01*
X116260Y347038D01*
X118248Y349026D01*
X123210Y344064D01*
X119662Y340516D01*
X116260Y343918D01*
G37*
%LPD*%
%LPC*%
G36*
X126444Y334452D02*
X126444Y334452D01*
X125797Y334625D01*
X125218Y334960D01*
X121816Y338362D01*
X125364Y341910D01*
X130326Y336948D01*
X128338Y334960D01*
X127759Y334625D01*
X127113Y334452D01*
X126444Y334452D01*
G37*
%LPD*%
%LPC*%
G36*
X171344Y189052D02*
X171344Y189052D01*
X170697Y189225D01*
X170118Y189560D01*
X166716Y192962D01*
X170264Y196510D01*
X175226Y191548D01*
X173238Y189560D01*
X172659Y189225D01*
X172013Y189052D01*
X171344Y189052D01*
G37*
%LPD*%
%LPC*%
G36*
X55144Y148252D02*
X55144Y148252D01*
X54497Y148425D01*
X53918Y148760D01*
X50516Y152162D01*
X54064Y155710D01*
X59026Y150748D01*
X57038Y148760D01*
X56459Y148425D01*
X55813Y148252D01*
X55144Y148252D01*
G37*
%LPD*%
%LPC*%
G36*
X334960Y85318D02*
X334960Y85318D01*
X334625Y85897D01*
X334452Y86544D01*
X334452Y87213D01*
X334625Y87859D01*
X334960Y88438D01*
X336948Y90426D01*
X341910Y85464D01*
X338362Y81916D01*
X334960Y85318D01*
G37*
%LPD*%
%LPC*%
G36*
X345144Y75852D02*
X345144Y75852D01*
X344497Y76025D01*
X343918Y76360D01*
X340516Y79762D01*
X344064Y83310D01*
X349026Y78348D01*
X347038Y76360D01*
X346459Y76025D01*
X345813Y75852D01*
X345144Y75852D01*
G37*
%LPD*%
%LPC*%
G36*
X301732Y115690D02*
X301732Y115690D01*
X301397Y116269D01*
X301224Y116915D01*
X301224Y117584D01*
X301397Y118230D01*
X301732Y118810D01*
X305134Y122212D01*
X308682Y118664D01*
X303720Y113702D01*
X301732Y115690D01*
G37*
%LPD*%
%LPC*%
G36*
X296560Y83562D02*
X296560Y83562D01*
X296225Y84141D01*
X296052Y84787D01*
X296052Y85456D01*
X296225Y86103D01*
X296560Y86682D01*
X299962Y90084D01*
X303510Y86536D01*
X298548Y81574D01*
X296560Y83562D01*
G37*
%LPD*%
%LPC*%
G36*
X309087Y109052D02*
X309087Y109052D01*
X308441Y109225D01*
X307862Y109560D01*
X305874Y111548D01*
X310836Y116510D01*
X314384Y112962D01*
X310982Y109560D01*
X310403Y109225D01*
X309756Y109052D01*
X309087Y109052D01*
G37*
%LPD*%
%LPC*%
G36*
X133132Y324090D02*
X133132Y324090D01*
X132797Y324669D01*
X132624Y325315D01*
X132624Y325984D01*
X132797Y326630D01*
X133132Y327210D01*
X136534Y330612D01*
X140082Y327064D01*
X135120Y322102D01*
X133132Y324090D01*
G37*
%LPD*%
%LPC*%
G36*
X167960Y343962D02*
X167960Y343962D01*
X167625Y344541D01*
X167452Y345187D01*
X167452Y345856D01*
X167625Y346503D01*
X167960Y347082D01*
X171362Y350484D01*
X174910Y346936D01*
X169948Y341974D01*
X167960Y343962D01*
G37*
%LPD*%
%LPC*%
G36*
X175315Y337324D02*
X175315Y337324D01*
X174669Y337497D01*
X174090Y337832D01*
X172102Y339820D01*
X177064Y344782D01*
X180612Y341234D01*
X177210Y337832D01*
X176630Y337497D01*
X175984Y337324D01*
X175315Y337324D01*
G37*
%LPD*%
%LPC*%
G36*
X122560Y292962D02*
X122560Y292962D01*
X122225Y293541D01*
X122052Y294187D01*
X122052Y294856D01*
X122225Y295503D01*
X122560Y296082D01*
X125962Y299484D01*
X129510Y295936D01*
X124548Y290974D01*
X122560Y292962D01*
G37*
%LPD*%
%LPC*%
G36*
X140487Y317452D02*
X140487Y317452D01*
X139841Y317625D01*
X139262Y317960D01*
X137274Y319948D01*
X142236Y324910D01*
X145784Y321362D01*
X142382Y317960D01*
X141803Y317625D01*
X141156Y317452D01*
X140487Y317452D01*
G37*
%LPD*%
%LPC*%
G36*
X129915Y286324D02*
X129915Y286324D01*
X129269Y286497D01*
X128690Y286832D01*
X126702Y288820D01*
X131664Y293782D01*
X135212Y290234D01*
X131810Y286832D01*
X131230Y286497D01*
X130584Y286324D01*
X129915Y286324D01*
G37*
%LPD*%
%LPC*%
G36*
X165232Y320990D02*
X165232Y320990D01*
X164897Y321569D01*
X164724Y322215D01*
X164724Y322884D01*
X164897Y323530D01*
X165232Y324110D01*
X168634Y327512D01*
X172182Y323964D01*
X167220Y319002D01*
X165232Y320990D01*
G37*
%LPD*%
%LPC*%
G36*
X258223Y127259D02*
X258223Y127259D01*
X258223Y134277D01*
X263241Y134277D01*
X263241Y129466D01*
X263068Y128819D01*
X262733Y128240D01*
X262260Y127767D01*
X261681Y127432D01*
X261034Y127259D01*
X258223Y127259D01*
G37*
%LPD*%
%LPC*%
G36*
X250159Y137323D02*
X250159Y137323D01*
X250159Y142134D01*
X250332Y142781D01*
X250667Y143360D01*
X251140Y143833D01*
X251719Y144168D01*
X252366Y144341D01*
X255177Y144341D01*
X255177Y137323D01*
X250159Y137323D01*
G37*
%LPD*%
%LPC*%
G36*
X252366Y127259D02*
X252366Y127259D01*
X251719Y127432D01*
X251140Y127767D01*
X250667Y128240D01*
X250332Y128819D01*
X250159Y129466D01*
X250159Y134277D01*
X255177Y134277D01*
X255177Y127259D01*
X252366Y127259D01*
G37*
%LPD*%
%LPC*%
G36*
X257693Y342023D02*
X257693Y342023D01*
X257693Y348041D01*
X260202Y348041D01*
X261230Y347765D01*
X262151Y347233D01*
X262903Y346481D01*
X263435Y345560D01*
X263711Y344532D01*
X263711Y342023D01*
X257693Y342023D01*
G37*
%LPD*%
%LPC*%
G36*
X438629Y238223D02*
X438629Y238223D01*
X438629Y240732D01*
X438905Y241760D01*
X439437Y242681D01*
X440189Y243433D01*
X441110Y243965D01*
X442138Y244241D01*
X444647Y244241D01*
X444647Y238223D01*
X438629Y238223D01*
G37*
%LPD*%
%LPC*%
G36*
X257693Y332959D02*
X257693Y332959D01*
X257693Y338977D01*
X263711Y338977D01*
X263711Y336468D01*
X263435Y335440D01*
X262903Y334519D01*
X262151Y333767D01*
X261230Y333235D01*
X260202Y332959D01*
X257693Y332959D01*
G37*
%LPD*%
%LPC*%
G36*
X442138Y229159D02*
X442138Y229159D01*
X441110Y229435D01*
X440189Y229967D01*
X439437Y230719D01*
X438905Y231640D01*
X438629Y232668D01*
X438629Y235177D01*
X444647Y235177D01*
X444647Y229159D01*
X442138Y229159D01*
G37*
%LPD*%
%LPC*%
G36*
X355418Y312320D02*
X355418Y312320D01*
X354886Y313242D01*
X354611Y314269D01*
X354611Y315333D01*
X354886Y316361D01*
X355418Y317282D01*
X357192Y319056D01*
X361447Y314801D01*
X357192Y310546D01*
X355418Y312320D01*
G37*
%LPD*%
%LPC*%
G36*
X315867Y342408D02*
X315867Y342408D01*
X314839Y342684D01*
X313918Y343216D01*
X312144Y344989D01*
X316399Y349245D01*
X320654Y344990D01*
X318880Y343216D01*
X317958Y342684D01*
X316931Y342408D01*
X315867Y342408D01*
G37*
%LPD*%
%LPC*%
G36*
X363069Y305811D02*
X363069Y305811D01*
X362042Y306086D01*
X361120Y306618D01*
X359346Y308392D01*
X363601Y312647D01*
X367856Y308392D01*
X366082Y306618D01*
X365161Y306086D01*
X364133Y305811D01*
X363069Y305811D01*
G37*
%LPD*%
%LPC*%
G36*
X381399Y451499D02*
X381399Y451499D01*
X381399Y451501D01*
X381401Y451501D01*
X381401Y451499D01*
X381399Y451499D01*
G37*
%LPD*%
%LPC*%
G36*
X168999Y451499D02*
X168999Y451499D01*
X168999Y451501D01*
X169001Y451501D01*
X169001Y451499D01*
X168999Y451499D01*
G37*
%LPD*%
%LPC*%
G36*
X54063Y157864D02*
X54063Y157864D01*
X54064Y157865D01*
X54065Y157864D01*
X54064Y157863D01*
X54063Y157864D01*
G37*
%LPD*%
%LPC*%
G36*
X344063Y85464D02*
X344063Y85464D01*
X344064Y85465D01*
X344065Y85464D01*
X344064Y85463D01*
X344063Y85464D01*
G37*
%LPD*%
%LPC*%
G36*
X256699Y135799D02*
X256699Y135799D01*
X256699Y135801D01*
X256701Y135801D01*
X256701Y135799D01*
X256699Y135799D01*
G37*
%LPD*%
%LPC*%
G36*
X142235Y327064D02*
X142235Y327064D01*
X142236Y327065D01*
X142237Y327064D01*
X142236Y327063D01*
X142235Y327064D01*
G37*
%LPD*%
%LPC*%
G36*
X131663Y295936D02*
X131663Y295936D01*
X131664Y295937D01*
X131665Y295936D01*
X131664Y295935D01*
X131663Y295936D01*
G37*
%LPD*%
%LPC*%
G36*
X310835Y118664D02*
X310835Y118664D01*
X310836Y118665D01*
X310837Y118664D01*
X310836Y118663D01*
X310835Y118664D01*
G37*
%LPD*%
D10*
G36*
X119707Y329922D02*
X114050Y324265D01*
X105565Y332750D01*
X111222Y338407D01*
X119707Y329922D01*
G37*
G36*
X132435Y342650D02*
X126778Y336993D01*
X118293Y345478D01*
X123950Y351135D01*
X132435Y342650D01*
G37*
G36*
X164607Y184522D02*
X158950Y178865D01*
X150465Y187350D01*
X156122Y193007D01*
X164607Y184522D01*
G37*
G36*
X177335Y197250D02*
X171678Y191593D01*
X163193Y200078D01*
X168850Y205735D01*
X177335Y197250D01*
G37*
G36*
X188478Y318307D02*
X194135Y312650D01*
X185650Y304165D01*
X179993Y309822D01*
X188478Y318307D01*
G37*
G36*
X175750Y331035D02*
X181407Y325378D01*
X172922Y316893D01*
X167265Y322550D01*
X175750Y331035D01*
G37*
G36*
X178478Y290207D02*
X184135Y284550D01*
X175650Y276065D01*
X169993Y281722D01*
X178478Y290207D01*
G37*
G36*
X165750Y302935D02*
X171407Y297278D01*
X162922Y288793D01*
X157265Y294450D01*
X165750Y302935D01*
G37*
G36*
X156378Y321407D02*
X162035Y315750D01*
X153550Y307265D01*
X147893Y312922D01*
X156378Y321407D01*
G37*
G36*
X143650Y334135D02*
X149307Y328478D01*
X140822Y319993D01*
X135165Y325650D01*
X143650Y334135D01*
G37*
G36*
X162922Y352593D02*
X157265Y358250D01*
X165750Y366735D01*
X171407Y361078D01*
X162922Y352593D01*
G37*
G36*
X175650Y339865D02*
X169993Y345522D01*
X178478Y354007D01*
X184135Y348350D01*
X175650Y339865D01*
G37*
G36*
X305507Y312922D02*
X299850Y307265D01*
X291365Y315750D01*
X297022Y321407D01*
X305507Y312922D01*
G37*
G36*
X318235Y325650D02*
X312578Y319993D01*
X304093Y328478D01*
X309750Y334135D01*
X318235Y325650D01*
G37*
G36*
X291522Y92193D02*
X285865Y97850D01*
X294350Y106335D01*
X300007Y100678D01*
X291522Y92193D01*
G37*
G36*
X304250Y79465D02*
X298593Y85122D01*
X307078Y93607D01*
X312735Y87950D01*
X304250Y79465D01*
G37*
G36*
X338407Y71322D02*
X332750Y65665D01*
X324265Y74150D01*
X329922Y79807D01*
X338407Y71322D01*
G37*
G36*
X351135Y84050D02*
X345478Y78393D01*
X336993Y86878D01*
X342650Y92535D01*
X351135Y84050D01*
G37*
G36*
X324978Y113007D02*
X330635Y107350D01*
X322150Y98865D01*
X316493Y104522D01*
X324978Y113007D01*
G37*
G36*
X312250Y125735D02*
X317907Y120078D01*
X309422Y111593D01*
X303765Y117250D01*
X312250Y125735D01*
G37*
G36*
X117522Y301593D02*
X111865Y307250D01*
X120350Y315735D01*
X126007Y310078D01*
X117522Y301593D01*
G37*
G36*
X130250Y288865D02*
X124593Y294522D01*
X133078Y303007D01*
X138735Y297350D01*
X130250Y288865D01*
G37*
G36*
X97307Y379922D02*
X91650Y374265D01*
X83165Y382750D01*
X88822Y388407D01*
X97307Y379922D01*
G37*
G36*
X110035Y392650D02*
X104378Y386993D01*
X95893Y395478D01*
X101550Y401135D01*
X110035Y392650D01*
G37*
G36*
X48407Y143722D02*
X42750Y138065D01*
X34265Y146550D01*
X39922Y152207D01*
X48407Y143722D01*
G37*
G36*
X61135Y156450D02*
X55478Y150793D01*
X46993Y159278D01*
X52650Y164935D01*
X61135Y156450D01*
G37*
G36*
X69922Y338893D02*
X64265Y344550D01*
X72750Y353035D01*
X78407Y347378D01*
X69922Y338893D01*
G37*
G36*
X82650Y326165D02*
X76993Y331822D01*
X85478Y340307D01*
X91135Y334650D01*
X82650Y326165D01*
G37*
G36*
X310078Y158407D02*
X315735Y152750D01*
X307250Y144265D01*
X301593Y149922D01*
X310078Y158407D01*
G37*
G36*
X297350Y171135D02*
X303007Y165478D01*
X294522Y156993D01*
X288865Y162650D01*
X297350Y171135D01*
G37*
X238700Y135800D03*
X256700Y135800D03*
G36*
X141222Y268593D02*
X135565Y274250D01*
X144050Y282735D01*
X149707Y277078D01*
X141222Y268593D01*
G37*
G36*
X153950Y255865D02*
X148293Y261522D01*
X156778Y270007D01*
X162435Y264350D01*
X153950Y255865D01*
G37*
D11*
X252670Y337000D02*
X252670Y344000D01*
X259670Y344000D01*
X259670Y337000D01*
X252670Y337000D01*
X252670Y339850D02*
X259670Y339850D01*
X259670Y342700D02*
X252670Y342700D01*
X235130Y344000D02*
X235130Y337000D01*
X235130Y344000D02*
X242130Y344000D01*
X242130Y337000D01*
X235130Y337000D01*
X235130Y339850D02*
X242130Y339850D01*
X242130Y342700D02*
X235130Y342700D01*
X316399Y356348D02*
X321348Y351399D01*
X316399Y346450D01*
X311450Y351399D01*
X316399Y356348D01*
X319249Y349300D02*
X313549Y349300D01*
X312201Y352150D02*
X320597Y352150D01*
X317747Y355000D02*
X315051Y355000D01*
X328801Y368750D02*
X333750Y363801D01*
X328801Y358852D01*
X323852Y363801D01*
X328801Y368750D01*
X331651Y361702D02*
X325951Y361702D01*
X324603Y364552D02*
X332999Y364552D01*
X330149Y367402D02*
X327453Y367402D01*
X358652Y314801D02*
X363601Y309852D01*
X358652Y314801D02*
X363601Y319750D01*
X368550Y314801D01*
X363601Y309852D01*
X366451Y312702D02*
X360751Y312702D01*
X359403Y315552D02*
X367799Y315552D01*
X364949Y318402D02*
X362253Y318402D01*
X346250Y302399D02*
X351199Y297450D01*
X346250Y302399D02*
X351199Y307348D01*
X356148Y302399D01*
X351199Y297450D01*
X354049Y300300D02*
X348349Y300300D01*
X347001Y303150D02*
X355397Y303150D01*
X352547Y306000D02*
X349851Y306000D01*
X442670Y240200D02*
X442670Y233200D01*
X442670Y240200D02*
X449670Y240200D01*
X449670Y233200D01*
X442670Y233200D01*
X442670Y236050D02*
X449670Y236050D01*
X449670Y238900D02*
X442670Y238900D01*
X425130Y240200D02*
X425130Y233200D01*
X425130Y240200D02*
X432130Y240200D01*
X432130Y233200D01*
X425130Y233200D01*
X425130Y236050D02*
X432130Y236050D01*
X432130Y238900D02*
X425130Y238900D01*
D10*
G36*
X157078Y149807D02*
X162735Y144150D01*
X154250Y135665D01*
X148593Y141322D01*
X157078Y149807D01*
G37*
G36*
X144350Y162535D02*
X150007Y156878D01*
X141522Y148393D01*
X135865Y154050D01*
X144350Y162535D01*
G37*
G36*
X87078Y297907D02*
X92735Y292250D01*
X84250Y283765D01*
X78593Y289422D01*
X87078Y297907D01*
G37*
G36*
X74350Y310635D02*
X80007Y304978D01*
X71522Y296493D01*
X65865Y302150D01*
X74350Y310635D01*
G37*
G36*
X358593Y363078D02*
X364250Y368735D01*
X372735Y360250D01*
X367078Y354593D01*
X358593Y363078D01*
G37*
G36*
X345865Y350350D02*
X351522Y356007D01*
X360007Y347522D01*
X354350Y341865D01*
X345865Y350350D01*
G37*
G36*
X361178Y181407D02*
X366835Y175750D01*
X358350Y167265D01*
X352693Y172922D01*
X361178Y181407D01*
G37*
G36*
X348450Y194135D02*
X354107Y188478D01*
X345622Y179993D01*
X339965Y185650D01*
X348450Y194135D01*
G37*
G36*
X391407Y170722D02*
X385750Y165065D01*
X377265Y173550D01*
X382922Y179207D01*
X391407Y170722D01*
G37*
G36*
X404135Y183450D02*
X398478Y177793D01*
X389993Y186278D01*
X395650Y191935D01*
X404135Y183450D01*
G37*
G36*
X191107Y151522D02*
X185450Y145865D01*
X176965Y154350D01*
X182622Y160007D01*
X191107Y151522D01*
G37*
G36*
X203835Y164250D02*
X198178Y158593D01*
X189693Y167078D01*
X195350Y172735D01*
X203835Y164250D01*
G37*
G36*
X109993Y370078D02*
X115650Y375735D01*
X124135Y367250D01*
X118478Y361593D01*
X109993Y370078D01*
G37*
G36*
X97265Y357350D02*
X102922Y363007D01*
X111407Y354522D01*
X105750Y348865D01*
X97265Y357350D01*
G37*
G36*
X321407Y296422D02*
X315750Y290765D01*
X307265Y299250D01*
X312922Y304907D01*
X321407Y296422D01*
G37*
G36*
X334135Y309150D02*
X328478Y303493D01*
X319993Y311978D01*
X325650Y317635D01*
X334135Y309150D01*
G37*
G36*
X351678Y131407D02*
X357335Y125750D01*
X348850Y117265D01*
X343193Y122922D01*
X351678Y131407D01*
G37*
G36*
X338950Y144135D02*
X344607Y138478D01*
X336122Y129993D01*
X330465Y135650D01*
X338950Y144135D01*
G37*
D12*
G36*
X181206Y221693D02*
X179230Y223669D01*
X189646Y234085D01*
X191622Y232109D01*
X181206Y221693D01*
G37*
G36*
X184798Y218101D02*
X182822Y220077D01*
X193238Y230493D01*
X195214Y228517D01*
X184798Y218101D01*
G37*
G36*
X188390Y214509D02*
X186414Y216485D01*
X196830Y226901D01*
X198806Y224925D01*
X188390Y214509D01*
G37*
G36*
X191802Y211096D02*
X189826Y213072D01*
X200242Y223488D01*
X202218Y221512D01*
X191802Y211096D01*
G37*
G36*
X195395Y207504D02*
X193419Y209480D01*
X203835Y219896D01*
X205811Y217920D01*
X195395Y207504D01*
G37*
G36*
X198987Y203912D02*
X197011Y205888D01*
X207427Y216304D01*
X209403Y214328D01*
X198987Y203912D01*
G37*
G36*
X202399Y200499D02*
X200423Y202475D01*
X210839Y212891D01*
X212815Y210915D01*
X202399Y200499D01*
G37*
G36*
X205991Y196907D02*
X204015Y198883D01*
X214431Y209299D01*
X216407Y207323D01*
X205991Y196907D01*
G37*
G36*
X209583Y193315D02*
X207607Y195291D01*
X218023Y205707D01*
X219999Y203731D01*
X209583Y193315D01*
G37*
G36*
X213175Y189723D02*
X211199Y191699D01*
X221615Y202115D01*
X223591Y200139D01*
X213175Y189723D01*
G37*
G36*
X216588Y186311D02*
X214612Y188287D01*
X225028Y198703D01*
X227004Y196727D01*
X216588Y186311D01*
G37*
G36*
X220180Y182719D02*
X218204Y184695D01*
X228620Y195111D01*
X230596Y193135D01*
X220180Y182719D01*
G37*
G36*
X223772Y179126D02*
X221796Y181102D01*
X232212Y191518D01*
X234188Y189542D01*
X223772Y179126D01*
G37*
G36*
X227185Y175714D02*
X225209Y177690D01*
X235625Y188106D01*
X237601Y186130D01*
X227185Y175714D01*
G37*
G36*
X230777Y172122D02*
X228801Y174098D01*
X239217Y184514D01*
X241193Y182538D01*
X230777Y172122D01*
G37*
G36*
X234369Y168530D02*
X232393Y170506D01*
X242809Y180922D01*
X244785Y178946D01*
X234369Y168530D01*
G37*
G36*
X258615Y178946D02*
X260591Y180922D01*
X271007Y170506D01*
X269031Y168530D01*
X258615Y178946D01*
G37*
G36*
X262207Y182538D02*
X264183Y184514D01*
X274599Y174098D01*
X272623Y172122D01*
X262207Y182538D01*
G37*
G36*
X265799Y186130D02*
X267775Y188106D01*
X278191Y177690D01*
X276215Y175714D01*
X265799Y186130D01*
G37*
G36*
X269212Y189542D02*
X271188Y191518D01*
X281604Y181102D01*
X279628Y179126D01*
X269212Y189542D01*
G37*
G36*
X272804Y193135D02*
X274780Y195111D01*
X285196Y184695D01*
X283220Y182719D01*
X272804Y193135D01*
G37*
G36*
X276396Y196727D02*
X278372Y198703D01*
X288788Y188287D01*
X286812Y186311D01*
X276396Y196727D01*
G37*
G36*
X279809Y200139D02*
X281785Y202115D01*
X292201Y191699D01*
X290225Y189723D01*
X279809Y200139D01*
G37*
G36*
X283401Y203731D02*
X285377Y205707D01*
X295793Y195291D01*
X293817Y193315D01*
X283401Y203731D01*
G37*
G36*
X286993Y207323D02*
X288969Y209299D01*
X299385Y198883D01*
X297409Y196907D01*
X286993Y207323D01*
G37*
G36*
X290585Y210915D02*
X292561Y212891D01*
X302977Y202475D01*
X301001Y200499D01*
X290585Y210915D01*
G37*
G36*
X293997Y214328D02*
X295973Y216304D01*
X306389Y205888D01*
X304413Y203912D01*
X293997Y214328D01*
G37*
G36*
X297589Y217920D02*
X299565Y219896D01*
X309981Y209480D01*
X308005Y207504D01*
X297589Y217920D01*
G37*
G36*
X301182Y221512D02*
X303158Y223488D01*
X313574Y213072D01*
X311598Y211096D01*
X301182Y221512D01*
G37*
G36*
X304594Y224925D02*
X306570Y226901D01*
X316986Y216485D01*
X315010Y214509D01*
X304594Y224925D01*
G37*
G36*
X308186Y228517D02*
X310162Y230493D01*
X320578Y220077D01*
X318602Y218101D01*
X308186Y228517D01*
G37*
G36*
X311778Y232109D02*
X313754Y234085D01*
X324170Y223669D01*
X322194Y221693D01*
X311778Y232109D01*
G37*
G36*
X313754Y247915D02*
X311778Y249891D01*
X322194Y260307D01*
X324170Y258331D01*
X313754Y247915D01*
G37*
G36*
X310162Y251507D02*
X308186Y253483D01*
X318602Y263899D01*
X320578Y261923D01*
X310162Y251507D01*
G37*
G36*
X306570Y255099D02*
X304594Y257075D01*
X315010Y267491D01*
X316986Y265515D01*
X306570Y255099D01*
G37*
G36*
X303158Y258512D02*
X301182Y260488D01*
X311598Y270904D01*
X313574Y268928D01*
X303158Y258512D01*
G37*
G36*
X299565Y262104D02*
X297589Y264080D01*
X308005Y274496D01*
X309981Y272520D01*
X299565Y262104D01*
G37*
G36*
X295973Y265696D02*
X293997Y267672D01*
X304413Y278088D01*
X306389Y276112D01*
X295973Y265696D01*
G37*
G36*
X292561Y269109D02*
X290585Y271085D01*
X301001Y281501D01*
X302977Y279525D01*
X292561Y269109D01*
G37*
G36*
X288969Y272701D02*
X286993Y274677D01*
X297409Y285093D01*
X299385Y283117D01*
X288969Y272701D01*
G37*
G36*
X285377Y276293D02*
X283401Y278269D01*
X293817Y288685D01*
X295793Y286709D01*
X285377Y276293D01*
G37*
G36*
X281785Y279885D02*
X279809Y281861D01*
X290225Y292277D01*
X292201Y290301D01*
X281785Y279885D01*
G37*
G36*
X278372Y283297D02*
X276396Y285273D01*
X286812Y295689D01*
X288788Y293713D01*
X278372Y283297D01*
G37*
G36*
X274780Y286889D02*
X272804Y288865D01*
X283220Y299281D01*
X285196Y297305D01*
X274780Y286889D01*
G37*
G36*
X271188Y290482D02*
X269212Y292458D01*
X279628Y302874D01*
X281604Y300898D01*
X271188Y290482D01*
G37*
G36*
X267775Y293894D02*
X265799Y295870D01*
X276215Y306286D01*
X278191Y304310D01*
X267775Y293894D01*
G37*
G36*
X264183Y297486D02*
X262207Y299462D01*
X272623Y309878D01*
X274599Y307902D01*
X264183Y297486D01*
G37*
G36*
X260591Y301078D02*
X258615Y303054D01*
X269031Y313470D01*
X271007Y311494D01*
X260591Y301078D01*
G37*
G36*
X232393Y311494D02*
X234369Y313470D01*
X244785Y303054D01*
X242809Y301078D01*
X232393Y311494D01*
G37*
G36*
X228801Y307902D02*
X230777Y309878D01*
X241193Y299462D01*
X239217Y297486D01*
X228801Y307902D01*
G37*
G36*
X225209Y304310D02*
X227185Y306286D01*
X237601Y295870D01*
X235625Y293894D01*
X225209Y304310D01*
G37*
G36*
X221796Y300898D02*
X223772Y302874D01*
X234188Y292458D01*
X232212Y290482D01*
X221796Y300898D01*
G37*
G36*
X218204Y297305D02*
X220180Y299281D01*
X230596Y288865D01*
X228620Y286889D01*
X218204Y297305D01*
G37*
G36*
X214612Y293713D02*
X216588Y295689D01*
X227004Y285273D01*
X225028Y283297D01*
X214612Y293713D01*
G37*
G36*
X211199Y290301D02*
X213175Y292277D01*
X223591Y281861D01*
X221615Y279885D01*
X211199Y290301D01*
G37*
G36*
X207607Y286709D02*
X209583Y288685D01*
X219999Y278269D01*
X218023Y276293D01*
X207607Y286709D01*
G37*
G36*
X204015Y283117D02*
X205991Y285093D01*
X216407Y274677D01*
X214431Y272701D01*
X204015Y283117D01*
G37*
G36*
X200423Y279525D02*
X202399Y281501D01*
X212815Y271085D01*
X210839Y269109D01*
X200423Y279525D01*
G37*
G36*
X197011Y276112D02*
X198987Y278088D01*
X209403Y267672D01*
X207427Y265696D01*
X197011Y276112D01*
G37*
G36*
X193419Y272520D02*
X195395Y274496D01*
X205811Y264080D01*
X203835Y262104D01*
X193419Y272520D01*
G37*
G36*
X189826Y268928D02*
X191802Y270904D01*
X202218Y260488D01*
X200242Y258512D01*
X189826Y268928D01*
G37*
G36*
X186414Y265515D02*
X188390Y267491D01*
X198806Y257075D01*
X196830Y255099D01*
X186414Y265515D01*
G37*
G36*
X182822Y261923D02*
X184798Y263899D01*
X195214Y253483D01*
X193238Y251507D01*
X182822Y261923D01*
G37*
G36*
X179230Y258331D02*
X181206Y260307D01*
X191622Y249891D01*
X189646Y247915D01*
X179230Y258331D01*
G37*
D13*
X25800Y451500D03*
X76600Y451500D03*
X331500Y30200D03*
X382300Y30200D03*
X330600Y451500D03*
X381400Y451500D03*
D14*
X224200Y18800D03*
X249600Y18800D03*
X275000Y18800D03*
X275000Y44200D03*
X249600Y44200D03*
X224200Y44200D03*
X221400Y440400D03*
X246800Y440400D03*
X272200Y440400D03*
X272200Y465800D03*
X246800Y465800D03*
X221400Y465800D03*
D13*
X118200Y451500D03*
X169000Y451500D03*
D15*
X257556Y339852D02*
X257556Y329184D01*
X275844Y310896D02*
X277368Y309372D01*
X275844Y310896D02*
X257556Y329184D01*
X277368Y309372D02*
X277368Y304800D01*
X272796Y300228D01*
X257556Y339852D02*
X256170Y340500D01*
X271995Y300090D02*
X272796Y300228D01*
X274320Y164592D02*
X295656Y164592D01*
X274320Y164592D02*
X265176Y173736D01*
X295656Y164592D02*
X295936Y164064D01*
X265176Y173736D02*
X264811Y174726D01*
X336804Y315468D02*
X362712Y315468D01*
X336804Y315468D02*
X326136Y326136D01*
X316992Y326136D02*
X312420Y326136D01*
X316992Y326136D02*
X326136Y326136D01*
X312420Y326136D02*
X311164Y327064D01*
X440436Y237744D02*
X445008Y237744D01*
X423672Y254508D02*
X364236Y313944D01*
X423672Y254508D02*
X440436Y237744D01*
X445008Y237744D02*
X446170Y236700D01*
X364236Y313944D02*
X363601Y314801D01*
X316992Y326136D02*
X316992Y350520D01*
X316399Y351399D01*
X311164Y327064D02*
X316992Y326136D01*
X297180Y169164D02*
X297180Y164592D01*
X297180Y169164D02*
X320040Y192024D01*
X329184Y192024D01*
X344424Y176784D01*
X345948Y176784D01*
X423672Y254508D01*
X297180Y164592D02*
X295936Y164064D01*
X275844Y310896D02*
X286512Y321564D01*
X286512Y327660D01*
X289560Y330708D01*
X307848Y330708D01*
X310896Y327660D01*
X311164Y327064D01*
X347472Y452628D02*
X355092Y452628D01*
X381000Y452628D01*
X347472Y452628D02*
X335280Y464820D01*
X272796Y464820D01*
X381000Y452628D02*
X381400Y451500D01*
X272796Y464820D02*
X272200Y465800D01*
X85344Y356616D02*
X85344Y333756D01*
X99060Y370332D02*
X102108Y373380D01*
X99060Y370332D02*
X85344Y356616D01*
X102108Y373380D02*
X102108Y393192D01*
X85344Y333756D02*
X84064Y333236D01*
X102108Y393192D02*
X102964Y394064D01*
X164592Y313944D02*
X164592Y297180D01*
X166116Y315468D02*
X173736Y323088D01*
X166116Y315468D02*
X164592Y313944D01*
X164592Y297180D02*
X164336Y295864D01*
X173736Y323088D02*
X174336Y323964D01*
X176784Y326136D02*
X176784Y345948D01*
X176784Y326136D02*
X175260Y324612D01*
X176784Y345948D02*
X177064Y346936D01*
X175260Y324612D02*
X174336Y323964D01*
X132588Y316992D02*
X132588Y297180D01*
X132588Y316992D02*
X141732Y326136D01*
X132588Y297180D02*
X131664Y295936D01*
X141732Y326136D02*
X142236Y327064D01*
X141732Y327660D02*
X126492Y342900D01*
X125364Y344064D01*
X141732Y327660D02*
X142236Y327064D01*
X155448Y326136D02*
X166116Y315468D01*
X155448Y326136D02*
X143256Y326136D01*
X142236Y327064D01*
X124968Y344424D02*
X99060Y370332D01*
X124968Y344424D02*
X125364Y344064D01*
X77724Y419100D02*
X77724Y451104D01*
X77724Y419100D02*
X102108Y394716D01*
X77724Y451104D02*
X76600Y451500D01*
X102108Y394716D02*
X102964Y394064D01*
X362712Y355092D02*
X362712Y315468D01*
X362712Y355092D02*
X355092Y362712D01*
X355092Y452628D01*
X362712Y315468D02*
X363601Y314801D01*
X306324Y114300D02*
X306324Y86868D01*
X306324Y114300D02*
X309372Y117348D01*
X310836Y118664D01*
X275844Y135636D02*
X257556Y135636D01*
X275844Y135636D02*
X297180Y114300D01*
X306324Y114300D01*
X257556Y135636D02*
X256700Y135800D01*
X306324Y86868D02*
X342900Y86868D01*
X344064Y85464D01*
X306324Y86868D02*
X305664Y86536D01*
X304800Y85344D02*
X275844Y56388D01*
X275844Y45720D01*
X304800Y85344D02*
X305664Y86536D01*
X275844Y45720D02*
X275000Y44200D01*
X381000Y48768D02*
X381000Y30480D01*
X381000Y48768D02*
X344424Y85344D01*
X381000Y30480D02*
X382300Y30200D01*
X344424Y85344D02*
X344064Y85464D01*
X54864Y158496D02*
X54864Y187452D01*
X54864Y158496D02*
X54064Y157864D01*
X163068Y199644D02*
X169164Y199644D01*
X163068Y199644D02*
X158496Y204216D01*
X152400Y204216D01*
X144780Y196596D01*
X144780Y190500D01*
X169164Y199644D02*
X170264Y198664D01*
X190500Y225552D02*
X195072Y230124D01*
X195072Y233172D01*
X179832Y248412D01*
X146304Y248412D01*
X189018Y224297D02*
X190500Y225552D01*
X198120Y269748D02*
X192024Y275844D01*
X188976Y275844D01*
X198120Y269748D02*
X199615Y268300D01*
X131064Y295656D02*
X126492Y295656D01*
X114300Y283464D01*
X131064Y295656D02*
X131664Y295936D01*
D16*
X54864Y187452D03*
X144780Y190500D03*
X146304Y248412D03*
X188976Y275844D03*
X114300Y283464D03*
D15*
X365760Y323088D02*
X365760Y361188D01*
X365760Y323088D02*
X417576Y271272D01*
X417576Y269748D01*
X365760Y361188D02*
X365664Y361664D01*
D16*
X417576Y269748D03*
D15*
X361188Y173736D02*
X361188Y169164D01*
X364236Y166116D01*
X361188Y173736D02*
X359764Y174336D01*
D16*
X364236Y166116D03*
D15*
X370332Y172212D02*
X384048Y172212D01*
X384336Y172136D01*
D16*
X370332Y172212D03*
D15*
X236220Y187452D02*
X231648Y182880D01*
X236220Y187452D02*
X240792Y187452D01*
X248412Y179832D01*
X248412Y175260D01*
X246888Y173736D01*
X284988Y135636D02*
X294132Y135636D01*
X300228Y129540D01*
X329184Y129540D01*
X411480Y135636D02*
X473964Y198120D01*
X231648Y182880D02*
X231405Y181910D01*
D16*
X246888Y173736D03*
X284988Y135636D03*
X329184Y129540D03*
X411480Y135636D03*
X473964Y198120D03*
D15*
X233172Y190500D02*
X228600Y185928D01*
X233172Y190500D02*
X246888Y190500D01*
X289560Y153924D02*
X301752Y153924D01*
X309372Y161544D01*
X359664Y161544D01*
X361188Y160020D01*
X388620Y160020D01*
X397764Y169164D01*
X228600Y185928D02*
X227992Y185322D01*
D16*
X246888Y190500D03*
X289560Y153924D03*
X397764Y169164D03*
D15*
X219456Y192024D02*
X202692Y175260D01*
X193548Y175260D01*
X185928Y167640D01*
X185928Y166116D01*
X208788Y143256D01*
X216408Y143256D01*
X240792Y213360D02*
X271272Y243840D01*
X280416Y326136D02*
X315468Y361188D01*
X320040Y361188D01*
X344424Y336804D01*
X220808Y192507D02*
X219456Y192024D01*
D16*
X216408Y143256D03*
X240792Y213360D03*
X271272Y243840D03*
X280416Y326136D03*
X344424Y336804D03*
D15*
X271272Y196596D02*
X278892Y188976D01*
X271272Y196596D02*
X271272Y199644D01*
X288036Y222504D02*
X297180Y231648D01*
X298704Y231648D01*
X312420Y245364D01*
X315468Y245364D01*
X338328Y268224D01*
X338328Y278892D01*
X339852Y280416D01*
X279000Y188915D02*
X278892Y188976D01*
D16*
X271272Y199644D03*
X288036Y222504D03*
X339852Y280416D03*
D15*
X283464Y192024D02*
X289560Y185928D01*
X295656Y185928D01*
X323088Y213360D01*
X342900Y213360D01*
X356616Y227076D02*
X356616Y275844D01*
X283464Y192024D02*
X282592Y192507D01*
D16*
X342900Y213360D03*
X356616Y227076D03*
X356616Y275844D03*
D15*
X298704Y213360D02*
X298704Y210312D01*
X298704Y213360D02*
X294132Y217932D01*
X294132Y222504D01*
X313944Y242316D01*
X316992Y242316D01*
X341376Y266700D01*
X341376Y272796D01*
X352044Y283464D01*
X300193Y210108D02*
X298704Y210312D01*
D16*
X352044Y283464D03*
D15*
X298704Y219456D02*
X303276Y214884D01*
X298704Y219456D02*
X298704Y222504D01*
X315468Y239268D01*
X318516Y239268D01*
X347472Y268224D01*
X303276Y214884D02*
X303785Y213700D01*
D16*
X347472Y268224D03*
D15*
X332232Y71628D02*
X332232Y30480D01*
X332232Y71628D02*
X331336Y72736D01*
X332232Y30480D02*
X331500Y30200D01*
X143256Y156972D02*
X143256Y167640D01*
X192024Y202692D02*
X192024Y207264D01*
X198120Y213360D01*
X143256Y156972D02*
X142936Y155464D01*
X198120Y213360D02*
X199615Y213700D01*
X280416Y30480D02*
X330708Y30480D01*
X280416Y30480D02*
X278892Y32004D01*
X269748Y32004D01*
X262128Y39624D01*
X262128Y76200D01*
X222504Y115824D01*
X330708Y30480D02*
X331500Y30200D01*
D16*
X143256Y167640D03*
X192024Y202692D03*
X222504Y115824D03*
D15*
X301752Y310896D02*
X326136Y310896D01*
X301752Y310896D02*
X298704Y313944D01*
X326136Y310896D02*
X327064Y310564D01*
X298704Y313944D02*
X298436Y314336D01*
X297180Y313944D02*
X292608Y313944D01*
X275844Y297180D01*
X297180Y313944D02*
X298436Y314336D01*
X275844Y297180D02*
X275408Y296678D01*
X403860Y161544D02*
X408432Y161544D01*
X403860Y161544D02*
X379476Y137160D01*
X338328Y137160D01*
X337536Y137064D01*
X118872Y309372D02*
X118872Y324612D01*
X112776Y330708D01*
X118872Y309372D02*
X118936Y308664D01*
X112776Y330708D02*
X112636Y331336D01*
X105156Y338328D02*
X105156Y355092D01*
X105156Y338328D02*
X111252Y332232D01*
X105156Y355092D02*
X104336Y355936D01*
X111252Y332232D02*
X112636Y331336D01*
X71628Y323088D02*
X71628Y304800D01*
X71628Y323088D02*
X71628Y345948D01*
X71336Y345964D01*
X71628Y304800D02*
X72936Y303564D01*
X89916Y365760D02*
X89916Y381000D01*
X89916Y365760D02*
X71628Y347472D01*
X89916Y381000D02*
X90236Y381336D01*
X71628Y347472D02*
X71336Y345964D01*
X99060Y338328D02*
X105156Y338328D01*
X99060Y338328D02*
X83820Y323088D01*
X71628Y323088D01*
X71628Y303276D02*
X71628Y245364D01*
X54864Y228600D01*
X71628Y303276D02*
X72936Y303564D01*
D16*
X408432Y161544D03*
X54864Y228600D03*
D15*
X207264Y274320D02*
X211836Y269748D01*
X222504Y269748D01*
X243840Y291084D01*
X248412Y291084D02*
X269748Y291084D01*
X248412Y291084D02*
X243840Y291084D01*
X269748Y291084D02*
X274320Y295656D01*
X207264Y274320D02*
X206619Y275305D01*
X274320Y295656D02*
X275408Y296678D01*
X248412Y291084D02*
X248412Y353568D01*
X303276Y408432D01*
X303276Y414528D01*
X278892Y438912D01*
X272796Y438912D01*
X272200Y440400D01*
X301752Y150876D02*
X307848Y150876D01*
X301752Y150876D02*
X295656Y144780D01*
X295656Y138684D01*
X298704Y135636D01*
X336804Y135636D01*
X308664Y151336D02*
X307848Y150876D01*
X336804Y135636D02*
X337536Y137064D01*
X268224Y179832D02*
X265176Y179832D01*
X260604Y184404D01*
X256032Y179832D01*
X256032Y176784D01*
X257556Y175260D02*
X288036Y144780D01*
X257556Y175260D02*
X256032Y176784D01*
X288036Y144780D02*
X295656Y144780D01*
X268403Y178318D02*
X268224Y179832D01*
X155448Y141732D02*
X50292Y141732D01*
X44196Y135636D01*
X41148Y135636D01*
X30480Y146304D01*
X30480Y181356D01*
X54864Y205740D01*
X54864Y228600D01*
X155664Y142736D02*
X155448Y141732D01*
X196596Y196596D02*
X205740Y205740D01*
X196596Y196596D02*
X188976Y196596D01*
X164592Y220980D01*
X164592Y222504D01*
X205740Y205740D02*
X206619Y206695D01*
X239268Y156972D02*
X257556Y175260D01*
X239268Y156972D02*
X220980Y156972D01*
X176784Y135636D02*
X170688Y135636D01*
X164592Y141732D01*
X156972Y141732D01*
X155664Y142736D01*
X271272Y440436D02*
X271272Y449580D01*
X259080Y461772D01*
X259080Y470916D01*
X245364Y484632D01*
X91440Y484632D01*
X64008Y457200D01*
X64008Y408432D01*
X89916Y382524D01*
X271272Y440436D02*
X272200Y440400D01*
X89916Y382524D02*
X90236Y381336D01*
D16*
X164592Y222504D03*
X220980Y156972D03*
X176784Y135636D03*
D15*
X323088Y105156D02*
X323088Y92964D01*
X323088Y105156D02*
X323564Y105936D01*
D16*
X323088Y92964D03*
D15*
X237744Y341376D02*
X237744Y385572D01*
X170688Y385572D02*
X167640Y385572D01*
X149352Y367284D01*
X105156Y312420D02*
X105156Y309372D01*
X86868Y291084D01*
X237744Y341376D02*
X238630Y340500D01*
X86868Y291084D02*
X85664Y290836D01*
D16*
X237744Y385572D03*
X170688Y385572D03*
X149352Y367284D03*
X105156Y312420D03*
D15*
X329184Y362712D02*
X338328Y362712D01*
X352044Y348996D01*
X329184Y362712D02*
X328801Y363801D01*
X352044Y348996D02*
X352936Y348936D01*
X352044Y301752D02*
X371856Y281940D01*
X371856Y211836D01*
X347472Y187452D01*
X352044Y301752D02*
X351199Y302399D01*
X347472Y187452D02*
X347036Y187064D01*
X428244Y216408D02*
X428244Y236220D01*
X428244Y216408D02*
X397764Y185928D01*
X428244Y236220D02*
X428630Y236700D01*
X397764Y185928D02*
X397064Y184864D01*
X315468Y259080D02*
X323088Y266700D01*
X315468Y259080D02*
X314382Y257703D01*
D16*
X323088Y266700D03*
D15*
X329184Y266700D01*
X333756Y271272D01*
X333756Y283464D01*
X339852Y289560D01*
X355092Y289560D01*
X362712Y281940D01*
X362712Y233172D01*
X338328Y199644D02*
X318516Y199644D01*
X289560Y170688D01*
X278892Y170688D01*
D16*
X362712Y233172D03*
X338328Y199644D03*
X278892Y170688D03*
D15*
X295656Y246888D02*
X309372Y260604D01*
X295656Y246888D02*
X295656Y237744D01*
X309372Y260604D02*
X310790Y261295D01*
X294132Y60960D02*
X289560Y60960D01*
X294132Y60960D02*
X313944Y80772D01*
X329184Y167640D02*
X329184Y179832D01*
X323088Y185928D01*
D16*
X295656Y237744D03*
X289560Y60960D03*
X313944Y80772D03*
X329184Y167640D03*
X323088Y185928D03*
D15*
X53340Y249936D02*
X35052Y268224D01*
X201168Y393192D02*
X201168Y397764D01*
X201168Y393192D02*
X216408Y377952D01*
X216408Y307848D01*
X227076Y297180D01*
X227992Y296678D01*
D16*
X53340Y249936D03*
X35052Y268224D03*
X201168Y397764D03*
D15*
X291084Y297180D02*
X313944Y297180D01*
X291084Y297180D02*
X283464Y289560D01*
X313944Y297180D02*
X314336Y297836D01*
X283464Y289560D02*
X282592Y289493D01*
X48768Y236220D02*
X48768Y208788D01*
X48768Y236220D02*
X62484Y249936D01*
X62484Y330708D01*
X249936Y278892D02*
X272796Y278892D01*
X281940Y288036D01*
X282592Y289493D01*
D16*
X48768Y208788D03*
X62484Y330708D03*
X249936Y278892D03*
D15*
X256032Y272796D02*
X272796Y272796D01*
X284988Y284988D01*
X286005Y286081D01*
D16*
X256032Y272796D03*
D15*
X252984Y266700D02*
X240792Y278892D01*
X252984Y266700D02*
X274320Y266700D01*
X289560Y281940D01*
X289597Y282489D01*
D16*
X240792Y278892D03*
D15*
X117348Y368808D02*
X117348Y451104D01*
X117348Y368808D02*
X117064Y368664D01*
X117348Y451104D02*
X118200Y451500D01*
X295656Y274320D02*
X289560Y268224D01*
X284988Y268224D01*
X295656Y274320D02*
X296781Y275305D01*
D16*
X284988Y268224D03*
D15*
X79248Y268224D02*
X79248Y242316D01*
X94488Y227076D01*
X141732Y227076D01*
X144780Y230124D01*
X252984Y252984D02*
X262128Y262128D01*
X289560Y262128D01*
X298704Y271272D01*
X300193Y271892D01*
D16*
X79248Y268224D03*
X144780Y230124D03*
X252984Y252984D03*
D15*
X128016Y362712D02*
X128016Y379476D01*
X201168Y452628D01*
X251460Y452628D01*
X259080Y445008D01*
X259080Y435864D01*
X283464Y411480D01*
X297180Y411480D01*
X303276Y268224D02*
X291084Y256032D01*
X303276Y268224D02*
X303785Y268300D01*
D16*
X128016Y362712D03*
X297180Y411480D03*
X291084Y256032D03*
D15*
X350520Y124968D02*
X377952Y124968D01*
X408432Y155448D01*
X411480Y155448D01*
X414528Y158496D01*
X414528Y164592D01*
X411480Y167640D01*
X405384Y167640D01*
X385572Y147828D01*
X315468Y147828D01*
X309372Y141732D01*
X301752Y141732D01*
X316992Y274320D02*
X327660Y274320D01*
X316992Y274320D02*
X307848Y265176D01*
X350520Y124968D02*
X350264Y124336D01*
X307378Y264708D02*
X307848Y265176D01*
X243840Y225552D02*
X216408Y225552D01*
X243840Y225552D02*
X268224Y249936D01*
X294132Y249936D01*
X306324Y262128D01*
X306324Y263652D01*
X307378Y264708D01*
D16*
X301752Y141732D03*
X327660Y274320D03*
X216408Y225552D03*
D15*
X176784Y176784D02*
X155448Y198120D01*
X176784Y176784D02*
X176784Y175260D01*
X228600Y164592D02*
X237744Y173736D01*
X238589Y174726D01*
D16*
X155448Y198120D03*
X176784Y175260D03*
X228600Y164592D03*
D15*
X210312Y203360D02*
X216408Y209456D01*
X217932Y209456D01*
X230124Y197264D01*
X230124Y196596D02*
X230124Y194216D01*
X230124Y196596D02*
X230124Y197264D01*
X230124Y194216D02*
X225552Y189644D01*
X210211Y203103D02*
X210312Y203360D01*
X224400Y188915D02*
X225552Y189644D01*
X153924Y284988D02*
X153924Y313944D01*
X172212Y266700D02*
X184404Y254508D01*
X172212Y266700D02*
X158496Y280416D01*
X153924Y284988D01*
X153924Y313944D02*
X154964Y314336D01*
X184404Y254508D02*
X185426Y254111D01*
X190500Y310896D02*
X198120Y310896D01*
X190500Y310896D02*
X187452Y310896D01*
X198120Y310896D02*
X219456Y289560D01*
X187452Y310896D02*
X187064Y311236D01*
X219456Y289560D02*
X220808Y289493D01*
X181356Y359664D02*
X164592Y359664D01*
X181356Y359664D02*
X190500Y350520D01*
X190500Y310896D01*
X164592Y359664D02*
X164336Y359664D01*
X187064Y311236D02*
X190500Y310896D01*
X173736Y295656D02*
X158496Y280416D01*
X173736Y295656D02*
X173736Y298704D01*
X185928Y310896D01*
X187064Y311236D01*
X281940Y207264D02*
X289560Y199644D01*
X265176Y207264D02*
X257556Y207264D01*
X265176Y207264D02*
X281940Y207264D01*
X257556Y207264D02*
X246888Y196596D01*
X230124Y196596D01*
X289560Y199644D02*
X289597Y199511D01*
X265176Y207264D02*
X265176Y210312D01*
X211836Y243840D02*
X208788Y243840D01*
X205740Y240792D01*
X198120Y240792D01*
X185928Y252984D01*
X185426Y254111D01*
X42672Y188976D02*
X42672Y146304D01*
X42672Y188976D02*
X79248Y225552D01*
X79248Y233172D01*
X42672Y146304D02*
X41336Y145136D01*
X117348Y262128D02*
X153924Y262128D01*
X117348Y262128D02*
X92964Y237744D01*
X153924Y262128D02*
X155364Y262936D01*
X172212Y266700D02*
X173736Y268224D01*
X164592Y259080D02*
X158496Y259080D01*
X155448Y262128D01*
X155364Y262936D01*
D16*
X265176Y210312D03*
X211836Y243840D03*
X79248Y233172D03*
X92964Y237744D03*
X173736Y268224D03*
X164592Y259080D03*
D15*
X178308Y275844D02*
X178308Y281940D01*
X184404Y269748D02*
X192024Y262128D01*
X184404Y269748D02*
X178308Y275844D01*
X178308Y281940D02*
X177064Y283136D01*
X192024Y262128D02*
X192610Y261295D01*
X184404Y269748D02*
X182880Y269748D01*
X166116Y242316D02*
X135636Y211836D01*
X135636Y185928D01*
X205740Y115824D01*
X205740Y112776D01*
X213360Y105156D01*
D16*
X182880Y269748D03*
X166116Y242316D03*
X213360Y105156D03*
D15*
X286512Y106680D02*
X292608Y100584D01*
X292936Y99264D01*
D16*
X286512Y106680D03*
D15*
X202692Y257556D02*
X196596Y263652D01*
X202692Y257556D02*
X202692Y246888D01*
X153924Y210312D02*
X138684Y195072D01*
X138684Y187452D01*
X202692Y123444D01*
X269748Y123444D01*
X286512Y106680D01*
X196596Y263652D02*
X196022Y264708D01*
D16*
X202692Y246888D03*
X153924Y210312D03*
D15*
X182880Y160020D02*
X182880Y153924D01*
X182880Y160020D02*
X156972Y185928D01*
X182880Y153924D02*
X184036Y152936D01*
X157536Y185936D02*
X156972Y185928D01*
X231648Y137160D02*
X237744Y137160D01*
X214884Y153924D02*
X211836Y156972D01*
X214884Y153924D02*
X231648Y137160D01*
X211836Y156972D02*
X205740Y156972D01*
X198120Y164592D01*
X237744Y137160D02*
X238700Y135800D01*
X198120Y164592D02*
X196764Y165664D01*
X135636Y268224D02*
X141732Y274320D01*
X135636Y268224D02*
X134112Y268224D01*
X83820Y368808D02*
X56388Y368808D01*
X24384Y336804D01*
X24384Y129540D01*
X33528Y120396D01*
X181356Y120396D01*
X211836Y150876D02*
X214884Y153924D01*
X141732Y274320D02*
X142636Y275664D01*
D16*
X134112Y268224D03*
X83820Y368808D03*
X181356Y120396D03*
X211836Y150876D03*
D15*
X224028Y294132D02*
X202692Y315468D01*
X202692Y387096D01*
X195072Y394716D01*
X195072Y413004D01*
X220980Y438912D01*
X224028Y294132D02*
X224400Y293085D01*
X220980Y438912D02*
X221400Y440400D01*
X237744Y327660D02*
X237744Y307848D01*
X237744Y327660D02*
X230124Y335280D01*
X230124Y423672D01*
X245364Y438912D01*
X237744Y307848D02*
X238589Y307274D01*
X245364Y438912D02*
X246800Y440400D01*
X230124Y303276D02*
X230124Y300228D01*
X230124Y303276D02*
X219456Y313944D01*
X219456Y425196D01*
X230124Y300228D02*
X231405Y300090D01*
D16*
X219456Y425196D03*
D15*
X141732Y256032D02*
X118872Y233172D01*
X170688Y310896D02*
X187452Y327660D01*
X187452Y348996D01*
X179832Y356616D01*
X170688Y356616D01*
X163068Y348996D01*
X129540Y348996D01*
X120396Y358140D01*
X117348Y358140D01*
X106680Y368808D01*
X106680Y385572D01*
X112776Y391668D01*
X112776Y438912D01*
X105156Y446532D01*
X105156Y455676D01*
X128016Y478536D01*
X321564Y207264D02*
X326136Y207264D01*
X321564Y207264D02*
X294132Y179832D01*
X280416Y179832D01*
X275844Y184404D01*
X275408Y185322D01*
D16*
X118872Y233172D03*
X141732Y256032D03*
X170688Y310896D03*
X128016Y478536D03*
X326136Y207264D03*
D15*
X128016Y184404D02*
X85344Y227076D01*
X262128Y201168D02*
X262128Y192024D01*
X271272Y182880D01*
X271995Y181910D01*
D16*
X85344Y227076D03*
X128016Y184404D03*
X262128Y201168D03*
D15*
X188976Y188976D02*
X155448Y222504D01*
X188976Y188976D02*
X204216Y188976D01*
X213360Y198120D01*
X213803Y199511D01*
X397764Y131064D02*
X397764Y22860D01*
X371856Y-3048D01*
X240792Y-3048D01*
X236220Y1524D01*
X236220Y92964D01*
X211836Y117348D01*
X211836Y135636D02*
X182880Y164592D01*
X182880Y182880D01*
X188976Y188976D01*
D16*
X155448Y222504D03*
X397764Y131064D03*
X211836Y117348D03*
X211836Y135636D03*
D15*
X36576Y131064D02*
X32004Y131064D01*
X36576Y131064D02*
X44196Y123444D01*
X155448Y123444D01*
X164592Y132588D01*
X211836Y163068D02*
X217932Y163068D01*
X234696Y179832D01*
X234997Y178318D01*
D16*
X32004Y131064D03*
X164592Y132588D03*
X211836Y163068D03*
D15*
X59436Y339852D02*
X59436Y362712D01*
X292608Y324612D02*
X303276Y324612D01*
X310896Y316992D01*
X321564Y316992D01*
X324612Y320040D01*
X327660Y320040D01*
X341376Y306324D01*
X341376Y301752D01*
X350520Y292608D01*
X356616Y292608D01*
X368808Y280416D01*
X368808Y230124D01*
X358140Y219456D01*
X324612Y219456D01*
X295656Y190500D01*
X291084Y190500D01*
X286512Y195072D01*
X286005Y195919D01*
D16*
X59436Y339852D03*
X59436Y362712D03*
X292608Y324612D03*
D15*
X79248Y297180D02*
X79248Y294132D01*
X76200Y291084D01*
X76200Y288036D01*
X86868Y277368D01*
X134112Y277368D01*
X143256Y286512D01*
X146304Y286512D01*
X195072Y237744D01*
X237744Y237744D01*
X274320Y217932D02*
X278892Y217932D01*
X292608Y204216D01*
X293189Y203103D01*
D16*
X79248Y297180D03*
X237744Y237744D03*
X274320Y217932D03*
D15*
X56388Y298704D02*
X56388Y307848D01*
X56388Y298704D02*
X27432Y269748D01*
X27432Y144780D01*
X42672Y129540D01*
X152400Y129540D01*
X234696Y202692D02*
X248412Y202692D01*
X269748Y224028D01*
X277368Y224028D01*
X289560Y211836D01*
X291084Y211836D01*
X295656Y207264D01*
X296781Y206695D01*
D16*
X56388Y307848D03*
X152400Y129540D03*
X234696Y202692D03*
D15*
X437388Y259080D02*
X437388Y291084D01*
X437388Y259080D02*
X454152Y242316D01*
X454152Y187452D01*
X403860Y137160D01*
X403860Y118872D01*
D16*
X437388Y291084D03*
X403860Y118872D03*
X267462Y3556D03*
D15*
X264844Y3556D01*
X249600Y18800D01*
X196596Y217932D02*
X210312Y231648D01*
X240792Y231648D01*
X262128Y252984D01*
X196596Y341376D02*
X196596Y381000D01*
X167640Y409956D01*
X196596Y217932D02*
X196022Y217292D01*
D16*
X262128Y252984D03*
X196596Y341376D03*
X167640Y409956D03*
M02*
