G04 EAGLE Gerber RS-274X export*
G75*
%MOMM*%
%FSLAX34Y34*%
%LPD*%
%IN*%
%IPPOS*%
%AMOC8*
5,1,8,0,0,1.08239X$1,22.5*%
G01*
%ADD10C,0.254000*%


D10*
X0Y-10000D02*
X500000Y-10000D01*
X500000Y490000D01*
X0Y490000D01*
X0Y-10000D01*
X475000Y449464D02*
X474924Y448396D01*
X474771Y447335D01*
X474543Y446288D01*
X474241Y445260D01*
X473867Y444256D01*
X473422Y443281D01*
X472908Y442341D01*
X472329Y441440D01*
X471687Y440582D01*
X470985Y439772D01*
X470228Y439015D01*
X469418Y438313D01*
X468560Y437671D01*
X467659Y437092D01*
X466719Y436578D01*
X465744Y436133D01*
X464740Y435759D01*
X463712Y435457D01*
X462665Y435229D01*
X461604Y435076D01*
X460536Y435000D01*
X459464Y435000D01*
X458396Y435076D01*
X457335Y435229D01*
X456288Y435457D01*
X455260Y435759D01*
X454256Y436133D01*
X453281Y436578D01*
X452341Y437092D01*
X451440Y437671D01*
X450582Y438313D01*
X449772Y439015D01*
X449015Y439772D01*
X448313Y440582D01*
X447671Y441440D01*
X447092Y442341D01*
X446578Y443281D01*
X446133Y444256D01*
X445759Y445260D01*
X445457Y446288D01*
X445229Y447335D01*
X445076Y448396D01*
X445000Y449464D01*
X445000Y450536D01*
X445076Y451604D01*
X445229Y452665D01*
X445457Y453712D01*
X445759Y454740D01*
X446133Y455744D01*
X446578Y456719D01*
X447092Y457659D01*
X447671Y458560D01*
X448313Y459418D01*
X449015Y460228D01*
X449772Y460985D01*
X450582Y461687D01*
X451440Y462329D01*
X452341Y462908D01*
X453281Y463422D01*
X454256Y463867D01*
X455260Y464241D01*
X456288Y464543D01*
X457335Y464771D01*
X458396Y464924D01*
X459464Y465000D01*
X460536Y465000D01*
X461604Y464924D01*
X462665Y464771D01*
X463712Y464543D01*
X464740Y464241D01*
X465744Y463867D01*
X466719Y463422D01*
X467659Y462908D01*
X468560Y462329D01*
X469418Y461687D01*
X470228Y460985D01*
X470985Y460228D01*
X471687Y459418D01*
X472329Y458560D01*
X472908Y457659D01*
X473422Y456719D01*
X473867Y455744D01*
X474241Y454740D01*
X474543Y453712D01*
X474771Y452665D01*
X474924Y451604D01*
X475000Y450536D01*
X475000Y449464D01*
X475000Y29464D02*
X474924Y28396D01*
X474771Y27335D01*
X474543Y26288D01*
X474241Y25260D01*
X473867Y24256D01*
X473422Y23281D01*
X472908Y22341D01*
X472329Y21440D01*
X471687Y20582D01*
X470985Y19772D01*
X470228Y19015D01*
X469418Y18313D01*
X468560Y17671D01*
X467659Y17092D01*
X466719Y16578D01*
X465744Y16133D01*
X464740Y15759D01*
X463712Y15457D01*
X462665Y15229D01*
X461604Y15076D01*
X460536Y15000D01*
X459464Y15000D01*
X458396Y15076D01*
X457335Y15229D01*
X456288Y15457D01*
X455260Y15759D01*
X454256Y16133D01*
X453281Y16578D01*
X452341Y17092D01*
X451440Y17671D01*
X450582Y18313D01*
X449772Y19015D01*
X449015Y19772D01*
X448313Y20582D01*
X447671Y21440D01*
X447092Y22341D01*
X446578Y23281D01*
X446133Y24256D01*
X445759Y25260D01*
X445457Y26288D01*
X445229Y27335D01*
X445076Y28396D01*
X445000Y29464D01*
X445000Y30536D01*
X445076Y31604D01*
X445229Y32665D01*
X445457Y33712D01*
X445759Y34740D01*
X446133Y35744D01*
X446578Y36719D01*
X447092Y37659D01*
X447671Y38560D01*
X448313Y39418D01*
X449015Y40228D01*
X449772Y40985D01*
X450582Y41687D01*
X451440Y42329D01*
X452341Y42908D01*
X453281Y43422D01*
X454256Y43867D01*
X455260Y44241D01*
X456288Y44543D01*
X457335Y44771D01*
X458396Y44924D01*
X459464Y45000D01*
X460536Y45000D01*
X461604Y44924D01*
X462665Y44771D01*
X463712Y44543D01*
X464740Y44241D01*
X465744Y43867D01*
X466719Y43422D01*
X467659Y42908D01*
X468560Y42329D01*
X469418Y41687D01*
X470228Y40985D01*
X470985Y40228D01*
X471687Y39418D01*
X472329Y38560D01*
X472908Y37659D01*
X473422Y36719D01*
X473867Y35744D01*
X474241Y34740D01*
X474543Y33712D01*
X474771Y32665D01*
X474924Y31604D01*
X475000Y30536D01*
X475000Y29464D01*
X175000Y29464D02*
X174924Y28396D01*
X174771Y27335D01*
X174543Y26288D01*
X174241Y25260D01*
X173867Y24256D01*
X173422Y23281D01*
X172908Y22341D01*
X172329Y21440D01*
X171687Y20582D01*
X170985Y19772D01*
X170228Y19015D01*
X169418Y18313D01*
X168560Y17671D01*
X167659Y17092D01*
X166719Y16578D01*
X165744Y16133D01*
X164740Y15759D01*
X163712Y15457D01*
X162665Y15229D01*
X161604Y15076D01*
X160536Y15000D01*
X159464Y15000D01*
X158396Y15076D01*
X157335Y15229D01*
X156288Y15457D01*
X155260Y15759D01*
X154256Y16133D01*
X153281Y16578D01*
X152341Y17092D01*
X151440Y17671D01*
X150582Y18313D01*
X149772Y19015D01*
X149015Y19772D01*
X148313Y20582D01*
X147671Y21440D01*
X147092Y22341D01*
X146578Y23281D01*
X146133Y24256D01*
X145759Y25260D01*
X145457Y26288D01*
X145229Y27335D01*
X145076Y28396D01*
X145000Y29464D01*
X145000Y30536D01*
X145076Y31604D01*
X145229Y32665D01*
X145457Y33712D01*
X145759Y34740D01*
X146133Y35744D01*
X146578Y36719D01*
X147092Y37659D01*
X147671Y38560D01*
X148313Y39418D01*
X149015Y40228D01*
X149772Y40985D01*
X150582Y41687D01*
X151440Y42329D01*
X152341Y42908D01*
X153281Y43422D01*
X154256Y43867D01*
X155260Y44241D01*
X156288Y44543D01*
X157335Y44771D01*
X158396Y44924D01*
X159464Y45000D01*
X160536Y45000D01*
X161604Y44924D01*
X162665Y44771D01*
X163712Y44543D01*
X164740Y44241D01*
X165744Y43867D01*
X166719Y43422D01*
X167659Y42908D01*
X168560Y42329D01*
X169418Y41687D01*
X170228Y40985D01*
X170985Y40228D01*
X171687Y39418D01*
X172329Y38560D01*
X172908Y37659D01*
X173422Y36719D01*
X173867Y35744D01*
X174241Y34740D01*
X174543Y33712D01*
X174771Y32665D01*
X174924Y31604D01*
X175000Y30536D01*
X175000Y29464D01*
X32600Y60393D02*
X32523Y61175D01*
X32370Y61946D01*
X32141Y62698D01*
X31841Y63425D01*
X31470Y64118D01*
X31033Y64771D01*
X30535Y65379D01*
X29979Y65935D01*
X29371Y66433D01*
X28718Y66870D01*
X28025Y67241D01*
X27298Y67541D01*
X26546Y67770D01*
X25775Y67923D01*
X24993Y68000D01*
X24207Y68000D01*
X23425Y67923D01*
X22654Y67770D01*
X21902Y67541D01*
X21175Y67241D01*
X20482Y66870D01*
X19829Y66433D01*
X19221Y65935D01*
X18665Y65379D01*
X18167Y64771D01*
X17730Y64118D01*
X17359Y63425D01*
X17059Y62698D01*
X16830Y61946D01*
X16677Y61175D01*
X16600Y60393D01*
X16600Y59607D01*
X16677Y58825D01*
X16830Y58054D01*
X17059Y57302D01*
X17359Y56575D01*
X17730Y55882D01*
X18167Y55229D01*
X18665Y54621D01*
X19221Y54065D01*
X19829Y53567D01*
X20482Y53130D01*
X21175Y52759D01*
X21902Y52459D01*
X22654Y52230D01*
X23425Y52077D01*
X24207Y52000D01*
X24993Y52000D01*
X25775Y52077D01*
X26546Y52230D01*
X27298Y52459D01*
X28025Y52759D01*
X28718Y53130D01*
X29371Y53567D01*
X29979Y54065D01*
X30535Y54621D01*
X31033Y55229D01*
X31470Y55882D01*
X31841Y56575D01*
X32141Y57302D01*
X32370Y58054D01*
X32523Y58825D01*
X32600Y59607D01*
X32600Y60393D01*
X78600Y60393D02*
X78532Y61176D01*
X78395Y61950D01*
X78192Y62709D01*
X77923Y63447D01*
X77591Y64160D01*
X77198Y64840D01*
X76747Y65484D01*
X76242Y66086D01*
X75686Y66642D01*
X75084Y67147D01*
X74440Y67598D01*
X73760Y67991D01*
X73047Y68323D01*
X72309Y68592D01*
X71550Y68795D01*
X70776Y68932D01*
X69993Y69000D01*
X69207Y69000D01*
X68424Y68932D01*
X67650Y68795D01*
X66891Y68592D01*
X66153Y68323D01*
X65440Y67991D01*
X64760Y67598D01*
X64116Y67147D01*
X63514Y66642D01*
X62958Y66086D01*
X62453Y65484D01*
X62002Y64840D01*
X61609Y64160D01*
X61277Y63447D01*
X61008Y62709D01*
X60805Y61950D01*
X60669Y61176D01*
X60600Y60393D01*
X60600Y59607D01*
X60669Y58824D01*
X60805Y58050D01*
X61008Y57291D01*
X61277Y56553D01*
X61609Y55840D01*
X62002Y55160D01*
X62453Y54516D01*
X62958Y53914D01*
X63514Y53358D01*
X64116Y52853D01*
X64760Y52402D01*
X65440Y52009D01*
X66153Y51677D01*
X66891Y51408D01*
X67650Y51205D01*
X68424Y51069D01*
X69207Y51000D01*
X69993Y51000D01*
X70776Y51069D01*
X71550Y51205D01*
X72309Y51408D01*
X73047Y51677D01*
X73760Y52009D01*
X74440Y52402D01*
X75084Y52853D01*
X75686Y53358D01*
X76242Y53914D01*
X76747Y54516D01*
X77198Y55160D01*
X77591Y55840D01*
X77923Y56553D01*
X78192Y57291D01*
X78395Y58050D01*
X78532Y58824D01*
X78600Y59607D01*
X78600Y60393D01*
M02*
