G04 EAGLE Gerber RS-274X export*
G75*
%MOMM*%
%FSLAX34Y34*%
%LPD*%
%INSilkscreen Bottom*%
%IPPOS*%
%AMOC8*
5,1,8,0,0,1.08239X$1,22.5*%
G01*
%ADD10C,0.050800*%
%ADD11C,0.127000*%
%ADD12C,0.304800*%
%ADD13C,0.203200*%
%ADD14C,0.254000*%
%ADD15C,0.177800*%
%ADD16C,0.076200*%


D10*
X257249Y477266D02*
X257249Y482854D01*
X254144Y477266D01*
X254144Y482854D01*
X251361Y482854D02*
X251361Y477266D01*
X251361Y482854D02*
X249808Y482854D01*
X249731Y482852D01*
X249653Y482846D01*
X249577Y482837D01*
X249500Y482823D01*
X249425Y482806D01*
X249351Y482785D01*
X249277Y482760D01*
X249205Y482732D01*
X249135Y482700D01*
X249066Y482665D01*
X248999Y482626D01*
X248934Y482584D01*
X248871Y482539D01*
X248810Y482491D01*
X248752Y482440D01*
X248697Y482386D01*
X248644Y482329D01*
X248595Y482270D01*
X248548Y482208D01*
X248504Y482144D01*
X248464Y482078D01*
X248427Y482010D01*
X248393Y481940D01*
X248363Y481869D01*
X248337Y481796D01*
X248314Y481722D01*
X248295Y481647D01*
X248280Y481572D01*
X248268Y481495D01*
X248260Y481418D01*
X248256Y481341D01*
X248256Y481263D01*
X248260Y481186D01*
X248268Y481109D01*
X248280Y481032D01*
X248295Y480957D01*
X248314Y480882D01*
X248337Y480808D01*
X248363Y480735D01*
X248393Y480664D01*
X248427Y480594D01*
X248464Y480526D01*
X248504Y480460D01*
X248548Y480396D01*
X248595Y480334D01*
X248644Y480275D01*
X248697Y480218D01*
X248752Y480164D01*
X248810Y480113D01*
X248871Y480065D01*
X248934Y480020D01*
X248999Y479978D01*
X249066Y479939D01*
X249135Y479904D01*
X249205Y479872D01*
X249277Y479844D01*
X249351Y479819D01*
X249425Y479798D01*
X249500Y479781D01*
X249577Y479767D01*
X249653Y479758D01*
X249731Y479752D01*
X249808Y479750D01*
X251361Y479750D01*
X249498Y479750D02*
X248256Y477266D01*
X244231Y477266D02*
X244161Y477268D01*
X244092Y477274D01*
X244023Y477284D01*
X243955Y477297D01*
X243887Y477315D01*
X243821Y477336D01*
X243756Y477361D01*
X243692Y477389D01*
X243630Y477421D01*
X243570Y477456D01*
X243512Y477495D01*
X243457Y477537D01*
X243403Y477582D01*
X243353Y477630D01*
X243305Y477680D01*
X243260Y477734D01*
X243218Y477789D01*
X243179Y477847D01*
X243144Y477907D01*
X243112Y477969D01*
X243084Y478033D01*
X243059Y478098D01*
X243038Y478164D01*
X243020Y478232D01*
X243007Y478300D01*
X242997Y478369D01*
X242991Y478438D01*
X242989Y478508D01*
X244231Y477266D02*
X244330Y477268D01*
X244428Y477273D01*
X244526Y477283D01*
X244624Y477296D01*
X244721Y477312D01*
X244818Y477332D01*
X244913Y477356D01*
X245008Y477384D01*
X245102Y477415D01*
X245194Y477449D01*
X245285Y477487D01*
X245375Y477528D01*
X245463Y477573D01*
X245549Y477621D01*
X245633Y477672D01*
X245715Y477726D01*
X245796Y477784D01*
X245874Y477844D01*
X245949Y477907D01*
X246023Y477973D01*
X246093Y478042D01*
X245938Y481612D02*
X245936Y481682D01*
X245930Y481751D01*
X245920Y481820D01*
X245907Y481888D01*
X245889Y481956D01*
X245868Y482022D01*
X245843Y482087D01*
X245815Y482151D01*
X245783Y482213D01*
X245748Y482273D01*
X245709Y482331D01*
X245667Y482386D01*
X245622Y482440D01*
X245574Y482490D01*
X245524Y482538D01*
X245470Y482583D01*
X245415Y482625D01*
X245357Y482664D01*
X245297Y482699D01*
X245235Y482731D01*
X245171Y482759D01*
X245106Y482784D01*
X245040Y482805D01*
X244972Y482823D01*
X244904Y482836D01*
X244835Y482846D01*
X244766Y482852D01*
X244696Y482854D01*
X244602Y482852D01*
X244509Y482846D01*
X244416Y482837D01*
X244323Y482824D01*
X244231Y482807D01*
X244140Y482787D01*
X244049Y482762D01*
X243960Y482735D01*
X243872Y482703D01*
X243785Y482668D01*
X243699Y482630D01*
X243616Y482588D01*
X243533Y482543D01*
X243453Y482495D01*
X243375Y482443D01*
X243299Y482388D01*
X245317Y480526D02*
X245376Y480562D01*
X245432Y480602D01*
X245486Y480645D01*
X245538Y480690D01*
X245587Y480739D01*
X245633Y480790D01*
X245676Y480843D01*
X245717Y480899D01*
X245754Y480957D01*
X245789Y481017D01*
X245819Y481078D01*
X245847Y481141D01*
X245871Y481206D01*
X245891Y481272D01*
X245908Y481339D01*
X245921Y481406D01*
X245930Y481474D01*
X245936Y481543D01*
X245938Y481612D01*
X243610Y479594D02*
X243551Y479558D01*
X243495Y479518D01*
X243441Y479475D01*
X243389Y479430D01*
X243340Y479381D01*
X243294Y479330D01*
X243251Y479277D01*
X243210Y479221D01*
X243173Y479163D01*
X243138Y479104D01*
X243108Y479042D01*
X243080Y478979D01*
X243056Y478914D01*
X243036Y478848D01*
X243019Y478781D01*
X243006Y478714D01*
X242997Y478646D01*
X242991Y478577D01*
X242989Y478508D01*
X243610Y479594D02*
X245317Y480526D01*
X239603Y482854D02*
X239603Y477266D01*
X241156Y482854D02*
X238051Y482854D01*
X277350Y480370D02*
X278281Y480370D01*
X277350Y480370D02*
X277350Y477266D01*
X279213Y477266D01*
X279283Y477268D01*
X279352Y477274D01*
X279421Y477284D01*
X279489Y477297D01*
X279557Y477315D01*
X279623Y477336D01*
X279688Y477361D01*
X279752Y477389D01*
X279814Y477421D01*
X279874Y477456D01*
X279932Y477495D01*
X279987Y477537D01*
X280041Y477582D01*
X280091Y477630D01*
X280139Y477680D01*
X280184Y477734D01*
X280226Y477789D01*
X280265Y477847D01*
X280300Y477907D01*
X280332Y477969D01*
X280360Y478033D01*
X280385Y478098D01*
X280406Y478164D01*
X280424Y478232D01*
X280437Y478300D01*
X280447Y478369D01*
X280453Y478438D01*
X280455Y478508D01*
X280454Y478508D02*
X280454Y481612D01*
X280455Y481612D02*
X280453Y481682D01*
X280447Y481751D01*
X280437Y481820D01*
X280424Y481888D01*
X280406Y481956D01*
X280385Y482022D01*
X280360Y482087D01*
X280332Y482151D01*
X280300Y482213D01*
X280265Y482273D01*
X280226Y482331D01*
X280184Y482386D01*
X280139Y482440D01*
X280091Y482490D01*
X280041Y482538D01*
X279987Y482583D01*
X279932Y482625D01*
X279874Y482664D01*
X279814Y482699D01*
X279752Y482731D01*
X279688Y482759D01*
X279623Y482784D01*
X279557Y482805D01*
X279489Y482823D01*
X279421Y482836D01*
X279352Y482846D01*
X279283Y482852D01*
X279213Y482854D01*
X277350Y482854D01*
X274602Y482854D02*
X274602Y477266D01*
X271498Y477266D02*
X274602Y482854D01*
X271498Y482854D02*
X271498Y477266D01*
X268750Y477266D02*
X268750Y482854D01*
X267198Y482854D01*
X267122Y482852D01*
X267046Y482847D01*
X266970Y482837D01*
X266895Y482824D01*
X266821Y482807D01*
X266747Y482787D01*
X266675Y482763D01*
X266604Y482736D01*
X266534Y482705D01*
X266466Y482671D01*
X266400Y482633D01*
X266336Y482592D01*
X266273Y482549D01*
X266213Y482502D01*
X266156Y482452D01*
X266101Y482399D01*
X266048Y482344D01*
X265998Y482287D01*
X265951Y482227D01*
X265908Y482164D01*
X265867Y482100D01*
X265829Y482034D01*
X265795Y481966D01*
X265764Y481896D01*
X265737Y481825D01*
X265713Y481753D01*
X265693Y481679D01*
X265676Y481605D01*
X265663Y481530D01*
X265653Y481454D01*
X265648Y481378D01*
X265646Y481302D01*
X265646Y478818D01*
X265648Y478742D01*
X265653Y478666D01*
X265663Y478590D01*
X265676Y478515D01*
X265693Y478441D01*
X265713Y478367D01*
X265737Y478295D01*
X265764Y478224D01*
X265795Y478154D01*
X265829Y478086D01*
X265867Y478020D01*
X265908Y477956D01*
X265951Y477893D01*
X265998Y477833D01*
X266048Y477776D01*
X266101Y477721D01*
X266156Y477668D01*
X266213Y477618D01*
X266273Y477571D01*
X266336Y477528D01*
X266400Y477487D01*
X266466Y477449D01*
X266534Y477415D01*
X266604Y477384D01*
X266675Y477357D01*
X266747Y477333D01*
X266821Y477313D01*
X266895Y477296D01*
X266970Y477283D01*
X267046Y477273D01*
X267122Y477268D01*
X267198Y477266D01*
X268750Y477266D01*
X231658Y477206D02*
X231588Y477208D01*
X231519Y477214D01*
X231450Y477224D01*
X231382Y477237D01*
X231314Y477255D01*
X231248Y477276D01*
X231183Y477301D01*
X231119Y477329D01*
X231057Y477361D01*
X230997Y477396D01*
X230939Y477435D01*
X230884Y477477D01*
X230830Y477522D01*
X230780Y477570D01*
X230732Y477620D01*
X230687Y477674D01*
X230645Y477729D01*
X230606Y477787D01*
X230571Y477847D01*
X230539Y477909D01*
X230511Y477973D01*
X230486Y478038D01*
X230465Y478104D01*
X230447Y478172D01*
X230434Y478240D01*
X230424Y478309D01*
X230418Y478378D01*
X230416Y478448D01*
X231658Y477206D02*
X231757Y477208D01*
X231855Y477213D01*
X231953Y477223D01*
X232051Y477236D01*
X232148Y477252D01*
X232245Y477272D01*
X232340Y477296D01*
X232435Y477324D01*
X232529Y477355D01*
X232621Y477389D01*
X232712Y477427D01*
X232802Y477468D01*
X232890Y477513D01*
X232976Y477561D01*
X233060Y477612D01*
X233142Y477666D01*
X233223Y477724D01*
X233301Y477784D01*
X233376Y477847D01*
X233450Y477913D01*
X233520Y477982D01*
X233366Y481552D02*
X233364Y481622D01*
X233358Y481691D01*
X233348Y481760D01*
X233335Y481828D01*
X233317Y481896D01*
X233296Y481962D01*
X233271Y482027D01*
X233243Y482091D01*
X233211Y482153D01*
X233176Y482213D01*
X233137Y482271D01*
X233095Y482326D01*
X233050Y482380D01*
X233002Y482430D01*
X232952Y482478D01*
X232898Y482523D01*
X232843Y482565D01*
X232785Y482604D01*
X232725Y482639D01*
X232663Y482671D01*
X232599Y482699D01*
X232534Y482724D01*
X232468Y482745D01*
X232400Y482763D01*
X232332Y482776D01*
X232263Y482786D01*
X232194Y482792D01*
X232124Y482794D01*
X232030Y482792D01*
X231937Y482786D01*
X231844Y482777D01*
X231751Y482764D01*
X231659Y482747D01*
X231568Y482727D01*
X231477Y482702D01*
X231388Y482675D01*
X231300Y482643D01*
X231213Y482608D01*
X231127Y482570D01*
X231044Y482528D01*
X230961Y482483D01*
X230881Y482435D01*
X230803Y482383D01*
X230727Y482328D01*
X232744Y480466D02*
X232803Y480502D01*
X232859Y480542D01*
X232913Y480585D01*
X232965Y480630D01*
X233014Y480679D01*
X233060Y480730D01*
X233103Y480783D01*
X233144Y480839D01*
X233181Y480897D01*
X233216Y480957D01*
X233246Y481018D01*
X233274Y481081D01*
X233298Y481146D01*
X233318Y481212D01*
X233335Y481279D01*
X233348Y481346D01*
X233357Y481414D01*
X233363Y481483D01*
X233365Y481552D01*
X231037Y479534D02*
X230978Y479498D01*
X230922Y479458D01*
X230868Y479415D01*
X230816Y479370D01*
X230767Y479321D01*
X230721Y479270D01*
X230678Y479217D01*
X230637Y479161D01*
X230600Y479103D01*
X230565Y479044D01*
X230535Y478982D01*
X230507Y478919D01*
X230483Y478854D01*
X230463Y478788D01*
X230446Y478721D01*
X230433Y478654D01*
X230424Y478586D01*
X230418Y478517D01*
X230416Y478448D01*
X231037Y479534D02*
X232745Y480466D01*
X228417Y482794D02*
X227175Y477206D01*
X225933Y480931D01*
X224692Y477206D01*
X223450Y482794D01*
X221085Y482794D02*
X221085Y477206D01*
X221085Y482794D02*
X219533Y482794D01*
X219457Y482792D01*
X219381Y482787D01*
X219305Y482777D01*
X219230Y482764D01*
X219156Y482747D01*
X219082Y482727D01*
X219010Y482703D01*
X218939Y482676D01*
X218869Y482645D01*
X218801Y482611D01*
X218735Y482573D01*
X218671Y482532D01*
X218608Y482489D01*
X218548Y482442D01*
X218491Y482392D01*
X218436Y482339D01*
X218383Y482284D01*
X218333Y482227D01*
X218286Y482167D01*
X218243Y482104D01*
X218202Y482040D01*
X218164Y481974D01*
X218130Y481906D01*
X218099Y481836D01*
X218072Y481765D01*
X218048Y481693D01*
X218028Y481619D01*
X218011Y481545D01*
X217998Y481470D01*
X217988Y481394D01*
X217983Y481318D01*
X217981Y481242D01*
X217980Y481242D02*
X217980Y478758D01*
X217981Y478758D02*
X217983Y478682D01*
X217988Y478606D01*
X217998Y478530D01*
X218011Y478455D01*
X218028Y478381D01*
X218048Y478307D01*
X218072Y478235D01*
X218099Y478164D01*
X218130Y478094D01*
X218164Y478026D01*
X218202Y477960D01*
X218243Y477896D01*
X218286Y477833D01*
X218333Y477773D01*
X218383Y477716D01*
X218436Y477661D01*
X218491Y477608D01*
X218548Y477558D01*
X218608Y477511D01*
X218671Y477468D01*
X218735Y477427D01*
X218801Y477389D01*
X218869Y477355D01*
X218939Y477324D01*
X219010Y477297D01*
X219082Y477273D01*
X219156Y477253D01*
X219230Y477236D01*
X219305Y477223D01*
X219381Y477213D01*
X219457Y477208D01*
X219533Y477206D01*
X221085Y477206D01*
X214961Y477206D02*
X214961Y482794D01*
X215582Y477206D02*
X214340Y477206D01*
X214340Y482794D02*
X215582Y482794D01*
X212124Y481242D02*
X212124Y478758D01*
X212124Y481242D02*
X212122Y481319D01*
X212116Y481397D01*
X212107Y481473D01*
X212093Y481550D01*
X212076Y481625D01*
X212055Y481699D01*
X212030Y481773D01*
X212002Y481845D01*
X211970Y481915D01*
X211935Y481984D01*
X211896Y482051D01*
X211854Y482116D01*
X211809Y482179D01*
X211761Y482240D01*
X211710Y482298D01*
X211656Y482353D01*
X211599Y482406D01*
X211540Y482455D01*
X211478Y482502D01*
X211414Y482546D01*
X211348Y482586D01*
X211280Y482623D01*
X211210Y482657D01*
X211139Y482687D01*
X211066Y482713D01*
X210992Y482736D01*
X210917Y482755D01*
X210842Y482770D01*
X210765Y482782D01*
X210688Y482790D01*
X210611Y482794D01*
X210533Y482794D01*
X210456Y482790D01*
X210379Y482782D01*
X210302Y482770D01*
X210227Y482755D01*
X210152Y482736D01*
X210078Y482713D01*
X210005Y482687D01*
X209934Y482657D01*
X209864Y482623D01*
X209796Y482586D01*
X209730Y482546D01*
X209666Y482502D01*
X209604Y482455D01*
X209545Y482406D01*
X209488Y482353D01*
X209434Y482298D01*
X209383Y482240D01*
X209335Y482179D01*
X209290Y482116D01*
X209248Y482051D01*
X209209Y481984D01*
X209174Y481915D01*
X209142Y481845D01*
X209114Y481773D01*
X209089Y481699D01*
X209068Y481625D01*
X209051Y481550D01*
X209037Y481473D01*
X209028Y481397D01*
X209022Y481319D01*
X209020Y481242D01*
X209019Y481242D02*
X209019Y478758D01*
X209020Y478758D02*
X209022Y478681D01*
X209028Y478603D01*
X209037Y478527D01*
X209051Y478450D01*
X209068Y478375D01*
X209089Y478301D01*
X209114Y478227D01*
X209142Y478155D01*
X209174Y478085D01*
X209209Y478016D01*
X209248Y477949D01*
X209290Y477884D01*
X209335Y477821D01*
X209383Y477760D01*
X209434Y477702D01*
X209488Y477647D01*
X209545Y477594D01*
X209604Y477545D01*
X209666Y477498D01*
X209730Y477454D01*
X209796Y477414D01*
X209864Y477377D01*
X209934Y477343D01*
X210005Y477313D01*
X210078Y477287D01*
X210152Y477264D01*
X210227Y477245D01*
X210302Y477230D01*
X210379Y477218D01*
X210456Y477210D01*
X210533Y477206D01*
X210611Y477206D01*
X210688Y477210D01*
X210765Y477218D01*
X210842Y477230D01*
X210917Y477245D01*
X210992Y477264D01*
X211066Y477287D01*
X211139Y477313D01*
X211210Y477343D01*
X211280Y477377D01*
X211348Y477414D01*
X211414Y477454D01*
X211478Y477498D01*
X211540Y477545D01*
X211599Y477594D01*
X211656Y477647D01*
X211710Y477702D01*
X211761Y477760D01*
X211809Y477821D01*
X211854Y477884D01*
X211896Y477949D01*
X211935Y478016D01*
X211970Y478085D01*
X212002Y478155D01*
X212030Y478227D01*
X212055Y478301D01*
X212076Y478375D01*
X212093Y478450D01*
X212107Y478527D01*
X212116Y478603D01*
X212122Y478681D01*
X212124Y478758D01*
X274678Y450596D02*
X276231Y450596D01*
X274678Y450596D02*
X274601Y450598D01*
X274523Y450604D01*
X274447Y450613D01*
X274370Y450627D01*
X274295Y450644D01*
X274221Y450665D01*
X274147Y450690D01*
X274075Y450718D01*
X274005Y450750D01*
X273936Y450785D01*
X273869Y450824D01*
X273804Y450866D01*
X273741Y450911D01*
X273680Y450959D01*
X273622Y451010D01*
X273567Y451064D01*
X273514Y451121D01*
X273465Y451180D01*
X273418Y451242D01*
X273374Y451306D01*
X273334Y451372D01*
X273297Y451440D01*
X273263Y451510D01*
X273233Y451581D01*
X273207Y451654D01*
X273184Y451728D01*
X273165Y451803D01*
X273150Y451878D01*
X273138Y451955D01*
X273130Y452032D01*
X273126Y452109D01*
X273126Y452187D01*
X273130Y452264D01*
X273138Y452341D01*
X273150Y452418D01*
X273165Y452493D01*
X273184Y452568D01*
X273207Y452642D01*
X273233Y452715D01*
X273263Y452786D01*
X273297Y452856D01*
X273334Y452924D01*
X273374Y452990D01*
X273418Y453054D01*
X273465Y453116D01*
X273514Y453175D01*
X273567Y453232D01*
X273622Y453286D01*
X273680Y453337D01*
X273741Y453385D01*
X273804Y453430D01*
X273869Y453472D01*
X273936Y453511D01*
X274005Y453546D01*
X274075Y453578D01*
X274147Y453606D01*
X274221Y453631D01*
X274295Y453652D01*
X274370Y453669D01*
X274447Y453683D01*
X274523Y453692D01*
X274601Y453698D01*
X274678Y453700D01*
X274368Y456184D02*
X276231Y456184D01*
X274368Y456184D02*
X274298Y456182D01*
X274229Y456176D01*
X274160Y456166D01*
X274092Y456153D01*
X274024Y456135D01*
X273958Y456114D01*
X273893Y456089D01*
X273829Y456061D01*
X273767Y456029D01*
X273707Y455994D01*
X273649Y455955D01*
X273594Y455913D01*
X273540Y455868D01*
X273490Y455820D01*
X273442Y455770D01*
X273397Y455716D01*
X273355Y455661D01*
X273316Y455603D01*
X273281Y455543D01*
X273249Y455481D01*
X273221Y455417D01*
X273196Y455352D01*
X273175Y455286D01*
X273157Y455218D01*
X273144Y455150D01*
X273134Y455081D01*
X273128Y455012D01*
X273126Y454942D01*
X273128Y454872D01*
X273134Y454803D01*
X273144Y454734D01*
X273157Y454666D01*
X273175Y454598D01*
X273196Y454532D01*
X273221Y454467D01*
X273249Y454403D01*
X273281Y454341D01*
X273316Y454281D01*
X273355Y454223D01*
X273397Y454168D01*
X273442Y454114D01*
X273490Y454064D01*
X273540Y454016D01*
X273594Y453971D01*
X273649Y453929D01*
X273707Y453890D01*
X273767Y453855D01*
X273829Y453823D01*
X273893Y453795D01*
X273958Y453770D01*
X274024Y453749D01*
X274092Y453731D01*
X274160Y453718D01*
X274229Y453708D01*
X274298Y453702D01*
X274368Y453700D01*
X275610Y453700D01*
X271055Y456184D02*
X269192Y450596D01*
X267329Y456184D01*
X253466Y450596D02*
X253396Y450598D01*
X253327Y450604D01*
X253258Y450614D01*
X253190Y450627D01*
X253122Y450645D01*
X253056Y450666D01*
X252991Y450691D01*
X252927Y450719D01*
X252865Y450751D01*
X252805Y450786D01*
X252747Y450825D01*
X252692Y450867D01*
X252638Y450912D01*
X252588Y450960D01*
X252540Y451010D01*
X252495Y451064D01*
X252453Y451119D01*
X252414Y451177D01*
X252379Y451237D01*
X252347Y451299D01*
X252319Y451363D01*
X252294Y451428D01*
X252273Y451494D01*
X252255Y451562D01*
X252242Y451630D01*
X252232Y451699D01*
X252226Y451768D01*
X252224Y451838D01*
X253466Y450596D02*
X253565Y450598D01*
X253663Y450603D01*
X253761Y450613D01*
X253859Y450626D01*
X253956Y450642D01*
X254053Y450662D01*
X254148Y450686D01*
X254243Y450714D01*
X254337Y450745D01*
X254429Y450779D01*
X254520Y450817D01*
X254610Y450858D01*
X254698Y450903D01*
X254784Y450951D01*
X254868Y451002D01*
X254950Y451056D01*
X255031Y451114D01*
X255109Y451174D01*
X255184Y451237D01*
X255258Y451303D01*
X255328Y451372D01*
X255174Y454942D02*
X255172Y455012D01*
X255166Y455081D01*
X255156Y455150D01*
X255143Y455218D01*
X255125Y455286D01*
X255104Y455352D01*
X255079Y455417D01*
X255051Y455481D01*
X255019Y455543D01*
X254984Y455603D01*
X254945Y455661D01*
X254903Y455716D01*
X254858Y455770D01*
X254810Y455820D01*
X254760Y455868D01*
X254706Y455913D01*
X254651Y455955D01*
X254593Y455994D01*
X254533Y456029D01*
X254471Y456061D01*
X254407Y456089D01*
X254342Y456114D01*
X254276Y456135D01*
X254208Y456153D01*
X254140Y456166D01*
X254071Y456176D01*
X254002Y456182D01*
X253932Y456184D01*
X253838Y456182D01*
X253745Y456176D01*
X253652Y456167D01*
X253559Y456154D01*
X253467Y456137D01*
X253376Y456117D01*
X253285Y456092D01*
X253196Y456065D01*
X253108Y456033D01*
X253021Y455998D01*
X252935Y455960D01*
X252852Y455918D01*
X252769Y455873D01*
X252689Y455825D01*
X252611Y455773D01*
X252535Y455718D01*
X254552Y453856D02*
X254611Y453892D01*
X254667Y453932D01*
X254721Y453975D01*
X254773Y454020D01*
X254822Y454069D01*
X254868Y454120D01*
X254911Y454173D01*
X254952Y454229D01*
X254989Y454287D01*
X255024Y454347D01*
X255054Y454408D01*
X255082Y454471D01*
X255106Y454536D01*
X255126Y454602D01*
X255143Y454669D01*
X255156Y454736D01*
X255165Y454804D01*
X255171Y454873D01*
X255173Y454942D01*
X252845Y452924D02*
X252786Y452888D01*
X252730Y452848D01*
X252676Y452805D01*
X252624Y452760D01*
X252575Y452711D01*
X252529Y452660D01*
X252486Y452607D01*
X252445Y452551D01*
X252408Y452493D01*
X252373Y452434D01*
X252343Y452372D01*
X252315Y452309D01*
X252291Y452244D01*
X252271Y452178D01*
X252254Y452111D01*
X252241Y452044D01*
X252232Y451976D01*
X252226Y451907D01*
X252224Y451838D01*
X252845Y452924D02*
X254553Y453856D01*
X250225Y456184D02*
X248983Y450596D01*
X247741Y454321D01*
X246500Y450596D01*
X245258Y456184D01*
X243076Y454632D02*
X243076Y452148D01*
X243076Y454632D02*
X243074Y454709D01*
X243068Y454787D01*
X243059Y454863D01*
X243045Y454940D01*
X243028Y455015D01*
X243007Y455089D01*
X242982Y455163D01*
X242954Y455235D01*
X242922Y455305D01*
X242887Y455374D01*
X242848Y455441D01*
X242806Y455506D01*
X242761Y455569D01*
X242713Y455630D01*
X242662Y455688D01*
X242608Y455743D01*
X242551Y455796D01*
X242492Y455845D01*
X242430Y455892D01*
X242366Y455936D01*
X242300Y455976D01*
X242232Y456013D01*
X242162Y456047D01*
X242091Y456077D01*
X242018Y456103D01*
X241944Y456126D01*
X241869Y456145D01*
X241794Y456160D01*
X241717Y456172D01*
X241640Y456180D01*
X241563Y456184D01*
X241485Y456184D01*
X241408Y456180D01*
X241331Y456172D01*
X241254Y456160D01*
X241179Y456145D01*
X241104Y456126D01*
X241030Y456103D01*
X240957Y456077D01*
X240886Y456047D01*
X240816Y456013D01*
X240748Y455976D01*
X240682Y455936D01*
X240618Y455892D01*
X240556Y455845D01*
X240497Y455796D01*
X240440Y455743D01*
X240386Y455688D01*
X240335Y455630D01*
X240287Y455569D01*
X240242Y455506D01*
X240200Y455441D01*
X240161Y455374D01*
X240126Y455305D01*
X240094Y455235D01*
X240066Y455163D01*
X240041Y455089D01*
X240020Y455015D01*
X240003Y454940D01*
X239989Y454863D01*
X239980Y454787D01*
X239974Y454709D01*
X239972Y454632D01*
X239971Y454632D02*
X239971Y452148D01*
X239972Y452148D02*
X239974Y452071D01*
X239980Y451993D01*
X239989Y451917D01*
X240003Y451840D01*
X240020Y451765D01*
X240041Y451691D01*
X240066Y451617D01*
X240094Y451545D01*
X240126Y451475D01*
X240161Y451406D01*
X240200Y451339D01*
X240242Y451274D01*
X240287Y451211D01*
X240335Y451150D01*
X240386Y451092D01*
X240440Y451037D01*
X240497Y450984D01*
X240556Y450935D01*
X240618Y450888D01*
X240682Y450844D01*
X240748Y450804D01*
X240816Y450767D01*
X240886Y450733D01*
X240957Y450703D01*
X241030Y450677D01*
X241104Y450654D01*
X241179Y450635D01*
X241254Y450620D01*
X241331Y450608D01*
X241408Y450600D01*
X241485Y450596D01*
X241563Y450596D01*
X241640Y450600D01*
X241717Y450608D01*
X241794Y450620D01*
X241869Y450635D01*
X241944Y450654D01*
X242018Y450677D01*
X242091Y450703D01*
X242162Y450733D01*
X242232Y450767D01*
X242300Y450804D01*
X242366Y450844D01*
X242430Y450888D01*
X242492Y450935D01*
X242551Y450984D01*
X242608Y451037D01*
X242662Y451092D01*
X242713Y451150D01*
X242761Y451211D01*
X242806Y451274D01*
X242848Y451339D01*
X242887Y451406D01*
X242922Y451475D01*
X242954Y451545D01*
X242982Y451617D01*
X243007Y451691D01*
X243028Y451765D01*
X243045Y451840D01*
X243059Y451917D01*
X243068Y451993D01*
X243074Y452071D01*
X243076Y452148D01*
X233248Y450596D02*
X233178Y450598D01*
X233109Y450604D01*
X233040Y450614D01*
X232972Y450627D01*
X232904Y450645D01*
X232838Y450666D01*
X232773Y450691D01*
X232709Y450719D01*
X232647Y450751D01*
X232587Y450786D01*
X232529Y450825D01*
X232474Y450867D01*
X232420Y450912D01*
X232370Y450960D01*
X232322Y451010D01*
X232277Y451064D01*
X232235Y451119D01*
X232196Y451177D01*
X232161Y451237D01*
X232129Y451299D01*
X232101Y451363D01*
X232076Y451428D01*
X232055Y451494D01*
X232037Y451562D01*
X232024Y451630D01*
X232014Y451699D01*
X232008Y451768D01*
X232006Y451838D01*
X233248Y450596D02*
X233347Y450598D01*
X233445Y450603D01*
X233543Y450613D01*
X233641Y450626D01*
X233738Y450642D01*
X233835Y450662D01*
X233930Y450686D01*
X234025Y450714D01*
X234119Y450745D01*
X234211Y450779D01*
X234302Y450817D01*
X234392Y450858D01*
X234480Y450903D01*
X234566Y450951D01*
X234650Y451002D01*
X234732Y451056D01*
X234813Y451114D01*
X234891Y451174D01*
X234966Y451237D01*
X235040Y451303D01*
X235110Y451372D01*
X234956Y454942D02*
X234954Y455012D01*
X234948Y455081D01*
X234938Y455150D01*
X234925Y455218D01*
X234907Y455286D01*
X234886Y455352D01*
X234861Y455417D01*
X234833Y455481D01*
X234801Y455543D01*
X234766Y455603D01*
X234727Y455661D01*
X234685Y455716D01*
X234640Y455770D01*
X234592Y455820D01*
X234542Y455868D01*
X234488Y455913D01*
X234433Y455955D01*
X234375Y455994D01*
X234315Y456029D01*
X234253Y456061D01*
X234189Y456089D01*
X234124Y456114D01*
X234058Y456135D01*
X233990Y456153D01*
X233922Y456166D01*
X233853Y456176D01*
X233784Y456182D01*
X233714Y456184D01*
X233620Y456182D01*
X233527Y456176D01*
X233434Y456167D01*
X233341Y456154D01*
X233249Y456137D01*
X233158Y456117D01*
X233067Y456092D01*
X232978Y456065D01*
X232890Y456033D01*
X232803Y455998D01*
X232717Y455960D01*
X232634Y455918D01*
X232551Y455873D01*
X232471Y455825D01*
X232393Y455773D01*
X232317Y455718D01*
X234335Y453856D02*
X234394Y453892D01*
X234450Y453932D01*
X234504Y453975D01*
X234556Y454020D01*
X234605Y454069D01*
X234651Y454120D01*
X234694Y454173D01*
X234735Y454229D01*
X234772Y454287D01*
X234807Y454347D01*
X234837Y454408D01*
X234865Y454471D01*
X234889Y454536D01*
X234909Y454602D01*
X234926Y454669D01*
X234939Y454736D01*
X234948Y454804D01*
X234954Y454873D01*
X234956Y454942D01*
X232628Y452924D02*
X232569Y452888D01*
X232513Y452848D01*
X232459Y452805D01*
X232407Y452760D01*
X232358Y452711D01*
X232312Y452660D01*
X232269Y452607D01*
X232228Y452551D01*
X232191Y452493D01*
X232156Y452434D01*
X232126Y452372D01*
X232098Y452309D01*
X232074Y452244D01*
X232054Y452178D01*
X232037Y452111D01*
X232024Y452044D01*
X232015Y451976D01*
X232009Y451907D01*
X232007Y451838D01*
X232628Y452924D02*
X234335Y453856D01*
X230007Y456184D02*
X228766Y450596D01*
X227524Y454321D01*
X226282Y450596D01*
X225040Y456184D01*
X222675Y456184D02*
X222675Y450596D01*
X222675Y456184D02*
X221123Y456184D01*
X221047Y456182D01*
X220971Y456177D01*
X220895Y456167D01*
X220820Y456154D01*
X220746Y456137D01*
X220672Y456117D01*
X220600Y456093D01*
X220529Y456066D01*
X220459Y456035D01*
X220391Y456001D01*
X220325Y455963D01*
X220261Y455922D01*
X220198Y455879D01*
X220138Y455832D01*
X220081Y455782D01*
X220026Y455729D01*
X219973Y455674D01*
X219923Y455617D01*
X219876Y455557D01*
X219833Y455494D01*
X219792Y455430D01*
X219754Y455364D01*
X219720Y455296D01*
X219689Y455226D01*
X219662Y455155D01*
X219638Y455083D01*
X219618Y455009D01*
X219601Y454935D01*
X219588Y454860D01*
X219578Y454784D01*
X219573Y454708D01*
X219571Y454632D01*
X219571Y452148D01*
X219573Y452072D01*
X219578Y451996D01*
X219588Y451920D01*
X219601Y451845D01*
X219618Y451771D01*
X219638Y451697D01*
X219662Y451625D01*
X219689Y451554D01*
X219720Y451484D01*
X219754Y451416D01*
X219792Y451350D01*
X219833Y451286D01*
X219876Y451223D01*
X219923Y451163D01*
X219973Y451106D01*
X220026Y451051D01*
X220081Y450998D01*
X220138Y450948D01*
X220198Y450901D01*
X220261Y450858D01*
X220325Y450817D01*
X220391Y450779D01*
X220459Y450745D01*
X220529Y450714D01*
X220600Y450687D01*
X220672Y450663D01*
X220746Y450643D01*
X220820Y450626D01*
X220895Y450613D01*
X220971Y450603D01*
X221047Y450598D01*
X221123Y450596D01*
X222675Y450596D01*
X215781Y450596D02*
X214539Y450596D01*
X215781Y450596D02*
X215851Y450598D01*
X215920Y450604D01*
X215989Y450614D01*
X216057Y450627D01*
X216125Y450645D01*
X216191Y450666D01*
X216256Y450691D01*
X216320Y450719D01*
X216382Y450751D01*
X216442Y450786D01*
X216500Y450825D01*
X216555Y450867D01*
X216609Y450912D01*
X216659Y450960D01*
X216707Y451010D01*
X216752Y451064D01*
X216794Y451119D01*
X216833Y451177D01*
X216868Y451237D01*
X216900Y451299D01*
X216928Y451363D01*
X216953Y451428D01*
X216974Y451494D01*
X216992Y451562D01*
X217005Y451630D01*
X217015Y451699D01*
X217021Y451768D01*
X217023Y451838D01*
X217022Y451838D02*
X217022Y454942D01*
X217023Y454942D02*
X217021Y455012D01*
X217015Y455081D01*
X217005Y455150D01*
X216992Y455218D01*
X216974Y455286D01*
X216953Y455352D01*
X216928Y455417D01*
X216900Y455481D01*
X216868Y455543D01*
X216833Y455603D01*
X216794Y455661D01*
X216752Y455716D01*
X216707Y455770D01*
X216659Y455820D01*
X216609Y455868D01*
X216555Y455913D01*
X216500Y455955D01*
X216442Y455994D01*
X216382Y456029D01*
X216320Y456061D01*
X216256Y456089D01*
X216191Y456114D01*
X216125Y456135D01*
X216057Y456153D01*
X215989Y456166D01*
X215920Y456176D01*
X215851Y456182D01*
X215781Y456184D01*
X214539Y456184D01*
X212240Y456184D02*
X212240Y450596D01*
X209757Y450596D01*
X207413Y450596D02*
X207413Y456184D01*
X204309Y456184D02*
X207413Y452769D01*
X206172Y454011D02*
X204309Y450596D01*
X279890Y32060D02*
X280821Y32060D01*
X279890Y32060D02*
X279890Y28956D01*
X281753Y28956D01*
X281823Y28958D01*
X281892Y28964D01*
X281961Y28974D01*
X282029Y28987D01*
X282097Y29005D01*
X282163Y29026D01*
X282228Y29051D01*
X282292Y29079D01*
X282354Y29111D01*
X282414Y29146D01*
X282472Y29185D01*
X282527Y29227D01*
X282581Y29272D01*
X282631Y29320D01*
X282679Y29370D01*
X282724Y29424D01*
X282766Y29479D01*
X282805Y29537D01*
X282840Y29597D01*
X282872Y29659D01*
X282900Y29723D01*
X282925Y29788D01*
X282946Y29854D01*
X282964Y29922D01*
X282977Y29990D01*
X282987Y30059D01*
X282993Y30128D01*
X282995Y30198D01*
X282994Y30198D02*
X282994Y33302D01*
X282995Y33302D02*
X282993Y33372D01*
X282987Y33441D01*
X282977Y33510D01*
X282964Y33578D01*
X282946Y33646D01*
X282925Y33712D01*
X282900Y33777D01*
X282872Y33841D01*
X282840Y33903D01*
X282805Y33963D01*
X282766Y34021D01*
X282724Y34076D01*
X282679Y34130D01*
X282631Y34180D01*
X282581Y34228D01*
X282527Y34273D01*
X282472Y34315D01*
X282414Y34354D01*
X282354Y34389D01*
X282292Y34421D01*
X282228Y34449D01*
X282163Y34474D01*
X282097Y34495D01*
X282029Y34513D01*
X281961Y34526D01*
X281892Y34536D01*
X281823Y34542D01*
X281753Y34544D01*
X279890Y34544D01*
X277142Y34544D02*
X277142Y28956D01*
X274038Y28956D02*
X277142Y34544D01*
X274038Y34544D02*
X274038Y28956D01*
X271290Y28956D02*
X271290Y34544D01*
X269738Y34544D01*
X269662Y34542D01*
X269586Y34537D01*
X269510Y34527D01*
X269435Y34514D01*
X269361Y34497D01*
X269287Y34477D01*
X269215Y34453D01*
X269144Y34426D01*
X269074Y34395D01*
X269006Y34361D01*
X268940Y34323D01*
X268876Y34282D01*
X268813Y34239D01*
X268753Y34192D01*
X268696Y34142D01*
X268641Y34089D01*
X268588Y34034D01*
X268538Y33977D01*
X268491Y33917D01*
X268448Y33854D01*
X268407Y33790D01*
X268369Y33724D01*
X268335Y33656D01*
X268304Y33586D01*
X268277Y33515D01*
X268253Y33443D01*
X268233Y33369D01*
X268216Y33295D01*
X268203Y33220D01*
X268193Y33144D01*
X268188Y33068D01*
X268186Y32992D01*
X268186Y30508D01*
X268188Y30432D01*
X268193Y30356D01*
X268203Y30280D01*
X268216Y30205D01*
X268233Y30131D01*
X268253Y30057D01*
X268277Y29985D01*
X268304Y29914D01*
X268335Y29844D01*
X268369Y29776D01*
X268407Y29710D01*
X268448Y29646D01*
X268491Y29583D01*
X268538Y29523D01*
X268588Y29466D01*
X268641Y29411D01*
X268696Y29358D01*
X268753Y29308D01*
X268813Y29261D01*
X268876Y29218D01*
X268940Y29177D01*
X269006Y29139D01*
X269074Y29105D01*
X269144Y29074D01*
X269215Y29047D01*
X269287Y29023D01*
X269361Y29003D01*
X269435Y28986D01*
X269510Y28973D01*
X269586Y28963D01*
X269662Y28958D01*
X269738Y28956D01*
X271290Y28956D01*
X278338Y2286D02*
X280201Y2286D01*
X278338Y2286D02*
X278268Y2288D01*
X278199Y2294D01*
X278130Y2304D01*
X278062Y2317D01*
X277994Y2335D01*
X277928Y2356D01*
X277863Y2381D01*
X277799Y2409D01*
X277737Y2441D01*
X277677Y2476D01*
X277619Y2515D01*
X277564Y2557D01*
X277510Y2602D01*
X277460Y2650D01*
X277412Y2700D01*
X277367Y2754D01*
X277325Y2809D01*
X277286Y2867D01*
X277251Y2927D01*
X277219Y2989D01*
X277191Y3053D01*
X277166Y3118D01*
X277145Y3184D01*
X277127Y3252D01*
X277114Y3320D01*
X277104Y3389D01*
X277098Y3458D01*
X277096Y3528D01*
X277096Y4149D01*
X277098Y4219D01*
X277104Y4288D01*
X277114Y4357D01*
X277127Y4425D01*
X277145Y4493D01*
X277166Y4559D01*
X277191Y4624D01*
X277219Y4688D01*
X277251Y4750D01*
X277286Y4810D01*
X277325Y4868D01*
X277367Y4923D01*
X277412Y4977D01*
X277460Y5027D01*
X277510Y5075D01*
X277564Y5120D01*
X277619Y5162D01*
X277677Y5201D01*
X277737Y5236D01*
X277799Y5268D01*
X277863Y5296D01*
X277928Y5321D01*
X277994Y5342D01*
X278062Y5360D01*
X278130Y5373D01*
X278199Y5383D01*
X278268Y5389D01*
X278338Y5391D01*
X278338Y5390D02*
X280201Y5390D01*
X280201Y7874D01*
X277096Y7874D01*
X275025Y7874D02*
X273162Y2286D01*
X271299Y7874D01*
X262087Y28956D02*
X262087Y34544D01*
X260535Y34544D02*
X263640Y34544D01*
X258829Y28956D02*
X255104Y34544D01*
X258829Y34544D02*
X255104Y28956D01*
X253271Y28335D02*
X250787Y28335D01*
X248405Y28956D02*
X248405Y34544D01*
X246543Y31440D01*
X244680Y34544D01*
X244680Y28956D01*
X240834Y28956D02*
X239593Y28956D01*
X240834Y28956D02*
X240904Y28958D01*
X240973Y28964D01*
X241042Y28974D01*
X241110Y28987D01*
X241178Y29005D01*
X241244Y29026D01*
X241309Y29051D01*
X241373Y29079D01*
X241435Y29111D01*
X241495Y29146D01*
X241553Y29185D01*
X241608Y29227D01*
X241662Y29272D01*
X241712Y29320D01*
X241760Y29370D01*
X241805Y29424D01*
X241847Y29479D01*
X241886Y29537D01*
X241921Y29597D01*
X241953Y29659D01*
X241981Y29723D01*
X242006Y29788D01*
X242027Y29854D01*
X242045Y29922D01*
X242058Y29990D01*
X242068Y30059D01*
X242074Y30128D01*
X242076Y30198D01*
X242076Y33302D01*
X242074Y33372D01*
X242068Y33441D01*
X242058Y33510D01*
X242045Y33578D01*
X242027Y33646D01*
X242006Y33712D01*
X241981Y33777D01*
X241953Y33841D01*
X241921Y33903D01*
X241886Y33963D01*
X241847Y34021D01*
X241805Y34076D01*
X241760Y34130D01*
X241712Y34180D01*
X241662Y34228D01*
X241608Y34273D01*
X241553Y34315D01*
X241495Y34354D01*
X241435Y34389D01*
X241373Y34421D01*
X241309Y34449D01*
X241244Y34474D01*
X241178Y34495D01*
X241110Y34513D01*
X241042Y34526D01*
X240973Y34536D01*
X240904Y34542D01*
X240834Y34544D01*
X239593Y34544D01*
X237305Y34544D02*
X237305Y30508D01*
X237303Y30431D01*
X237297Y30353D01*
X237288Y30277D01*
X237274Y30200D01*
X237257Y30125D01*
X237236Y30051D01*
X237211Y29977D01*
X237183Y29905D01*
X237151Y29835D01*
X237116Y29766D01*
X237077Y29699D01*
X237035Y29634D01*
X236990Y29571D01*
X236942Y29510D01*
X236891Y29452D01*
X236837Y29397D01*
X236780Y29344D01*
X236721Y29295D01*
X236659Y29248D01*
X236595Y29204D01*
X236529Y29164D01*
X236461Y29127D01*
X236391Y29093D01*
X236320Y29063D01*
X236247Y29037D01*
X236173Y29014D01*
X236098Y28995D01*
X236023Y28980D01*
X235946Y28968D01*
X235869Y28960D01*
X235792Y28956D01*
X235714Y28956D01*
X235637Y28960D01*
X235560Y28968D01*
X235483Y28980D01*
X235408Y28995D01*
X235333Y29014D01*
X235259Y29037D01*
X235186Y29063D01*
X235115Y29093D01*
X235045Y29127D01*
X234977Y29164D01*
X234911Y29204D01*
X234847Y29248D01*
X234785Y29295D01*
X234726Y29344D01*
X234669Y29397D01*
X234615Y29452D01*
X234564Y29510D01*
X234516Y29571D01*
X234471Y29634D01*
X234429Y29699D01*
X234390Y29766D01*
X234355Y29835D01*
X234323Y29905D01*
X234295Y29977D01*
X234270Y30051D01*
X234249Y30125D01*
X234232Y30200D01*
X234218Y30277D01*
X234209Y30353D01*
X234203Y30431D01*
X234201Y30508D01*
X234201Y34544D01*
X228244Y34544D02*
X228244Y28956D01*
X228244Y34544D02*
X226692Y34544D01*
X226615Y34542D01*
X226537Y34536D01*
X226461Y34527D01*
X226384Y34513D01*
X226309Y34496D01*
X226235Y34475D01*
X226161Y34450D01*
X226089Y34422D01*
X226019Y34390D01*
X225950Y34355D01*
X225883Y34316D01*
X225818Y34274D01*
X225755Y34229D01*
X225694Y34181D01*
X225636Y34130D01*
X225581Y34076D01*
X225528Y34019D01*
X225479Y33960D01*
X225432Y33898D01*
X225388Y33834D01*
X225348Y33768D01*
X225311Y33700D01*
X225277Y33630D01*
X225247Y33559D01*
X225221Y33486D01*
X225198Y33412D01*
X225179Y33337D01*
X225164Y33262D01*
X225152Y33185D01*
X225144Y33108D01*
X225140Y33031D01*
X225140Y32953D01*
X225144Y32876D01*
X225152Y32799D01*
X225164Y32722D01*
X225179Y32647D01*
X225198Y32572D01*
X225221Y32498D01*
X225247Y32425D01*
X225277Y32354D01*
X225311Y32284D01*
X225348Y32216D01*
X225388Y32150D01*
X225432Y32086D01*
X225479Y32024D01*
X225528Y31965D01*
X225581Y31908D01*
X225636Y31854D01*
X225694Y31803D01*
X225755Y31755D01*
X225818Y31710D01*
X225883Y31668D01*
X225950Y31629D01*
X226019Y31594D01*
X226089Y31562D01*
X226161Y31534D01*
X226235Y31509D01*
X226309Y31488D01*
X226384Y31471D01*
X226461Y31457D01*
X226537Y31448D01*
X226615Y31442D01*
X226692Y31440D01*
X228244Y31440D01*
X226382Y31440D02*
X225140Y28956D01*
X223105Y28956D02*
X219379Y34544D01*
X223105Y34544D02*
X219379Y28956D01*
X217546Y28335D02*
X215062Y28335D01*
X212680Y28956D02*
X212680Y34544D01*
X210818Y31440D01*
X208955Y34544D01*
X208955Y28956D01*
X205109Y28956D02*
X203868Y28956D01*
X205109Y28956D02*
X205179Y28958D01*
X205248Y28964D01*
X205317Y28974D01*
X205385Y28987D01*
X205453Y29005D01*
X205519Y29026D01*
X205584Y29051D01*
X205648Y29079D01*
X205710Y29111D01*
X205770Y29146D01*
X205828Y29185D01*
X205883Y29227D01*
X205937Y29272D01*
X205987Y29320D01*
X206035Y29370D01*
X206080Y29424D01*
X206122Y29479D01*
X206161Y29537D01*
X206196Y29597D01*
X206228Y29659D01*
X206256Y29723D01*
X206281Y29788D01*
X206302Y29854D01*
X206320Y29922D01*
X206333Y29990D01*
X206343Y30059D01*
X206349Y30128D01*
X206351Y30198D01*
X206351Y33302D01*
X206349Y33372D01*
X206343Y33441D01*
X206333Y33510D01*
X206320Y33578D01*
X206302Y33646D01*
X206281Y33712D01*
X206256Y33777D01*
X206228Y33841D01*
X206196Y33903D01*
X206161Y33963D01*
X206122Y34021D01*
X206080Y34076D01*
X206035Y34130D01*
X205987Y34180D01*
X205937Y34228D01*
X205883Y34273D01*
X205828Y34315D01*
X205770Y34354D01*
X205710Y34389D01*
X205648Y34421D01*
X205584Y34449D01*
X205519Y34474D01*
X205453Y34495D01*
X205385Y34513D01*
X205317Y34526D01*
X205248Y34536D01*
X205179Y34542D01*
X205109Y34544D01*
X203868Y34544D01*
X201580Y34544D02*
X201580Y30508D01*
X201578Y30431D01*
X201572Y30353D01*
X201563Y30277D01*
X201549Y30200D01*
X201532Y30125D01*
X201511Y30051D01*
X201486Y29977D01*
X201458Y29905D01*
X201426Y29835D01*
X201391Y29766D01*
X201352Y29699D01*
X201310Y29634D01*
X201265Y29571D01*
X201217Y29510D01*
X201166Y29452D01*
X201112Y29397D01*
X201055Y29344D01*
X200996Y29295D01*
X200934Y29248D01*
X200870Y29204D01*
X200804Y29164D01*
X200736Y29127D01*
X200666Y29093D01*
X200595Y29063D01*
X200522Y29037D01*
X200448Y29014D01*
X200373Y28995D01*
X200298Y28980D01*
X200221Y28968D01*
X200144Y28960D01*
X200067Y28956D01*
X199989Y28956D01*
X199912Y28960D01*
X199835Y28968D01*
X199758Y28980D01*
X199683Y28995D01*
X199608Y29014D01*
X199534Y29037D01*
X199461Y29063D01*
X199390Y29093D01*
X199320Y29127D01*
X199252Y29164D01*
X199186Y29204D01*
X199122Y29248D01*
X199060Y29295D01*
X199001Y29344D01*
X198944Y29397D01*
X198890Y29452D01*
X198839Y29510D01*
X198791Y29571D01*
X198746Y29634D01*
X198704Y29699D01*
X198665Y29766D01*
X198630Y29835D01*
X198598Y29905D01*
X198570Y29977D01*
X198545Y30051D01*
X198524Y30125D01*
X198507Y30200D01*
X198493Y30277D01*
X198484Y30353D01*
X198478Y30431D01*
X198476Y30508D01*
X198476Y34544D01*
X262559Y7874D02*
X262559Y2286D01*
X264111Y7874D02*
X261007Y7874D01*
X255575Y7874D02*
X259301Y2286D01*
X255575Y2286D02*
X259301Y7874D01*
X253742Y1665D02*
X251259Y1665D01*
X248932Y2286D02*
X248932Y7874D01*
X247380Y7874D01*
X247304Y7872D01*
X247228Y7867D01*
X247152Y7857D01*
X247077Y7844D01*
X247003Y7827D01*
X246929Y7807D01*
X246857Y7783D01*
X246786Y7756D01*
X246716Y7725D01*
X246648Y7691D01*
X246582Y7653D01*
X246518Y7612D01*
X246455Y7569D01*
X246395Y7522D01*
X246338Y7472D01*
X246283Y7419D01*
X246230Y7364D01*
X246180Y7307D01*
X246133Y7247D01*
X246090Y7184D01*
X246049Y7120D01*
X246011Y7054D01*
X245977Y6986D01*
X245946Y6916D01*
X245919Y6845D01*
X245895Y6773D01*
X245875Y6699D01*
X245858Y6625D01*
X245845Y6550D01*
X245835Y6474D01*
X245830Y6398D01*
X245828Y6322D01*
X245828Y3838D01*
X245830Y3762D01*
X245835Y3686D01*
X245845Y3610D01*
X245858Y3535D01*
X245875Y3461D01*
X245895Y3387D01*
X245919Y3315D01*
X245946Y3244D01*
X245977Y3174D01*
X246011Y3106D01*
X246049Y3040D01*
X246090Y2976D01*
X246133Y2913D01*
X246180Y2853D01*
X246230Y2796D01*
X246283Y2741D01*
X246338Y2688D01*
X246395Y2638D01*
X246455Y2591D01*
X246518Y2548D01*
X246582Y2507D01*
X246648Y2469D01*
X246716Y2435D01*
X246786Y2404D01*
X246857Y2377D01*
X246929Y2353D01*
X247003Y2333D01*
X247077Y2316D01*
X247152Y2303D01*
X247228Y2293D01*
X247304Y2288D01*
X247380Y2286D01*
X248932Y2286D01*
X242997Y5390D02*
X241445Y5390D01*
X241368Y5388D01*
X241290Y5382D01*
X241214Y5373D01*
X241137Y5359D01*
X241062Y5342D01*
X240988Y5321D01*
X240914Y5296D01*
X240842Y5268D01*
X240772Y5236D01*
X240703Y5201D01*
X240636Y5162D01*
X240571Y5120D01*
X240508Y5075D01*
X240447Y5027D01*
X240389Y4976D01*
X240334Y4922D01*
X240281Y4865D01*
X240232Y4806D01*
X240185Y4744D01*
X240141Y4680D01*
X240101Y4614D01*
X240064Y4546D01*
X240030Y4476D01*
X240000Y4405D01*
X239974Y4332D01*
X239951Y4258D01*
X239932Y4183D01*
X239917Y4108D01*
X239905Y4031D01*
X239897Y3954D01*
X239893Y3877D01*
X239893Y3799D01*
X239897Y3722D01*
X239905Y3645D01*
X239917Y3568D01*
X239932Y3493D01*
X239951Y3418D01*
X239974Y3344D01*
X240000Y3271D01*
X240030Y3200D01*
X240064Y3130D01*
X240101Y3062D01*
X240141Y2996D01*
X240185Y2932D01*
X240232Y2870D01*
X240281Y2811D01*
X240334Y2754D01*
X240389Y2700D01*
X240447Y2649D01*
X240508Y2601D01*
X240571Y2556D01*
X240636Y2514D01*
X240703Y2475D01*
X240772Y2440D01*
X240842Y2408D01*
X240914Y2380D01*
X240988Y2355D01*
X241062Y2334D01*
X241137Y2317D01*
X241214Y2303D01*
X241290Y2294D01*
X241368Y2288D01*
X241445Y2286D01*
X242997Y2286D01*
X242997Y7874D01*
X241445Y7874D01*
X241375Y7872D01*
X241306Y7866D01*
X241237Y7856D01*
X241169Y7843D01*
X241101Y7825D01*
X241035Y7804D01*
X240970Y7779D01*
X240906Y7751D01*
X240844Y7719D01*
X240784Y7684D01*
X240726Y7645D01*
X240671Y7603D01*
X240617Y7558D01*
X240567Y7510D01*
X240519Y7460D01*
X240474Y7406D01*
X240432Y7351D01*
X240393Y7293D01*
X240358Y7233D01*
X240326Y7171D01*
X240298Y7107D01*
X240273Y7042D01*
X240252Y6976D01*
X240234Y6908D01*
X240221Y6840D01*
X240211Y6771D01*
X240205Y6702D01*
X240203Y6632D01*
X240205Y6562D01*
X240211Y6493D01*
X240221Y6424D01*
X240234Y6356D01*
X240252Y6288D01*
X240273Y6222D01*
X240298Y6157D01*
X240326Y6093D01*
X240358Y6031D01*
X240393Y5971D01*
X240432Y5913D01*
X240474Y5858D01*
X240519Y5804D01*
X240567Y5754D01*
X240617Y5706D01*
X240671Y5661D01*
X240726Y5619D01*
X240784Y5580D01*
X240844Y5545D01*
X240906Y5513D01*
X240970Y5485D01*
X241035Y5460D01*
X241101Y5439D01*
X241169Y5421D01*
X241237Y5408D01*
X241306Y5398D01*
X241375Y5392D01*
X241445Y5390D01*
X235420Y5390D02*
X234489Y5390D01*
X234489Y2286D01*
X236352Y2286D01*
X236422Y2288D01*
X236491Y2294D01*
X236560Y2304D01*
X236628Y2317D01*
X236696Y2335D01*
X236762Y2356D01*
X236827Y2381D01*
X236891Y2409D01*
X236953Y2441D01*
X237013Y2476D01*
X237071Y2515D01*
X237126Y2557D01*
X237180Y2602D01*
X237230Y2650D01*
X237278Y2700D01*
X237323Y2754D01*
X237365Y2809D01*
X237404Y2867D01*
X237439Y2927D01*
X237471Y2989D01*
X237499Y3053D01*
X237524Y3118D01*
X237545Y3184D01*
X237563Y3252D01*
X237576Y3320D01*
X237586Y3389D01*
X237592Y3458D01*
X237594Y3528D01*
X237594Y6632D01*
X237592Y6702D01*
X237586Y6771D01*
X237576Y6840D01*
X237563Y6908D01*
X237545Y6976D01*
X237524Y7042D01*
X237499Y7107D01*
X237471Y7171D01*
X237439Y7233D01*
X237404Y7293D01*
X237365Y7351D01*
X237323Y7406D01*
X237278Y7460D01*
X237230Y7510D01*
X237180Y7558D01*
X237126Y7603D01*
X237071Y7645D01*
X237013Y7684D01*
X236953Y7719D01*
X236891Y7751D01*
X236827Y7779D01*
X236762Y7804D01*
X236696Y7825D01*
X236628Y7843D01*
X236560Y7856D01*
X236491Y7866D01*
X236422Y7872D01*
X236352Y7874D01*
X234489Y7874D01*
X228976Y7714D02*
X228976Y2126D01*
X228976Y7714D02*
X227424Y7714D01*
X227347Y7712D01*
X227269Y7706D01*
X227193Y7697D01*
X227116Y7683D01*
X227041Y7666D01*
X226967Y7645D01*
X226893Y7620D01*
X226821Y7592D01*
X226751Y7560D01*
X226682Y7525D01*
X226615Y7486D01*
X226550Y7444D01*
X226487Y7399D01*
X226426Y7351D01*
X226368Y7300D01*
X226313Y7246D01*
X226260Y7189D01*
X226211Y7130D01*
X226164Y7068D01*
X226120Y7004D01*
X226080Y6938D01*
X226043Y6870D01*
X226009Y6800D01*
X225979Y6729D01*
X225953Y6656D01*
X225930Y6582D01*
X225911Y6507D01*
X225896Y6432D01*
X225884Y6355D01*
X225876Y6278D01*
X225872Y6201D01*
X225872Y6123D01*
X225876Y6046D01*
X225884Y5969D01*
X225896Y5892D01*
X225911Y5817D01*
X225930Y5742D01*
X225953Y5668D01*
X225979Y5595D01*
X226009Y5524D01*
X226043Y5454D01*
X226080Y5386D01*
X226120Y5320D01*
X226164Y5256D01*
X226211Y5194D01*
X226260Y5135D01*
X226313Y5078D01*
X226368Y5024D01*
X226426Y4973D01*
X226487Y4925D01*
X226550Y4880D01*
X226615Y4838D01*
X226682Y4799D01*
X226751Y4764D01*
X226821Y4732D01*
X226893Y4704D01*
X226967Y4679D01*
X227041Y4658D01*
X227116Y4641D01*
X227193Y4627D01*
X227269Y4618D01*
X227347Y4612D01*
X227424Y4610D01*
X228976Y4610D01*
X227113Y4610D02*
X225871Y2126D01*
X223836Y2126D02*
X220111Y7714D01*
X223836Y7714D02*
X220111Y2126D01*
X218277Y1505D02*
X215794Y1505D01*
X213467Y2126D02*
X213467Y7714D01*
X211915Y7714D01*
X211839Y7712D01*
X211763Y7707D01*
X211687Y7697D01*
X211612Y7684D01*
X211538Y7667D01*
X211464Y7647D01*
X211392Y7623D01*
X211321Y7596D01*
X211251Y7565D01*
X211183Y7531D01*
X211117Y7493D01*
X211053Y7452D01*
X210990Y7409D01*
X210930Y7362D01*
X210873Y7312D01*
X210818Y7259D01*
X210765Y7204D01*
X210715Y7147D01*
X210668Y7087D01*
X210625Y7024D01*
X210584Y6960D01*
X210546Y6894D01*
X210512Y6826D01*
X210481Y6756D01*
X210454Y6685D01*
X210430Y6613D01*
X210410Y6539D01*
X210393Y6465D01*
X210380Y6390D01*
X210370Y6314D01*
X210365Y6238D01*
X210363Y6162D01*
X210363Y3678D01*
X210365Y3602D01*
X210370Y3526D01*
X210380Y3450D01*
X210393Y3375D01*
X210410Y3301D01*
X210430Y3227D01*
X210454Y3155D01*
X210481Y3084D01*
X210512Y3014D01*
X210546Y2946D01*
X210584Y2880D01*
X210625Y2816D01*
X210668Y2753D01*
X210715Y2693D01*
X210765Y2636D01*
X210818Y2581D01*
X210873Y2528D01*
X210930Y2478D01*
X210990Y2431D01*
X211053Y2388D01*
X211117Y2347D01*
X211183Y2309D01*
X211251Y2275D01*
X211321Y2244D01*
X211392Y2217D01*
X211464Y2193D01*
X211538Y2173D01*
X211612Y2156D01*
X211687Y2143D01*
X211763Y2133D01*
X211839Y2128D01*
X211915Y2126D01*
X213467Y2126D01*
X207532Y5230D02*
X205980Y5230D01*
X205903Y5228D01*
X205825Y5222D01*
X205749Y5213D01*
X205672Y5199D01*
X205597Y5182D01*
X205523Y5161D01*
X205449Y5136D01*
X205377Y5108D01*
X205307Y5076D01*
X205238Y5041D01*
X205171Y5002D01*
X205106Y4960D01*
X205043Y4915D01*
X204982Y4867D01*
X204924Y4816D01*
X204869Y4762D01*
X204816Y4705D01*
X204767Y4646D01*
X204720Y4584D01*
X204676Y4520D01*
X204636Y4454D01*
X204599Y4386D01*
X204565Y4316D01*
X204535Y4245D01*
X204509Y4172D01*
X204486Y4098D01*
X204467Y4023D01*
X204452Y3948D01*
X204440Y3871D01*
X204432Y3794D01*
X204428Y3717D01*
X204428Y3639D01*
X204432Y3562D01*
X204440Y3485D01*
X204452Y3408D01*
X204467Y3333D01*
X204486Y3258D01*
X204509Y3184D01*
X204535Y3111D01*
X204565Y3040D01*
X204599Y2970D01*
X204636Y2902D01*
X204676Y2836D01*
X204720Y2772D01*
X204767Y2710D01*
X204816Y2651D01*
X204869Y2594D01*
X204924Y2540D01*
X204982Y2489D01*
X205043Y2441D01*
X205106Y2396D01*
X205171Y2354D01*
X205238Y2315D01*
X205307Y2280D01*
X205377Y2248D01*
X205449Y2220D01*
X205523Y2195D01*
X205597Y2174D01*
X205672Y2157D01*
X205749Y2143D01*
X205825Y2134D01*
X205903Y2128D01*
X205980Y2126D01*
X207532Y2126D01*
X207532Y7714D01*
X205980Y7714D01*
X205910Y7712D01*
X205841Y7706D01*
X205772Y7696D01*
X205704Y7683D01*
X205636Y7665D01*
X205570Y7644D01*
X205505Y7619D01*
X205441Y7591D01*
X205379Y7559D01*
X205319Y7524D01*
X205261Y7485D01*
X205206Y7443D01*
X205152Y7398D01*
X205102Y7350D01*
X205054Y7300D01*
X205009Y7246D01*
X204967Y7191D01*
X204928Y7133D01*
X204893Y7073D01*
X204861Y7011D01*
X204833Y6947D01*
X204808Y6882D01*
X204787Y6816D01*
X204769Y6748D01*
X204756Y6680D01*
X204746Y6611D01*
X204740Y6542D01*
X204738Y6472D01*
X204740Y6402D01*
X204746Y6333D01*
X204756Y6264D01*
X204769Y6196D01*
X204787Y6128D01*
X204808Y6062D01*
X204833Y5997D01*
X204861Y5933D01*
X204893Y5871D01*
X204928Y5811D01*
X204967Y5753D01*
X205009Y5698D01*
X205054Y5644D01*
X205102Y5594D01*
X205152Y5546D01*
X205206Y5501D01*
X205261Y5459D01*
X205319Y5420D01*
X205379Y5385D01*
X205441Y5353D01*
X205505Y5325D01*
X205570Y5300D01*
X205636Y5279D01*
X205704Y5261D01*
X205772Y5248D01*
X205841Y5238D01*
X205910Y5232D01*
X205980Y5230D01*
X199956Y5230D02*
X199024Y5230D01*
X199024Y2126D01*
X200887Y2126D01*
X200957Y2128D01*
X201026Y2134D01*
X201095Y2144D01*
X201163Y2157D01*
X201231Y2175D01*
X201297Y2196D01*
X201362Y2221D01*
X201426Y2249D01*
X201488Y2281D01*
X201548Y2316D01*
X201606Y2355D01*
X201661Y2397D01*
X201715Y2442D01*
X201765Y2490D01*
X201813Y2540D01*
X201858Y2594D01*
X201900Y2649D01*
X201939Y2707D01*
X201974Y2767D01*
X202006Y2829D01*
X202034Y2893D01*
X202059Y2958D01*
X202080Y3024D01*
X202098Y3092D01*
X202111Y3160D01*
X202121Y3229D01*
X202127Y3298D01*
X202129Y3368D01*
X202129Y6472D01*
X202127Y6542D01*
X202121Y6611D01*
X202111Y6680D01*
X202098Y6748D01*
X202080Y6816D01*
X202059Y6882D01*
X202034Y6947D01*
X202006Y7011D01*
X201974Y7073D01*
X201939Y7133D01*
X201900Y7191D01*
X201858Y7246D01*
X201813Y7300D01*
X201765Y7350D01*
X201715Y7398D01*
X201661Y7443D01*
X201606Y7485D01*
X201548Y7524D01*
X201488Y7559D01*
X201426Y7591D01*
X201362Y7619D01*
X201297Y7644D01*
X201231Y7665D01*
X201163Y7683D01*
X201095Y7696D01*
X201026Y7706D01*
X200957Y7712D01*
X200887Y7714D01*
X199024Y7714D01*
X420254Y350254D02*
X425842Y350254D01*
X420254Y353358D01*
X425842Y353358D01*
X425842Y357475D02*
X420254Y355613D01*
X420254Y359338D02*
X425842Y357475D01*
X421651Y358872D02*
X421651Y356078D01*
X420254Y361648D02*
X425842Y361648D01*
X422738Y363511D01*
X425842Y365373D01*
X420254Y365373D01*
X420254Y368187D02*
X420254Y370671D01*
X420254Y368187D02*
X425842Y368187D01*
X425842Y370671D01*
X423358Y370050D02*
X423358Y368187D01*
X421030Y372682D02*
X420720Y372682D01*
X421030Y372682D02*
X421030Y372993D01*
X420720Y372993D01*
X420720Y372682D01*
X423203Y372682D02*
X423514Y372682D01*
X423514Y372993D01*
X423203Y372993D01*
X423203Y372682D01*
X425842Y375547D02*
X420254Y375547D01*
X422738Y377409D02*
X425842Y375547D01*
X422738Y377409D02*
X425842Y379272D01*
X420254Y379272D01*
X418391Y381654D02*
X418391Y382275D01*
X423979Y384137D01*
X423979Y381654D02*
X420254Y382896D01*
X420254Y387323D02*
X425842Y386081D01*
X423979Y388565D02*
X420254Y387323D01*
X420254Y389807D02*
X423979Y388565D01*
X425842Y391049D02*
X420254Y389807D01*
X420254Y394107D02*
X420254Y395659D01*
X420254Y394107D02*
X420256Y394049D01*
X420261Y393990D01*
X420270Y393933D01*
X420283Y393875D01*
X420300Y393819D01*
X420319Y393764D01*
X420343Y393711D01*
X420369Y393658D01*
X420399Y393608D01*
X420432Y393560D01*
X420468Y393514D01*
X420506Y393470D01*
X420548Y393428D01*
X420592Y393390D01*
X420638Y393354D01*
X420686Y393321D01*
X420736Y393291D01*
X420789Y393265D01*
X420842Y393241D01*
X420897Y393222D01*
X420953Y393205D01*
X421011Y393192D01*
X421068Y393183D01*
X421127Y393178D01*
X421185Y393176D01*
X421185Y393175D02*
X422738Y393175D01*
X422808Y393177D01*
X422877Y393183D01*
X422946Y393193D01*
X423014Y393206D01*
X423082Y393224D01*
X423148Y393245D01*
X423213Y393270D01*
X423277Y393298D01*
X423339Y393330D01*
X423399Y393365D01*
X423457Y393404D01*
X423512Y393446D01*
X423566Y393491D01*
X423616Y393539D01*
X423664Y393589D01*
X423709Y393643D01*
X423751Y393698D01*
X423790Y393756D01*
X423825Y393816D01*
X423857Y393878D01*
X423885Y393942D01*
X423910Y394007D01*
X423931Y394073D01*
X423949Y394141D01*
X423962Y394209D01*
X423972Y394278D01*
X423978Y394347D01*
X423980Y394417D01*
X423978Y394487D01*
X423972Y394556D01*
X423962Y394625D01*
X423949Y394693D01*
X423931Y394761D01*
X423910Y394827D01*
X423885Y394892D01*
X423857Y394956D01*
X423825Y395018D01*
X423790Y395078D01*
X423751Y395136D01*
X423709Y395191D01*
X423664Y395245D01*
X423616Y395295D01*
X423566Y395343D01*
X423512Y395388D01*
X423457Y395430D01*
X423399Y395469D01*
X423339Y395504D01*
X423277Y395536D01*
X423213Y395564D01*
X423148Y395589D01*
X423082Y395610D01*
X423014Y395628D01*
X422946Y395641D01*
X422877Y395651D01*
X422808Y395657D01*
X422738Y395659D01*
X422117Y395659D01*
X422117Y393175D01*
X420254Y398142D02*
X425842Y398142D01*
X420254Y398142D02*
X420254Y399694D01*
X420256Y399752D01*
X420261Y399811D01*
X420270Y399868D01*
X420283Y399926D01*
X420300Y399982D01*
X420319Y400037D01*
X420343Y400090D01*
X420369Y400143D01*
X420399Y400193D01*
X420432Y400241D01*
X420468Y400287D01*
X420506Y400331D01*
X420548Y400373D01*
X420592Y400411D01*
X420638Y400447D01*
X420686Y400480D01*
X420736Y400510D01*
X420789Y400536D01*
X420842Y400560D01*
X420897Y400579D01*
X420953Y400596D01*
X421011Y400609D01*
X421068Y400618D01*
X421127Y400623D01*
X421185Y400625D01*
X423048Y400625D01*
X423106Y400623D01*
X423165Y400618D01*
X423222Y400609D01*
X423280Y400596D01*
X423336Y400579D01*
X423391Y400560D01*
X423444Y400536D01*
X423497Y400510D01*
X423547Y400480D01*
X423595Y400447D01*
X423641Y400411D01*
X423685Y400373D01*
X423727Y400331D01*
X423765Y400287D01*
X423801Y400241D01*
X423834Y400193D01*
X423864Y400143D01*
X423890Y400090D01*
X423914Y400037D01*
X423933Y399982D01*
X423950Y399926D01*
X423963Y399868D01*
X423972Y399811D01*
X423977Y399752D01*
X423979Y399694D01*
X423979Y398142D01*
X420254Y404149D02*
X420254Y405390D01*
X420254Y404149D02*
X420256Y404079D01*
X420262Y404010D01*
X420272Y403941D01*
X420285Y403873D01*
X420303Y403805D01*
X420324Y403739D01*
X420349Y403674D01*
X420377Y403610D01*
X420409Y403548D01*
X420444Y403488D01*
X420483Y403430D01*
X420525Y403375D01*
X420570Y403321D01*
X420618Y403271D01*
X420668Y403223D01*
X420722Y403178D01*
X420777Y403136D01*
X420835Y403097D01*
X420895Y403062D01*
X420957Y403030D01*
X421021Y403002D01*
X421086Y402977D01*
X421152Y402956D01*
X421220Y402938D01*
X421288Y402925D01*
X421357Y402915D01*
X421426Y402909D01*
X421496Y402907D01*
X424600Y402907D01*
X424670Y402909D01*
X424739Y402915D01*
X424808Y402925D01*
X424876Y402938D01*
X424944Y402956D01*
X425010Y402977D01*
X425075Y403002D01*
X425139Y403030D01*
X425201Y403062D01*
X425261Y403097D01*
X425319Y403136D01*
X425374Y403178D01*
X425428Y403223D01*
X425478Y403271D01*
X425526Y403321D01*
X425571Y403375D01*
X425613Y403430D01*
X425652Y403488D01*
X425687Y403548D01*
X425719Y403610D01*
X425747Y403674D01*
X425772Y403739D01*
X425793Y403805D01*
X425811Y403873D01*
X425824Y403941D01*
X425834Y404010D01*
X425840Y404079D01*
X425842Y404149D01*
X425842Y405390D01*
X422427Y408497D02*
X422427Y409894D01*
X422428Y408497D02*
X422426Y408433D01*
X422420Y408368D01*
X422411Y408305D01*
X422398Y408242D01*
X422381Y408180D01*
X422360Y408119D01*
X422336Y408059D01*
X422308Y408001D01*
X422277Y407944D01*
X422243Y407890D01*
X422205Y407837D01*
X422164Y407787D01*
X422121Y407740D01*
X422075Y407695D01*
X422026Y407653D01*
X421975Y407614D01*
X421921Y407578D01*
X421866Y407545D01*
X421808Y407516D01*
X421750Y407490D01*
X421689Y407467D01*
X421628Y407448D01*
X421565Y407433D01*
X421501Y407422D01*
X421438Y407414D01*
X421373Y407410D01*
X421309Y407410D01*
X421244Y407414D01*
X421181Y407422D01*
X421117Y407433D01*
X421054Y407448D01*
X420993Y407467D01*
X420932Y407490D01*
X420874Y407516D01*
X420816Y407545D01*
X420761Y407578D01*
X420707Y407614D01*
X420656Y407653D01*
X420607Y407695D01*
X420561Y407740D01*
X420518Y407787D01*
X420477Y407837D01*
X420439Y407890D01*
X420405Y407944D01*
X420374Y408001D01*
X420346Y408059D01*
X420322Y408119D01*
X420301Y408180D01*
X420284Y408242D01*
X420271Y408305D01*
X420262Y408368D01*
X420256Y408433D01*
X420254Y408497D01*
X420254Y409894D01*
X423048Y409894D01*
X423106Y409892D01*
X423165Y409887D01*
X423222Y409878D01*
X423280Y409865D01*
X423336Y409848D01*
X423391Y409829D01*
X423444Y409805D01*
X423497Y409779D01*
X423547Y409749D01*
X423595Y409716D01*
X423641Y409680D01*
X423685Y409642D01*
X423727Y409600D01*
X423765Y409556D01*
X423801Y409510D01*
X423834Y409462D01*
X423864Y409412D01*
X423890Y409359D01*
X423914Y409306D01*
X423933Y409251D01*
X423950Y409195D01*
X423963Y409137D01*
X423972Y409080D01*
X423977Y409021D01*
X423979Y408963D01*
X423979Y407721D01*
X423979Y412671D02*
X420254Y412671D01*
X423979Y412671D02*
X423979Y415465D01*
X423977Y415523D01*
X423972Y415582D01*
X423963Y415639D01*
X423950Y415697D01*
X423933Y415753D01*
X423914Y415808D01*
X423890Y415861D01*
X423864Y415914D01*
X423834Y415964D01*
X423801Y416012D01*
X423765Y416058D01*
X423727Y416102D01*
X423685Y416144D01*
X423641Y416182D01*
X423595Y416218D01*
X423547Y416251D01*
X423497Y416281D01*
X423444Y416307D01*
X423391Y416331D01*
X423336Y416350D01*
X423280Y416367D01*
X423222Y416380D01*
X423165Y416389D01*
X423106Y416394D01*
X423048Y416396D01*
X420254Y416396D01*
X420254Y414534D02*
X423979Y414534D01*
X409194Y352377D02*
X414782Y350514D01*
X414782Y354239D02*
X409194Y352377D01*
X413540Y356311D02*
X414782Y357863D01*
X409194Y357863D01*
X409194Y356311D02*
X409194Y359415D01*
X409194Y361548D02*
X409504Y361548D01*
X409504Y361859D01*
X409194Y361859D01*
X409194Y361548D01*
X411988Y363992D02*
X412119Y363994D01*
X412249Y363999D01*
X412379Y364009D01*
X412509Y364022D01*
X412639Y364038D01*
X412768Y364058D01*
X412896Y364082D01*
X413023Y364110D01*
X413150Y364141D01*
X413276Y364176D01*
X413401Y364214D01*
X413525Y364256D01*
X413647Y364301D01*
X413768Y364350D01*
X413888Y364402D01*
X414006Y364458D01*
X414006Y364457D02*
X414066Y364480D01*
X414126Y364506D01*
X414183Y364535D01*
X414239Y364568D01*
X414293Y364604D01*
X414345Y364642D01*
X414395Y364684D01*
X414442Y364728D01*
X414487Y364775D01*
X414529Y364825D01*
X414568Y364876D01*
X414604Y364930D01*
X414637Y364986D01*
X414667Y365043D01*
X414694Y365102D01*
X414717Y365163D01*
X414737Y365224D01*
X414753Y365287D01*
X414766Y365351D01*
X414775Y365415D01*
X414780Y365479D01*
X414782Y365544D01*
X414780Y365609D01*
X414775Y365673D01*
X414766Y365737D01*
X414753Y365801D01*
X414737Y365864D01*
X414717Y365925D01*
X414694Y365986D01*
X414667Y366045D01*
X414637Y366102D01*
X414604Y366158D01*
X414568Y366212D01*
X414529Y366263D01*
X414487Y366313D01*
X414442Y366360D01*
X414395Y366404D01*
X414345Y366446D01*
X414293Y366484D01*
X414239Y366520D01*
X414183Y366553D01*
X414126Y366582D01*
X414066Y366608D01*
X414006Y366631D01*
X414006Y366630D02*
X413888Y366686D01*
X413768Y366738D01*
X413647Y366787D01*
X413525Y366832D01*
X413401Y366874D01*
X413276Y366912D01*
X413150Y366947D01*
X413024Y366978D01*
X412896Y367006D01*
X412768Y367030D01*
X412639Y367050D01*
X412509Y367066D01*
X412379Y367079D01*
X412249Y367089D01*
X412119Y367094D01*
X411988Y367096D01*
X411988Y363992D02*
X411857Y363994D01*
X411727Y363999D01*
X411597Y364009D01*
X411467Y364022D01*
X411337Y364038D01*
X411208Y364058D01*
X411080Y364082D01*
X410953Y364110D01*
X410826Y364141D01*
X410700Y364176D01*
X410575Y364214D01*
X410451Y364256D01*
X410329Y364301D01*
X410208Y364350D01*
X410088Y364402D01*
X409970Y364458D01*
X409970Y364457D02*
X409910Y364480D01*
X409850Y364506D01*
X409793Y364535D01*
X409737Y364568D01*
X409683Y364604D01*
X409631Y364642D01*
X409581Y364684D01*
X409534Y364728D01*
X409489Y364775D01*
X409447Y364825D01*
X409408Y364876D01*
X409372Y364930D01*
X409339Y364986D01*
X409309Y365043D01*
X409282Y365102D01*
X409259Y365163D01*
X409239Y365224D01*
X409223Y365287D01*
X409210Y365351D01*
X409201Y365415D01*
X409196Y365479D01*
X409194Y365544D01*
X409970Y366630D02*
X410088Y366686D01*
X410208Y366738D01*
X410329Y366787D01*
X410451Y366832D01*
X410575Y366874D01*
X410700Y366912D01*
X410826Y366947D01*
X410952Y366978D01*
X411080Y367006D01*
X411208Y367030D01*
X411337Y367050D01*
X411467Y367066D01*
X411597Y367079D01*
X411727Y367089D01*
X411857Y367094D01*
X411988Y367096D01*
X409970Y366631D02*
X409910Y366608D01*
X409850Y366582D01*
X409793Y366553D01*
X409737Y366520D01*
X409683Y366484D01*
X409631Y366446D01*
X409581Y366404D01*
X409534Y366360D01*
X409489Y366313D01*
X409447Y366263D01*
X409408Y366212D01*
X409372Y366158D01*
X409339Y366102D01*
X409309Y366045D01*
X409282Y365986D01*
X409259Y365925D01*
X409239Y365864D01*
X409223Y365801D01*
X409210Y365737D01*
X409201Y365673D01*
X409196Y365609D01*
X409194Y365544D01*
X410436Y364302D02*
X413540Y366786D01*
X402082Y349884D02*
X396494Y349884D01*
X402082Y349884D02*
X402082Y351436D01*
X402080Y351512D01*
X402075Y351588D01*
X402065Y351664D01*
X402052Y351739D01*
X402035Y351813D01*
X402015Y351887D01*
X401991Y351959D01*
X401964Y352030D01*
X401933Y352100D01*
X401899Y352168D01*
X401861Y352234D01*
X401820Y352298D01*
X401777Y352361D01*
X401730Y352421D01*
X401680Y352478D01*
X401627Y352533D01*
X401572Y352586D01*
X401515Y352636D01*
X401455Y352683D01*
X401392Y352726D01*
X401328Y352767D01*
X401262Y352805D01*
X401194Y352839D01*
X401124Y352870D01*
X401053Y352897D01*
X400980Y352921D01*
X400907Y352941D01*
X400833Y352958D01*
X400758Y352971D01*
X400682Y352981D01*
X400606Y352986D01*
X400530Y352988D01*
X398046Y352988D01*
X397967Y352986D01*
X397889Y352980D01*
X397811Y352970D01*
X397734Y352956D01*
X397657Y352938D01*
X397581Y352917D01*
X397507Y352891D01*
X397434Y352862D01*
X397363Y352829D01*
X397293Y352793D01*
X397225Y352753D01*
X397159Y352710D01*
X397096Y352663D01*
X397035Y352614D01*
X396977Y352561D01*
X396921Y352505D01*
X396868Y352447D01*
X396819Y352386D01*
X396772Y352323D01*
X396729Y352257D01*
X396689Y352189D01*
X396653Y352120D01*
X396620Y352048D01*
X396591Y351975D01*
X396565Y351901D01*
X396544Y351825D01*
X396526Y351748D01*
X396512Y351671D01*
X396502Y351593D01*
X396496Y351515D01*
X396494Y351436D01*
X396494Y349884D01*
X396494Y355243D02*
X402082Y357105D01*
X396494Y358968D01*
X397891Y358502D02*
X397891Y355708D01*
X396494Y362226D02*
X402082Y362226D01*
X402082Y360674D02*
X402082Y363778D01*
X396494Y365988D02*
X396494Y368472D01*
X396494Y365988D02*
X402082Y365988D01*
X402082Y368472D01*
X399598Y367851D02*
X399598Y365988D01*
X397270Y370483D02*
X396960Y370483D01*
X397270Y370483D02*
X397270Y370794D01*
X396960Y370794D01*
X396960Y370483D01*
X399443Y370483D02*
X399754Y370483D01*
X399754Y370794D01*
X399443Y370794D01*
X399443Y370483D01*
X402082Y374817D02*
X402080Y374890D01*
X402074Y374963D01*
X402065Y375036D01*
X402051Y375107D01*
X402034Y375179D01*
X402014Y375249D01*
X401989Y375318D01*
X401961Y375385D01*
X401930Y375451D01*
X401895Y375516D01*
X401857Y375578D01*
X401815Y375638D01*
X401771Y375696D01*
X401723Y375752D01*
X401673Y375805D01*
X401620Y375855D01*
X401564Y375903D01*
X401506Y375947D01*
X401446Y375989D01*
X401384Y376027D01*
X401319Y376062D01*
X401253Y376093D01*
X401186Y376121D01*
X401117Y376146D01*
X401047Y376166D01*
X400975Y376183D01*
X400904Y376197D01*
X400831Y376206D01*
X400758Y376212D01*
X400685Y376214D01*
X402082Y374817D02*
X402080Y374733D01*
X402074Y374650D01*
X402065Y374567D01*
X402051Y374485D01*
X402034Y374403D01*
X402012Y374322D01*
X401987Y374242D01*
X401959Y374164D01*
X401927Y374086D01*
X401891Y374011D01*
X401852Y373937D01*
X401809Y373865D01*
X401763Y373795D01*
X401714Y373728D01*
X401661Y373662D01*
X401606Y373600D01*
X401548Y373540D01*
X401487Y373482D01*
X401424Y373428D01*
X401358Y373376D01*
X401290Y373328D01*
X401219Y373283D01*
X401147Y373241D01*
X401072Y373203D01*
X400996Y373168D01*
X400919Y373137D01*
X400840Y373109D01*
X399599Y375748D02*
X399652Y375802D01*
X399709Y375853D01*
X399768Y375901D01*
X399829Y375946D01*
X399892Y375987D01*
X399958Y376026D01*
X400025Y376061D01*
X400094Y376093D01*
X400165Y376121D01*
X400236Y376145D01*
X400309Y376166D01*
X400383Y376183D01*
X400458Y376197D01*
X400533Y376206D01*
X400609Y376212D01*
X400685Y376214D01*
X399598Y375748D02*
X396494Y373110D01*
X396494Y376214D01*
X399288Y378596D02*
X399419Y378598D01*
X399549Y378603D01*
X399679Y378613D01*
X399809Y378626D01*
X399939Y378642D01*
X400068Y378662D01*
X400196Y378686D01*
X400323Y378714D01*
X400450Y378745D01*
X400576Y378780D01*
X400701Y378818D01*
X400825Y378860D01*
X400947Y378905D01*
X401068Y378954D01*
X401188Y379006D01*
X401306Y379062D01*
X401306Y379061D02*
X401366Y379084D01*
X401426Y379110D01*
X401483Y379139D01*
X401539Y379172D01*
X401593Y379208D01*
X401645Y379246D01*
X401695Y379288D01*
X401742Y379332D01*
X401787Y379379D01*
X401829Y379429D01*
X401868Y379480D01*
X401904Y379534D01*
X401937Y379590D01*
X401967Y379647D01*
X401994Y379706D01*
X402017Y379767D01*
X402037Y379828D01*
X402053Y379891D01*
X402066Y379955D01*
X402075Y380019D01*
X402080Y380083D01*
X402082Y380148D01*
X402080Y380213D01*
X402075Y380277D01*
X402066Y380341D01*
X402053Y380405D01*
X402037Y380468D01*
X402017Y380529D01*
X401994Y380590D01*
X401967Y380649D01*
X401937Y380706D01*
X401904Y380762D01*
X401868Y380816D01*
X401829Y380867D01*
X401787Y380917D01*
X401742Y380964D01*
X401695Y381008D01*
X401645Y381050D01*
X401593Y381088D01*
X401539Y381124D01*
X401483Y381157D01*
X401426Y381186D01*
X401366Y381212D01*
X401306Y381235D01*
X401188Y381291D01*
X401068Y381343D01*
X400947Y381392D01*
X400825Y381437D01*
X400701Y381479D01*
X400576Y381517D01*
X400450Y381552D01*
X400324Y381583D01*
X400196Y381611D01*
X400068Y381635D01*
X399939Y381655D01*
X399809Y381671D01*
X399679Y381684D01*
X399549Y381694D01*
X399419Y381699D01*
X399288Y381701D01*
X399288Y378596D02*
X399157Y378598D01*
X399027Y378603D01*
X398897Y378613D01*
X398767Y378626D01*
X398637Y378642D01*
X398508Y378662D01*
X398380Y378686D01*
X398253Y378714D01*
X398126Y378745D01*
X398000Y378780D01*
X397875Y378818D01*
X397751Y378860D01*
X397629Y378905D01*
X397508Y378954D01*
X397388Y379006D01*
X397270Y379062D01*
X397270Y379061D02*
X397210Y379084D01*
X397150Y379110D01*
X397093Y379139D01*
X397037Y379172D01*
X396983Y379208D01*
X396931Y379246D01*
X396881Y379288D01*
X396834Y379332D01*
X396789Y379379D01*
X396747Y379429D01*
X396708Y379480D01*
X396672Y379534D01*
X396639Y379590D01*
X396609Y379647D01*
X396582Y379706D01*
X396559Y379767D01*
X396539Y379828D01*
X396523Y379891D01*
X396510Y379955D01*
X396501Y380019D01*
X396496Y380083D01*
X396494Y380148D01*
X397270Y381235D02*
X397388Y381291D01*
X397508Y381343D01*
X397629Y381392D01*
X397751Y381437D01*
X397875Y381479D01*
X398000Y381517D01*
X398126Y381552D01*
X398252Y381583D01*
X398380Y381611D01*
X398508Y381635D01*
X398637Y381655D01*
X398767Y381671D01*
X398897Y381684D01*
X399027Y381694D01*
X399157Y381699D01*
X399288Y381701D01*
X397270Y381235D02*
X397210Y381212D01*
X397150Y381186D01*
X397093Y381157D01*
X397037Y381124D01*
X396983Y381088D01*
X396931Y381050D01*
X396881Y381008D01*
X396834Y380964D01*
X396789Y380917D01*
X396747Y380867D01*
X396708Y380816D01*
X396672Y380762D01*
X396639Y380706D01*
X396609Y380649D01*
X396582Y380590D01*
X396559Y380529D01*
X396539Y380468D01*
X396523Y380405D01*
X396510Y380341D01*
X396501Y380277D01*
X396496Y380213D01*
X396494Y380148D01*
X397736Y378906D02*
X400840Y381390D01*
X402082Y385790D02*
X402080Y385863D01*
X402074Y385936D01*
X402065Y386009D01*
X402051Y386080D01*
X402034Y386152D01*
X402014Y386222D01*
X401989Y386291D01*
X401961Y386358D01*
X401930Y386424D01*
X401895Y386489D01*
X401857Y386551D01*
X401815Y386611D01*
X401771Y386669D01*
X401723Y386725D01*
X401673Y386778D01*
X401620Y386828D01*
X401564Y386876D01*
X401506Y386920D01*
X401446Y386962D01*
X401384Y387000D01*
X401319Y387035D01*
X401253Y387066D01*
X401186Y387094D01*
X401117Y387119D01*
X401047Y387139D01*
X400975Y387156D01*
X400904Y387170D01*
X400831Y387179D01*
X400758Y387185D01*
X400685Y387187D01*
X402082Y385790D02*
X402080Y385706D01*
X402074Y385623D01*
X402065Y385540D01*
X402051Y385458D01*
X402034Y385376D01*
X402012Y385295D01*
X401987Y385215D01*
X401959Y385137D01*
X401927Y385059D01*
X401891Y384984D01*
X401852Y384910D01*
X401809Y384838D01*
X401763Y384768D01*
X401714Y384701D01*
X401661Y384635D01*
X401606Y384573D01*
X401548Y384513D01*
X401487Y384455D01*
X401424Y384401D01*
X401358Y384349D01*
X401290Y384301D01*
X401219Y384256D01*
X401147Y384214D01*
X401072Y384176D01*
X400996Y384141D01*
X400919Y384110D01*
X400840Y384082D01*
X399599Y386720D02*
X399652Y386774D01*
X399709Y386825D01*
X399768Y386873D01*
X399829Y386918D01*
X399892Y386959D01*
X399958Y386998D01*
X400025Y387033D01*
X400094Y387065D01*
X400165Y387093D01*
X400236Y387117D01*
X400309Y387138D01*
X400383Y387155D01*
X400458Y387169D01*
X400533Y387178D01*
X400609Y387184D01*
X400685Y387186D01*
X399598Y386721D02*
X396494Y384082D01*
X396494Y387187D01*
X396494Y389569D02*
X396494Y391431D01*
X396496Y391501D01*
X396502Y391570D01*
X396512Y391639D01*
X396525Y391707D01*
X396543Y391775D01*
X396564Y391841D01*
X396589Y391906D01*
X396617Y391970D01*
X396649Y392032D01*
X396684Y392092D01*
X396723Y392150D01*
X396765Y392205D01*
X396810Y392259D01*
X396858Y392309D01*
X396908Y392357D01*
X396962Y392402D01*
X397017Y392444D01*
X397075Y392483D01*
X397135Y392518D01*
X397197Y392550D01*
X397261Y392578D01*
X397326Y392603D01*
X397392Y392624D01*
X397460Y392642D01*
X397528Y392655D01*
X397597Y392665D01*
X397666Y392671D01*
X397736Y392673D01*
X398357Y392673D01*
X398427Y392671D01*
X398496Y392665D01*
X398565Y392655D01*
X398633Y392642D01*
X398701Y392624D01*
X398767Y392603D01*
X398832Y392578D01*
X398896Y392550D01*
X398958Y392518D01*
X399018Y392483D01*
X399076Y392444D01*
X399131Y392402D01*
X399185Y392357D01*
X399235Y392309D01*
X399283Y392259D01*
X399328Y392205D01*
X399370Y392150D01*
X399409Y392092D01*
X399444Y392032D01*
X399476Y391970D01*
X399504Y391906D01*
X399529Y391841D01*
X399550Y391775D01*
X399568Y391707D01*
X399581Y391639D01*
X399591Y391570D01*
X399597Y391501D01*
X399599Y391431D01*
X399598Y391431D02*
X399598Y389569D01*
X402082Y389569D01*
X402082Y392673D01*
X402703Y397300D02*
X395873Y394817D01*
X399288Y399444D02*
X399419Y399446D01*
X399549Y399451D01*
X399679Y399461D01*
X399809Y399474D01*
X399939Y399490D01*
X400068Y399510D01*
X400196Y399534D01*
X400323Y399562D01*
X400450Y399593D01*
X400576Y399628D01*
X400701Y399666D01*
X400825Y399708D01*
X400947Y399753D01*
X401068Y399802D01*
X401188Y399854D01*
X401306Y399910D01*
X401306Y399909D02*
X401366Y399932D01*
X401426Y399958D01*
X401483Y399987D01*
X401539Y400020D01*
X401593Y400056D01*
X401645Y400094D01*
X401695Y400136D01*
X401742Y400180D01*
X401787Y400227D01*
X401829Y400277D01*
X401868Y400328D01*
X401904Y400382D01*
X401937Y400438D01*
X401967Y400495D01*
X401994Y400554D01*
X402017Y400615D01*
X402037Y400676D01*
X402053Y400739D01*
X402066Y400803D01*
X402075Y400867D01*
X402080Y400931D01*
X402082Y400996D01*
X402080Y401061D01*
X402075Y401125D01*
X402066Y401189D01*
X402053Y401253D01*
X402037Y401316D01*
X402017Y401377D01*
X401994Y401438D01*
X401967Y401497D01*
X401937Y401554D01*
X401904Y401610D01*
X401868Y401664D01*
X401829Y401715D01*
X401787Y401765D01*
X401742Y401812D01*
X401695Y401856D01*
X401645Y401898D01*
X401593Y401936D01*
X401539Y401972D01*
X401483Y402005D01*
X401426Y402034D01*
X401366Y402060D01*
X401306Y402083D01*
X401188Y402139D01*
X401068Y402191D01*
X400947Y402240D01*
X400825Y402285D01*
X400701Y402327D01*
X400576Y402365D01*
X400450Y402400D01*
X400324Y402431D01*
X400196Y402459D01*
X400068Y402483D01*
X399939Y402503D01*
X399809Y402519D01*
X399679Y402532D01*
X399549Y402542D01*
X399419Y402547D01*
X399288Y402549D01*
X399288Y399444D02*
X399157Y399446D01*
X399027Y399451D01*
X398897Y399461D01*
X398767Y399474D01*
X398637Y399490D01*
X398508Y399510D01*
X398380Y399534D01*
X398253Y399562D01*
X398126Y399593D01*
X398000Y399628D01*
X397875Y399666D01*
X397751Y399708D01*
X397629Y399753D01*
X397508Y399802D01*
X397388Y399854D01*
X397270Y399910D01*
X397270Y399909D02*
X397210Y399932D01*
X397150Y399958D01*
X397093Y399987D01*
X397037Y400020D01*
X396983Y400056D01*
X396931Y400094D01*
X396881Y400136D01*
X396834Y400180D01*
X396789Y400227D01*
X396747Y400277D01*
X396708Y400328D01*
X396672Y400382D01*
X396639Y400438D01*
X396609Y400495D01*
X396582Y400554D01*
X396559Y400615D01*
X396539Y400676D01*
X396523Y400739D01*
X396510Y400803D01*
X396501Y400867D01*
X396496Y400931D01*
X396494Y400996D01*
X397270Y402083D02*
X397388Y402139D01*
X397508Y402191D01*
X397629Y402240D01*
X397751Y402285D01*
X397875Y402327D01*
X398000Y402365D01*
X398126Y402400D01*
X398252Y402431D01*
X398380Y402459D01*
X398508Y402483D01*
X398637Y402503D01*
X398767Y402519D01*
X398897Y402532D01*
X399027Y402542D01*
X399157Y402547D01*
X399288Y402549D01*
X397270Y402083D02*
X397210Y402060D01*
X397150Y402034D01*
X397093Y402005D01*
X397037Y401972D01*
X396983Y401936D01*
X396931Y401898D01*
X396881Y401856D01*
X396834Y401812D01*
X396789Y401765D01*
X396747Y401715D01*
X396708Y401664D01*
X396672Y401610D01*
X396639Y401554D01*
X396609Y401497D01*
X396582Y401438D01*
X396559Y401377D01*
X396539Y401316D01*
X396523Y401253D01*
X396510Y401189D01*
X396501Y401125D01*
X396496Y401061D01*
X396494Y400996D01*
X397736Y399755D02*
X400840Y402238D01*
X402082Y406638D02*
X402080Y406711D01*
X402074Y406784D01*
X402065Y406857D01*
X402051Y406928D01*
X402034Y407000D01*
X402014Y407070D01*
X401989Y407139D01*
X401961Y407206D01*
X401930Y407272D01*
X401895Y407337D01*
X401857Y407399D01*
X401815Y407459D01*
X401771Y407517D01*
X401723Y407573D01*
X401673Y407626D01*
X401620Y407676D01*
X401564Y407724D01*
X401506Y407768D01*
X401446Y407810D01*
X401384Y407848D01*
X401319Y407883D01*
X401253Y407914D01*
X401186Y407942D01*
X401117Y407967D01*
X401047Y407987D01*
X400975Y408004D01*
X400904Y408018D01*
X400831Y408027D01*
X400758Y408033D01*
X400685Y408035D01*
X402082Y406638D02*
X402080Y406554D01*
X402074Y406471D01*
X402065Y406388D01*
X402051Y406306D01*
X402034Y406224D01*
X402012Y406143D01*
X401987Y406063D01*
X401959Y405985D01*
X401927Y405907D01*
X401891Y405832D01*
X401852Y405758D01*
X401809Y405686D01*
X401763Y405616D01*
X401714Y405549D01*
X401661Y405483D01*
X401606Y405421D01*
X401548Y405361D01*
X401487Y405303D01*
X401424Y405249D01*
X401358Y405197D01*
X401290Y405149D01*
X401219Y405104D01*
X401147Y405062D01*
X401072Y405024D01*
X400996Y404989D01*
X400919Y404958D01*
X400840Y404930D01*
X399599Y407569D02*
X399652Y407623D01*
X399709Y407674D01*
X399768Y407722D01*
X399829Y407767D01*
X399892Y407808D01*
X399958Y407847D01*
X400025Y407882D01*
X400094Y407914D01*
X400165Y407942D01*
X400236Y407966D01*
X400309Y407987D01*
X400383Y408004D01*
X400458Y408018D01*
X400533Y408027D01*
X400609Y408033D01*
X400685Y408035D01*
X399598Y407569D02*
X396494Y404931D01*
X396494Y408035D01*
X395873Y410179D02*
X402703Y412662D01*
X400840Y414806D02*
X402082Y416358D01*
X396494Y416358D01*
X396494Y414806D02*
X396494Y417911D01*
X398978Y421534D02*
X398978Y423397D01*
X398977Y421534D02*
X398979Y421464D01*
X398985Y421395D01*
X398995Y421326D01*
X399008Y421258D01*
X399026Y421190D01*
X399047Y421124D01*
X399072Y421059D01*
X399100Y420995D01*
X399132Y420933D01*
X399167Y420873D01*
X399206Y420815D01*
X399248Y420760D01*
X399293Y420706D01*
X399341Y420656D01*
X399391Y420608D01*
X399445Y420563D01*
X399500Y420521D01*
X399558Y420482D01*
X399618Y420447D01*
X399680Y420415D01*
X399744Y420387D01*
X399809Y420362D01*
X399875Y420341D01*
X399943Y420323D01*
X400011Y420310D01*
X400080Y420300D01*
X400149Y420294D01*
X400219Y420292D01*
X400530Y420292D01*
X400530Y420293D02*
X400607Y420295D01*
X400685Y420301D01*
X400761Y420310D01*
X400838Y420324D01*
X400913Y420341D01*
X400987Y420362D01*
X401061Y420387D01*
X401133Y420415D01*
X401203Y420447D01*
X401272Y420482D01*
X401339Y420521D01*
X401404Y420563D01*
X401467Y420608D01*
X401528Y420656D01*
X401586Y420707D01*
X401641Y420761D01*
X401694Y420818D01*
X401743Y420877D01*
X401790Y420939D01*
X401834Y421003D01*
X401874Y421069D01*
X401911Y421137D01*
X401945Y421207D01*
X401975Y421278D01*
X402001Y421351D01*
X402024Y421425D01*
X402043Y421500D01*
X402058Y421575D01*
X402070Y421652D01*
X402078Y421729D01*
X402082Y421806D01*
X402082Y421884D01*
X402078Y421961D01*
X402070Y422038D01*
X402058Y422115D01*
X402043Y422190D01*
X402024Y422265D01*
X402001Y422339D01*
X401975Y422412D01*
X401945Y422483D01*
X401911Y422553D01*
X401874Y422621D01*
X401834Y422687D01*
X401790Y422751D01*
X401743Y422813D01*
X401694Y422872D01*
X401641Y422929D01*
X401586Y422983D01*
X401528Y423034D01*
X401467Y423082D01*
X401404Y423127D01*
X401339Y423169D01*
X401272Y423208D01*
X401203Y423243D01*
X401133Y423275D01*
X401061Y423303D01*
X400987Y423328D01*
X400913Y423349D01*
X400838Y423366D01*
X400761Y423380D01*
X400685Y423389D01*
X400607Y423395D01*
X400530Y423397D01*
X398978Y423397D01*
X398880Y423395D01*
X398783Y423389D01*
X398686Y423380D01*
X398589Y423366D01*
X398493Y423349D01*
X398398Y423328D01*
X398304Y423304D01*
X398210Y423275D01*
X398118Y423243D01*
X398027Y423208D01*
X397938Y423169D01*
X397850Y423126D01*
X397764Y423080D01*
X397680Y423031D01*
X397598Y422978D01*
X397518Y422923D01*
X397440Y422864D01*
X397365Y422802D01*
X397292Y422737D01*
X397222Y422669D01*
X397154Y422599D01*
X397089Y422526D01*
X397027Y422451D01*
X396968Y422373D01*
X396913Y422293D01*
X396860Y422211D01*
X396811Y422127D01*
X396765Y422041D01*
X396722Y421953D01*
X396683Y421864D01*
X396648Y421773D01*
X396616Y421681D01*
X396587Y421587D01*
X396563Y421493D01*
X396542Y421398D01*
X396525Y421302D01*
X396511Y421205D01*
X396502Y421108D01*
X396496Y421011D01*
X396494Y420913D01*
X72410Y421324D02*
X72410Y415736D01*
X72410Y421324D02*
X70858Y421324D01*
X70781Y421322D01*
X70703Y421316D01*
X70627Y421307D01*
X70550Y421293D01*
X70475Y421276D01*
X70401Y421255D01*
X70327Y421230D01*
X70255Y421202D01*
X70185Y421170D01*
X70116Y421135D01*
X70049Y421096D01*
X69984Y421054D01*
X69921Y421009D01*
X69860Y420961D01*
X69802Y420910D01*
X69747Y420856D01*
X69694Y420799D01*
X69645Y420740D01*
X69598Y420678D01*
X69554Y420614D01*
X69514Y420548D01*
X69477Y420480D01*
X69443Y420410D01*
X69413Y420339D01*
X69387Y420266D01*
X69364Y420192D01*
X69345Y420117D01*
X69330Y420042D01*
X69318Y419965D01*
X69310Y419888D01*
X69306Y419811D01*
X69306Y419733D01*
X69310Y419656D01*
X69318Y419579D01*
X69330Y419502D01*
X69345Y419427D01*
X69364Y419352D01*
X69387Y419278D01*
X69413Y419205D01*
X69443Y419134D01*
X69477Y419064D01*
X69514Y418996D01*
X69554Y418930D01*
X69598Y418866D01*
X69645Y418804D01*
X69694Y418745D01*
X69747Y418688D01*
X69802Y418634D01*
X69860Y418583D01*
X69921Y418535D01*
X69984Y418490D01*
X70049Y418448D01*
X70116Y418409D01*
X70185Y418374D01*
X70255Y418342D01*
X70327Y418314D01*
X70401Y418289D01*
X70475Y418268D01*
X70550Y418251D01*
X70627Y418237D01*
X70703Y418228D01*
X70781Y418222D01*
X70858Y418220D01*
X72410Y418220D01*
X66971Y415736D02*
X66971Y421324D01*
X65419Y421324D01*
X65342Y421322D01*
X65264Y421316D01*
X65188Y421307D01*
X65111Y421293D01*
X65036Y421276D01*
X64962Y421255D01*
X64888Y421230D01*
X64816Y421202D01*
X64746Y421170D01*
X64677Y421135D01*
X64610Y421096D01*
X64545Y421054D01*
X64482Y421009D01*
X64421Y420961D01*
X64363Y420910D01*
X64308Y420856D01*
X64255Y420799D01*
X64206Y420740D01*
X64159Y420678D01*
X64115Y420614D01*
X64075Y420548D01*
X64038Y420480D01*
X64004Y420410D01*
X63974Y420339D01*
X63948Y420266D01*
X63925Y420192D01*
X63906Y420117D01*
X63891Y420042D01*
X63879Y419965D01*
X63871Y419888D01*
X63867Y419811D01*
X63867Y419733D01*
X63871Y419656D01*
X63879Y419579D01*
X63891Y419502D01*
X63906Y419427D01*
X63925Y419352D01*
X63948Y419278D01*
X63974Y419205D01*
X64004Y419134D01*
X64038Y419064D01*
X64075Y418996D01*
X64115Y418930D01*
X64159Y418866D01*
X64206Y418804D01*
X64255Y418745D01*
X64308Y418688D01*
X64363Y418634D01*
X64421Y418583D01*
X64482Y418535D01*
X64545Y418490D01*
X64610Y418448D01*
X64677Y418409D01*
X64746Y418374D01*
X64816Y418342D01*
X64888Y418314D01*
X64962Y418289D01*
X65036Y418268D01*
X65111Y418251D01*
X65188Y418237D01*
X65264Y418228D01*
X65342Y418222D01*
X65419Y418220D01*
X66971Y418220D01*
X65108Y418220D02*
X63866Y415736D01*
X61520Y417288D02*
X61520Y419772D01*
X61518Y419849D01*
X61512Y419927D01*
X61503Y420003D01*
X61489Y420080D01*
X61472Y420155D01*
X61451Y420229D01*
X61426Y420303D01*
X61398Y420375D01*
X61366Y420445D01*
X61331Y420514D01*
X61292Y420581D01*
X61250Y420646D01*
X61205Y420709D01*
X61157Y420770D01*
X61106Y420828D01*
X61052Y420883D01*
X60995Y420936D01*
X60936Y420985D01*
X60874Y421032D01*
X60810Y421076D01*
X60744Y421116D01*
X60676Y421153D01*
X60606Y421187D01*
X60535Y421217D01*
X60462Y421243D01*
X60388Y421266D01*
X60313Y421285D01*
X60238Y421300D01*
X60161Y421312D01*
X60084Y421320D01*
X60007Y421324D01*
X59929Y421324D01*
X59852Y421320D01*
X59775Y421312D01*
X59698Y421300D01*
X59623Y421285D01*
X59548Y421266D01*
X59474Y421243D01*
X59401Y421217D01*
X59330Y421187D01*
X59260Y421153D01*
X59192Y421116D01*
X59126Y421076D01*
X59062Y421032D01*
X59000Y420985D01*
X58941Y420936D01*
X58884Y420883D01*
X58830Y420828D01*
X58779Y420770D01*
X58731Y420709D01*
X58686Y420646D01*
X58644Y420581D01*
X58605Y420514D01*
X58570Y420445D01*
X58538Y420375D01*
X58510Y420303D01*
X58485Y420229D01*
X58464Y420155D01*
X58447Y420080D01*
X58433Y420003D01*
X58424Y419927D01*
X58418Y419849D01*
X58416Y419772D01*
X58416Y417288D01*
X58418Y417211D01*
X58424Y417133D01*
X58433Y417057D01*
X58447Y416980D01*
X58464Y416905D01*
X58485Y416831D01*
X58510Y416757D01*
X58538Y416685D01*
X58570Y416615D01*
X58605Y416546D01*
X58644Y416479D01*
X58686Y416414D01*
X58731Y416351D01*
X58779Y416290D01*
X58830Y416232D01*
X58884Y416177D01*
X58941Y416124D01*
X59000Y416075D01*
X59062Y416028D01*
X59126Y415984D01*
X59192Y415944D01*
X59260Y415907D01*
X59330Y415873D01*
X59401Y415843D01*
X59474Y415817D01*
X59548Y415794D01*
X59623Y415775D01*
X59698Y415760D01*
X59775Y415748D01*
X59852Y415740D01*
X59929Y415736D01*
X60007Y415736D01*
X60084Y415740D01*
X60161Y415748D01*
X60238Y415760D01*
X60313Y415775D01*
X60388Y415794D01*
X60462Y415817D01*
X60535Y415843D01*
X60606Y415873D01*
X60676Y415907D01*
X60744Y415944D01*
X60810Y415984D01*
X60874Y416028D01*
X60936Y416075D01*
X60995Y416124D01*
X61052Y416177D01*
X61106Y416232D01*
X61157Y416290D01*
X61205Y416351D01*
X61250Y416414D01*
X61292Y416479D01*
X61331Y416546D01*
X61366Y416615D01*
X61398Y416685D01*
X61426Y416757D01*
X61451Y416831D01*
X61472Y416905D01*
X61489Y416980D01*
X61503Y417057D01*
X61512Y417133D01*
X61518Y417211D01*
X61520Y417288D01*
X56345Y421324D02*
X54482Y415736D01*
X52619Y421324D01*
X50093Y421324D02*
X50093Y415736D01*
X50714Y415736D02*
X49472Y415736D01*
X49472Y421324D02*
X50714Y421324D01*
X45576Y415736D02*
X45506Y415738D01*
X45437Y415744D01*
X45368Y415754D01*
X45300Y415767D01*
X45232Y415785D01*
X45166Y415806D01*
X45101Y415831D01*
X45037Y415859D01*
X44975Y415891D01*
X44915Y415926D01*
X44857Y415965D01*
X44802Y416007D01*
X44748Y416052D01*
X44698Y416100D01*
X44650Y416150D01*
X44605Y416204D01*
X44563Y416259D01*
X44524Y416317D01*
X44489Y416377D01*
X44457Y416439D01*
X44429Y416503D01*
X44404Y416568D01*
X44383Y416634D01*
X44365Y416702D01*
X44352Y416770D01*
X44342Y416839D01*
X44336Y416908D01*
X44334Y416978D01*
X45576Y415736D02*
X45675Y415738D01*
X45773Y415743D01*
X45871Y415753D01*
X45969Y415766D01*
X46066Y415782D01*
X46163Y415802D01*
X46258Y415826D01*
X46353Y415854D01*
X46447Y415885D01*
X46539Y415919D01*
X46630Y415957D01*
X46720Y415998D01*
X46808Y416043D01*
X46894Y416091D01*
X46978Y416142D01*
X47060Y416196D01*
X47141Y416254D01*
X47219Y416314D01*
X47294Y416377D01*
X47368Y416443D01*
X47438Y416512D01*
X47284Y420082D02*
X47282Y420152D01*
X47276Y420221D01*
X47266Y420290D01*
X47253Y420358D01*
X47235Y420426D01*
X47214Y420492D01*
X47189Y420557D01*
X47161Y420621D01*
X47129Y420683D01*
X47094Y420743D01*
X47055Y420801D01*
X47013Y420856D01*
X46968Y420910D01*
X46920Y420960D01*
X46870Y421008D01*
X46816Y421053D01*
X46761Y421095D01*
X46703Y421134D01*
X46643Y421169D01*
X46581Y421201D01*
X46517Y421229D01*
X46452Y421254D01*
X46386Y421275D01*
X46318Y421293D01*
X46250Y421306D01*
X46181Y421316D01*
X46112Y421322D01*
X46042Y421324D01*
X45948Y421322D01*
X45855Y421316D01*
X45762Y421307D01*
X45669Y421294D01*
X45577Y421277D01*
X45486Y421257D01*
X45395Y421232D01*
X45306Y421205D01*
X45218Y421173D01*
X45131Y421138D01*
X45045Y421100D01*
X44962Y421058D01*
X44879Y421013D01*
X44799Y420965D01*
X44721Y420913D01*
X44645Y420858D01*
X46662Y418996D02*
X46721Y419032D01*
X46777Y419072D01*
X46831Y419115D01*
X46883Y419160D01*
X46932Y419209D01*
X46978Y419260D01*
X47021Y419313D01*
X47062Y419369D01*
X47099Y419427D01*
X47134Y419487D01*
X47164Y419548D01*
X47192Y419611D01*
X47216Y419676D01*
X47236Y419742D01*
X47253Y419809D01*
X47266Y419876D01*
X47275Y419944D01*
X47281Y420013D01*
X47283Y420082D01*
X44956Y418064D02*
X44897Y418028D01*
X44841Y417988D01*
X44787Y417945D01*
X44735Y417900D01*
X44686Y417851D01*
X44640Y417800D01*
X44597Y417747D01*
X44556Y417691D01*
X44519Y417633D01*
X44484Y417574D01*
X44454Y417512D01*
X44426Y417449D01*
X44402Y417384D01*
X44382Y417318D01*
X44365Y417251D01*
X44352Y417184D01*
X44343Y417116D01*
X44337Y417047D01*
X44335Y416978D01*
X44955Y418064D02*
X46663Y418996D01*
X41680Y421324D02*
X41680Y415736D01*
X42301Y415736D02*
X41059Y415736D01*
X41059Y421324D02*
X42301Y421324D01*
X38843Y419772D02*
X38843Y417288D01*
X38843Y419772D02*
X38841Y419849D01*
X38835Y419927D01*
X38826Y420003D01*
X38812Y420080D01*
X38795Y420155D01*
X38774Y420229D01*
X38749Y420303D01*
X38721Y420375D01*
X38689Y420445D01*
X38654Y420514D01*
X38615Y420581D01*
X38573Y420646D01*
X38528Y420709D01*
X38480Y420770D01*
X38429Y420828D01*
X38375Y420883D01*
X38318Y420936D01*
X38259Y420985D01*
X38197Y421032D01*
X38133Y421076D01*
X38067Y421116D01*
X37999Y421153D01*
X37929Y421187D01*
X37858Y421217D01*
X37785Y421243D01*
X37711Y421266D01*
X37636Y421285D01*
X37561Y421300D01*
X37484Y421312D01*
X37407Y421320D01*
X37330Y421324D01*
X37252Y421324D01*
X37175Y421320D01*
X37098Y421312D01*
X37021Y421300D01*
X36946Y421285D01*
X36871Y421266D01*
X36797Y421243D01*
X36724Y421217D01*
X36653Y421187D01*
X36583Y421153D01*
X36515Y421116D01*
X36449Y421076D01*
X36385Y421032D01*
X36323Y420985D01*
X36264Y420936D01*
X36207Y420883D01*
X36153Y420828D01*
X36102Y420770D01*
X36054Y420709D01*
X36009Y420646D01*
X35967Y420581D01*
X35928Y420514D01*
X35893Y420445D01*
X35861Y420375D01*
X35833Y420303D01*
X35808Y420229D01*
X35787Y420155D01*
X35770Y420080D01*
X35756Y420003D01*
X35747Y419927D01*
X35741Y419849D01*
X35739Y419772D01*
X35739Y417288D01*
X35741Y417211D01*
X35747Y417133D01*
X35756Y417057D01*
X35770Y416980D01*
X35787Y416905D01*
X35808Y416831D01*
X35833Y416757D01*
X35861Y416685D01*
X35893Y416615D01*
X35928Y416546D01*
X35967Y416479D01*
X36009Y416414D01*
X36054Y416351D01*
X36102Y416290D01*
X36153Y416232D01*
X36207Y416177D01*
X36264Y416124D01*
X36323Y416075D01*
X36385Y416028D01*
X36449Y415984D01*
X36515Y415944D01*
X36583Y415907D01*
X36653Y415873D01*
X36724Y415843D01*
X36797Y415817D01*
X36871Y415794D01*
X36946Y415775D01*
X37021Y415760D01*
X37098Y415748D01*
X37175Y415740D01*
X37252Y415736D01*
X37330Y415736D01*
X37407Y415740D01*
X37484Y415748D01*
X37561Y415760D01*
X37636Y415775D01*
X37711Y415794D01*
X37785Y415817D01*
X37858Y415843D01*
X37929Y415873D01*
X37999Y415907D01*
X38067Y415944D01*
X38133Y415984D01*
X38197Y416028D01*
X38259Y416075D01*
X38318Y416124D01*
X38375Y416177D01*
X38429Y416232D01*
X38480Y416290D01*
X38528Y416351D01*
X38573Y416414D01*
X38615Y416479D01*
X38654Y416546D01*
X38689Y416615D01*
X38721Y416685D01*
X38749Y416757D01*
X38774Y416831D01*
X38795Y416905D01*
X38812Y416980D01*
X38826Y417057D01*
X38835Y417133D01*
X38841Y417211D01*
X38843Y417288D01*
X33174Y415736D02*
X33174Y421324D01*
X30070Y415736D01*
X30070Y421324D01*
D11*
X306750Y146000D02*
X499850Y146000D01*
X306750Y146000D02*
X306750Y326000D01*
X499850Y326000D01*
X499850Y146000D01*
X561750Y146000D01*
X561750Y326000D01*
X499850Y326000D01*
D10*
X289126Y197643D02*
X289126Y195159D01*
X294714Y195159D01*
X294714Y197643D01*
X292230Y197022D02*
X292230Y195159D01*
X289126Y201400D02*
X289128Y201470D01*
X289134Y201539D01*
X289144Y201608D01*
X289157Y201676D01*
X289175Y201744D01*
X289196Y201810D01*
X289221Y201875D01*
X289249Y201939D01*
X289281Y202001D01*
X289316Y202061D01*
X289355Y202119D01*
X289397Y202174D01*
X289442Y202228D01*
X289490Y202278D01*
X289540Y202326D01*
X289594Y202371D01*
X289649Y202413D01*
X289707Y202452D01*
X289767Y202487D01*
X289829Y202519D01*
X289893Y202547D01*
X289958Y202572D01*
X290024Y202593D01*
X290092Y202611D01*
X290160Y202624D01*
X290229Y202634D01*
X290298Y202640D01*
X290368Y202642D01*
X289126Y201400D02*
X289128Y201301D01*
X289133Y201203D01*
X289143Y201105D01*
X289156Y201007D01*
X289172Y200910D01*
X289192Y200813D01*
X289216Y200718D01*
X289244Y200623D01*
X289275Y200529D01*
X289309Y200437D01*
X289347Y200346D01*
X289388Y200256D01*
X289433Y200168D01*
X289481Y200082D01*
X289532Y199998D01*
X289586Y199916D01*
X289644Y199835D01*
X289704Y199757D01*
X289767Y199682D01*
X289833Y199608D01*
X289902Y199538D01*
X293472Y199692D02*
X293542Y199694D01*
X293611Y199700D01*
X293680Y199710D01*
X293748Y199723D01*
X293816Y199741D01*
X293882Y199762D01*
X293947Y199787D01*
X294011Y199815D01*
X294073Y199847D01*
X294133Y199882D01*
X294191Y199921D01*
X294246Y199963D01*
X294300Y200008D01*
X294350Y200056D01*
X294398Y200106D01*
X294443Y200160D01*
X294485Y200215D01*
X294524Y200273D01*
X294559Y200333D01*
X294591Y200395D01*
X294619Y200459D01*
X294644Y200524D01*
X294665Y200590D01*
X294683Y200658D01*
X294696Y200726D01*
X294706Y200795D01*
X294712Y200864D01*
X294714Y200934D01*
X294712Y201028D01*
X294706Y201121D01*
X294697Y201214D01*
X294684Y201307D01*
X294667Y201399D01*
X294647Y201490D01*
X294622Y201581D01*
X294595Y201670D01*
X294563Y201758D01*
X294528Y201845D01*
X294490Y201931D01*
X294448Y202014D01*
X294403Y202096D01*
X294355Y202177D01*
X294303Y202255D01*
X294248Y202331D01*
X292386Y200314D02*
X292422Y200255D01*
X292462Y200199D01*
X292505Y200145D01*
X292550Y200093D01*
X292599Y200044D01*
X292650Y199998D01*
X292703Y199955D01*
X292759Y199914D01*
X292817Y199877D01*
X292877Y199842D01*
X292938Y199812D01*
X293001Y199784D01*
X293066Y199760D01*
X293132Y199740D01*
X293199Y199723D01*
X293266Y199710D01*
X293334Y199701D01*
X293403Y199695D01*
X293472Y199693D01*
X291454Y202020D02*
X291418Y202079D01*
X291378Y202135D01*
X291335Y202189D01*
X291290Y202241D01*
X291241Y202290D01*
X291190Y202336D01*
X291137Y202379D01*
X291081Y202420D01*
X291023Y202457D01*
X290963Y202492D01*
X290902Y202522D01*
X290839Y202550D01*
X290774Y202574D01*
X290708Y202594D01*
X290641Y202611D01*
X290574Y202624D01*
X290506Y202633D01*
X290437Y202639D01*
X290368Y202641D01*
X291454Y202021D02*
X292386Y200313D01*
X294714Y205107D02*
X289126Y205107D01*
X294714Y205107D02*
X294714Y206659D01*
X294712Y206736D01*
X294706Y206814D01*
X294697Y206890D01*
X294683Y206967D01*
X294666Y207042D01*
X294645Y207116D01*
X294620Y207190D01*
X294592Y207262D01*
X294560Y207332D01*
X294525Y207401D01*
X294486Y207468D01*
X294444Y207533D01*
X294399Y207596D01*
X294351Y207657D01*
X294300Y207715D01*
X294246Y207770D01*
X294189Y207823D01*
X294130Y207872D01*
X294068Y207919D01*
X294004Y207963D01*
X293938Y208003D01*
X293870Y208040D01*
X293800Y208074D01*
X293729Y208104D01*
X293656Y208130D01*
X293582Y208153D01*
X293507Y208172D01*
X293432Y208187D01*
X293355Y208199D01*
X293278Y208207D01*
X293201Y208211D01*
X293123Y208211D01*
X293046Y208207D01*
X292969Y208199D01*
X292892Y208187D01*
X292817Y208172D01*
X292742Y208153D01*
X292668Y208130D01*
X292595Y208104D01*
X292524Y208074D01*
X292454Y208040D01*
X292386Y208003D01*
X292320Y207963D01*
X292256Y207919D01*
X292194Y207872D01*
X292135Y207823D01*
X292078Y207770D01*
X292024Y207715D01*
X291973Y207657D01*
X291925Y207596D01*
X291880Y207533D01*
X291838Y207468D01*
X291799Y207401D01*
X291764Y207332D01*
X291732Y207262D01*
X291704Y207190D01*
X291679Y207116D01*
X291658Y207042D01*
X291641Y206967D01*
X291627Y206890D01*
X291618Y206814D01*
X291612Y206736D01*
X291610Y206659D01*
X291610Y205107D01*
X289126Y210327D02*
X289126Y211879D01*
X289128Y211956D01*
X289134Y212034D01*
X289143Y212110D01*
X289157Y212187D01*
X289174Y212262D01*
X289195Y212336D01*
X289220Y212410D01*
X289248Y212482D01*
X289280Y212552D01*
X289315Y212621D01*
X289354Y212688D01*
X289396Y212753D01*
X289441Y212816D01*
X289489Y212877D01*
X289540Y212935D01*
X289594Y212990D01*
X289651Y213043D01*
X289710Y213092D01*
X289772Y213139D01*
X289836Y213183D01*
X289902Y213223D01*
X289970Y213260D01*
X290040Y213294D01*
X290111Y213324D01*
X290184Y213350D01*
X290258Y213373D01*
X290333Y213392D01*
X290408Y213407D01*
X290485Y213419D01*
X290562Y213427D01*
X290639Y213431D01*
X290717Y213431D01*
X290794Y213427D01*
X290871Y213419D01*
X290948Y213407D01*
X291023Y213392D01*
X291098Y213373D01*
X291172Y213350D01*
X291245Y213324D01*
X291316Y213294D01*
X291386Y213260D01*
X291454Y213223D01*
X291520Y213183D01*
X291584Y213139D01*
X291646Y213092D01*
X291705Y213043D01*
X291762Y212990D01*
X291816Y212935D01*
X291867Y212877D01*
X291915Y212816D01*
X291960Y212753D01*
X292002Y212688D01*
X292041Y212621D01*
X292076Y212552D01*
X292108Y212482D01*
X292136Y212410D01*
X292161Y212336D01*
X292182Y212262D01*
X292199Y212187D01*
X292213Y212110D01*
X292222Y212034D01*
X292228Y211956D01*
X292230Y211879D01*
X294714Y212190D02*
X294714Y210327D01*
X294714Y212190D02*
X294712Y212260D01*
X294706Y212329D01*
X294696Y212398D01*
X294683Y212466D01*
X294665Y212534D01*
X294644Y212600D01*
X294619Y212665D01*
X294591Y212729D01*
X294559Y212791D01*
X294524Y212851D01*
X294485Y212909D01*
X294443Y212964D01*
X294398Y213018D01*
X294350Y213068D01*
X294300Y213116D01*
X294246Y213161D01*
X294191Y213203D01*
X294133Y213242D01*
X294073Y213277D01*
X294011Y213309D01*
X293947Y213337D01*
X293882Y213362D01*
X293816Y213383D01*
X293748Y213401D01*
X293680Y213414D01*
X293611Y213424D01*
X293542Y213430D01*
X293472Y213432D01*
X293402Y213430D01*
X293333Y213424D01*
X293264Y213414D01*
X293196Y213401D01*
X293128Y213383D01*
X293062Y213362D01*
X292997Y213337D01*
X292933Y213309D01*
X292871Y213277D01*
X292811Y213242D01*
X292753Y213203D01*
X292698Y213161D01*
X292644Y213116D01*
X292594Y213068D01*
X292546Y213018D01*
X292501Y212964D01*
X292459Y212909D01*
X292420Y212851D01*
X292385Y212791D01*
X292353Y212729D01*
X292325Y212665D01*
X292300Y212600D01*
X292279Y212534D01*
X292261Y212466D01*
X292248Y212398D01*
X292238Y212329D01*
X292232Y212260D01*
X292230Y212190D01*
X292230Y210948D01*
X294714Y217521D02*
X294712Y217594D01*
X294706Y217667D01*
X294697Y217740D01*
X294683Y217811D01*
X294666Y217883D01*
X294646Y217953D01*
X294621Y218022D01*
X294593Y218089D01*
X294562Y218155D01*
X294527Y218220D01*
X294489Y218282D01*
X294447Y218342D01*
X294403Y218400D01*
X294355Y218456D01*
X294305Y218509D01*
X294252Y218559D01*
X294196Y218607D01*
X294138Y218651D01*
X294078Y218693D01*
X294016Y218731D01*
X293951Y218766D01*
X293885Y218797D01*
X293818Y218825D01*
X293749Y218850D01*
X293679Y218870D01*
X293607Y218887D01*
X293536Y218901D01*
X293463Y218910D01*
X293390Y218916D01*
X293317Y218918D01*
X294714Y217521D02*
X294712Y217437D01*
X294706Y217354D01*
X294697Y217271D01*
X294683Y217189D01*
X294666Y217107D01*
X294644Y217026D01*
X294619Y216946D01*
X294591Y216868D01*
X294559Y216790D01*
X294523Y216715D01*
X294484Y216641D01*
X294441Y216569D01*
X294395Y216499D01*
X294346Y216432D01*
X294293Y216366D01*
X294238Y216304D01*
X294180Y216244D01*
X294119Y216186D01*
X294056Y216132D01*
X293990Y216080D01*
X293922Y216032D01*
X293851Y215987D01*
X293779Y215945D01*
X293704Y215907D01*
X293628Y215872D01*
X293551Y215841D01*
X293472Y215813D01*
X292231Y218451D02*
X292284Y218505D01*
X292341Y218556D01*
X292400Y218604D01*
X292461Y218649D01*
X292524Y218690D01*
X292590Y218729D01*
X292657Y218764D01*
X292726Y218796D01*
X292797Y218824D01*
X292868Y218848D01*
X292941Y218869D01*
X293015Y218886D01*
X293090Y218900D01*
X293165Y218909D01*
X293241Y218915D01*
X293317Y218917D01*
X292230Y218452D02*
X289126Y215813D01*
X289126Y218918D01*
X291299Y221355D02*
X291299Y225080D01*
X294714Y227318D02*
X289126Y228560D01*
X292851Y229801D01*
X289126Y231043D01*
X294714Y232285D01*
X294714Y234686D02*
X289126Y234686D01*
X294714Y234686D02*
X294714Y236238D01*
X294712Y236315D01*
X294706Y236393D01*
X294697Y236469D01*
X294683Y236546D01*
X294666Y236621D01*
X294645Y236695D01*
X294620Y236769D01*
X294592Y236841D01*
X294560Y236911D01*
X294525Y236980D01*
X294486Y237047D01*
X294444Y237112D01*
X294399Y237175D01*
X294351Y237236D01*
X294300Y237294D01*
X294246Y237349D01*
X294189Y237402D01*
X294130Y237451D01*
X294068Y237498D01*
X294004Y237542D01*
X293938Y237582D01*
X293870Y237619D01*
X293800Y237653D01*
X293729Y237683D01*
X293656Y237709D01*
X293582Y237732D01*
X293507Y237751D01*
X293432Y237766D01*
X293355Y237778D01*
X293278Y237786D01*
X293201Y237790D01*
X293123Y237790D01*
X293046Y237786D01*
X292969Y237778D01*
X292892Y237766D01*
X292817Y237751D01*
X292742Y237732D01*
X292668Y237709D01*
X292595Y237683D01*
X292524Y237653D01*
X292454Y237619D01*
X292386Y237582D01*
X292320Y237542D01*
X292256Y237498D01*
X292194Y237451D01*
X292135Y237402D01*
X292078Y237349D01*
X292024Y237294D01*
X291973Y237236D01*
X291925Y237175D01*
X291880Y237112D01*
X291838Y237047D01*
X291799Y236980D01*
X291764Y236911D01*
X291732Y236841D01*
X291704Y236769D01*
X291679Y236695D01*
X291658Y236621D01*
X291641Y236546D01*
X291627Y236469D01*
X291618Y236393D01*
X291612Y236315D01*
X291610Y236238D01*
X291610Y234686D01*
X291610Y236549D02*
X289126Y237790D01*
X290678Y240136D02*
X293162Y240136D01*
X293162Y240137D02*
X293239Y240139D01*
X293317Y240145D01*
X293393Y240154D01*
X293470Y240168D01*
X293545Y240185D01*
X293619Y240206D01*
X293693Y240231D01*
X293765Y240259D01*
X293835Y240291D01*
X293904Y240326D01*
X293971Y240365D01*
X294036Y240407D01*
X294099Y240452D01*
X294160Y240500D01*
X294218Y240551D01*
X294273Y240605D01*
X294326Y240662D01*
X294375Y240721D01*
X294422Y240783D01*
X294466Y240847D01*
X294506Y240913D01*
X294543Y240981D01*
X294577Y241051D01*
X294607Y241122D01*
X294633Y241195D01*
X294656Y241269D01*
X294675Y241344D01*
X294690Y241419D01*
X294702Y241496D01*
X294710Y241573D01*
X294714Y241650D01*
X294714Y241728D01*
X294710Y241805D01*
X294702Y241882D01*
X294690Y241959D01*
X294675Y242034D01*
X294656Y242109D01*
X294633Y242183D01*
X294607Y242256D01*
X294577Y242327D01*
X294543Y242397D01*
X294506Y242465D01*
X294466Y242531D01*
X294422Y242595D01*
X294375Y242657D01*
X294326Y242716D01*
X294273Y242773D01*
X294218Y242827D01*
X294160Y242878D01*
X294099Y242926D01*
X294036Y242971D01*
X293971Y243013D01*
X293904Y243052D01*
X293835Y243087D01*
X293765Y243119D01*
X293693Y243147D01*
X293619Y243172D01*
X293545Y243193D01*
X293470Y243210D01*
X293393Y243224D01*
X293317Y243233D01*
X293239Y243239D01*
X293162Y243241D01*
X290678Y243241D01*
X290601Y243239D01*
X290523Y243233D01*
X290447Y243224D01*
X290370Y243210D01*
X290295Y243193D01*
X290221Y243172D01*
X290147Y243147D01*
X290075Y243119D01*
X290005Y243087D01*
X289936Y243052D01*
X289869Y243013D01*
X289804Y242971D01*
X289741Y242926D01*
X289680Y242878D01*
X289622Y242827D01*
X289567Y242773D01*
X289514Y242716D01*
X289465Y242657D01*
X289418Y242595D01*
X289374Y242531D01*
X289334Y242465D01*
X289297Y242397D01*
X289263Y242327D01*
X289233Y242256D01*
X289207Y242183D01*
X289184Y242109D01*
X289165Y242034D01*
X289150Y241959D01*
X289138Y241882D01*
X289130Y241805D01*
X289126Y241728D01*
X289126Y241650D01*
X289130Y241573D01*
X289138Y241496D01*
X289150Y241419D01*
X289165Y241344D01*
X289184Y241269D01*
X289207Y241195D01*
X289233Y241122D01*
X289263Y241051D01*
X289297Y240981D01*
X289334Y240913D01*
X289374Y240847D01*
X289418Y240783D01*
X289465Y240721D01*
X289514Y240662D01*
X289567Y240605D01*
X289622Y240551D01*
X289680Y240500D01*
X289741Y240452D01*
X289804Y240407D01*
X289869Y240365D01*
X289936Y240326D01*
X290005Y240291D01*
X290075Y240259D01*
X290147Y240231D01*
X290221Y240206D01*
X290295Y240185D01*
X290370Y240168D01*
X290447Y240154D01*
X290523Y240145D01*
X290601Y240139D01*
X290678Y240137D01*
X290678Y245623D02*
X293162Y245623D01*
X293239Y245625D01*
X293317Y245631D01*
X293393Y245640D01*
X293470Y245654D01*
X293545Y245671D01*
X293619Y245692D01*
X293693Y245717D01*
X293765Y245745D01*
X293835Y245777D01*
X293904Y245812D01*
X293971Y245851D01*
X294036Y245893D01*
X294099Y245938D01*
X294160Y245986D01*
X294218Y246037D01*
X294273Y246091D01*
X294326Y246148D01*
X294375Y246207D01*
X294422Y246269D01*
X294466Y246333D01*
X294506Y246399D01*
X294543Y246467D01*
X294577Y246537D01*
X294607Y246608D01*
X294633Y246681D01*
X294656Y246755D01*
X294675Y246830D01*
X294690Y246905D01*
X294702Y246982D01*
X294710Y247059D01*
X294714Y247136D01*
X294714Y247214D01*
X294710Y247291D01*
X294702Y247368D01*
X294690Y247445D01*
X294675Y247520D01*
X294656Y247595D01*
X294633Y247669D01*
X294607Y247742D01*
X294577Y247813D01*
X294543Y247883D01*
X294506Y247951D01*
X294466Y248017D01*
X294422Y248081D01*
X294375Y248143D01*
X294326Y248202D01*
X294273Y248259D01*
X294218Y248313D01*
X294160Y248364D01*
X294099Y248412D01*
X294036Y248457D01*
X293971Y248499D01*
X293904Y248538D01*
X293835Y248573D01*
X293765Y248605D01*
X293693Y248633D01*
X293619Y248658D01*
X293545Y248679D01*
X293470Y248696D01*
X293393Y248710D01*
X293317Y248719D01*
X293239Y248725D01*
X293162Y248727D01*
X290678Y248727D01*
X290601Y248725D01*
X290523Y248719D01*
X290447Y248710D01*
X290370Y248696D01*
X290295Y248679D01*
X290221Y248658D01*
X290147Y248633D01*
X290075Y248605D01*
X290005Y248573D01*
X289936Y248538D01*
X289869Y248499D01*
X289804Y248457D01*
X289741Y248412D01*
X289680Y248364D01*
X289622Y248313D01*
X289567Y248259D01*
X289514Y248202D01*
X289465Y248143D01*
X289418Y248081D01*
X289374Y248017D01*
X289334Y247951D01*
X289297Y247883D01*
X289263Y247813D01*
X289233Y247742D01*
X289207Y247669D01*
X289184Y247595D01*
X289165Y247520D01*
X289150Y247445D01*
X289138Y247368D01*
X289130Y247291D01*
X289126Y247214D01*
X289126Y247136D01*
X289130Y247059D01*
X289138Y246982D01*
X289150Y246905D01*
X289165Y246830D01*
X289184Y246755D01*
X289207Y246681D01*
X289233Y246608D01*
X289263Y246537D01*
X289297Y246467D01*
X289334Y246399D01*
X289374Y246333D01*
X289418Y246269D01*
X289465Y246207D01*
X289514Y246148D01*
X289567Y246091D01*
X289622Y246037D01*
X289680Y245986D01*
X289741Y245938D01*
X289804Y245893D01*
X289869Y245851D01*
X289936Y245812D01*
X290005Y245777D01*
X290075Y245745D01*
X290147Y245717D01*
X290221Y245692D01*
X290295Y245671D01*
X290370Y245654D01*
X290447Y245640D01*
X290523Y245631D01*
X290601Y245625D01*
X290678Y245623D01*
X289126Y251347D02*
X294714Y251347D01*
X291610Y253210D01*
X294714Y255073D01*
X289126Y255073D01*
X291299Y257748D02*
X291299Y261473D01*
X289126Y263911D02*
X289126Y265463D01*
X289128Y265540D01*
X289134Y265618D01*
X289143Y265694D01*
X289157Y265771D01*
X289174Y265846D01*
X289195Y265920D01*
X289220Y265994D01*
X289248Y266066D01*
X289280Y266136D01*
X289315Y266205D01*
X289354Y266272D01*
X289396Y266337D01*
X289441Y266400D01*
X289489Y266461D01*
X289540Y266519D01*
X289594Y266574D01*
X289651Y266627D01*
X289710Y266676D01*
X289772Y266723D01*
X289836Y266767D01*
X289902Y266807D01*
X289970Y266844D01*
X290040Y266878D01*
X290111Y266908D01*
X290184Y266934D01*
X290258Y266957D01*
X290333Y266976D01*
X290408Y266991D01*
X290485Y267003D01*
X290562Y267011D01*
X290639Y267015D01*
X290717Y267015D01*
X290794Y267011D01*
X290871Y267003D01*
X290948Y266991D01*
X291023Y266976D01*
X291098Y266957D01*
X291172Y266934D01*
X291245Y266908D01*
X291316Y266878D01*
X291386Y266844D01*
X291454Y266807D01*
X291520Y266767D01*
X291584Y266723D01*
X291646Y266676D01*
X291705Y266627D01*
X291762Y266574D01*
X291816Y266519D01*
X291867Y266461D01*
X291915Y266400D01*
X291960Y266337D01*
X292002Y266272D01*
X292041Y266205D01*
X292076Y266136D01*
X292108Y266066D01*
X292136Y265994D01*
X292161Y265920D01*
X292182Y265846D01*
X292199Y265771D01*
X292213Y265694D01*
X292222Y265618D01*
X292228Y265540D01*
X292230Y265463D01*
X294714Y265773D02*
X294714Y263911D01*
X294714Y265773D02*
X294712Y265843D01*
X294706Y265912D01*
X294696Y265981D01*
X294683Y266049D01*
X294665Y266117D01*
X294644Y266183D01*
X294619Y266248D01*
X294591Y266312D01*
X294559Y266374D01*
X294524Y266434D01*
X294485Y266492D01*
X294443Y266547D01*
X294398Y266601D01*
X294350Y266651D01*
X294300Y266699D01*
X294246Y266744D01*
X294191Y266786D01*
X294133Y266825D01*
X294073Y266860D01*
X294011Y266892D01*
X293947Y266920D01*
X293882Y266945D01*
X293816Y266966D01*
X293748Y266984D01*
X293680Y266997D01*
X293611Y267007D01*
X293542Y267013D01*
X293472Y267015D01*
X293402Y267013D01*
X293333Y267007D01*
X293264Y266997D01*
X293196Y266984D01*
X293128Y266966D01*
X293062Y266945D01*
X292997Y266920D01*
X292933Y266892D01*
X292871Y266860D01*
X292811Y266825D01*
X292753Y266786D01*
X292698Y266744D01*
X292644Y266699D01*
X292594Y266651D01*
X292546Y266601D01*
X292501Y266547D01*
X292459Y266492D01*
X292420Y266434D01*
X292385Y266374D01*
X292353Y266312D01*
X292325Y266248D01*
X292300Y266183D01*
X292279Y266117D01*
X292261Y266049D01*
X292248Y265981D01*
X292238Y265912D01*
X292232Y265843D01*
X292230Y265773D01*
X292230Y264532D01*
X294714Y271104D02*
X294712Y271177D01*
X294706Y271250D01*
X294697Y271323D01*
X294683Y271394D01*
X294666Y271466D01*
X294646Y271536D01*
X294621Y271605D01*
X294593Y271672D01*
X294562Y271738D01*
X294527Y271803D01*
X294489Y271865D01*
X294447Y271925D01*
X294403Y271983D01*
X294355Y272039D01*
X294305Y272092D01*
X294252Y272142D01*
X294196Y272190D01*
X294138Y272234D01*
X294078Y272276D01*
X294016Y272314D01*
X293951Y272349D01*
X293885Y272380D01*
X293818Y272408D01*
X293749Y272433D01*
X293679Y272453D01*
X293607Y272470D01*
X293536Y272484D01*
X293463Y272493D01*
X293390Y272499D01*
X293317Y272501D01*
X294714Y271104D02*
X294712Y271020D01*
X294706Y270937D01*
X294697Y270854D01*
X294683Y270772D01*
X294666Y270690D01*
X294644Y270609D01*
X294619Y270529D01*
X294591Y270451D01*
X294559Y270373D01*
X294523Y270298D01*
X294484Y270224D01*
X294441Y270152D01*
X294395Y270082D01*
X294346Y270015D01*
X294293Y269949D01*
X294238Y269887D01*
X294180Y269827D01*
X294119Y269769D01*
X294056Y269715D01*
X293990Y269663D01*
X293922Y269615D01*
X293851Y269570D01*
X293779Y269528D01*
X293704Y269490D01*
X293628Y269455D01*
X293551Y269424D01*
X293472Y269396D01*
X292231Y272035D02*
X292284Y272089D01*
X292341Y272140D01*
X292400Y272188D01*
X292461Y272233D01*
X292524Y272274D01*
X292590Y272313D01*
X292657Y272348D01*
X292726Y272380D01*
X292797Y272408D01*
X292868Y272432D01*
X292941Y272453D01*
X293015Y272470D01*
X293090Y272484D01*
X293165Y272493D01*
X293241Y272499D01*
X293317Y272501D01*
X292230Y272036D02*
X289126Y269397D01*
X289126Y272501D01*
X289126Y275077D02*
X289126Y277561D01*
X289126Y275077D02*
X294714Y275077D01*
X294714Y277561D01*
X292230Y276940D02*
X292230Y275077D01*
X379597Y-16D02*
X378356Y-5604D01*
X377114Y-1879D01*
X375872Y-5604D01*
X374630Y-16D01*
X371993Y-16D02*
X371993Y-5604D01*
X372614Y-5604D02*
X371372Y-5604D01*
X371372Y-16D02*
X372614Y-16D01*
X368963Y-16D02*
X368963Y-5604D01*
X368963Y-16D02*
X366479Y-16D01*
X366479Y-2500D02*
X368963Y-2500D01*
X363947Y-16D02*
X363947Y-5604D01*
X364568Y-5604D02*
X363326Y-5604D01*
X363326Y-16D02*
X364568Y-16D01*
X361348Y-6225D02*
X358864Y-6225D01*
X356502Y-5604D02*
X356502Y-16D01*
X354950Y-16D01*
X354873Y-18D01*
X354795Y-24D01*
X354719Y-33D01*
X354642Y-47D01*
X354567Y-64D01*
X354493Y-85D01*
X354419Y-110D01*
X354347Y-138D01*
X354277Y-170D01*
X354208Y-205D01*
X354141Y-244D01*
X354076Y-286D01*
X354013Y-331D01*
X353952Y-379D01*
X353894Y-430D01*
X353839Y-484D01*
X353786Y-541D01*
X353737Y-600D01*
X353690Y-662D01*
X353646Y-726D01*
X353606Y-792D01*
X353569Y-860D01*
X353535Y-930D01*
X353505Y-1001D01*
X353479Y-1074D01*
X353456Y-1148D01*
X353437Y-1223D01*
X353422Y-1298D01*
X353410Y-1375D01*
X353402Y-1452D01*
X353398Y-1529D01*
X353398Y-1607D01*
X353402Y-1684D01*
X353410Y-1761D01*
X353422Y-1838D01*
X353437Y-1913D01*
X353456Y-1988D01*
X353479Y-2062D01*
X353505Y-2135D01*
X353535Y-2206D01*
X353569Y-2276D01*
X353606Y-2344D01*
X353646Y-2410D01*
X353690Y-2474D01*
X353737Y-2536D01*
X353786Y-2595D01*
X353839Y-2652D01*
X353894Y-2706D01*
X353952Y-2757D01*
X354013Y-2805D01*
X354076Y-2850D01*
X354141Y-2892D01*
X354208Y-2931D01*
X354277Y-2966D01*
X354347Y-2998D01*
X354419Y-3026D01*
X354493Y-3051D01*
X354567Y-3072D01*
X354642Y-3089D01*
X354719Y-3103D01*
X354795Y-3112D01*
X354873Y-3118D01*
X354950Y-3120D01*
X356502Y-3120D01*
X354639Y-3120D02*
X353397Y-5604D01*
X350858Y-5604D02*
X348374Y-5604D01*
X350858Y-5604D02*
X350858Y-16D01*
X348374Y-16D01*
X348995Y-2500D02*
X350858Y-2500D01*
X344617Y-5604D02*
X344547Y-5602D01*
X344478Y-5596D01*
X344409Y-5586D01*
X344341Y-5573D01*
X344273Y-5555D01*
X344207Y-5534D01*
X344142Y-5509D01*
X344078Y-5481D01*
X344016Y-5449D01*
X343956Y-5414D01*
X343898Y-5375D01*
X343843Y-5333D01*
X343789Y-5288D01*
X343739Y-5240D01*
X343691Y-5190D01*
X343646Y-5136D01*
X343604Y-5081D01*
X343565Y-5023D01*
X343530Y-4963D01*
X343498Y-4901D01*
X343470Y-4837D01*
X343445Y-4772D01*
X343424Y-4706D01*
X343406Y-4638D01*
X343393Y-4570D01*
X343383Y-4501D01*
X343377Y-4432D01*
X343375Y-4362D01*
X344617Y-5604D02*
X344716Y-5602D01*
X344814Y-5597D01*
X344912Y-5587D01*
X345010Y-5574D01*
X345107Y-5558D01*
X345204Y-5538D01*
X345299Y-5514D01*
X345394Y-5486D01*
X345488Y-5455D01*
X345580Y-5421D01*
X345671Y-5383D01*
X345761Y-5342D01*
X345849Y-5297D01*
X345935Y-5249D01*
X346019Y-5198D01*
X346101Y-5144D01*
X346182Y-5086D01*
X346260Y-5026D01*
X346335Y-4963D01*
X346409Y-4897D01*
X346479Y-4828D01*
X346325Y-1258D02*
X346323Y-1188D01*
X346317Y-1119D01*
X346307Y-1050D01*
X346294Y-982D01*
X346276Y-914D01*
X346255Y-848D01*
X346230Y-783D01*
X346202Y-719D01*
X346170Y-657D01*
X346135Y-597D01*
X346096Y-539D01*
X346054Y-484D01*
X346009Y-430D01*
X345961Y-380D01*
X345911Y-332D01*
X345857Y-287D01*
X345802Y-245D01*
X345744Y-206D01*
X345684Y-171D01*
X345622Y-139D01*
X345558Y-111D01*
X345493Y-86D01*
X345427Y-65D01*
X345359Y-47D01*
X345291Y-34D01*
X345222Y-24D01*
X345153Y-18D01*
X345083Y-16D01*
X345082Y-16D02*
X344988Y-18D01*
X344895Y-24D01*
X344802Y-33D01*
X344709Y-46D01*
X344617Y-63D01*
X344526Y-83D01*
X344435Y-108D01*
X344346Y-135D01*
X344258Y-167D01*
X344171Y-202D01*
X344085Y-240D01*
X344001Y-282D01*
X343919Y-327D01*
X343839Y-375D01*
X343761Y-427D01*
X343685Y-482D01*
X345703Y-2344D02*
X345762Y-2308D01*
X345818Y-2268D01*
X345872Y-2225D01*
X345924Y-2180D01*
X345973Y-2131D01*
X346019Y-2080D01*
X346062Y-2027D01*
X346103Y-1971D01*
X346140Y-1913D01*
X346175Y-1853D01*
X346205Y-1792D01*
X346233Y-1729D01*
X346257Y-1664D01*
X346277Y-1598D01*
X346294Y-1531D01*
X346307Y-1464D01*
X346316Y-1396D01*
X346322Y-1327D01*
X346324Y-1258D01*
X343996Y-3276D02*
X343937Y-3312D01*
X343881Y-3352D01*
X343827Y-3395D01*
X343775Y-3440D01*
X343726Y-3489D01*
X343680Y-3540D01*
X343637Y-3593D01*
X343596Y-3649D01*
X343559Y-3707D01*
X343524Y-3766D01*
X343494Y-3828D01*
X343466Y-3891D01*
X343442Y-3956D01*
X343422Y-4022D01*
X343405Y-4089D01*
X343392Y-4156D01*
X343383Y-4224D01*
X343377Y-4293D01*
X343375Y-4362D01*
X343996Y-3276D02*
X345703Y-2344D01*
X340982Y-5604D02*
X338499Y-5604D01*
X340982Y-5604D02*
X340982Y-16D01*
X338499Y-16D01*
X339119Y-2500D02*
X340982Y-2500D01*
X335235Y-16D02*
X335235Y-5604D01*
X336787Y-16D02*
X333683Y-16D01*
X362023Y415596D02*
X362023Y421184D01*
X362644Y415596D02*
X361403Y415596D01*
X361403Y421184D02*
X362644Y421184D01*
X359187Y419632D02*
X359187Y417148D01*
X359186Y419632D02*
X359184Y419709D01*
X359178Y419787D01*
X359169Y419863D01*
X359155Y419940D01*
X359138Y420015D01*
X359117Y420089D01*
X359092Y420163D01*
X359064Y420235D01*
X359032Y420305D01*
X358997Y420374D01*
X358958Y420441D01*
X358916Y420506D01*
X358871Y420569D01*
X358823Y420630D01*
X358772Y420688D01*
X358718Y420743D01*
X358661Y420796D01*
X358602Y420845D01*
X358540Y420892D01*
X358476Y420936D01*
X358410Y420976D01*
X358342Y421013D01*
X358272Y421047D01*
X358201Y421077D01*
X358128Y421103D01*
X358054Y421126D01*
X357979Y421145D01*
X357904Y421160D01*
X357827Y421172D01*
X357750Y421180D01*
X357673Y421184D01*
X357595Y421184D01*
X357518Y421180D01*
X357441Y421172D01*
X357364Y421160D01*
X357289Y421145D01*
X357214Y421126D01*
X357140Y421103D01*
X357067Y421077D01*
X356996Y421047D01*
X356926Y421013D01*
X356858Y420976D01*
X356792Y420936D01*
X356728Y420892D01*
X356666Y420845D01*
X356607Y420796D01*
X356550Y420743D01*
X356496Y420688D01*
X356445Y420630D01*
X356397Y420569D01*
X356352Y420506D01*
X356310Y420441D01*
X356271Y420374D01*
X356236Y420305D01*
X356204Y420235D01*
X356176Y420163D01*
X356151Y420089D01*
X356130Y420015D01*
X356113Y419940D01*
X356099Y419863D01*
X356090Y419787D01*
X356084Y419709D01*
X356082Y419632D01*
X356082Y417148D01*
X356084Y417071D01*
X356090Y416993D01*
X356099Y416917D01*
X356113Y416840D01*
X356130Y416765D01*
X356151Y416691D01*
X356176Y416617D01*
X356204Y416545D01*
X356236Y416475D01*
X356271Y416406D01*
X356310Y416339D01*
X356352Y416274D01*
X356397Y416211D01*
X356445Y416150D01*
X356496Y416092D01*
X356550Y416037D01*
X356607Y415984D01*
X356666Y415935D01*
X356728Y415888D01*
X356792Y415844D01*
X356858Y415804D01*
X356926Y415767D01*
X356996Y415733D01*
X357067Y415703D01*
X357140Y415677D01*
X357214Y415654D01*
X357289Y415635D01*
X357364Y415620D01*
X357441Y415608D01*
X357518Y415600D01*
X357595Y415596D01*
X357673Y415596D01*
X357750Y415600D01*
X357827Y415608D01*
X357904Y415620D01*
X357979Y415635D01*
X358054Y415654D01*
X358128Y415677D01*
X358201Y415703D01*
X358272Y415733D01*
X358342Y415767D01*
X358410Y415804D01*
X358476Y415844D01*
X358540Y415888D01*
X358602Y415935D01*
X358661Y415984D01*
X358718Y416037D01*
X358772Y416092D01*
X358823Y416150D01*
X358871Y416211D01*
X358916Y416274D01*
X358958Y416339D01*
X358997Y416406D01*
X359032Y416475D01*
X359064Y416545D01*
X359092Y416617D01*
X359117Y416691D01*
X359138Y416765D01*
X359155Y416840D01*
X359169Y416917D01*
X359178Y416993D01*
X359184Y417071D01*
X359186Y417148D01*
X353700Y418390D02*
X353698Y418521D01*
X353693Y418651D01*
X353683Y418781D01*
X353670Y418911D01*
X353654Y419041D01*
X353634Y419170D01*
X353610Y419298D01*
X353582Y419425D01*
X353551Y419552D01*
X353516Y419678D01*
X353478Y419803D01*
X353436Y419927D01*
X353391Y420049D01*
X353342Y420170D01*
X353290Y420290D01*
X353234Y420408D01*
X353235Y420408D02*
X353212Y420468D01*
X353186Y420528D01*
X353157Y420585D01*
X353124Y420641D01*
X353088Y420695D01*
X353050Y420747D01*
X353008Y420797D01*
X352964Y420844D01*
X352917Y420889D01*
X352867Y420931D01*
X352816Y420970D01*
X352762Y421006D01*
X352706Y421039D01*
X352649Y421069D01*
X352590Y421096D01*
X352529Y421119D01*
X352468Y421139D01*
X352405Y421155D01*
X352341Y421168D01*
X352277Y421177D01*
X352213Y421182D01*
X352148Y421184D01*
X352083Y421182D01*
X352019Y421177D01*
X351955Y421168D01*
X351891Y421155D01*
X351828Y421139D01*
X351767Y421119D01*
X351706Y421096D01*
X351647Y421069D01*
X351590Y421039D01*
X351534Y421006D01*
X351480Y420970D01*
X351429Y420931D01*
X351379Y420889D01*
X351332Y420844D01*
X351288Y420797D01*
X351246Y420747D01*
X351208Y420695D01*
X351172Y420641D01*
X351139Y420585D01*
X351110Y420528D01*
X351084Y420468D01*
X351061Y420408D01*
X351005Y420290D01*
X350953Y420170D01*
X350904Y420049D01*
X350859Y419927D01*
X350817Y419803D01*
X350779Y419678D01*
X350744Y419552D01*
X350713Y419426D01*
X350685Y419298D01*
X350661Y419170D01*
X350641Y419041D01*
X350625Y418911D01*
X350612Y418781D01*
X350602Y418651D01*
X350597Y418521D01*
X350595Y418390D01*
X353700Y418390D02*
X353698Y418259D01*
X353693Y418129D01*
X353683Y417999D01*
X353670Y417869D01*
X353654Y417739D01*
X353634Y417611D01*
X353610Y417482D01*
X353582Y417355D01*
X353551Y417228D01*
X353516Y417102D01*
X353478Y416977D01*
X353436Y416854D01*
X353391Y416731D01*
X353342Y416610D01*
X353290Y416490D01*
X353234Y416372D01*
X353235Y416372D02*
X353212Y416312D01*
X353186Y416252D01*
X353157Y416195D01*
X353124Y416139D01*
X353088Y416085D01*
X353050Y416033D01*
X353008Y415983D01*
X352964Y415936D01*
X352917Y415891D01*
X352867Y415849D01*
X352816Y415810D01*
X352762Y415774D01*
X352706Y415741D01*
X352649Y415711D01*
X352590Y415684D01*
X352529Y415661D01*
X352468Y415641D01*
X352405Y415625D01*
X352341Y415612D01*
X352277Y415603D01*
X352213Y415598D01*
X352148Y415596D01*
X351062Y416372D02*
X351006Y416490D01*
X350954Y416610D01*
X350905Y416731D01*
X350860Y416853D01*
X350818Y416977D01*
X350780Y417102D01*
X350745Y417228D01*
X350714Y417354D01*
X350686Y417482D01*
X350662Y417610D01*
X350642Y417739D01*
X350626Y417869D01*
X350613Y417999D01*
X350603Y418129D01*
X350598Y418259D01*
X350596Y418390D01*
X351061Y416372D02*
X351084Y416312D01*
X351110Y416252D01*
X351139Y416195D01*
X351172Y416139D01*
X351208Y416085D01*
X351246Y416033D01*
X351288Y415983D01*
X351332Y415936D01*
X351379Y415891D01*
X351429Y415849D01*
X351480Y415810D01*
X351534Y415774D01*
X351590Y415741D01*
X351647Y415711D01*
X351706Y415684D01*
X351767Y415661D01*
X351828Y415641D01*
X351891Y415625D01*
X351955Y415612D01*
X352019Y415603D01*
X352083Y415598D01*
X352148Y415596D01*
X353390Y416838D02*
X350906Y419942D01*
D12*
X270400Y404500D02*
X270400Y339500D01*
X270400Y404500D02*
X235400Y404500D01*
X235400Y339500D01*
X270400Y339500D01*
D11*
X241170Y346600D02*
X241172Y346706D01*
X241178Y346812D01*
X241188Y346918D01*
X241202Y347023D01*
X241220Y347128D01*
X241241Y347232D01*
X241267Y347335D01*
X241296Y347437D01*
X241329Y347538D01*
X241366Y347638D01*
X241407Y347736D01*
X241451Y347832D01*
X241499Y347927D01*
X241550Y348020D01*
X241605Y348111D01*
X241663Y348200D01*
X241725Y348286D01*
X241790Y348371D01*
X241857Y348452D01*
X241928Y348532D01*
X242002Y348608D01*
X242078Y348682D01*
X242158Y348753D01*
X242239Y348820D01*
X242324Y348885D01*
X242410Y348947D01*
X242499Y349005D01*
X242590Y349060D01*
X242683Y349111D01*
X242778Y349159D01*
X242874Y349203D01*
X242972Y349244D01*
X243072Y349281D01*
X243173Y349314D01*
X243275Y349343D01*
X243378Y349369D01*
X243482Y349390D01*
X243587Y349408D01*
X243692Y349422D01*
X243798Y349432D01*
X243904Y349438D01*
X244010Y349440D01*
X244116Y349438D01*
X244222Y349432D01*
X244328Y349422D01*
X244433Y349408D01*
X244538Y349390D01*
X244642Y349369D01*
X244745Y349343D01*
X244847Y349314D01*
X244948Y349281D01*
X245048Y349244D01*
X245146Y349203D01*
X245242Y349159D01*
X245337Y349111D01*
X245430Y349060D01*
X245521Y349005D01*
X245610Y348947D01*
X245696Y348885D01*
X245781Y348820D01*
X245862Y348753D01*
X245942Y348682D01*
X246018Y348608D01*
X246092Y348532D01*
X246163Y348452D01*
X246230Y348371D01*
X246295Y348286D01*
X246357Y348200D01*
X246415Y348111D01*
X246470Y348020D01*
X246521Y347927D01*
X246569Y347832D01*
X246613Y347736D01*
X246654Y347638D01*
X246691Y347538D01*
X246724Y347437D01*
X246753Y347335D01*
X246779Y347232D01*
X246800Y347128D01*
X246818Y347023D01*
X246832Y346918D01*
X246842Y346812D01*
X246848Y346706D01*
X246850Y346600D01*
X246848Y346494D01*
X246842Y346388D01*
X246832Y346282D01*
X246818Y346177D01*
X246800Y346072D01*
X246779Y345968D01*
X246753Y345865D01*
X246724Y345763D01*
X246691Y345662D01*
X246654Y345562D01*
X246613Y345464D01*
X246569Y345368D01*
X246521Y345273D01*
X246470Y345180D01*
X246415Y345089D01*
X246357Y345000D01*
X246295Y344914D01*
X246230Y344829D01*
X246163Y344748D01*
X246092Y344668D01*
X246018Y344592D01*
X245942Y344518D01*
X245862Y344447D01*
X245781Y344380D01*
X245696Y344315D01*
X245610Y344253D01*
X245521Y344195D01*
X245430Y344140D01*
X245337Y344089D01*
X245242Y344041D01*
X245146Y343997D01*
X245048Y343956D01*
X244948Y343919D01*
X244847Y343886D01*
X244745Y343857D01*
X244642Y343831D01*
X244538Y343810D01*
X244433Y343792D01*
X244328Y343778D01*
X244222Y343768D01*
X244116Y343762D01*
X244010Y343760D01*
X243904Y343762D01*
X243798Y343768D01*
X243692Y343778D01*
X243587Y343792D01*
X243482Y343810D01*
X243378Y343831D01*
X243275Y343857D01*
X243173Y343886D01*
X243072Y343919D01*
X242972Y343956D01*
X242874Y343997D01*
X242778Y344041D01*
X242683Y344089D01*
X242590Y344140D01*
X242499Y344195D01*
X242410Y344253D01*
X242324Y344315D01*
X242239Y344380D01*
X242158Y344447D01*
X242078Y344518D01*
X242002Y344592D01*
X241928Y344668D01*
X241857Y344748D01*
X241790Y344829D01*
X241725Y344914D01*
X241663Y345000D01*
X241605Y345089D01*
X241550Y345180D01*
X241499Y345273D01*
X241451Y345368D01*
X241407Y345464D01*
X241366Y345562D01*
X241329Y345662D01*
X241296Y345763D01*
X241267Y345865D01*
X241241Y345968D01*
X241220Y346072D01*
X241202Y346177D01*
X241188Y346282D01*
X241178Y346388D01*
X241172Y346494D01*
X241170Y346600D01*
D10*
X206906Y350318D02*
X201318Y352181D01*
X206906Y354043D01*
X206906Y356334D02*
X201318Y356334D01*
X206906Y356334D02*
X206906Y357886D01*
X206904Y357963D01*
X206898Y358041D01*
X206889Y358117D01*
X206875Y358194D01*
X206858Y358269D01*
X206837Y358343D01*
X206812Y358417D01*
X206784Y358489D01*
X206752Y358559D01*
X206717Y358628D01*
X206678Y358695D01*
X206636Y358760D01*
X206591Y358823D01*
X206543Y358884D01*
X206492Y358942D01*
X206438Y358997D01*
X206381Y359050D01*
X206322Y359099D01*
X206260Y359146D01*
X206196Y359190D01*
X206130Y359230D01*
X206062Y359267D01*
X205992Y359301D01*
X205921Y359331D01*
X205848Y359357D01*
X205774Y359380D01*
X205699Y359399D01*
X205624Y359414D01*
X205547Y359426D01*
X205470Y359434D01*
X205393Y359438D01*
X205315Y359438D01*
X205238Y359434D01*
X205161Y359426D01*
X205084Y359414D01*
X205009Y359399D01*
X204934Y359380D01*
X204860Y359357D01*
X204787Y359331D01*
X204716Y359301D01*
X204646Y359267D01*
X204578Y359230D01*
X204512Y359190D01*
X204448Y359146D01*
X204386Y359099D01*
X204327Y359050D01*
X204270Y358997D01*
X204216Y358942D01*
X204165Y358884D01*
X204117Y358823D01*
X204072Y358760D01*
X204030Y358695D01*
X203991Y358628D01*
X203956Y358559D01*
X203924Y358489D01*
X203896Y358417D01*
X203871Y358343D01*
X203850Y358269D01*
X203833Y358194D01*
X203819Y358117D01*
X203810Y358041D01*
X203804Y357963D01*
X203802Y357886D01*
X203802Y356334D01*
X203802Y358196D02*
X201318Y359438D01*
X201318Y361978D02*
X201318Y364461D01*
X201318Y361978D02*
X206906Y361978D01*
X206906Y364461D01*
X204422Y363841D02*
X204422Y361978D01*
X204422Y368895D02*
X204422Y369826D01*
X201318Y369826D01*
X201318Y367963D01*
X201320Y367893D01*
X201326Y367824D01*
X201336Y367755D01*
X201349Y367687D01*
X201367Y367619D01*
X201388Y367553D01*
X201413Y367488D01*
X201441Y367424D01*
X201473Y367362D01*
X201508Y367302D01*
X201547Y367244D01*
X201589Y367189D01*
X201634Y367135D01*
X201682Y367085D01*
X201732Y367037D01*
X201786Y366992D01*
X201841Y366950D01*
X201899Y366911D01*
X201959Y366876D01*
X202021Y366844D01*
X202085Y366816D01*
X202150Y366791D01*
X202216Y366770D01*
X202284Y366752D01*
X202352Y366739D01*
X202421Y366729D01*
X202490Y366723D01*
X202560Y366721D01*
X202560Y366722D02*
X205664Y366722D01*
X205664Y366721D02*
X205734Y366723D01*
X205803Y366729D01*
X205872Y366739D01*
X205940Y366752D01*
X206008Y366770D01*
X206074Y366791D01*
X206139Y366816D01*
X206203Y366844D01*
X206265Y366876D01*
X206325Y366911D01*
X206383Y366950D01*
X206438Y366992D01*
X206492Y367037D01*
X206542Y367085D01*
X206590Y367135D01*
X206635Y367189D01*
X206677Y367244D01*
X206716Y367302D01*
X206751Y367362D01*
X206783Y367424D01*
X206811Y367488D01*
X206836Y367553D01*
X206857Y367619D01*
X206875Y367687D01*
X206888Y367755D01*
X206898Y367824D01*
X206904Y367893D01*
X206906Y367963D01*
X206906Y369826D01*
X203491Y372446D02*
X203491Y376172D01*
X201318Y378609D02*
X201318Y380161D01*
X201320Y380238D01*
X201326Y380316D01*
X201335Y380392D01*
X201349Y380469D01*
X201366Y380544D01*
X201387Y380618D01*
X201412Y380692D01*
X201440Y380764D01*
X201472Y380834D01*
X201507Y380903D01*
X201546Y380970D01*
X201588Y381035D01*
X201633Y381098D01*
X201681Y381159D01*
X201732Y381217D01*
X201786Y381272D01*
X201843Y381325D01*
X201902Y381374D01*
X201964Y381421D01*
X202028Y381465D01*
X202094Y381505D01*
X202162Y381542D01*
X202232Y381576D01*
X202303Y381606D01*
X202376Y381632D01*
X202450Y381655D01*
X202525Y381674D01*
X202600Y381689D01*
X202677Y381701D01*
X202754Y381709D01*
X202831Y381713D01*
X202909Y381713D01*
X202986Y381709D01*
X203063Y381701D01*
X203140Y381689D01*
X203215Y381674D01*
X203290Y381655D01*
X203364Y381632D01*
X203437Y381606D01*
X203508Y381576D01*
X203578Y381542D01*
X203646Y381505D01*
X203712Y381465D01*
X203776Y381421D01*
X203838Y381374D01*
X203897Y381325D01*
X203954Y381272D01*
X204008Y381217D01*
X204059Y381159D01*
X204107Y381098D01*
X204152Y381035D01*
X204194Y380970D01*
X204233Y380903D01*
X204268Y380834D01*
X204300Y380764D01*
X204328Y380692D01*
X204353Y380618D01*
X204374Y380544D01*
X204391Y380469D01*
X204405Y380392D01*
X204414Y380316D01*
X204420Y380238D01*
X204422Y380161D01*
X206906Y380471D02*
X206906Y378609D01*
X206906Y380471D02*
X206904Y380541D01*
X206898Y380610D01*
X206888Y380679D01*
X206875Y380747D01*
X206857Y380815D01*
X206836Y380881D01*
X206811Y380946D01*
X206783Y381010D01*
X206751Y381072D01*
X206716Y381132D01*
X206677Y381190D01*
X206635Y381245D01*
X206590Y381299D01*
X206542Y381349D01*
X206492Y381397D01*
X206438Y381442D01*
X206383Y381484D01*
X206325Y381523D01*
X206265Y381558D01*
X206203Y381590D01*
X206139Y381618D01*
X206074Y381643D01*
X206008Y381664D01*
X205940Y381682D01*
X205872Y381695D01*
X205803Y381705D01*
X205734Y381711D01*
X205664Y381713D01*
X205594Y381711D01*
X205525Y381705D01*
X205456Y381695D01*
X205388Y381682D01*
X205320Y381664D01*
X205254Y381643D01*
X205189Y381618D01*
X205125Y381590D01*
X205063Y381558D01*
X205003Y381523D01*
X204945Y381484D01*
X204890Y381442D01*
X204836Y381397D01*
X204786Y381349D01*
X204738Y381299D01*
X204693Y381245D01*
X204651Y381190D01*
X204612Y381132D01*
X204577Y381072D01*
X204545Y381010D01*
X204517Y380946D01*
X204492Y380881D01*
X204471Y380815D01*
X204453Y380747D01*
X204440Y380679D01*
X204430Y380610D01*
X204424Y380541D01*
X204422Y380471D01*
X204422Y379230D01*
X206906Y383785D02*
X201318Y385647D01*
X206906Y387510D01*
X201318Y389582D02*
X201318Y391134D01*
X201320Y391211D01*
X201326Y391289D01*
X201335Y391365D01*
X201349Y391442D01*
X201366Y391517D01*
X201387Y391591D01*
X201412Y391665D01*
X201440Y391737D01*
X201472Y391807D01*
X201507Y391876D01*
X201546Y391943D01*
X201588Y392008D01*
X201633Y392071D01*
X201681Y392132D01*
X201732Y392190D01*
X201786Y392245D01*
X201843Y392298D01*
X201902Y392347D01*
X201964Y392394D01*
X202028Y392438D01*
X202094Y392478D01*
X202162Y392515D01*
X202232Y392549D01*
X202303Y392579D01*
X202376Y392605D01*
X202450Y392628D01*
X202525Y392647D01*
X202600Y392662D01*
X202677Y392674D01*
X202754Y392682D01*
X202831Y392686D01*
X202909Y392686D01*
X202986Y392682D01*
X203063Y392674D01*
X203140Y392662D01*
X203215Y392647D01*
X203290Y392628D01*
X203364Y392605D01*
X203437Y392579D01*
X203508Y392549D01*
X203578Y392515D01*
X203646Y392478D01*
X203712Y392438D01*
X203776Y392394D01*
X203838Y392347D01*
X203897Y392298D01*
X203954Y392245D01*
X204008Y392190D01*
X204059Y392132D01*
X204107Y392071D01*
X204152Y392008D01*
X204194Y391943D01*
X204233Y391876D01*
X204268Y391807D01*
X204300Y391737D01*
X204328Y391665D01*
X204353Y391591D01*
X204374Y391517D01*
X204391Y391442D01*
X204405Y391365D01*
X204414Y391289D01*
X204420Y391211D01*
X204422Y391134D01*
X206906Y391444D02*
X206906Y389582D01*
X206906Y391444D02*
X206904Y391514D01*
X206898Y391583D01*
X206888Y391652D01*
X206875Y391720D01*
X206857Y391788D01*
X206836Y391854D01*
X206811Y391919D01*
X206783Y391983D01*
X206751Y392045D01*
X206716Y392105D01*
X206677Y392163D01*
X206635Y392218D01*
X206590Y392272D01*
X206542Y392322D01*
X206492Y392370D01*
X206438Y392415D01*
X206383Y392457D01*
X206325Y392496D01*
X206265Y392531D01*
X206203Y392563D01*
X206139Y392591D01*
X206074Y392616D01*
X206008Y392637D01*
X205940Y392655D01*
X205872Y392668D01*
X205803Y392678D01*
X205734Y392684D01*
X205664Y392686D01*
X205594Y392684D01*
X205525Y392678D01*
X205456Y392668D01*
X205388Y392655D01*
X205320Y392637D01*
X205254Y392616D01*
X205189Y392591D01*
X205125Y392563D01*
X205063Y392531D01*
X205003Y392496D01*
X204945Y392457D01*
X204890Y392415D01*
X204836Y392370D01*
X204786Y392322D01*
X204738Y392272D01*
X204693Y392218D01*
X204651Y392163D01*
X204612Y392105D01*
X204577Y392045D01*
X204545Y391983D01*
X204517Y391919D01*
X204492Y391854D01*
X204471Y391788D01*
X204453Y391720D01*
X204440Y391652D01*
X204430Y391583D01*
X204424Y391514D01*
X204422Y391444D01*
X204422Y390202D01*
X276050Y60654D02*
X274808Y55066D01*
X273567Y58791D01*
X272325Y55066D01*
X271083Y60654D01*
X268446Y60654D02*
X268446Y55066D01*
X269067Y55066D02*
X267825Y55066D01*
X267825Y60654D02*
X269067Y60654D01*
X265415Y60654D02*
X265415Y55066D01*
X265415Y60654D02*
X262932Y60654D01*
X262932Y58170D02*
X265415Y58170D01*
X260399Y60654D02*
X260399Y55066D01*
X259779Y55066D02*
X261020Y55066D01*
X261020Y60654D02*
X259779Y60654D01*
X257801Y54445D02*
X255317Y54445D01*
X252991Y55066D02*
X252991Y60654D01*
X252991Y58170D02*
X249886Y58170D01*
X249886Y60654D02*
X249886Y55066D01*
X247127Y55066D02*
X244644Y55066D01*
X247127Y55066D02*
X247127Y60654D01*
X244644Y60654D01*
X245265Y58170D02*
X247127Y58170D01*
X242877Y55066D02*
X241014Y60654D01*
X239152Y55066D01*
X239617Y56463D02*
X242411Y56463D01*
X236897Y55066D02*
X236897Y60654D01*
X235345Y60654D01*
X235269Y60652D01*
X235193Y60647D01*
X235117Y60637D01*
X235042Y60624D01*
X234968Y60607D01*
X234894Y60587D01*
X234822Y60563D01*
X234751Y60536D01*
X234681Y60505D01*
X234613Y60471D01*
X234547Y60433D01*
X234483Y60392D01*
X234420Y60349D01*
X234360Y60302D01*
X234303Y60252D01*
X234248Y60199D01*
X234195Y60144D01*
X234145Y60087D01*
X234098Y60027D01*
X234055Y59964D01*
X234014Y59900D01*
X233976Y59834D01*
X233942Y59766D01*
X233911Y59696D01*
X233884Y59625D01*
X233860Y59553D01*
X233840Y59479D01*
X233823Y59405D01*
X233810Y59330D01*
X233800Y59254D01*
X233795Y59178D01*
X233793Y59102D01*
X233793Y56618D01*
X233795Y56542D01*
X233800Y56466D01*
X233810Y56390D01*
X233823Y56315D01*
X233840Y56241D01*
X233860Y56167D01*
X233884Y56095D01*
X233911Y56024D01*
X233942Y55954D01*
X233976Y55886D01*
X234014Y55820D01*
X234055Y55756D01*
X234098Y55693D01*
X234145Y55633D01*
X234195Y55576D01*
X234248Y55521D01*
X234303Y55468D01*
X234360Y55418D01*
X234420Y55371D01*
X234483Y55328D01*
X234547Y55287D01*
X234613Y55249D01*
X234681Y55215D01*
X234751Y55184D01*
X234822Y55157D01*
X234894Y55133D01*
X234968Y55113D01*
X235042Y55096D01*
X235117Y55083D01*
X235193Y55073D01*
X235269Y55068D01*
X235345Y55066D01*
X236897Y55066D01*
X231034Y55066D02*
X228551Y55066D01*
X231034Y55066D02*
X231034Y60654D01*
X228551Y60654D01*
X229171Y58170D02*
X231034Y58170D01*
X226254Y60654D02*
X226254Y55066D01*
X226254Y60654D02*
X224702Y60654D01*
X224625Y60652D01*
X224547Y60646D01*
X224471Y60637D01*
X224394Y60623D01*
X224319Y60606D01*
X224245Y60585D01*
X224171Y60560D01*
X224099Y60532D01*
X224029Y60500D01*
X223960Y60465D01*
X223893Y60426D01*
X223828Y60384D01*
X223765Y60339D01*
X223704Y60291D01*
X223646Y60240D01*
X223591Y60186D01*
X223538Y60129D01*
X223489Y60070D01*
X223442Y60008D01*
X223398Y59944D01*
X223358Y59878D01*
X223321Y59810D01*
X223287Y59740D01*
X223257Y59669D01*
X223231Y59596D01*
X223208Y59522D01*
X223189Y59447D01*
X223174Y59372D01*
X223162Y59295D01*
X223154Y59218D01*
X223150Y59141D01*
X223150Y59063D01*
X223154Y58986D01*
X223162Y58909D01*
X223174Y58832D01*
X223189Y58757D01*
X223208Y58682D01*
X223231Y58608D01*
X223257Y58535D01*
X223287Y58464D01*
X223321Y58394D01*
X223358Y58326D01*
X223398Y58260D01*
X223442Y58196D01*
X223489Y58134D01*
X223538Y58075D01*
X223591Y58018D01*
X223646Y57964D01*
X223704Y57913D01*
X223765Y57865D01*
X223828Y57820D01*
X223893Y57778D01*
X223960Y57739D01*
X224029Y57704D01*
X224099Y57672D01*
X224171Y57644D01*
X224245Y57619D01*
X224319Y57598D01*
X224394Y57581D01*
X224471Y57567D01*
X224547Y57558D01*
X224625Y57552D01*
X224702Y57550D01*
X226254Y57550D01*
X224392Y57550D02*
X223150Y55066D01*
X272121Y424756D02*
X272121Y430344D01*
X270258Y427240D01*
X268396Y430344D01*
X268396Y424756D01*
X264550Y424756D02*
X263308Y424756D01*
X264550Y424756D02*
X264620Y424758D01*
X264689Y424764D01*
X264758Y424774D01*
X264826Y424787D01*
X264894Y424805D01*
X264960Y424826D01*
X265025Y424851D01*
X265089Y424879D01*
X265151Y424911D01*
X265211Y424946D01*
X265269Y424985D01*
X265324Y425027D01*
X265378Y425072D01*
X265428Y425120D01*
X265476Y425170D01*
X265521Y425224D01*
X265563Y425279D01*
X265602Y425337D01*
X265637Y425397D01*
X265669Y425459D01*
X265697Y425523D01*
X265722Y425588D01*
X265743Y425654D01*
X265761Y425722D01*
X265774Y425790D01*
X265784Y425859D01*
X265790Y425928D01*
X265792Y425998D01*
X265792Y429102D01*
X265790Y429172D01*
X265784Y429241D01*
X265774Y429310D01*
X265761Y429378D01*
X265743Y429446D01*
X265722Y429512D01*
X265697Y429577D01*
X265669Y429641D01*
X265637Y429703D01*
X265602Y429763D01*
X265563Y429821D01*
X265521Y429876D01*
X265476Y429930D01*
X265428Y429980D01*
X265378Y430028D01*
X265324Y430073D01*
X265269Y430115D01*
X265211Y430154D01*
X265151Y430189D01*
X265089Y430221D01*
X265025Y430249D01*
X264960Y430274D01*
X264894Y430295D01*
X264826Y430313D01*
X264758Y430326D01*
X264689Y430336D01*
X264620Y430342D01*
X264550Y430344D01*
X263308Y430344D01*
X261021Y430344D02*
X261021Y426308D01*
X261019Y426231D01*
X261013Y426153D01*
X261004Y426077D01*
X260990Y426000D01*
X260973Y425925D01*
X260952Y425851D01*
X260927Y425777D01*
X260899Y425705D01*
X260867Y425635D01*
X260832Y425566D01*
X260793Y425499D01*
X260751Y425434D01*
X260706Y425371D01*
X260658Y425310D01*
X260607Y425252D01*
X260553Y425197D01*
X260496Y425144D01*
X260437Y425095D01*
X260375Y425048D01*
X260311Y425004D01*
X260245Y424964D01*
X260177Y424927D01*
X260107Y424893D01*
X260036Y424863D01*
X259963Y424837D01*
X259889Y424814D01*
X259814Y424795D01*
X259739Y424780D01*
X259662Y424768D01*
X259585Y424760D01*
X259508Y424756D01*
X259430Y424756D01*
X259353Y424760D01*
X259276Y424768D01*
X259199Y424780D01*
X259124Y424795D01*
X259049Y424814D01*
X258975Y424837D01*
X258902Y424863D01*
X258831Y424893D01*
X258761Y424927D01*
X258693Y424964D01*
X258627Y425004D01*
X258563Y425048D01*
X258501Y425095D01*
X258442Y425144D01*
X258385Y425197D01*
X258331Y425252D01*
X258280Y425310D01*
X258232Y425371D01*
X258187Y425434D01*
X258145Y425499D01*
X258106Y425566D01*
X258071Y425635D01*
X258039Y425705D01*
X258011Y425777D01*
X257986Y425851D01*
X257965Y425925D01*
X257948Y426000D01*
X257934Y426077D01*
X257925Y426153D01*
X257919Y426231D01*
X257917Y426308D01*
X257916Y426308D02*
X257916Y430344D01*
X255590Y424135D02*
X253106Y424135D01*
X250780Y424756D02*
X250780Y430344D01*
X250780Y427860D02*
X247675Y427860D01*
X247675Y430344D02*
X247675Y424756D01*
X244916Y424756D02*
X242433Y424756D01*
X244916Y424756D02*
X244916Y430344D01*
X242433Y430344D01*
X243054Y427860D02*
X244916Y427860D01*
X240666Y424756D02*
X238803Y430344D01*
X236941Y424756D01*
X237406Y426153D02*
X240200Y426153D01*
X234686Y424756D02*
X234686Y430344D01*
X233134Y430344D01*
X233058Y430342D01*
X232982Y430337D01*
X232906Y430327D01*
X232831Y430314D01*
X232757Y430297D01*
X232683Y430277D01*
X232611Y430253D01*
X232540Y430226D01*
X232470Y430195D01*
X232402Y430161D01*
X232336Y430123D01*
X232272Y430082D01*
X232209Y430039D01*
X232149Y429992D01*
X232092Y429942D01*
X232037Y429889D01*
X231984Y429834D01*
X231934Y429777D01*
X231887Y429717D01*
X231844Y429654D01*
X231803Y429590D01*
X231765Y429524D01*
X231731Y429456D01*
X231700Y429386D01*
X231673Y429315D01*
X231649Y429243D01*
X231629Y429169D01*
X231612Y429095D01*
X231599Y429020D01*
X231589Y428944D01*
X231584Y428868D01*
X231582Y428792D01*
X231582Y426308D01*
X231584Y426232D01*
X231589Y426156D01*
X231599Y426080D01*
X231612Y426005D01*
X231629Y425931D01*
X231649Y425857D01*
X231673Y425785D01*
X231700Y425714D01*
X231731Y425644D01*
X231765Y425576D01*
X231803Y425510D01*
X231844Y425446D01*
X231887Y425383D01*
X231934Y425323D01*
X231984Y425266D01*
X232037Y425211D01*
X232092Y425158D01*
X232149Y425108D01*
X232209Y425061D01*
X232272Y425018D01*
X232336Y424977D01*
X232402Y424939D01*
X232470Y424905D01*
X232540Y424874D01*
X232611Y424847D01*
X232683Y424823D01*
X232757Y424803D01*
X232831Y424786D01*
X232906Y424773D01*
X232982Y424763D01*
X233058Y424758D01*
X233134Y424756D01*
X234686Y424756D01*
X228823Y424756D02*
X226340Y424756D01*
X228823Y424756D02*
X228823Y430344D01*
X226340Y430344D01*
X226960Y427860D02*
X228823Y427860D01*
X224043Y430344D02*
X224043Y424756D01*
X224043Y430344D02*
X222491Y430344D01*
X222414Y430342D01*
X222336Y430336D01*
X222260Y430327D01*
X222183Y430313D01*
X222108Y430296D01*
X222034Y430275D01*
X221960Y430250D01*
X221888Y430222D01*
X221818Y430190D01*
X221749Y430155D01*
X221682Y430116D01*
X221617Y430074D01*
X221554Y430029D01*
X221493Y429981D01*
X221435Y429930D01*
X221380Y429876D01*
X221327Y429819D01*
X221278Y429760D01*
X221231Y429698D01*
X221187Y429634D01*
X221147Y429568D01*
X221110Y429500D01*
X221076Y429430D01*
X221046Y429359D01*
X221020Y429286D01*
X220997Y429212D01*
X220978Y429137D01*
X220963Y429062D01*
X220951Y428985D01*
X220943Y428908D01*
X220939Y428831D01*
X220939Y428753D01*
X220943Y428676D01*
X220951Y428599D01*
X220963Y428522D01*
X220978Y428447D01*
X220997Y428372D01*
X221020Y428298D01*
X221046Y428225D01*
X221076Y428154D01*
X221110Y428084D01*
X221147Y428016D01*
X221187Y427950D01*
X221231Y427886D01*
X221278Y427824D01*
X221327Y427765D01*
X221380Y427708D01*
X221435Y427654D01*
X221493Y427603D01*
X221554Y427555D01*
X221617Y427510D01*
X221682Y427468D01*
X221749Y427429D01*
X221818Y427394D01*
X221888Y427362D01*
X221960Y427334D01*
X222034Y427309D01*
X222108Y427288D01*
X222183Y427271D01*
X222260Y427257D01*
X222336Y427248D01*
X222414Y427242D01*
X222491Y427240D01*
X224043Y427240D01*
X222181Y427240D02*
X220939Y424756D01*
X166028Y421154D02*
X166028Y415566D01*
X164166Y418050D02*
X166028Y421154D01*
X164166Y418050D02*
X162303Y421154D01*
X162303Y415566D01*
X158457Y415566D02*
X157216Y415566D01*
X158457Y415566D02*
X158527Y415568D01*
X158596Y415574D01*
X158665Y415584D01*
X158733Y415597D01*
X158801Y415615D01*
X158867Y415636D01*
X158932Y415661D01*
X158996Y415689D01*
X159058Y415721D01*
X159118Y415756D01*
X159176Y415795D01*
X159231Y415837D01*
X159285Y415882D01*
X159335Y415930D01*
X159383Y415980D01*
X159428Y416034D01*
X159470Y416089D01*
X159509Y416147D01*
X159544Y416207D01*
X159576Y416269D01*
X159604Y416333D01*
X159629Y416398D01*
X159650Y416464D01*
X159668Y416532D01*
X159681Y416600D01*
X159691Y416669D01*
X159697Y416738D01*
X159699Y416808D01*
X159699Y419912D01*
X159697Y419982D01*
X159691Y420051D01*
X159681Y420120D01*
X159668Y420188D01*
X159650Y420256D01*
X159629Y420322D01*
X159604Y420387D01*
X159576Y420451D01*
X159544Y420513D01*
X159509Y420573D01*
X159470Y420631D01*
X159428Y420686D01*
X159383Y420740D01*
X159335Y420790D01*
X159285Y420838D01*
X159231Y420883D01*
X159176Y420925D01*
X159118Y420964D01*
X159058Y420999D01*
X158996Y421031D01*
X158932Y421059D01*
X158867Y421084D01*
X158801Y421105D01*
X158733Y421123D01*
X158665Y421136D01*
X158596Y421146D01*
X158527Y421152D01*
X158457Y421154D01*
X157216Y421154D01*
X154928Y421154D02*
X154928Y417118D01*
X154926Y417041D01*
X154920Y416963D01*
X154911Y416887D01*
X154897Y416810D01*
X154880Y416735D01*
X154859Y416661D01*
X154834Y416587D01*
X154806Y416515D01*
X154774Y416445D01*
X154739Y416376D01*
X154700Y416309D01*
X154658Y416244D01*
X154613Y416181D01*
X154565Y416120D01*
X154514Y416062D01*
X154460Y416007D01*
X154403Y415954D01*
X154344Y415905D01*
X154282Y415858D01*
X154218Y415814D01*
X154152Y415774D01*
X154084Y415737D01*
X154014Y415703D01*
X153943Y415673D01*
X153870Y415647D01*
X153796Y415624D01*
X153721Y415605D01*
X153646Y415590D01*
X153569Y415578D01*
X153492Y415570D01*
X153415Y415566D01*
X153337Y415566D01*
X153260Y415570D01*
X153183Y415578D01*
X153106Y415590D01*
X153031Y415605D01*
X152956Y415624D01*
X152882Y415647D01*
X152809Y415673D01*
X152738Y415703D01*
X152668Y415737D01*
X152600Y415774D01*
X152534Y415814D01*
X152470Y415858D01*
X152408Y415905D01*
X152349Y415954D01*
X152292Y416007D01*
X152238Y416062D01*
X152187Y416120D01*
X152139Y416181D01*
X152094Y416244D01*
X152052Y416309D01*
X152013Y416376D01*
X151978Y416445D01*
X151946Y416515D01*
X151918Y416587D01*
X151893Y416661D01*
X151872Y416735D01*
X151855Y416810D01*
X151841Y416887D01*
X151832Y416963D01*
X151826Y417041D01*
X151824Y417118D01*
X151824Y421154D01*
X149497Y414945D02*
X147014Y414945D01*
X144651Y415566D02*
X144651Y421154D01*
X143099Y421154D01*
X143022Y421152D01*
X142944Y421146D01*
X142868Y421137D01*
X142791Y421123D01*
X142716Y421106D01*
X142642Y421085D01*
X142568Y421060D01*
X142496Y421032D01*
X142426Y421000D01*
X142357Y420965D01*
X142290Y420926D01*
X142225Y420884D01*
X142162Y420839D01*
X142101Y420791D01*
X142043Y420740D01*
X141988Y420686D01*
X141935Y420629D01*
X141886Y420570D01*
X141839Y420508D01*
X141795Y420444D01*
X141755Y420378D01*
X141718Y420310D01*
X141684Y420240D01*
X141654Y420169D01*
X141628Y420096D01*
X141605Y420022D01*
X141586Y419947D01*
X141571Y419872D01*
X141559Y419795D01*
X141551Y419718D01*
X141547Y419641D01*
X141547Y419563D01*
X141551Y419486D01*
X141559Y419409D01*
X141571Y419332D01*
X141586Y419257D01*
X141605Y419182D01*
X141628Y419108D01*
X141654Y419035D01*
X141684Y418964D01*
X141718Y418894D01*
X141755Y418826D01*
X141795Y418760D01*
X141839Y418696D01*
X141886Y418634D01*
X141935Y418575D01*
X141988Y418518D01*
X142043Y418464D01*
X142101Y418413D01*
X142162Y418365D01*
X142225Y418320D01*
X142290Y418278D01*
X142357Y418239D01*
X142426Y418204D01*
X142496Y418172D01*
X142568Y418144D01*
X142642Y418119D01*
X142716Y418098D01*
X142791Y418081D01*
X142868Y418067D01*
X142944Y418058D01*
X143022Y418052D01*
X143099Y418050D01*
X144651Y418050D01*
X142788Y418050D02*
X141546Y415566D01*
X139007Y415566D02*
X136523Y415566D01*
X139007Y415566D02*
X139007Y421154D01*
X136523Y421154D01*
X137144Y418670D02*
X139007Y418670D01*
X132766Y415566D02*
X132696Y415568D01*
X132627Y415574D01*
X132558Y415584D01*
X132490Y415597D01*
X132422Y415615D01*
X132356Y415636D01*
X132291Y415661D01*
X132227Y415689D01*
X132165Y415721D01*
X132105Y415756D01*
X132047Y415795D01*
X131992Y415837D01*
X131938Y415882D01*
X131888Y415930D01*
X131840Y415980D01*
X131795Y416034D01*
X131753Y416089D01*
X131714Y416147D01*
X131679Y416207D01*
X131647Y416269D01*
X131619Y416333D01*
X131594Y416398D01*
X131573Y416464D01*
X131555Y416532D01*
X131542Y416600D01*
X131532Y416669D01*
X131526Y416738D01*
X131524Y416808D01*
X132766Y415566D02*
X132865Y415568D01*
X132963Y415573D01*
X133061Y415583D01*
X133159Y415596D01*
X133256Y415612D01*
X133353Y415632D01*
X133448Y415656D01*
X133543Y415684D01*
X133637Y415715D01*
X133729Y415749D01*
X133820Y415787D01*
X133910Y415828D01*
X133998Y415873D01*
X134084Y415921D01*
X134168Y415972D01*
X134250Y416026D01*
X134331Y416084D01*
X134409Y416144D01*
X134484Y416207D01*
X134558Y416273D01*
X134628Y416342D01*
X134474Y419912D02*
X134472Y419982D01*
X134466Y420051D01*
X134456Y420120D01*
X134443Y420188D01*
X134425Y420256D01*
X134404Y420322D01*
X134379Y420387D01*
X134351Y420451D01*
X134319Y420513D01*
X134284Y420573D01*
X134245Y420631D01*
X134203Y420686D01*
X134158Y420740D01*
X134110Y420790D01*
X134060Y420838D01*
X134006Y420883D01*
X133951Y420925D01*
X133893Y420964D01*
X133833Y420999D01*
X133771Y421031D01*
X133707Y421059D01*
X133642Y421084D01*
X133576Y421105D01*
X133508Y421123D01*
X133440Y421136D01*
X133371Y421146D01*
X133302Y421152D01*
X133232Y421154D01*
X133138Y421152D01*
X133045Y421146D01*
X132952Y421137D01*
X132859Y421124D01*
X132767Y421107D01*
X132676Y421087D01*
X132585Y421062D01*
X132496Y421035D01*
X132408Y421003D01*
X132321Y420968D01*
X132235Y420930D01*
X132152Y420888D01*
X132069Y420843D01*
X131989Y420795D01*
X131911Y420743D01*
X131835Y420688D01*
X133852Y418826D02*
X133911Y418862D01*
X133967Y418902D01*
X134021Y418945D01*
X134073Y418990D01*
X134122Y419039D01*
X134168Y419090D01*
X134211Y419143D01*
X134252Y419199D01*
X134289Y419257D01*
X134324Y419317D01*
X134354Y419378D01*
X134382Y419441D01*
X134406Y419506D01*
X134426Y419572D01*
X134443Y419639D01*
X134456Y419706D01*
X134465Y419774D01*
X134471Y419843D01*
X134473Y419912D01*
X132145Y417894D02*
X132086Y417858D01*
X132030Y417818D01*
X131976Y417775D01*
X131924Y417730D01*
X131875Y417681D01*
X131829Y417630D01*
X131786Y417577D01*
X131745Y417521D01*
X131708Y417463D01*
X131673Y417404D01*
X131643Y417342D01*
X131615Y417279D01*
X131591Y417214D01*
X131571Y417148D01*
X131554Y417081D01*
X131541Y417014D01*
X131532Y416946D01*
X131526Y416877D01*
X131524Y416808D01*
X132145Y417894D02*
X133853Y418826D01*
X129131Y415566D02*
X126648Y415566D01*
X129131Y415566D02*
X129131Y421154D01*
X126648Y421154D01*
X127269Y418670D02*
X129131Y418670D01*
X123384Y421154D02*
X123384Y415566D01*
X124936Y421154D02*
X121832Y421154D01*
D13*
X119500Y335800D02*
X104500Y335800D01*
X104500Y154800D02*
X119500Y154800D01*
X104500Y164800D02*
X104500Y325800D01*
X119500Y335800D02*
X119500Y154800D01*
X84500Y325800D02*
X74500Y325800D01*
X74500Y307800D01*
X74500Y164800D02*
X84500Y164800D01*
X74500Y164800D02*
X74500Y182800D01*
X101500Y325800D02*
X104500Y325800D01*
X104500Y164800D02*
X101500Y164800D01*
X104500Y164800D02*
X104500Y154800D01*
X104500Y325800D02*
X104500Y335800D01*
D10*
X42436Y222718D02*
X42436Y221476D01*
X42438Y221406D01*
X42444Y221337D01*
X42454Y221268D01*
X42467Y221200D01*
X42485Y221132D01*
X42506Y221066D01*
X42531Y221001D01*
X42559Y220937D01*
X42591Y220875D01*
X42626Y220815D01*
X42665Y220757D01*
X42707Y220702D01*
X42752Y220648D01*
X42800Y220598D01*
X42850Y220550D01*
X42904Y220505D01*
X42959Y220463D01*
X43017Y220424D01*
X43077Y220389D01*
X43139Y220357D01*
X43203Y220329D01*
X43268Y220304D01*
X43334Y220283D01*
X43402Y220265D01*
X43470Y220252D01*
X43539Y220242D01*
X43608Y220236D01*
X43678Y220234D01*
X46782Y220234D01*
X46852Y220236D01*
X46921Y220242D01*
X46990Y220252D01*
X47058Y220265D01*
X47126Y220283D01*
X47192Y220304D01*
X47257Y220329D01*
X47321Y220357D01*
X47383Y220389D01*
X47443Y220424D01*
X47501Y220463D01*
X47556Y220505D01*
X47610Y220550D01*
X47660Y220598D01*
X47708Y220648D01*
X47753Y220702D01*
X47795Y220757D01*
X47834Y220815D01*
X47869Y220875D01*
X47901Y220937D01*
X47929Y221001D01*
X47954Y221066D01*
X47975Y221132D01*
X47993Y221200D01*
X48006Y221268D01*
X48016Y221337D01*
X48022Y221406D01*
X48024Y221476D01*
X48024Y222718D01*
X48024Y226375D02*
X42436Y224512D01*
X42436Y228237D02*
X48024Y226375D01*
X43833Y227772D02*
X43833Y224978D01*
X42436Y230547D02*
X48024Y230547D01*
X44920Y232410D01*
X48024Y234272D01*
X42436Y234272D01*
X41815Y236654D02*
X41815Y239138D01*
X43988Y241282D02*
X46472Y241282D01*
X46549Y241284D01*
X46627Y241290D01*
X46703Y241299D01*
X46780Y241313D01*
X46855Y241330D01*
X46929Y241351D01*
X47003Y241376D01*
X47075Y241404D01*
X47145Y241436D01*
X47214Y241471D01*
X47281Y241510D01*
X47346Y241552D01*
X47409Y241597D01*
X47470Y241645D01*
X47528Y241696D01*
X47583Y241750D01*
X47636Y241807D01*
X47685Y241866D01*
X47732Y241928D01*
X47776Y241992D01*
X47816Y242058D01*
X47853Y242126D01*
X47887Y242196D01*
X47917Y242267D01*
X47943Y242340D01*
X47966Y242414D01*
X47985Y242489D01*
X48000Y242564D01*
X48012Y242641D01*
X48020Y242718D01*
X48024Y242795D01*
X48024Y242873D01*
X48020Y242950D01*
X48012Y243027D01*
X48000Y243104D01*
X47985Y243179D01*
X47966Y243254D01*
X47943Y243328D01*
X47917Y243401D01*
X47887Y243472D01*
X47853Y243542D01*
X47816Y243610D01*
X47776Y243676D01*
X47732Y243740D01*
X47685Y243802D01*
X47636Y243861D01*
X47583Y243918D01*
X47528Y243972D01*
X47470Y244023D01*
X47409Y244071D01*
X47346Y244116D01*
X47281Y244158D01*
X47214Y244197D01*
X47145Y244232D01*
X47075Y244264D01*
X47003Y244292D01*
X46929Y244317D01*
X46855Y244338D01*
X46780Y244355D01*
X46703Y244369D01*
X46627Y244378D01*
X46549Y244384D01*
X46472Y244386D01*
X43988Y244386D01*
X43911Y244384D01*
X43833Y244378D01*
X43757Y244369D01*
X43680Y244355D01*
X43605Y244338D01*
X43531Y244317D01*
X43457Y244292D01*
X43385Y244264D01*
X43315Y244232D01*
X43246Y244197D01*
X43179Y244158D01*
X43114Y244116D01*
X43051Y244071D01*
X42990Y244023D01*
X42932Y243972D01*
X42877Y243918D01*
X42824Y243861D01*
X42775Y243802D01*
X42728Y243740D01*
X42684Y243676D01*
X42644Y243610D01*
X42607Y243542D01*
X42573Y243472D01*
X42543Y243401D01*
X42517Y243328D01*
X42494Y243254D01*
X42475Y243179D01*
X42460Y243104D01*
X42448Y243027D01*
X42440Y242950D01*
X42436Y242873D01*
X42436Y242795D01*
X42440Y242718D01*
X42448Y242641D01*
X42460Y242564D01*
X42475Y242489D01*
X42494Y242414D01*
X42517Y242340D01*
X42543Y242267D01*
X42573Y242196D01*
X42607Y242126D01*
X42644Y242058D01*
X42684Y241992D01*
X42728Y241928D01*
X42775Y241866D01*
X42824Y241807D01*
X42877Y241750D01*
X42932Y241696D01*
X42990Y241645D01*
X43051Y241597D01*
X43114Y241552D01*
X43179Y241510D01*
X43246Y241471D01*
X43315Y241436D01*
X43385Y241404D01*
X43457Y241376D01*
X43531Y241351D01*
X43605Y241330D01*
X43680Y241313D01*
X43757Y241299D01*
X43833Y241290D01*
X43911Y241284D01*
X43988Y241282D01*
X48024Y246457D02*
X42436Y248320D01*
X48024Y250183D01*
X48024Y253962D02*
X48022Y254035D01*
X48016Y254108D01*
X48007Y254181D01*
X47993Y254252D01*
X47976Y254324D01*
X47956Y254394D01*
X47931Y254463D01*
X47903Y254530D01*
X47872Y254596D01*
X47837Y254661D01*
X47799Y254723D01*
X47757Y254783D01*
X47713Y254841D01*
X47665Y254897D01*
X47615Y254950D01*
X47562Y255000D01*
X47506Y255048D01*
X47448Y255092D01*
X47388Y255134D01*
X47326Y255172D01*
X47261Y255207D01*
X47195Y255238D01*
X47128Y255266D01*
X47059Y255291D01*
X46989Y255311D01*
X46917Y255328D01*
X46846Y255342D01*
X46773Y255351D01*
X46700Y255357D01*
X46627Y255359D01*
X48024Y253962D02*
X48022Y253878D01*
X48016Y253795D01*
X48007Y253712D01*
X47993Y253630D01*
X47976Y253548D01*
X47954Y253467D01*
X47929Y253387D01*
X47901Y253309D01*
X47869Y253231D01*
X47833Y253156D01*
X47794Y253082D01*
X47751Y253010D01*
X47705Y252940D01*
X47656Y252873D01*
X47603Y252807D01*
X47548Y252745D01*
X47490Y252685D01*
X47429Y252627D01*
X47366Y252573D01*
X47300Y252521D01*
X47232Y252473D01*
X47161Y252428D01*
X47089Y252386D01*
X47014Y252348D01*
X46938Y252313D01*
X46861Y252282D01*
X46782Y252254D01*
X45541Y254892D02*
X45594Y254946D01*
X45651Y254997D01*
X45710Y255045D01*
X45771Y255090D01*
X45834Y255131D01*
X45900Y255170D01*
X45967Y255205D01*
X46036Y255237D01*
X46107Y255265D01*
X46178Y255289D01*
X46251Y255310D01*
X46325Y255327D01*
X46400Y255341D01*
X46475Y255350D01*
X46551Y255356D01*
X46627Y255358D01*
X45540Y254893D02*
X42436Y252254D01*
X42436Y255359D01*
X45540Y257741D02*
X45540Y259603D01*
X45541Y259603D02*
X45539Y259673D01*
X45533Y259742D01*
X45523Y259811D01*
X45510Y259879D01*
X45492Y259947D01*
X45471Y260013D01*
X45446Y260078D01*
X45418Y260142D01*
X45386Y260204D01*
X45351Y260264D01*
X45312Y260322D01*
X45270Y260377D01*
X45225Y260431D01*
X45177Y260481D01*
X45127Y260529D01*
X45073Y260574D01*
X45018Y260616D01*
X44960Y260655D01*
X44900Y260690D01*
X44838Y260722D01*
X44774Y260750D01*
X44709Y260775D01*
X44643Y260796D01*
X44575Y260814D01*
X44507Y260827D01*
X44438Y260837D01*
X44369Y260843D01*
X44299Y260845D01*
X43988Y260845D01*
X43911Y260843D01*
X43833Y260837D01*
X43757Y260828D01*
X43680Y260814D01*
X43605Y260797D01*
X43531Y260776D01*
X43457Y260751D01*
X43385Y260723D01*
X43315Y260691D01*
X43246Y260656D01*
X43179Y260617D01*
X43114Y260575D01*
X43051Y260530D01*
X42990Y260482D01*
X42932Y260431D01*
X42877Y260377D01*
X42824Y260320D01*
X42775Y260261D01*
X42728Y260199D01*
X42684Y260135D01*
X42644Y260069D01*
X42607Y260001D01*
X42573Y259931D01*
X42543Y259860D01*
X42517Y259787D01*
X42494Y259713D01*
X42475Y259638D01*
X42460Y259563D01*
X42448Y259486D01*
X42440Y259409D01*
X42436Y259332D01*
X42436Y259254D01*
X42440Y259177D01*
X42448Y259100D01*
X42460Y259023D01*
X42475Y258948D01*
X42494Y258873D01*
X42517Y258799D01*
X42543Y258726D01*
X42573Y258655D01*
X42607Y258585D01*
X42644Y258517D01*
X42684Y258451D01*
X42728Y258387D01*
X42775Y258325D01*
X42824Y258266D01*
X42877Y258209D01*
X42932Y258155D01*
X42990Y258104D01*
X43051Y258056D01*
X43114Y258011D01*
X43179Y257969D01*
X43246Y257930D01*
X43315Y257895D01*
X43385Y257863D01*
X43457Y257835D01*
X43531Y257810D01*
X43605Y257789D01*
X43680Y257772D01*
X43757Y257758D01*
X43833Y257749D01*
X43911Y257743D01*
X43988Y257741D01*
X45540Y257741D01*
X45540Y257740D02*
X45638Y257742D01*
X45735Y257748D01*
X45832Y257757D01*
X45929Y257771D01*
X46025Y257788D01*
X46120Y257809D01*
X46214Y257833D01*
X46308Y257862D01*
X46400Y257894D01*
X46491Y257929D01*
X46580Y257968D01*
X46668Y258011D01*
X46754Y258057D01*
X46838Y258106D01*
X46920Y258159D01*
X47000Y258214D01*
X47078Y258273D01*
X47153Y258335D01*
X47226Y258400D01*
X47296Y258468D01*
X47364Y258538D01*
X47429Y258611D01*
X47491Y258686D01*
X47550Y258764D01*
X47605Y258844D01*
X47658Y258926D01*
X47707Y259010D01*
X47753Y259096D01*
X47796Y259184D01*
X47835Y259273D01*
X47870Y259364D01*
X47902Y259456D01*
X47931Y259550D01*
X47955Y259644D01*
X47976Y259739D01*
X47993Y259835D01*
X48007Y259932D01*
X48016Y260029D01*
X48022Y260126D01*
X48024Y260224D01*
X48024Y264469D02*
X43678Y263227D01*
X43678Y266331D01*
X44920Y265400D02*
X42436Y265400D01*
X45230Y268713D02*
X45361Y268715D01*
X45491Y268720D01*
X45621Y268730D01*
X45751Y268743D01*
X45881Y268759D01*
X46010Y268779D01*
X46138Y268803D01*
X46265Y268831D01*
X46392Y268862D01*
X46518Y268897D01*
X46643Y268935D01*
X46767Y268977D01*
X46889Y269022D01*
X47010Y269071D01*
X47130Y269123D01*
X47248Y269179D01*
X47308Y269202D01*
X47368Y269228D01*
X47425Y269257D01*
X47481Y269290D01*
X47535Y269326D01*
X47587Y269364D01*
X47637Y269406D01*
X47684Y269450D01*
X47729Y269497D01*
X47771Y269547D01*
X47810Y269598D01*
X47846Y269652D01*
X47879Y269708D01*
X47909Y269765D01*
X47936Y269824D01*
X47959Y269885D01*
X47979Y269946D01*
X47995Y270009D01*
X48008Y270073D01*
X48017Y270137D01*
X48022Y270201D01*
X48024Y270266D01*
X48022Y270331D01*
X48017Y270395D01*
X48008Y270459D01*
X47995Y270523D01*
X47979Y270586D01*
X47959Y270647D01*
X47936Y270708D01*
X47909Y270767D01*
X47879Y270824D01*
X47846Y270880D01*
X47810Y270934D01*
X47771Y270985D01*
X47729Y271035D01*
X47684Y271082D01*
X47637Y271126D01*
X47587Y271168D01*
X47535Y271206D01*
X47481Y271242D01*
X47425Y271275D01*
X47368Y271304D01*
X47308Y271330D01*
X47248Y271353D01*
X47248Y271352D02*
X47130Y271408D01*
X47010Y271460D01*
X46889Y271509D01*
X46767Y271554D01*
X46643Y271596D01*
X46518Y271634D01*
X46392Y271669D01*
X46266Y271700D01*
X46138Y271728D01*
X46010Y271752D01*
X45881Y271772D01*
X45751Y271788D01*
X45621Y271801D01*
X45491Y271811D01*
X45361Y271816D01*
X45230Y271818D01*
X45230Y268714D02*
X45099Y268716D01*
X44969Y268721D01*
X44839Y268731D01*
X44709Y268744D01*
X44579Y268760D01*
X44450Y268780D01*
X44322Y268804D01*
X44195Y268832D01*
X44068Y268863D01*
X43942Y268898D01*
X43817Y268936D01*
X43693Y268978D01*
X43571Y269023D01*
X43450Y269072D01*
X43330Y269124D01*
X43212Y269180D01*
X43212Y269179D02*
X43152Y269202D01*
X43092Y269228D01*
X43035Y269257D01*
X42979Y269290D01*
X42925Y269326D01*
X42873Y269364D01*
X42823Y269406D01*
X42776Y269450D01*
X42731Y269497D01*
X42689Y269547D01*
X42650Y269598D01*
X42614Y269652D01*
X42581Y269708D01*
X42551Y269765D01*
X42524Y269824D01*
X42501Y269885D01*
X42481Y269946D01*
X42465Y270009D01*
X42452Y270073D01*
X42443Y270137D01*
X42438Y270201D01*
X42436Y270266D01*
X43212Y271352D02*
X43330Y271408D01*
X43450Y271460D01*
X43571Y271509D01*
X43693Y271554D01*
X43817Y271596D01*
X43942Y271634D01*
X44068Y271669D01*
X44194Y271700D01*
X44322Y271728D01*
X44450Y271752D01*
X44579Y271772D01*
X44709Y271788D01*
X44839Y271801D01*
X44969Y271811D01*
X45099Y271816D01*
X45230Y271818D01*
X43212Y271353D02*
X43152Y271330D01*
X43092Y271304D01*
X43035Y271275D01*
X42979Y271242D01*
X42925Y271206D01*
X42873Y271168D01*
X42823Y271126D01*
X42776Y271082D01*
X42731Y271035D01*
X42689Y270985D01*
X42650Y270934D01*
X42614Y270880D01*
X42581Y270824D01*
X42551Y270767D01*
X42524Y270708D01*
X42501Y270647D01*
X42481Y270586D01*
X42465Y270523D01*
X42452Y270459D01*
X42443Y270395D01*
X42438Y270331D01*
X42436Y270266D01*
X43678Y269024D02*
X46782Y271507D01*
D14*
X219800Y79400D02*
X279800Y79400D01*
X279800Y114400D01*
X219800Y114400D01*
X219800Y79400D01*
D10*
X276356Y118906D02*
X272631Y124494D01*
X276356Y124494D02*
X272631Y118906D01*
X269373Y118906D02*
X269373Y124494D01*
X270925Y124494D02*
X267821Y124494D01*
X264252Y124494D02*
X266115Y118906D01*
X262390Y118906D02*
X264252Y124494D01*
X262855Y120303D02*
X265649Y120303D01*
X260124Y118906D02*
X260124Y124494D01*
X260124Y118906D02*
X257641Y118906D01*
X255801Y118285D02*
X253318Y118285D01*
X251174Y123252D02*
X249622Y124494D01*
X249622Y118906D01*
X251174Y118906D02*
X248070Y118906D01*
X242583Y123097D02*
X242585Y123170D01*
X242591Y123243D01*
X242600Y123316D01*
X242614Y123387D01*
X242631Y123459D01*
X242651Y123529D01*
X242676Y123598D01*
X242704Y123665D01*
X242735Y123731D01*
X242770Y123796D01*
X242808Y123858D01*
X242850Y123918D01*
X242894Y123976D01*
X242942Y124032D01*
X242992Y124085D01*
X243045Y124135D01*
X243101Y124183D01*
X243159Y124227D01*
X243219Y124269D01*
X243282Y124307D01*
X243346Y124342D01*
X243412Y124373D01*
X243479Y124401D01*
X243548Y124426D01*
X243618Y124446D01*
X243690Y124463D01*
X243761Y124477D01*
X243834Y124486D01*
X243907Y124492D01*
X243980Y124494D01*
X244064Y124492D01*
X244147Y124486D01*
X244230Y124477D01*
X244312Y124463D01*
X244394Y124446D01*
X244475Y124424D01*
X244555Y124399D01*
X244633Y124371D01*
X244711Y124339D01*
X244786Y124303D01*
X244860Y124264D01*
X244932Y124221D01*
X245002Y124175D01*
X245069Y124126D01*
X245135Y124073D01*
X245197Y124018D01*
X245257Y123960D01*
X245315Y123899D01*
X245369Y123836D01*
X245421Y123770D01*
X245469Y123702D01*
X245514Y123631D01*
X245556Y123559D01*
X245594Y123484D01*
X245629Y123408D01*
X245660Y123331D01*
X245688Y123252D01*
X243050Y122011D02*
X242996Y122064D01*
X242945Y122121D01*
X242897Y122180D01*
X242852Y122241D01*
X242811Y122304D01*
X242772Y122370D01*
X242737Y122437D01*
X242705Y122506D01*
X242677Y122577D01*
X242653Y122648D01*
X242632Y122721D01*
X242615Y122795D01*
X242601Y122870D01*
X242592Y122945D01*
X242586Y123021D01*
X242584Y123097D01*
X243049Y122010D02*
X245688Y118906D01*
X242583Y118906D01*
X239963Y118906D02*
X239963Y124494D01*
X238100Y121390D01*
X236238Y124494D01*
X236238Y118906D01*
X233435Y118906D02*
X233435Y124494D01*
X233435Y122010D02*
X230330Y122010D01*
X230330Y124494D02*
X230330Y118906D01*
X227948Y124494D02*
X224844Y124494D01*
X227948Y118906D01*
X224844Y118906D01*
D11*
X-15400Y15000D02*
X-15642Y15003D01*
X-15883Y15012D01*
X-16124Y15026D01*
X-16365Y15047D01*
X-16605Y15073D01*
X-16845Y15105D01*
X-17084Y15143D01*
X-17321Y15186D01*
X-17558Y15236D01*
X-17793Y15291D01*
X-18027Y15351D01*
X-18259Y15418D01*
X-18490Y15489D01*
X-18719Y15567D01*
X-18946Y15650D01*
X-19171Y15738D01*
X-19394Y15832D01*
X-19614Y15931D01*
X-19832Y16036D01*
X-20047Y16145D01*
X-20260Y16260D01*
X-20470Y16380D01*
X-20676Y16505D01*
X-20880Y16635D01*
X-21081Y16770D01*
X-21278Y16910D01*
X-21472Y17054D01*
X-21662Y17203D01*
X-21848Y17357D01*
X-22031Y17515D01*
X-22210Y17677D01*
X-22385Y17844D01*
X-22556Y18015D01*
X-22723Y18190D01*
X-22885Y18369D01*
X-23043Y18552D01*
X-23197Y18738D01*
X-23346Y18928D01*
X-23490Y19122D01*
X-23630Y19319D01*
X-23765Y19520D01*
X-23895Y19724D01*
X-24020Y19930D01*
X-24140Y20140D01*
X-24255Y20353D01*
X-24364Y20568D01*
X-24469Y20786D01*
X-24568Y21006D01*
X-24662Y21229D01*
X-24750Y21454D01*
X-24833Y21681D01*
X-24911Y21910D01*
X-24982Y22141D01*
X-25049Y22373D01*
X-25109Y22607D01*
X-25164Y22842D01*
X-25214Y23079D01*
X-25257Y23316D01*
X-25295Y23555D01*
X-25327Y23795D01*
X-25353Y24035D01*
X-25374Y24276D01*
X-25388Y24517D01*
X-25397Y24758D01*
X-25400Y25000D01*
X-25400Y95000D01*
X-25397Y95242D01*
X-25388Y95483D01*
X-25374Y95724D01*
X-25353Y95965D01*
X-25327Y96205D01*
X-25295Y96445D01*
X-25257Y96684D01*
X-25214Y96921D01*
X-25164Y97158D01*
X-25109Y97393D01*
X-25049Y97627D01*
X-24982Y97859D01*
X-24911Y98090D01*
X-24833Y98319D01*
X-24750Y98546D01*
X-24662Y98771D01*
X-24568Y98994D01*
X-24469Y99214D01*
X-24364Y99432D01*
X-24255Y99647D01*
X-24140Y99860D01*
X-24020Y100070D01*
X-23895Y100276D01*
X-23765Y100480D01*
X-23630Y100681D01*
X-23490Y100878D01*
X-23346Y101072D01*
X-23197Y101262D01*
X-23043Y101448D01*
X-22885Y101631D01*
X-22723Y101810D01*
X-22556Y101985D01*
X-22385Y102156D01*
X-22210Y102323D01*
X-22031Y102485D01*
X-21848Y102643D01*
X-21662Y102797D01*
X-21472Y102946D01*
X-21278Y103090D01*
X-21081Y103230D01*
X-20880Y103365D01*
X-20676Y103495D01*
X-20470Y103620D01*
X-20260Y103740D01*
X-20047Y103855D01*
X-19832Y103964D01*
X-19614Y104069D01*
X-19394Y104168D01*
X-19171Y104262D01*
X-18946Y104350D01*
X-18719Y104433D01*
X-18490Y104511D01*
X-18259Y104582D01*
X-18027Y104649D01*
X-17793Y104709D01*
X-17558Y104764D01*
X-17321Y104814D01*
X-17084Y104857D01*
X-16845Y104895D01*
X-16605Y104927D01*
X-16365Y104953D01*
X-16124Y104974D01*
X-15883Y104988D01*
X-15642Y104997D01*
X-15400Y105000D01*
X127140Y105000D02*
X127140Y74920D01*
X114600Y74920D01*
X114600Y15000D01*
X7920Y15000D02*
X-15400Y15000D01*
X40480Y15000D02*
X71420Y15000D01*
X103980Y15000D02*
X114600Y15000D01*
X7760Y105000D02*
X-15400Y105000D01*
X40480Y105000D02*
X71260Y105000D01*
X103980Y105000D02*
X127140Y105000D01*
D15*
X23725Y31171D02*
X23725Y22874D01*
X19576Y27022D02*
X27874Y27022D01*
D16*
X30427Y94445D02*
X31654Y94445D01*
X30427Y94445D02*
X30427Y90353D01*
X32882Y90353D01*
X32960Y90355D01*
X33038Y90360D01*
X33115Y90370D01*
X33192Y90383D01*
X33268Y90399D01*
X33343Y90419D01*
X33417Y90443D01*
X33490Y90470D01*
X33562Y90501D01*
X33632Y90535D01*
X33701Y90572D01*
X33767Y90613D01*
X33832Y90657D01*
X33894Y90703D01*
X33954Y90753D01*
X34012Y90805D01*
X34067Y90860D01*
X34119Y90918D01*
X34169Y90978D01*
X34215Y91040D01*
X34259Y91105D01*
X34300Y91172D01*
X34337Y91240D01*
X34371Y91310D01*
X34402Y91382D01*
X34429Y91455D01*
X34453Y91529D01*
X34473Y91604D01*
X34489Y91680D01*
X34502Y91757D01*
X34512Y91834D01*
X34517Y91912D01*
X34519Y91990D01*
X34519Y96082D01*
X34517Y96160D01*
X34512Y96238D01*
X34502Y96315D01*
X34489Y96392D01*
X34473Y96468D01*
X34453Y96543D01*
X34429Y96617D01*
X34402Y96690D01*
X34371Y96762D01*
X34337Y96832D01*
X34300Y96901D01*
X34259Y96967D01*
X34215Y97032D01*
X34169Y97094D01*
X34119Y97154D01*
X34067Y97212D01*
X34012Y97267D01*
X33954Y97319D01*
X33894Y97369D01*
X33832Y97415D01*
X33767Y97459D01*
X33701Y97500D01*
X33632Y97537D01*
X33562Y97571D01*
X33490Y97602D01*
X33417Y97629D01*
X33343Y97653D01*
X33268Y97673D01*
X33192Y97689D01*
X33115Y97702D01*
X33038Y97712D01*
X32960Y97717D01*
X32882Y97719D01*
X30427Y97719D01*
X26716Y97719D02*
X26716Y90353D01*
X22624Y90353D02*
X26716Y97719D01*
X22624Y97719D02*
X22624Y90353D01*
X18913Y90353D02*
X18913Y97719D01*
X16867Y97719D01*
X16778Y97717D01*
X16689Y97711D01*
X16600Y97701D01*
X16512Y97688D01*
X16424Y97671D01*
X16337Y97649D01*
X16252Y97624D01*
X16167Y97596D01*
X16084Y97563D01*
X16002Y97527D01*
X15922Y97488D01*
X15844Y97445D01*
X15768Y97399D01*
X15693Y97349D01*
X15621Y97296D01*
X15552Y97240D01*
X15485Y97181D01*
X15420Y97120D01*
X15359Y97055D01*
X15300Y96988D01*
X15244Y96919D01*
X15191Y96847D01*
X15141Y96772D01*
X15095Y96696D01*
X15052Y96618D01*
X15013Y96538D01*
X14977Y96456D01*
X14944Y96373D01*
X14916Y96288D01*
X14891Y96203D01*
X14869Y96116D01*
X14852Y96028D01*
X14839Y95940D01*
X14829Y95851D01*
X14823Y95762D01*
X14821Y95673D01*
X14821Y92399D01*
X14823Y92310D01*
X14829Y92221D01*
X14839Y92132D01*
X14852Y92044D01*
X14869Y91956D01*
X14891Y91869D01*
X14916Y91784D01*
X14944Y91699D01*
X14977Y91616D01*
X15013Y91534D01*
X15052Y91454D01*
X15095Y91376D01*
X15141Y91300D01*
X15191Y91225D01*
X15244Y91153D01*
X15300Y91084D01*
X15359Y91017D01*
X15420Y90952D01*
X15485Y90891D01*
X15552Y90832D01*
X15621Y90776D01*
X15693Y90723D01*
X15768Y90673D01*
X15844Y90627D01*
X15922Y90584D01*
X16002Y90545D01*
X16084Y90509D01*
X16167Y90476D01*
X16252Y90448D01*
X16337Y90423D01*
X16424Y90401D01*
X16512Y90384D01*
X16600Y90371D01*
X16689Y90361D01*
X16778Y90355D01*
X16867Y90353D01*
X18913Y90353D01*
M02*
