G04 EAGLE Gerber RS-274X export*
G75*
%MOMM*%
%FSLAX34Y34*%
%LPD*%
%INSoldermask Bottom*%
%IPPOS*%
%AMOC8*
5,1,8,0,0,1.08239X$1,22.5*%
G01*
%ADD10C,3.152400*%
%ADD11C,2.082800*%
%ADD12R,1.052400X1.652400*%
%ADD13R,1.652400X1.052400*%
%ADD14R,1.052400X1.052400*%
%ADD15R,2.302400X3.402400*%
%ADD16R,2.302400X1.102400*%
%ADD17C,2.032000*%
%ADD18R,1.400000X0.400000*%
%ADD19R,3.252400X2.452400*%
%ADD20R,2.052400X2.752400*%
%ADD21R,2.552400X2.152400*%
%ADD22C,1.752400*%
%ADD23C,1.952400*%
%ADD24C,0.838200*%


D10*
X460000Y450000D03*
X460000Y30000D03*
X160000Y30000D03*
D11*
X25800Y451500D03*
X76600Y451500D03*
D12*
X486850Y148500D03*
X474150Y148500D03*
X461450Y148500D03*
X448750Y148500D03*
X436050Y148500D03*
X423350Y148500D03*
X410650Y148500D03*
X397950Y148500D03*
X385250Y148500D03*
X372550Y148500D03*
X359850Y148500D03*
X347150Y148500D03*
X334450Y148500D03*
X321750Y148500D03*
X321750Y323500D03*
X334450Y323500D03*
X347150Y323500D03*
X359850Y323500D03*
X372550Y323500D03*
X385250Y323500D03*
X397950Y323500D03*
X410650Y323500D03*
X423350Y323500D03*
X436050Y323500D03*
X448750Y323500D03*
X461450Y323500D03*
X474150Y323500D03*
X486850Y323500D03*
D13*
X309250Y293150D03*
X309250Y280450D03*
X309250Y267750D03*
X309250Y255050D03*
X309250Y242350D03*
X309250Y229650D03*
X309250Y216950D03*
X309250Y204250D03*
X309250Y191550D03*
X309250Y178850D03*
D14*
X409650Y221000D03*
X409650Y235000D03*
X395650Y235000D03*
X395650Y221000D03*
X395650Y207000D03*
X409650Y207000D03*
X423650Y207000D03*
X423650Y221000D03*
X423650Y235000D03*
D11*
X331500Y30200D03*
X382300Y30200D03*
X330600Y451500D03*
X381400Y451500D03*
D15*
X281900Y372000D03*
D16*
X223900Y349000D03*
X223900Y372000D03*
X223900Y395000D03*
D17*
X224200Y18800D03*
X249600Y18800D03*
X275000Y18800D03*
X275000Y44200D03*
X249600Y44200D03*
X224200Y44200D03*
X221400Y440400D03*
X246800Y440400D03*
X272200Y440400D03*
X272200Y465800D03*
X246800Y465800D03*
X221400Y465800D03*
D11*
X118200Y451500D03*
X169000Y451500D03*
D18*
X67000Y302800D03*
X67000Y297800D03*
X67000Y292800D03*
X67000Y287800D03*
X67000Y282800D03*
X67000Y277800D03*
X67000Y272800D03*
X67000Y267800D03*
X67000Y262800D03*
X67000Y257800D03*
X67000Y252800D03*
X67000Y247800D03*
X67000Y242800D03*
X67000Y237800D03*
X67000Y232800D03*
X67000Y227800D03*
X67000Y222800D03*
X67000Y217800D03*
X67000Y212800D03*
X67000Y207800D03*
X67000Y202800D03*
X67000Y197800D03*
X67000Y192800D03*
X67000Y187800D03*
D19*
X84000Y171300D03*
X84000Y319300D03*
D20*
X228300Y96900D03*
X271300Y96900D03*
D21*
X24600Y5000D03*
X86600Y5000D03*
X86600Y115000D03*
X24600Y115000D03*
D22*
X24600Y60000D03*
D23*
X69600Y60000D03*
D24*
X54864Y187452D03*
X144780Y190500D03*
X146304Y248412D03*
X188976Y275844D03*
X114300Y283464D03*
X417576Y269748D03*
X364236Y166116D03*
X370332Y172212D03*
X246888Y173736D03*
X284988Y135636D03*
X329184Y129540D03*
X411480Y135636D03*
X473964Y198120D03*
X246888Y190500D03*
X289560Y153924D03*
X397764Y169164D03*
X216408Y143256D03*
X240792Y213360D03*
X271272Y243840D03*
X280416Y326136D03*
X344424Y336804D03*
X271272Y199644D03*
X288036Y222504D03*
X339852Y280416D03*
X342900Y213360D03*
X356616Y227076D03*
X356616Y275844D03*
X352044Y283464D03*
X347472Y268224D03*
X143256Y167640D03*
X192024Y202692D03*
X222504Y115824D03*
X408432Y161544D03*
X54864Y228600D03*
X164592Y222504D03*
X220980Y156972D03*
X176784Y135636D03*
X323088Y92964D03*
X237744Y385572D03*
X170688Y385572D03*
X149352Y367284D03*
X105156Y312420D03*
X323088Y266700D03*
X362712Y233172D03*
X338328Y199644D03*
X278892Y170688D03*
X295656Y237744D03*
X289560Y60960D03*
X313944Y80772D03*
X329184Y167640D03*
X323088Y185928D03*
X53340Y249936D03*
X35052Y268224D03*
X201168Y397764D03*
X48768Y208788D03*
X62484Y330708D03*
X249936Y278892D03*
X256032Y272796D03*
X240792Y278892D03*
X284988Y268224D03*
X79248Y268224D03*
X144780Y230124D03*
X252984Y252984D03*
X128016Y362712D03*
X297180Y411480D03*
X291084Y256032D03*
X301752Y141732D03*
X327660Y274320D03*
X216408Y225552D03*
X155448Y198120D03*
X176784Y175260D03*
X228600Y164592D03*
X265176Y210312D03*
X211836Y243840D03*
X79248Y233172D03*
X92964Y237744D03*
X173736Y268224D03*
X164592Y259080D03*
X182880Y269748D03*
X166116Y242316D03*
X213360Y105156D03*
X286512Y106680D03*
X202692Y246888D03*
X153924Y210312D03*
X134112Y268224D03*
X83820Y368808D03*
X181356Y120396D03*
X211836Y150876D03*
X219456Y425196D03*
X118872Y233172D03*
X141732Y256032D03*
X170688Y310896D03*
X128016Y478536D03*
X326136Y207264D03*
X85344Y227076D03*
X128016Y184404D03*
X262128Y201168D03*
X155448Y222504D03*
X397764Y131064D03*
X211836Y117348D03*
X211836Y135636D03*
X32004Y131064D03*
X164592Y132588D03*
X211836Y163068D03*
X59436Y339852D03*
X59436Y362712D03*
X292608Y324612D03*
X79248Y297180D03*
X237744Y237744D03*
X274320Y217932D03*
X56388Y307848D03*
X152400Y129540D03*
X234696Y202692D03*
X437388Y291084D03*
X403860Y118872D03*
X267462Y3556D03*
X262128Y252984D03*
X196596Y341376D03*
X167640Y409956D03*
M02*
