G04 EAGLE Gerber RS-274X export*
G75*
%MOMM*%
%FSLAX34Y34*%
%LPD*%
%INSolderpaste Bottom*%
%IPPOS*%
%AMOC8*
5,1,8,0,0,1.08239X$1,22.5*%
G01*
%ADD10R,0.900000X1.500000*%
%ADD11R,1.500000X0.900000*%
%ADD12R,0.900000X0.900000*%
%ADD13R,2.150000X3.250000*%
%ADD14R,2.150000X0.950000*%
%ADD15R,1.250000X0.250000*%
%ADD16R,3.100000X2.300000*%
%ADD17R,1.900000X2.600000*%
%ADD18R,2.400000X2.000000*%


D10*
X486850Y148500D03*
X474150Y148500D03*
X461450Y148500D03*
X448750Y148500D03*
X436050Y148500D03*
X423350Y148500D03*
X410650Y148500D03*
X397950Y148500D03*
X385250Y148500D03*
X372550Y148500D03*
X359850Y148500D03*
X347150Y148500D03*
X334450Y148500D03*
X321750Y148500D03*
X321750Y323500D03*
X334450Y323500D03*
X347150Y323500D03*
X359850Y323500D03*
X372550Y323500D03*
X385250Y323500D03*
X397950Y323500D03*
X410650Y323500D03*
X423350Y323500D03*
X436050Y323500D03*
X448750Y323500D03*
X461450Y323500D03*
X474150Y323500D03*
X486850Y323500D03*
D11*
X309250Y293150D03*
X309250Y280450D03*
X309250Y267750D03*
X309250Y255050D03*
X309250Y242350D03*
X309250Y229650D03*
X309250Y216950D03*
X309250Y204250D03*
X309250Y191550D03*
X309250Y178850D03*
D12*
X409650Y221000D03*
X409650Y235000D03*
X395650Y235000D03*
X395650Y221000D03*
X395650Y207000D03*
X409650Y207000D03*
X423650Y207000D03*
X423650Y221000D03*
X423650Y235000D03*
D13*
X281900Y372000D03*
D14*
X223900Y349000D03*
X223900Y372000D03*
X223900Y395000D03*
D15*
X67000Y302800D03*
X67000Y297800D03*
X67000Y292800D03*
X67000Y287800D03*
X67000Y282800D03*
X67000Y277800D03*
X67000Y272800D03*
X67000Y267800D03*
X67000Y262800D03*
X67000Y257800D03*
X67000Y252800D03*
X67000Y247800D03*
X67000Y242800D03*
X67000Y237800D03*
X67000Y232800D03*
X67000Y227800D03*
X67000Y222800D03*
X67000Y217800D03*
X67000Y212800D03*
X67000Y207800D03*
X67000Y202800D03*
X67000Y197800D03*
X67000Y192800D03*
X67000Y187800D03*
D16*
X84000Y171300D03*
X84000Y319300D03*
D17*
X228300Y96900D03*
X271300Y96900D03*
D18*
X24600Y5000D03*
X86600Y5000D03*
X86600Y115000D03*
X24600Y115000D03*
M02*
