G04 EAGLE Gerber RS-274X export*
G75*
%MOMM*%
%FSLAX34Y34*%
%LPD*%
%INSoldermask Top*%
%IPPOS*%
%AMOC8*
5,1,8,0,0,1.08239X$1,22.5*%
G01*
%ADD10C,3.152400*%
%ADD11R,0.952400X1.352400*%
%ADD12C,0.449434*%
%ADD13R,0.431800X1.625600*%
%ADD14C,2.082800*%
%ADD15C,2.032000*%
%ADD16C,1.752400*%
%ADD17C,1.952400*%
%ADD18C,0.838200*%


D10*
X460000Y450000D03*
X460000Y30000D03*
X160000Y30000D03*
D11*
G36*
X120784Y329922D02*
X114050Y323188D01*
X104488Y332750D01*
X111222Y339484D01*
X120784Y329922D01*
G37*
G36*
X133512Y342650D02*
X126778Y335916D01*
X117216Y345478D01*
X123950Y352212D01*
X133512Y342650D01*
G37*
G36*
X165684Y184522D02*
X158950Y177788D01*
X149388Y187350D01*
X156122Y194084D01*
X165684Y184522D01*
G37*
G36*
X178412Y197250D02*
X171678Y190516D01*
X162116Y200078D01*
X168850Y206812D01*
X178412Y197250D01*
G37*
G36*
X188478Y319384D02*
X195212Y312650D01*
X185650Y303088D01*
X178916Y309822D01*
X188478Y319384D01*
G37*
G36*
X175750Y332112D02*
X182484Y325378D01*
X172922Y315816D01*
X166188Y322550D01*
X175750Y332112D01*
G37*
G36*
X178478Y291284D02*
X185212Y284550D01*
X175650Y274988D01*
X168916Y281722D01*
X178478Y291284D01*
G37*
G36*
X165750Y304012D02*
X172484Y297278D01*
X162922Y287716D01*
X156188Y294450D01*
X165750Y304012D01*
G37*
G36*
X156378Y322484D02*
X163112Y315750D01*
X153550Y306188D01*
X146816Y312922D01*
X156378Y322484D01*
G37*
G36*
X143650Y335212D02*
X150384Y328478D01*
X140822Y318916D01*
X134088Y325650D01*
X143650Y335212D01*
G37*
G36*
X162922Y351516D02*
X156188Y358250D01*
X165750Y367812D01*
X172484Y361078D01*
X162922Y351516D01*
G37*
G36*
X175650Y338788D02*
X168916Y345522D01*
X178478Y355084D01*
X185212Y348350D01*
X175650Y338788D01*
G37*
G36*
X306584Y312922D02*
X299850Y306188D01*
X290288Y315750D01*
X297022Y322484D01*
X306584Y312922D01*
G37*
G36*
X319312Y325650D02*
X312578Y318916D01*
X303016Y328478D01*
X309750Y335212D01*
X319312Y325650D01*
G37*
G36*
X291522Y91116D02*
X284788Y97850D01*
X294350Y107412D01*
X301084Y100678D01*
X291522Y91116D01*
G37*
G36*
X304250Y78388D02*
X297516Y85122D01*
X307078Y94684D01*
X313812Y87950D01*
X304250Y78388D01*
G37*
G36*
X339484Y71322D02*
X332750Y64588D01*
X323188Y74150D01*
X329922Y80884D01*
X339484Y71322D01*
G37*
G36*
X352212Y84050D02*
X345478Y77316D01*
X335916Y86878D01*
X342650Y93612D01*
X352212Y84050D01*
G37*
G36*
X324978Y114084D02*
X331712Y107350D01*
X322150Y97788D01*
X315416Y104522D01*
X324978Y114084D01*
G37*
G36*
X312250Y126812D02*
X318984Y120078D01*
X309422Y110516D01*
X302688Y117250D01*
X312250Y126812D01*
G37*
G36*
X117522Y300516D02*
X110788Y307250D01*
X120350Y316812D01*
X127084Y310078D01*
X117522Y300516D01*
G37*
G36*
X130250Y287788D02*
X123516Y294522D01*
X133078Y304084D01*
X139812Y297350D01*
X130250Y287788D01*
G37*
G36*
X98384Y379922D02*
X91650Y373188D01*
X82088Y382750D01*
X88822Y389484D01*
X98384Y379922D01*
G37*
G36*
X111112Y392650D02*
X104378Y385916D01*
X94816Y395478D01*
X101550Y402212D01*
X111112Y392650D01*
G37*
G36*
X49484Y143722D02*
X42750Y136988D01*
X33188Y146550D01*
X39922Y153284D01*
X49484Y143722D01*
G37*
G36*
X62212Y156450D02*
X55478Y149716D01*
X45916Y159278D01*
X52650Y166012D01*
X62212Y156450D01*
G37*
G36*
X69922Y337816D02*
X63188Y344550D01*
X72750Y354112D01*
X79484Y347378D01*
X69922Y337816D01*
G37*
G36*
X82650Y325088D02*
X75916Y331822D01*
X85478Y341384D01*
X92212Y334650D01*
X82650Y325088D01*
G37*
G36*
X310078Y159484D02*
X316812Y152750D01*
X307250Y143188D01*
X300516Y149922D01*
X310078Y159484D01*
G37*
G36*
X297350Y172212D02*
X304084Y165478D01*
X294522Y155916D01*
X287788Y162650D01*
X297350Y172212D01*
G37*
X238700Y135800D03*
X256700Y135800D03*
G36*
X141222Y267516D02*
X134488Y274250D01*
X144050Y283812D01*
X150784Y277078D01*
X141222Y267516D01*
G37*
G36*
X153950Y254788D02*
X147216Y261522D01*
X156778Y271084D01*
X163512Y264350D01*
X153950Y254788D01*
G37*
D12*
X252655Y336985D02*
X252655Y344015D01*
X259685Y344015D01*
X259685Y336985D01*
X252655Y336985D01*
X252655Y341254D02*
X259685Y341254D01*
X235115Y344015D02*
X235115Y336985D01*
X235115Y344015D02*
X242145Y344015D01*
X242145Y336985D01*
X235115Y336985D01*
X235115Y341254D02*
X242145Y341254D01*
X316399Y356369D02*
X321369Y351399D01*
X316399Y346429D01*
X311429Y351399D01*
X316399Y356369D01*
X320668Y350698D02*
X312130Y350698D01*
X314997Y354967D02*
X317801Y354967D01*
X328801Y368771D02*
X333771Y363801D01*
X328801Y358831D01*
X323831Y363801D01*
X328801Y368771D01*
X333070Y363100D02*
X324532Y363100D01*
X327399Y367369D02*
X330203Y367369D01*
X358631Y314801D02*
X363601Y309831D01*
X358631Y314801D02*
X363601Y319771D01*
X368571Y314801D01*
X363601Y309831D01*
X367870Y314100D02*
X359332Y314100D01*
X362199Y318369D02*
X365003Y318369D01*
X346229Y302399D02*
X351199Y297429D01*
X346229Y302399D02*
X351199Y307369D01*
X356169Y302399D01*
X351199Y297429D01*
X355468Y301698D02*
X346930Y301698D01*
X349797Y305967D02*
X352601Y305967D01*
X442655Y240215D02*
X442655Y233185D01*
X442655Y240215D02*
X449685Y240215D01*
X449685Y233185D01*
X442655Y233185D01*
X442655Y237454D02*
X449685Y237454D01*
X425115Y240215D02*
X425115Y233185D01*
X425115Y240215D02*
X432145Y240215D01*
X432145Y233185D01*
X425115Y233185D01*
X425115Y237454D02*
X432145Y237454D01*
D11*
G36*
X157078Y150884D02*
X163812Y144150D01*
X154250Y134588D01*
X147516Y141322D01*
X157078Y150884D01*
G37*
G36*
X144350Y163612D02*
X151084Y156878D01*
X141522Y147316D01*
X134788Y154050D01*
X144350Y163612D01*
G37*
G36*
X87078Y298984D02*
X93812Y292250D01*
X84250Y282688D01*
X77516Y289422D01*
X87078Y298984D01*
G37*
G36*
X74350Y311712D02*
X81084Y304978D01*
X71522Y295416D01*
X64788Y302150D01*
X74350Y311712D01*
G37*
G36*
X357516Y363078D02*
X364250Y369812D01*
X373812Y360250D01*
X367078Y353516D01*
X357516Y363078D01*
G37*
G36*
X344788Y350350D02*
X351522Y357084D01*
X361084Y347522D01*
X354350Y340788D01*
X344788Y350350D01*
G37*
G36*
X361178Y182484D02*
X367912Y175750D01*
X358350Y166188D01*
X351616Y172922D01*
X361178Y182484D01*
G37*
G36*
X348450Y195212D02*
X355184Y188478D01*
X345622Y178916D01*
X338888Y185650D01*
X348450Y195212D01*
G37*
G36*
X392484Y170722D02*
X385750Y163988D01*
X376188Y173550D01*
X382922Y180284D01*
X392484Y170722D01*
G37*
G36*
X405212Y183450D02*
X398478Y176716D01*
X388916Y186278D01*
X395650Y193012D01*
X405212Y183450D01*
G37*
G36*
X192184Y151522D02*
X185450Y144788D01*
X175888Y154350D01*
X182622Y161084D01*
X192184Y151522D01*
G37*
G36*
X204912Y164250D02*
X198178Y157516D01*
X188616Y167078D01*
X195350Y173812D01*
X204912Y164250D01*
G37*
G36*
X108916Y370078D02*
X115650Y376812D01*
X125212Y367250D01*
X118478Y360516D01*
X108916Y370078D01*
G37*
G36*
X96188Y357350D02*
X102922Y364084D01*
X112484Y354522D01*
X105750Y347788D01*
X96188Y357350D01*
G37*
G36*
X322484Y296422D02*
X315750Y289688D01*
X306188Y299250D01*
X312922Y305984D01*
X322484Y296422D01*
G37*
G36*
X335212Y309150D02*
X328478Y302416D01*
X318916Y311978D01*
X325650Y318712D01*
X335212Y309150D01*
G37*
G36*
X351678Y132484D02*
X358412Y125750D01*
X348850Y116188D01*
X342116Y122922D01*
X351678Y132484D01*
G37*
G36*
X338950Y145212D02*
X345684Y138478D01*
X336122Y128916D01*
X329388Y135650D01*
X338950Y145212D01*
G37*
D13*
G36*
X181206Y220615D02*
X178152Y223669D01*
X189646Y235163D01*
X192700Y232109D01*
X181206Y220615D01*
G37*
G36*
X184798Y217023D02*
X181744Y220077D01*
X193238Y231571D01*
X196292Y228517D01*
X184798Y217023D01*
G37*
G36*
X188390Y213431D02*
X185336Y216485D01*
X196830Y227979D01*
X199884Y224925D01*
X188390Y213431D01*
G37*
G36*
X191802Y210018D02*
X188748Y213072D01*
X200242Y224566D01*
X203296Y221512D01*
X191802Y210018D01*
G37*
G36*
X195395Y206426D02*
X192341Y209480D01*
X203835Y220974D01*
X206889Y217920D01*
X195395Y206426D01*
G37*
G36*
X198987Y202834D02*
X195933Y205888D01*
X207427Y217382D01*
X210481Y214328D01*
X198987Y202834D01*
G37*
G36*
X202399Y199421D02*
X199345Y202475D01*
X210839Y213969D01*
X213893Y210915D01*
X202399Y199421D01*
G37*
G36*
X205991Y195829D02*
X202937Y198883D01*
X214431Y210377D01*
X217485Y207323D01*
X205991Y195829D01*
G37*
G36*
X209583Y192237D02*
X206529Y195291D01*
X218023Y206785D01*
X221077Y203731D01*
X209583Y192237D01*
G37*
G36*
X213175Y188645D02*
X210121Y191699D01*
X221615Y203193D01*
X224669Y200139D01*
X213175Y188645D01*
G37*
G36*
X216588Y185233D02*
X213534Y188287D01*
X225028Y199781D01*
X228082Y196727D01*
X216588Y185233D01*
G37*
G36*
X220180Y181641D02*
X217126Y184695D01*
X228620Y196189D01*
X231674Y193135D01*
X220180Y181641D01*
G37*
G36*
X223772Y178048D02*
X220718Y181102D01*
X232212Y192596D01*
X235266Y189542D01*
X223772Y178048D01*
G37*
G36*
X227185Y174636D02*
X224131Y177690D01*
X235625Y189184D01*
X238679Y186130D01*
X227185Y174636D01*
G37*
G36*
X230777Y171044D02*
X227723Y174098D01*
X239217Y185592D01*
X242271Y182538D01*
X230777Y171044D01*
G37*
G36*
X234369Y167452D02*
X231315Y170506D01*
X242809Y182000D01*
X245863Y178946D01*
X234369Y167452D01*
G37*
G36*
X257537Y178946D02*
X260591Y182000D01*
X272085Y170506D01*
X269031Y167452D01*
X257537Y178946D01*
G37*
G36*
X261129Y182538D02*
X264183Y185592D01*
X275677Y174098D01*
X272623Y171044D01*
X261129Y182538D01*
G37*
G36*
X264721Y186130D02*
X267775Y189184D01*
X279269Y177690D01*
X276215Y174636D01*
X264721Y186130D01*
G37*
G36*
X268134Y189542D02*
X271188Y192596D01*
X282682Y181102D01*
X279628Y178048D01*
X268134Y189542D01*
G37*
G36*
X271726Y193135D02*
X274780Y196189D01*
X286274Y184695D01*
X283220Y181641D01*
X271726Y193135D01*
G37*
G36*
X275318Y196727D02*
X278372Y199781D01*
X289866Y188287D01*
X286812Y185233D01*
X275318Y196727D01*
G37*
G36*
X278731Y200139D02*
X281785Y203193D01*
X293279Y191699D01*
X290225Y188645D01*
X278731Y200139D01*
G37*
G36*
X282323Y203731D02*
X285377Y206785D01*
X296871Y195291D01*
X293817Y192237D01*
X282323Y203731D01*
G37*
G36*
X285915Y207323D02*
X288969Y210377D01*
X300463Y198883D01*
X297409Y195829D01*
X285915Y207323D01*
G37*
G36*
X289507Y210915D02*
X292561Y213969D01*
X304055Y202475D01*
X301001Y199421D01*
X289507Y210915D01*
G37*
G36*
X292919Y214328D02*
X295973Y217382D01*
X307467Y205888D01*
X304413Y202834D01*
X292919Y214328D01*
G37*
G36*
X296511Y217920D02*
X299565Y220974D01*
X311059Y209480D01*
X308005Y206426D01*
X296511Y217920D01*
G37*
G36*
X300104Y221512D02*
X303158Y224566D01*
X314652Y213072D01*
X311598Y210018D01*
X300104Y221512D01*
G37*
G36*
X303516Y224925D02*
X306570Y227979D01*
X318064Y216485D01*
X315010Y213431D01*
X303516Y224925D01*
G37*
G36*
X307108Y228517D02*
X310162Y231571D01*
X321656Y220077D01*
X318602Y217023D01*
X307108Y228517D01*
G37*
G36*
X310700Y232109D02*
X313754Y235163D01*
X325248Y223669D01*
X322194Y220615D01*
X310700Y232109D01*
G37*
G36*
X313754Y246837D02*
X310700Y249891D01*
X322194Y261385D01*
X325248Y258331D01*
X313754Y246837D01*
G37*
G36*
X310162Y250429D02*
X307108Y253483D01*
X318602Y264977D01*
X321656Y261923D01*
X310162Y250429D01*
G37*
G36*
X306570Y254021D02*
X303516Y257075D01*
X315010Y268569D01*
X318064Y265515D01*
X306570Y254021D01*
G37*
G36*
X303158Y257434D02*
X300104Y260488D01*
X311598Y271982D01*
X314652Y268928D01*
X303158Y257434D01*
G37*
G36*
X299565Y261026D02*
X296511Y264080D01*
X308005Y275574D01*
X311059Y272520D01*
X299565Y261026D01*
G37*
G36*
X295973Y264618D02*
X292919Y267672D01*
X304413Y279166D01*
X307467Y276112D01*
X295973Y264618D01*
G37*
G36*
X292561Y268031D02*
X289507Y271085D01*
X301001Y282579D01*
X304055Y279525D01*
X292561Y268031D01*
G37*
G36*
X288969Y271623D02*
X285915Y274677D01*
X297409Y286171D01*
X300463Y283117D01*
X288969Y271623D01*
G37*
G36*
X285377Y275215D02*
X282323Y278269D01*
X293817Y289763D01*
X296871Y286709D01*
X285377Y275215D01*
G37*
G36*
X281785Y278807D02*
X278731Y281861D01*
X290225Y293355D01*
X293279Y290301D01*
X281785Y278807D01*
G37*
G36*
X278372Y282219D02*
X275318Y285273D01*
X286812Y296767D01*
X289866Y293713D01*
X278372Y282219D01*
G37*
G36*
X274780Y285811D02*
X271726Y288865D01*
X283220Y300359D01*
X286274Y297305D01*
X274780Y285811D01*
G37*
G36*
X271188Y289404D02*
X268134Y292458D01*
X279628Y303952D01*
X282682Y300898D01*
X271188Y289404D01*
G37*
G36*
X267775Y292816D02*
X264721Y295870D01*
X276215Y307364D01*
X279269Y304310D01*
X267775Y292816D01*
G37*
G36*
X264183Y296408D02*
X261129Y299462D01*
X272623Y310956D01*
X275677Y307902D01*
X264183Y296408D01*
G37*
G36*
X260591Y300000D02*
X257537Y303054D01*
X269031Y314548D01*
X272085Y311494D01*
X260591Y300000D01*
G37*
G36*
X231315Y311494D02*
X234369Y314548D01*
X245863Y303054D01*
X242809Y300000D01*
X231315Y311494D01*
G37*
G36*
X227723Y307902D02*
X230777Y310956D01*
X242271Y299462D01*
X239217Y296408D01*
X227723Y307902D01*
G37*
G36*
X224131Y304310D02*
X227185Y307364D01*
X238679Y295870D01*
X235625Y292816D01*
X224131Y304310D01*
G37*
G36*
X220718Y300898D02*
X223772Y303952D01*
X235266Y292458D01*
X232212Y289404D01*
X220718Y300898D01*
G37*
G36*
X217126Y297305D02*
X220180Y300359D01*
X231674Y288865D01*
X228620Y285811D01*
X217126Y297305D01*
G37*
G36*
X213534Y293713D02*
X216588Y296767D01*
X228082Y285273D01*
X225028Y282219D01*
X213534Y293713D01*
G37*
G36*
X210121Y290301D02*
X213175Y293355D01*
X224669Y281861D01*
X221615Y278807D01*
X210121Y290301D01*
G37*
G36*
X206529Y286709D02*
X209583Y289763D01*
X221077Y278269D01*
X218023Y275215D01*
X206529Y286709D01*
G37*
G36*
X202937Y283117D02*
X205991Y286171D01*
X217485Y274677D01*
X214431Y271623D01*
X202937Y283117D01*
G37*
G36*
X199345Y279525D02*
X202399Y282579D01*
X213893Y271085D01*
X210839Y268031D01*
X199345Y279525D01*
G37*
G36*
X195933Y276112D02*
X198987Y279166D01*
X210481Y267672D01*
X207427Y264618D01*
X195933Y276112D01*
G37*
G36*
X192341Y272520D02*
X195395Y275574D01*
X206889Y264080D01*
X203835Y261026D01*
X192341Y272520D01*
G37*
G36*
X188748Y268928D02*
X191802Y271982D01*
X203296Y260488D01*
X200242Y257434D01*
X188748Y268928D01*
G37*
G36*
X185336Y265515D02*
X188390Y268569D01*
X199884Y257075D01*
X196830Y254021D01*
X185336Y265515D01*
G37*
G36*
X181744Y261923D02*
X184798Y264977D01*
X196292Y253483D01*
X193238Y250429D01*
X181744Y261923D01*
G37*
G36*
X178152Y258331D02*
X181206Y261385D01*
X192700Y249891D01*
X189646Y246837D01*
X178152Y258331D01*
G37*
D14*
X25800Y451500D03*
X76600Y451500D03*
X331500Y30200D03*
X382300Y30200D03*
X330600Y451500D03*
X381400Y451500D03*
D15*
X224200Y18800D03*
X249600Y18800D03*
X275000Y18800D03*
X275000Y44200D03*
X249600Y44200D03*
X224200Y44200D03*
X221400Y440400D03*
X246800Y440400D03*
X272200Y440400D03*
X272200Y465800D03*
X246800Y465800D03*
X221400Y465800D03*
D14*
X118200Y451500D03*
X169000Y451500D03*
D16*
X24600Y60000D03*
D17*
X69600Y60000D03*
D18*
X54864Y187452D03*
X144780Y190500D03*
X146304Y248412D03*
X188976Y275844D03*
X114300Y283464D03*
X417576Y269748D03*
X364236Y166116D03*
X370332Y172212D03*
X246888Y173736D03*
X284988Y135636D03*
X329184Y129540D03*
X411480Y135636D03*
X473964Y198120D03*
X246888Y190500D03*
X289560Y153924D03*
X397764Y169164D03*
X216408Y143256D03*
X240792Y213360D03*
X271272Y243840D03*
X280416Y326136D03*
X344424Y336804D03*
X271272Y199644D03*
X288036Y222504D03*
X339852Y280416D03*
X342900Y213360D03*
X356616Y227076D03*
X356616Y275844D03*
X352044Y283464D03*
X347472Y268224D03*
X143256Y167640D03*
X192024Y202692D03*
X222504Y115824D03*
X408432Y161544D03*
X54864Y228600D03*
X164592Y222504D03*
X220980Y156972D03*
X176784Y135636D03*
X323088Y92964D03*
X237744Y385572D03*
X170688Y385572D03*
X149352Y367284D03*
X105156Y312420D03*
X323088Y266700D03*
X362712Y233172D03*
X338328Y199644D03*
X278892Y170688D03*
X295656Y237744D03*
X289560Y60960D03*
X313944Y80772D03*
X329184Y167640D03*
X323088Y185928D03*
X53340Y249936D03*
X35052Y268224D03*
X201168Y397764D03*
X48768Y208788D03*
X62484Y330708D03*
X249936Y278892D03*
X256032Y272796D03*
X240792Y278892D03*
X284988Y268224D03*
X79248Y268224D03*
X144780Y230124D03*
X252984Y252984D03*
X128016Y362712D03*
X297180Y411480D03*
X291084Y256032D03*
X301752Y141732D03*
X327660Y274320D03*
X216408Y225552D03*
X155448Y198120D03*
X176784Y175260D03*
X228600Y164592D03*
X265176Y210312D03*
X211836Y243840D03*
X79248Y233172D03*
X92964Y237744D03*
X173736Y268224D03*
X164592Y259080D03*
X182880Y269748D03*
X166116Y242316D03*
X213360Y105156D03*
X286512Y106680D03*
X202692Y246888D03*
X153924Y210312D03*
X134112Y268224D03*
X83820Y368808D03*
X181356Y120396D03*
X211836Y150876D03*
X219456Y425196D03*
X118872Y233172D03*
X141732Y256032D03*
X170688Y310896D03*
X128016Y478536D03*
X326136Y207264D03*
X85344Y227076D03*
X128016Y184404D03*
X262128Y201168D03*
X155448Y222504D03*
X397764Y131064D03*
X211836Y117348D03*
X211836Y135636D03*
X32004Y131064D03*
X164592Y132588D03*
X211836Y163068D03*
X59436Y339852D03*
X59436Y362712D03*
X292608Y324612D03*
X79248Y297180D03*
X237744Y237744D03*
X274320Y217932D03*
X56388Y307848D03*
X152400Y129540D03*
X234696Y202692D03*
X437388Y291084D03*
X403860Y118872D03*
X267462Y3556D03*
X262128Y252984D03*
X196596Y341376D03*
X167640Y409956D03*
M02*
