G04 EAGLE Gerber RS-274X export*
G75*
%MOMM*%
%FSLAX34Y34*%
%LPD*%
%INSolderpaste Top*%
%IPPOS*%
%AMOC8*
5,1,8,0,0,1.08239X$1,22.5*%
G01*
%ADD10R,0.800000X1.200000*%
%ADD11C,0.300000*%
%ADD12R,0.279400X1.473200*%


D10*
G36*
X119707Y329922D02*
X114050Y324265D01*
X105565Y332750D01*
X111222Y338407D01*
X119707Y329922D01*
G37*
G36*
X132435Y342650D02*
X126778Y336993D01*
X118293Y345478D01*
X123950Y351135D01*
X132435Y342650D01*
G37*
G36*
X164607Y184522D02*
X158950Y178865D01*
X150465Y187350D01*
X156122Y193007D01*
X164607Y184522D01*
G37*
G36*
X177335Y197250D02*
X171678Y191593D01*
X163193Y200078D01*
X168850Y205735D01*
X177335Y197250D01*
G37*
G36*
X188478Y318307D02*
X194135Y312650D01*
X185650Y304165D01*
X179993Y309822D01*
X188478Y318307D01*
G37*
G36*
X175750Y331035D02*
X181407Y325378D01*
X172922Y316893D01*
X167265Y322550D01*
X175750Y331035D01*
G37*
G36*
X178478Y290207D02*
X184135Y284550D01*
X175650Y276065D01*
X169993Y281722D01*
X178478Y290207D01*
G37*
G36*
X165750Y302935D02*
X171407Y297278D01*
X162922Y288793D01*
X157265Y294450D01*
X165750Y302935D01*
G37*
G36*
X156378Y321407D02*
X162035Y315750D01*
X153550Y307265D01*
X147893Y312922D01*
X156378Y321407D01*
G37*
G36*
X143650Y334135D02*
X149307Y328478D01*
X140822Y319993D01*
X135165Y325650D01*
X143650Y334135D01*
G37*
G36*
X162922Y352593D02*
X157265Y358250D01*
X165750Y366735D01*
X171407Y361078D01*
X162922Y352593D01*
G37*
G36*
X175650Y339865D02*
X169993Y345522D01*
X178478Y354007D01*
X184135Y348350D01*
X175650Y339865D01*
G37*
G36*
X305507Y312922D02*
X299850Y307265D01*
X291365Y315750D01*
X297022Y321407D01*
X305507Y312922D01*
G37*
G36*
X318235Y325650D02*
X312578Y319993D01*
X304093Y328478D01*
X309750Y334135D01*
X318235Y325650D01*
G37*
G36*
X291522Y92193D02*
X285865Y97850D01*
X294350Y106335D01*
X300007Y100678D01*
X291522Y92193D01*
G37*
G36*
X304250Y79465D02*
X298593Y85122D01*
X307078Y93607D01*
X312735Y87950D01*
X304250Y79465D01*
G37*
G36*
X338407Y71322D02*
X332750Y65665D01*
X324265Y74150D01*
X329922Y79807D01*
X338407Y71322D01*
G37*
G36*
X351135Y84050D02*
X345478Y78393D01*
X336993Y86878D01*
X342650Y92535D01*
X351135Y84050D01*
G37*
G36*
X324978Y113007D02*
X330635Y107350D01*
X322150Y98865D01*
X316493Y104522D01*
X324978Y113007D01*
G37*
G36*
X312250Y125735D02*
X317907Y120078D01*
X309422Y111593D01*
X303765Y117250D01*
X312250Y125735D01*
G37*
G36*
X117522Y301593D02*
X111865Y307250D01*
X120350Y315735D01*
X126007Y310078D01*
X117522Y301593D01*
G37*
G36*
X130250Y288865D02*
X124593Y294522D01*
X133078Y303007D01*
X138735Y297350D01*
X130250Y288865D01*
G37*
G36*
X97307Y379922D02*
X91650Y374265D01*
X83165Y382750D01*
X88822Y388407D01*
X97307Y379922D01*
G37*
G36*
X110035Y392650D02*
X104378Y386993D01*
X95893Y395478D01*
X101550Y401135D01*
X110035Y392650D01*
G37*
G36*
X48407Y143722D02*
X42750Y138065D01*
X34265Y146550D01*
X39922Y152207D01*
X48407Y143722D01*
G37*
G36*
X61135Y156450D02*
X55478Y150793D01*
X46993Y159278D01*
X52650Y164935D01*
X61135Y156450D01*
G37*
G36*
X69922Y338893D02*
X64265Y344550D01*
X72750Y353035D01*
X78407Y347378D01*
X69922Y338893D01*
G37*
G36*
X82650Y326165D02*
X76993Y331822D01*
X85478Y340307D01*
X91135Y334650D01*
X82650Y326165D01*
G37*
G36*
X310078Y158407D02*
X315735Y152750D01*
X307250Y144265D01*
X301593Y149922D01*
X310078Y158407D01*
G37*
G36*
X297350Y171135D02*
X303007Y165478D01*
X294522Y156993D01*
X288865Y162650D01*
X297350Y171135D01*
G37*
X238700Y135800D03*
X256700Y135800D03*
G36*
X141222Y268593D02*
X135565Y274250D01*
X144050Y282735D01*
X149707Y277078D01*
X141222Y268593D01*
G37*
G36*
X153950Y255865D02*
X148293Y261522D01*
X156778Y270007D01*
X162435Y264350D01*
X153950Y255865D01*
G37*
D11*
X252670Y337000D02*
X252670Y344000D01*
X259670Y344000D01*
X259670Y337000D01*
X252670Y337000D01*
X252670Y339850D02*
X259670Y339850D01*
X259670Y342700D02*
X252670Y342700D01*
X235130Y344000D02*
X235130Y337000D01*
X235130Y344000D02*
X242130Y344000D01*
X242130Y337000D01*
X235130Y337000D01*
X235130Y339850D02*
X242130Y339850D01*
X242130Y342700D02*
X235130Y342700D01*
X316399Y356348D02*
X321348Y351399D01*
X316399Y346450D01*
X311450Y351399D01*
X316399Y356348D01*
X319249Y349300D02*
X313549Y349300D01*
X312201Y352150D02*
X320597Y352150D01*
X317747Y355000D02*
X315051Y355000D01*
X328801Y368750D02*
X333750Y363801D01*
X328801Y358852D01*
X323852Y363801D01*
X328801Y368750D01*
X331651Y361702D02*
X325951Y361702D01*
X324603Y364552D02*
X332999Y364552D01*
X330149Y367402D02*
X327453Y367402D01*
X358652Y314801D02*
X363601Y309852D01*
X358652Y314801D02*
X363601Y319750D01*
X368550Y314801D01*
X363601Y309852D01*
X366451Y312702D02*
X360751Y312702D01*
X359403Y315552D02*
X367799Y315552D01*
X364949Y318402D02*
X362253Y318402D01*
X346250Y302399D02*
X351199Y297450D01*
X346250Y302399D02*
X351199Y307348D01*
X356148Y302399D01*
X351199Y297450D01*
X354049Y300300D02*
X348349Y300300D01*
X347001Y303150D02*
X355397Y303150D01*
X352547Y306000D02*
X349851Y306000D01*
X442670Y240200D02*
X442670Y233200D01*
X442670Y240200D02*
X449670Y240200D01*
X449670Y233200D01*
X442670Y233200D01*
X442670Y236050D02*
X449670Y236050D01*
X449670Y238900D02*
X442670Y238900D01*
X425130Y240200D02*
X425130Y233200D01*
X425130Y240200D02*
X432130Y240200D01*
X432130Y233200D01*
X425130Y233200D01*
X425130Y236050D02*
X432130Y236050D01*
X432130Y238900D02*
X425130Y238900D01*
D10*
G36*
X157078Y149807D02*
X162735Y144150D01*
X154250Y135665D01*
X148593Y141322D01*
X157078Y149807D01*
G37*
G36*
X144350Y162535D02*
X150007Y156878D01*
X141522Y148393D01*
X135865Y154050D01*
X144350Y162535D01*
G37*
G36*
X87078Y297907D02*
X92735Y292250D01*
X84250Y283765D01*
X78593Y289422D01*
X87078Y297907D01*
G37*
G36*
X74350Y310635D02*
X80007Y304978D01*
X71522Y296493D01*
X65865Y302150D01*
X74350Y310635D01*
G37*
G36*
X358593Y363078D02*
X364250Y368735D01*
X372735Y360250D01*
X367078Y354593D01*
X358593Y363078D01*
G37*
G36*
X345865Y350350D02*
X351522Y356007D01*
X360007Y347522D01*
X354350Y341865D01*
X345865Y350350D01*
G37*
G36*
X361178Y181407D02*
X366835Y175750D01*
X358350Y167265D01*
X352693Y172922D01*
X361178Y181407D01*
G37*
G36*
X348450Y194135D02*
X354107Y188478D01*
X345622Y179993D01*
X339965Y185650D01*
X348450Y194135D01*
G37*
G36*
X391407Y170722D02*
X385750Y165065D01*
X377265Y173550D01*
X382922Y179207D01*
X391407Y170722D01*
G37*
G36*
X404135Y183450D02*
X398478Y177793D01*
X389993Y186278D01*
X395650Y191935D01*
X404135Y183450D01*
G37*
G36*
X191107Y151522D02*
X185450Y145865D01*
X176965Y154350D01*
X182622Y160007D01*
X191107Y151522D01*
G37*
G36*
X203835Y164250D02*
X198178Y158593D01*
X189693Y167078D01*
X195350Y172735D01*
X203835Y164250D01*
G37*
G36*
X109993Y370078D02*
X115650Y375735D01*
X124135Y367250D01*
X118478Y361593D01*
X109993Y370078D01*
G37*
G36*
X97265Y357350D02*
X102922Y363007D01*
X111407Y354522D01*
X105750Y348865D01*
X97265Y357350D01*
G37*
G36*
X321407Y296422D02*
X315750Y290765D01*
X307265Y299250D01*
X312922Y304907D01*
X321407Y296422D01*
G37*
G36*
X334135Y309150D02*
X328478Y303493D01*
X319993Y311978D01*
X325650Y317635D01*
X334135Y309150D01*
G37*
G36*
X351678Y131407D02*
X357335Y125750D01*
X348850Y117265D01*
X343193Y122922D01*
X351678Y131407D01*
G37*
G36*
X338950Y144135D02*
X344607Y138478D01*
X336122Y129993D01*
X330465Y135650D01*
X338950Y144135D01*
G37*
D12*
G36*
X181206Y221693D02*
X179230Y223669D01*
X189646Y234085D01*
X191622Y232109D01*
X181206Y221693D01*
G37*
G36*
X184798Y218101D02*
X182822Y220077D01*
X193238Y230493D01*
X195214Y228517D01*
X184798Y218101D01*
G37*
G36*
X188390Y214509D02*
X186414Y216485D01*
X196830Y226901D01*
X198806Y224925D01*
X188390Y214509D01*
G37*
G36*
X191802Y211096D02*
X189826Y213072D01*
X200242Y223488D01*
X202218Y221512D01*
X191802Y211096D01*
G37*
G36*
X195395Y207504D02*
X193419Y209480D01*
X203835Y219896D01*
X205811Y217920D01*
X195395Y207504D01*
G37*
G36*
X198987Y203912D02*
X197011Y205888D01*
X207427Y216304D01*
X209403Y214328D01*
X198987Y203912D01*
G37*
G36*
X202399Y200499D02*
X200423Y202475D01*
X210839Y212891D01*
X212815Y210915D01*
X202399Y200499D01*
G37*
G36*
X205991Y196907D02*
X204015Y198883D01*
X214431Y209299D01*
X216407Y207323D01*
X205991Y196907D01*
G37*
G36*
X209583Y193315D02*
X207607Y195291D01*
X218023Y205707D01*
X219999Y203731D01*
X209583Y193315D01*
G37*
G36*
X213175Y189723D02*
X211199Y191699D01*
X221615Y202115D01*
X223591Y200139D01*
X213175Y189723D01*
G37*
G36*
X216588Y186311D02*
X214612Y188287D01*
X225028Y198703D01*
X227004Y196727D01*
X216588Y186311D01*
G37*
G36*
X220180Y182719D02*
X218204Y184695D01*
X228620Y195111D01*
X230596Y193135D01*
X220180Y182719D01*
G37*
G36*
X223772Y179126D02*
X221796Y181102D01*
X232212Y191518D01*
X234188Y189542D01*
X223772Y179126D01*
G37*
G36*
X227185Y175714D02*
X225209Y177690D01*
X235625Y188106D01*
X237601Y186130D01*
X227185Y175714D01*
G37*
G36*
X230777Y172122D02*
X228801Y174098D01*
X239217Y184514D01*
X241193Y182538D01*
X230777Y172122D01*
G37*
G36*
X234369Y168530D02*
X232393Y170506D01*
X242809Y180922D01*
X244785Y178946D01*
X234369Y168530D01*
G37*
G36*
X258615Y178946D02*
X260591Y180922D01*
X271007Y170506D01*
X269031Y168530D01*
X258615Y178946D01*
G37*
G36*
X262207Y182538D02*
X264183Y184514D01*
X274599Y174098D01*
X272623Y172122D01*
X262207Y182538D01*
G37*
G36*
X265799Y186130D02*
X267775Y188106D01*
X278191Y177690D01*
X276215Y175714D01*
X265799Y186130D01*
G37*
G36*
X269212Y189542D02*
X271188Y191518D01*
X281604Y181102D01*
X279628Y179126D01*
X269212Y189542D01*
G37*
G36*
X272804Y193135D02*
X274780Y195111D01*
X285196Y184695D01*
X283220Y182719D01*
X272804Y193135D01*
G37*
G36*
X276396Y196727D02*
X278372Y198703D01*
X288788Y188287D01*
X286812Y186311D01*
X276396Y196727D01*
G37*
G36*
X279809Y200139D02*
X281785Y202115D01*
X292201Y191699D01*
X290225Y189723D01*
X279809Y200139D01*
G37*
G36*
X283401Y203731D02*
X285377Y205707D01*
X295793Y195291D01*
X293817Y193315D01*
X283401Y203731D01*
G37*
G36*
X286993Y207323D02*
X288969Y209299D01*
X299385Y198883D01*
X297409Y196907D01*
X286993Y207323D01*
G37*
G36*
X290585Y210915D02*
X292561Y212891D01*
X302977Y202475D01*
X301001Y200499D01*
X290585Y210915D01*
G37*
G36*
X293997Y214328D02*
X295973Y216304D01*
X306389Y205888D01*
X304413Y203912D01*
X293997Y214328D01*
G37*
G36*
X297589Y217920D02*
X299565Y219896D01*
X309981Y209480D01*
X308005Y207504D01*
X297589Y217920D01*
G37*
G36*
X301182Y221512D02*
X303158Y223488D01*
X313574Y213072D01*
X311598Y211096D01*
X301182Y221512D01*
G37*
G36*
X304594Y224925D02*
X306570Y226901D01*
X316986Y216485D01*
X315010Y214509D01*
X304594Y224925D01*
G37*
G36*
X308186Y228517D02*
X310162Y230493D01*
X320578Y220077D01*
X318602Y218101D01*
X308186Y228517D01*
G37*
G36*
X311778Y232109D02*
X313754Y234085D01*
X324170Y223669D01*
X322194Y221693D01*
X311778Y232109D01*
G37*
G36*
X313754Y247915D02*
X311778Y249891D01*
X322194Y260307D01*
X324170Y258331D01*
X313754Y247915D01*
G37*
G36*
X310162Y251507D02*
X308186Y253483D01*
X318602Y263899D01*
X320578Y261923D01*
X310162Y251507D01*
G37*
G36*
X306570Y255099D02*
X304594Y257075D01*
X315010Y267491D01*
X316986Y265515D01*
X306570Y255099D01*
G37*
G36*
X303158Y258512D02*
X301182Y260488D01*
X311598Y270904D01*
X313574Y268928D01*
X303158Y258512D01*
G37*
G36*
X299565Y262104D02*
X297589Y264080D01*
X308005Y274496D01*
X309981Y272520D01*
X299565Y262104D01*
G37*
G36*
X295973Y265696D02*
X293997Y267672D01*
X304413Y278088D01*
X306389Y276112D01*
X295973Y265696D01*
G37*
G36*
X292561Y269109D02*
X290585Y271085D01*
X301001Y281501D01*
X302977Y279525D01*
X292561Y269109D01*
G37*
G36*
X288969Y272701D02*
X286993Y274677D01*
X297409Y285093D01*
X299385Y283117D01*
X288969Y272701D01*
G37*
G36*
X285377Y276293D02*
X283401Y278269D01*
X293817Y288685D01*
X295793Y286709D01*
X285377Y276293D01*
G37*
G36*
X281785Y279885D02*
X279809Y281861D01*
X290225Y292277D01*
X292201Y290301D01*
X281785Y279885D01*
G37*
G36*
X278372Y283297D02*
X276396Y285273D01*
X286812Y295689D01*
X288788Y293713D01*
X278372Y283297D01*
G37*
G36*
X274780Y286889D02*
X272804Y288865D01*
X283220Y299281D01*
X285196Y297305D01*
X274780Y286889D01*
G37*
G36*
X271188Y290482D02*
X269212Y292458D01*
X279628Y302874D01*
X281604Y300898D01*
X271188Y290482D01*
G37*
G36*
X267775Y293894D02*
X265799Y295870D01*
X276215Y306286D01*
X278191Y304310D01*
X267775Y293894D01*
G37*
G36*
X264183Y297486D02*
X262207Y299462D01*
X272623Y309878D01*
X274599Y307902D01*
X264183Y297486D01*
G37*
G36*
X260591Y301078D02*
X258615Y303054D01*
X269031Y313470D01*
X271007Y311494D01*
X260591Y301078D01*
G37*
G36*
X232393Y311494D02*
X234369Y313470D01*
X244785Y303054D01*
X242809Y301078D01*
X232393Y311494D01*
G37*
G36*
X228801Y307902D02*
X230777Y309878D01*
X241193Y299462D01*
X239217Y297486D01*
X228801Y307902D01*
G37*
G36*
X225209Y304310D02*
X227185Y306286D01*
X237601Y295870D01*
X235625Y293894D01*
X225209Y304310D01*
G37*
G36*
X221796Y300898D02*
X223772Y302874D01*
X234188Y292458D01*
X232212Y290482D01*
X221796Y300898D01*
G37*
G36*
X218204Y297305D02*
X220180Y299281D01*
X230596Y288865D01*
X228620Y286889D01*
X218204Y297305D01*
G37*
G36*
X214612Y293713D02*
X216588Y295689D01*
X227004Y285273D01*
X225028Y283297D01*
X214612Y293713D01*
G37*
G36*
X211199Y290301D02*
X213175Y292277D01*
X223591Y281861D01*
X221615Y279885D01*
X211199Y290301D01*
G37*
G36*
X207607Y286709D02*
X209583Y288685D01*
X219999Y278269D01*
X218023Y276293D01*
X207607Y286709D01*
G37*
G36*
X204015Y283117D02*
X205991Y285093D01*
X216407Y274677D01*
X214431Y272701D01*
X204015Y283117D01*
G37*
G36*
X200423Y279525D02*
X202399Y281501D01*
X212815Y271085D01*
X210839Y269109D01*
X200423Y279525D01*
G37*
G36*
X197011Y276112D02*
X198987Y278088D01*
X209403Y267672D01*
X207427Y265696D01*
X197011Y276112D01*
G37*
G36*
X193419Y272520D02*
X195395Y274496D01*
X205811Y264080D01*
X203835Y262104D01*
X193419Y272520D01*
G37*
G36*
X189826Y268928D02*
X191802Y270904D01*
X202218Y260488D01*
X200242Y258512D01*
X189826Y268928D01*
G37*
G36*
X186414Y265515D02*
X188390Y267491D01*
X198806Y257075D01*
X196830Y255099D01*
X186414Y265515D01*
G37*
G36*
X182822Y261923D02*
X184798Y263899D01*
X195214Y253483D01*
X193238Y251507D01*
X182822Y261923D01*
G37*
G36*
X179230Y258331D02*
X181206Y260307D01*
X191622Y249891D01*
X189646Y247915D01*
X179230Y258331D01*
G37*
M02*
