M48
;GenerationSoftware,Autodesk,EAGLE,9.6.2*%
;CreationDate,2025-02-20T23:21:22Z*%
FMAT,2
ICI,OFF
METRIC,TZ,000.000
T5C0.330
T4C1.016
T3C1.600
T2C1.800
T1C3.000
%
G90
M71
T1
X46000Y45000
X46000Y3000
X16000Y3000
T2
X6960Y6000
T3
X2460Y6000
T4
X16900Y45150
X7660Y45150
X2580Y45150
X33150Y3020
X38230Y3020
X33060Y45150
X38140Y45150
X22420Y1880
X24960Y1880
X27500Y1880
X27500Y4420
X24960Y4420
X22420Y4420
X22140Y44040
X24680Y44040
X27220Y44040
X27220Y46580
X24680Y46580
X22140Y46580
X11820Y45150
T5
X35662Y22708
X35662Y27584
X35204Y28346
X34747Y26822
X14326Y16764
X19202Y20269
X22250Y11582
X40843Y16154
X5486Y22860
X16459Y22250
X22098Y15697
X17678Y13564
X32309Y9296
X23774Y38557
X17069Y38557
X14935Y36728
X10516Y31242
X32309Y26670
X36271Y23317
X33833Y19964
X27889Y17069
X29566Y23774
X28956Y6096
X31394Y8077
X32918Y16764
X32309Y18593
X5334Y24994
X3505Y26822
X20117Y39776
X4877Y20879
X6248Y33071
X24994Y27889
X25603Y27280
X24079Y27889
X28499Y26822
X7925Y26822
X14478Y23012
X25298Y25298
X12802Y36271
X29718Y41148
X29108Y25603
X30175Y14173
X32766Y27432
X21641Y22555
X15545Y19812
X17678Y17526
X22860Y16459
X27127Y24384
X21184Y24384
X7925Y23317
X9296Y23774
X17374Y26822
X16459Y25908
X18288Y26975
X16612Y24232
X21336Y10516
X28651Y10668
X20269Y24689
X15392Y21031
X13411Y26822
X8382Y36881
X18136Y12040
X21184Y15088
X21946Y42520
X11887Y23317
X14173Y25603
X17069Y31090
X12802Y47854
X32614Y20726
X8534Y22708
X12802Y18440
X26213Y20117
X15545Y22250
X39776Y13106
X21184Y11735
X21184Y13564
X3200Y13106
X16459Y13259
X21184Y16307
X5944Y33985
X5944Y36271
X29261Y32461
X5486Y18745
X23774Y23774
X27432Y21793
X5639Y30785
X15240Y12954
X23470Y20269
X43739Y29108
X40386Y11887
X26746Y356
X26213Y25298
X19660Y34138
X16764Y40996
X14478Y19050
X14630Y24841
X18898Y27584
X11430Y28346
X41758Y26975
X36424Y16612
X26518Y21031
X37033Y17221
X24689Y17374
X28499Y13564
X32918Y12954
X41148Y13564
X47396Y19812
X24689Y19050
X28956Y15392
X39776Y16916
X21641Y14326
X24079Y21336
X28042Y32614
X34442Y33680
X27127Y19964
X28804Y22250
X33985Y28042
X34290Y21336
X7925Y29718
M30